<?xml version="1.0" encoding="utf-8"?>
<!-- Generator: Adobe Illustrator 21.1.0, SVG Export Plug-In . SVG Version: 6.00 Build 0)  -->
<svg version="1.1" id="Layer_1" xmlns="http://www.w3.org/2000/svg" xmlns:xlink="http://www.w3.org/1999/xlink" x="0px" y="0px"
	 viewBox="0 0 500 500" style="enable-background:new 0 0 500 500;" xml:space="preserve">
<style type="text/css">
	.st0{fill:none;}
	.st1{fill:url(#SVGID_1_);}
	.st2{fill:url(#SVGID_2_);}
	.st3{fill:url(#SVGID_3_);}
	.st4{fill:url(#SVGID_4_);}
	.st5{fill:#60A685;}
</style>
<g>
	<path class="st0" d="M474.1,335.1c0.1,0,0.3,0,0.4,0.1c0,0,0,0.1,0,0.1c-0.5,0.4-1,0.8-1.5,1.2l-1.9-1.4
		C472.1,335.1,473.1,335.1,474.1,335.1z"/>
	<path class="st0" d="M468.9,327.7c0.1,0.1,0.2,0.1,0.3,0.2c1.5,1.5,3.1,2.9,4.6,4.4h-5c0-1.4,0-2.8,0-4.2
		C468.7,328,468.8,327.8,468.9,327.7z"/>
	<path class="st0" d="M474.8,337c0.5-0.3,0.9-0.7,1.4-1c0,0,0.1,0.1,0.1,0.1c0.2,1,0.3,2.1,0.4,3.1l-2.5-1.8
		C474.4,337.2,474.6,337.1,474.8,337z"/>
	<path class="st0" d="M466.9,327.9c0.1-0.1,0.2-0.1,0.3-0.1c0,0,0.1,0.2,0.1,0.3c0,1.4,0,2.8,0,4.2l-2.8-2.1
		C465.3,329.4,466.1,328.6,466.9,327.9z"/>
	<path class="st0" d="M459.3,326.4h0.3c0,0.1,0,0.2,0,0.2L459.3,326.4z"/>
	<path class="st0" d="M461.1,326.9c0-0.2,0.1-0.4,0.1-0.5h5.2c-1,1-2,1.9-3.1,2.9l-2.3-1.7C461,327.3,461.1,327.1,461.1,326.9z"/>
	<path class="st0" d="M474.9,326.8c0.2,1.6,0.5,3.1,0.7,4.7c0,0.1,0,0.2-0.1,0.3c-0.1,0-0.1,0.1-0.2,0.1c-0.2-0.3-0.4-0.5-0.6-0.8
		c-1.7-1.6-3.3-3.2-5-4.8h5.2C474.9,326.5,474.9,326.6,474.9,326.8z"/>
	<path class="st0" d="M470.7,307.6h1.4c0.2,0.9,0.4,2.2,0.5,3.4l-3.1-1.9C470,308.6,470.3,308.1,470.7,307.6z"/>
	<polygon class="st0" points="396.2,252.2 379.2,252.2 378.4,251.7 395.3,251.7 	"/>
	<polygon class="st0" points="339.2,318.1 305.3,318.1 303.4,313.3 336.2,313.3 	"/>
	<polygon class="st0" points="376.4,252.2 359.1,252.2 358.4,251.7 375.5,251.7 	"/>
	<polygon class="st0" points="400,254.3 382.5,254.3 381.6,253.7 398.9,253.7 	"/>
	<polygon class="st0" points="435.8,252.2 419.4,252.2 418.4,251.7 434.6,251.7 	"/>
	<polygon class="st0" points="440.7,254.3 423.8,254.3 422.5,253.7 439.3,253.7 	"/>
	<polygon class="st0" points="420.4,254.3 403.2,254.3 402.1,253.7 419.1,253.7 	"/>
	<polygon class="st0" points="416,252.2 399.3,252.2 398.4,251.7 414.9,251.7 	"/>
	<polygon class="st0" points="359.4,254.3 341.3,254.3 340.6,253.7 358.6,253.7 	"/>
	<polygon class="st0" points="301.3,258.9 281.4,258.9 281.1,258.1 300.7,258.1 	"/>
	<polygon class="st0" points="280.2,255.8 299.3,255.8 299.8,256.6 280.4,256.6 	"/>
	<polygon class="st0" points="260.5,262.9 281.4,262.9 281.8,264 260.6,264 	"/>
	<polygon class="st0" points="380.7,324.9 345.4,324.9 342,319.6 376,319.6 	"/>
	<polygon class="st0" points="339.1,254.3 320.7,254.3 320.2,253.7 338.4,253.7 	"/>
	<polygon class="st0" points="318.7,254.3 300.1,254.3 299.7,253.7 318.2,253.7 	"/>
	<polygon class="st0" points="356.5,252.2 338.9,252.2 338.4,251.7 355.8,251.7 	"/>
	<polygon class="st0" points="336.7,252.2 318.8,252.2 318.4,251.7 336.1,251.7 	"/>
	<polygon class="st0" points="382.6,291.4 379.5,288.6 405.8,288.6 409.5,291.4 	"/>
	<polygon class="st0" points="398.4,283.1 373.4,283.1 371,280.9 395.4,280.9 	"/>
	<polygon class="st0" points="385.4,295.9 357.2,295.9 354.5,292.9 382,292.9 	"/>
	<polygon class="st0" points="405.9,255.8 423.5,255.8 425,256.6 407.2,256.6 	"/>
	<polygon class="st0" points="403.7,287.1 377.9,287.1 375.1,284.6 400.4,284.6 	"/>
	<polygon class="st0" points="284.1,269.6 261.6,269.6 261.3,268.2 283.5,268.2 	"/>
	<polygon class="st0" points="374.7,318.1 341,318.1 338,313.3 370.6,313.3 	"/>
	<polygon class="st0" points="337,311.8 334.3,307.6 365.5,307.6 369.2,311.8 	"/>
	<polygon class="st0" points="396.8,306.1 366.2,306.1 362.9,302.3 392.6,302.3 	"/>
	<polygon class="st0" points="390.9,300.8 361.5,300.8 358.6,297.4 387.1,297.4 	"/>
	<polygon class="st0" points="422.6,266.7 402.2,266.7 400.2,265.5 420.4,265.5 	"/>
	<polygon class="st0" points="434.9,261.4 416,261.4 414.2,260.4 432.9,260.4 	"/>
	<polygon class="st0" points="395.9,279.4 393.2,277.5 416.5,277.5 419.6,279.4 	"/>
	<polygon class="st0" points="429.8,258.9 411.5,258.9 410,258.1 428,258.1 	"/>
	<polygon class="st0" points="396.1,262.9 415.6,262.9 417.6,264 397.8,264 	"/>
	<polygon class="st0" points="427.9,269.6 406.8,269.6 404.6,268.2 425.4,268.2 	"/>
	<polygon class="st0" points="388.8,274.2 411.3,274.2 414.1,276 391.2,276 	"/>
	<polygon class="st0" points="409.2,271.1 430.7,271.1 433.6,272.7 411.7,272.7 	"/>
	<polygon class="st0" points="260.9,265.5 282.4,265.5 282.9,266.7 261.1,266.7 	"/>
	<polygon class="st0" points="137.7,271.1 136.1,272.7 113.6,272.7 115.6,271.1 	"/>
	<polygon class="st0" points="95.6,268.2 116.8,268.2 115,269.6 93.5,269.6 	"/>
	<polygon class="st0" points="134.6,274.2 132.8,276 109.5,276 111.7,274.2 	"/>
	<polygon class="st0" points="120.2,265.5 118.7,266.7 97.8,266.7 99.7,265.5 	"/>
	<polygon class="st0" points="123.5,262.9 122.1,264 101.9,264 103.6,262.9 	"/>
	<polygon class="st0" points="107.6,277.5 131.3,277.5 129.3,279.4 105.1,279.4 	"/>
	<polygon class="st0" points="111.3,255.8 110.3,256.6 92.1,256.6 93.3,255.8 	"/>
	<polygon class="st0" points="85.5,260.4 104.5,260.4 103.1,261.4 83.8,261.4 	"/>
	<polygon class="st0" points="108,258.1 106.8,258.9 88.1,258.9 89.5,258.1 	"/>
	<polygon class="st0" points="202.2,306.1 203.4,302.3 233.7,302.3 233.4,306.1 	"/>
	<polygon class="st0" points="174.3,297.4 203.3,297.4 202.3,300.8 172.4,300.8 	"/>
	<polygon class="st0" points="234,319.6 268.4,319.6 269.3,324.9 233.6,324.9 	"/>
	<polygon class="st0" points="154.6,280.9 152.9,283.1 127.6,283.1 129.9,280.9 	"/>
	<polygon class="st0" points="303.7,318.1 269.7,318.1 268.9,313.3 301.8,313.3 	"/>
	<polygon class="st0" points="151.7,284.6 149.8,287.1 123.6,287.1 126.1,284.6 	"/>
	<polygon class="st0" points="175,292.9 173.4,295.9 144.8,295.9 147.2,292.9 	"/>
	<polygon class="st0" points="122.1,288.6 148.6,288.6 146.5,291.4 119.3,291.4 	"/>
	<polygon class="st0" points="154.8,254.3 136.6,254.3 137.4,253.7 155.4,253.7 	"/>
	<polygon class="st0" points="214.4,261.4 193.9,261.4 194.4,260.4 214.7,260.4 	"/>
	<polygon class="st0" points="215.4,258.1 215.1,258.9 195.2,258.9 195.7,258.1 	"/>
	<polygon class="st0" points="194.8,256.6 175.6,256.6 176.1,255.8 195.2,255.8 	"/>
	<polygon class="st0" points="177.5,251.7 177.1,252.2 159.1,252.2 159.6,251.7 	"/>
	<polygon class="st0" points="76.8,253.7 94,253.7 92.9,254.3 75.6,254.3 	"/>
	<polygon class="st0" points="262.3,283.1 236.5,283.1 236.7,280.9 262,280.9 	"/>
	<polygon class="st0" points="236.6,260.4 236.5,261.4 215.9,261.4 216.2,260.4 	"/>
	<polygon class="st0" points="236.8,258.1 236.7,258.9 216.7,258.9 217,258.1 	"/>
	<polygon class="st0" points="216.1,255.8 215.8,256.6 196.5,256.6 196.9,255.8 	"/>
	<polygon class="st0" points="134.2,254.3 116.3,254.3 117.2,253.7 135,253.7 	"/>
	<polygon class="st0" points="113.6,254.3 95.9,254.3 97,253.7 114.5,253.7 	"/>
	<polygon class="st0" points="117.5,251.7 116.7,252.2 99.6,252.2 100.5,251.7 	"/>
	<polygon class="st0" points="97.5,251.7 96.6,252.2 79.8,252.2 80.8,251.7 	"/>
	<polygon class="st0" points="157.5,251.7 157,252.2 139.3,252.2 139.9,251.7 	"/>
	<polygon class="st0" points="175.9,253.7 175.4,254.3 156.9,254.3 157.6,253.7 	"/>
	<polygon class="st0" points="137.5,251.7 136.8,252.2 119.4,252.2 120.2,251.7 	"/>
	<polygon class="st0" points="261.4,277.5 261.7,279.4 236.8,279.4 236.9,277.5 	"/>
	<polygon class="st0" points="379.7,254.3 361.9,254.3 361.1,253.7 378.7,253.7 	"/>
	<polygon class="st0" points="237.2,251.7 237.2,252.2 218.7,252.2 218.9,251.7 	"/>
	<polygon class="st0" points="260.3,271.1 260.6,272.7 237.3,272.7 237.4,271.1 	"/>
	<polygon class="st0" points="280.4,260.4 280.8,261.4 260.2,261.4 260,260.4 	"/>
	<polygon class="st0" points="261.1,276 237,276 237.2,274.2 260.8,274.2 	"/>
	<polygon class="st0" points="259.6,258.1 279.4,258.1 279.8,258.9 259.8,258.9 	"/>
	<polygon class="st0" points="315.1,250.2 297.5,250.2 297.2,249.8 314.7,249.8 	"/>
	<polygon class="st0" points="334.4,250.2 317.1,250.2 316.7,249.8 334,249.8 	"/>
	<polygon class="st0" points="316.8,252.2 298.8,252.2 298.4,251.7 316.4,251.7 	"/>
	<polygon class="st0" points="197.4,251.7 197.1,252.2 179,252.2 179.4,251.7 	"/>
	<polygon class="st0" points="198.4,249.8 198.2,250.2 180.5,250.2 180.9,249.8 	"/>
	<polygon class="st0" points="237.1,253.7 237,254.3 218.1,254.3 218.3,253.7 	"/>
	<polygon class="st0" points="351.2,248.3 334.6,248.3 334.2,248 350.8,248 	"/>
	<polygon class="st0" points="196,254.3 177.3,254.3 177.8,253.7 196.3,253.7 	"/>
	<polygon class="st0" points="216.5,254.3 197.7,254.3 198,253.7 216.7,253.7 	"/>
	<polygon class="st0" points="217.3,251.7 217.2,252.2 198.8,252.2 199.1,251.7 	"/>
	<polygon class="st0" points="236.9,256.6 217.4,256.6 217.6,255.8 236.9,255.8 	"/>
	<polygon class="st0" points="217.9,249.8 217.8,250.2 199.9,250.2 200.2,249.8 	"/>
	<polygon class="st0" points="411.9,250.2 395.6,250.2 394.9,249.8 411,249.8 	"/>
	<polygon class="st0" points="426.9,255.8 444.1,255.8 445.8,256.6 428.4,256.6 	"/>
	<polygon class="st0" points="353.8,250.2 336.7,250.2 336.2,249.8 353.2,249.8 	"/>
	<polygon class="st0" points="451.2,258.9 433.2,258.9 431.5,258.1 449.2,258.1 	"/>
	<polygon class="st0" points="455.6,252.2 439.6,252.2 438.4,251.7 454.3,251.7 	"/>
	<polygon class="st0" points="456.8,261.4 438.3,261.4 436.3,260.4 454.6,260.4 	"/>
	<polygon class="st0" points="445.7,248.3 430.5,248.3 429.8,248 444.8,248 	"/>
	<polygon class="st0" points="445.9,266.7 425.8,266.7 423.5,265.5 443.3,265.5 	"/>
	<polygon class="st0" points="418.7,262.9 438,262.9 440.2,264 420.7,264 	"/>
	<polygon class="st0" points="461,254.3 444.4,254.3 443,253.7 459.4,253.7 	"/>
	<polygon class="st0" points="389,248.3 372.9,248.3 372.4,248 388.4,248 	"/>
	<polygon class="st0" points="373.2,250.2 356.3,250.2 355.8,249.8 372.5,249.8 	"/>
	<polygon class="st0" points="392.5,250.2 376,250.2 375.3,249.8 391.7,249.8 	"/>
	<polygon class="st0" points="370.1,248.3 353.7,248.3 353.3,248 369.6,248 	"/>
	<polygon class="st0" points="431.2,250.2 415.3,250.2 414.4,249.8 430.2,249.8 	"/>
	<polygon class="st0" points="426.8,248.3 411.3,248.3 410.6,248 426,248 	"/>
	<polygon class="st0" points="407.9,248.3 392.1,248.3 391.5,248 407.2,248 	"/>
	<polygon class="st0" points="178.9,249.8 178.6,250.2 161.1,250.2 161.6,249.8 	"/>
	<polygon class="st0" points="167,307.6 164.7,311.8 132.4,311.8 135.7,307.6 	"/>
	<polygon class="st0" points="108.1,302.3 137.9,302.3 135,306.1 104.2,306.1 	"/>
	<polygon class="st0" points="161.3,248 161,248.3 144.2,248.3 144.6,248 	"/>
	<polygon class="st0" points="93.6,288.6 119.9,288.6 117.1,291.4 90.1,291.4 	"/>
	<polygon class="st0" points="141.8,297.4 139.1,300.8 109.6,300.8 113.1,297.4 	"/>
	<polygon class="st0" points="145.3,292.9 142.9,295.9 114.6,295.9 117.7,292.9 	"/>
	<polygon class="st0" points="113.2,271.1 111.2,272.7 88.9,272.7 91.3,271.1 	"/>
	<polygon class="st0" points="109.3,274.2 107.1,276 84,276 86.7,274.2 	"/>
	<polygon class="st0" points="81.8,277.5 105.2,277.5 102.7,279.4 78.8,279.4 	"/>
	<polygon class="st0" points="127.7,280.9 125.5,283.1 100.4,283.1 103.2,280.9 	"/>
	<polygon class="st0" points="171.6,302.3 201.8,302.3 200.7,306.1 169.5,306.1 	"/>
	<polygon class="st0" points="343.6,324.9 308.1,324.9 305.9,319.6 340.2,319.6 	"/>
	<polygon class="st0" points="200.5,311.8 201.8,307.6 233.3,307.6 233,311.8 	"/>
	<polygon class="st0" points="270,319.6 304.3,319.6 306.5,324.9 270.8,324.9 	"/>
	<polygon class="st0" points="233.5,326.4 269.6,326.4 270.6,332.3 233.1,332.3 	"/>
	<polygon class="st0" points="166.4,311.8 168.7,307.6 200.2,307.6 198.9,311.8 	"/>
	<polygon class="st0" points="127.6,318.1 131.2,313.3 163.9,313.3 161.3,318.1 	"/>
	<polygon class="st0" points="163,318.1 165.6,313.3 198.4,313.3 197,318.1 	"/>
	<polygon class="st0" points="124,284.6 121.4,287.1 95.5,287.1 98.6,284.6 	"/>
	<polygon class="st0" points="119.7,250.2 103.1,250.2 103.8,249.8 120.4,249.8 	"/>
	<polygon class="st0" points="104,248 103.4,248.3 87.5,248.3 88.2,248 	"/>
	<polygon class="st0" points="123.1,248 122.6,248.3 106.4,248.3 107,248 	"/>
	<polygon class="st0" points="72,268.2 92.9,268.2 90.8,269.6 69.5,269.6 	"/>
	<polygon class="st0" points="159.4,249.8 159,250.2 141.8,250.2 142.3,249.8 	"/>
	<polygon class="st0" points="139.4,250.2 122.4,250.2 123,249.8 139.9,249.8 	"/>
	<polygon class="st0" points="84.8,248 84.2,248.3 68.6,248.3 69.3,248 	"/>
	<polygon class="st0" points="142.2,248 141.8,248.3 125.3,248.3 125.8,248 	"/>
	<polygon class="st0" points="100.1,250.2 83.7,250.2 84.6,249.8 100.8,249.8 	"/>
	<polygon class="st0" points="63.7,260.4 82.5,260.4 80.8,261.4 61.8,261.4 	"/>
	<polygon class="st0" points="100.9,262.9 99.2,264 79.3,264 81.2,262.9 	"/>
	<polygon class="st0" points="97,265.5 95.1,266.7 74.6,266.7 76.7,265.5 	"/>
	<polygon class="st0" points="86.5,258.1 85.1,258.9 66.7,258.9 68.3,258.1 	"/>
	<polygon class="st0" points="90.3,255.8 89.1,256.6 71.2,256.6 72.7,255.8 	"/>
	<polygon class="st0" points="77.5,251.7 76.5,252.2 60,252.2 61.1,251.7 	"/>
	<polygon class="st0" points="81.2,249.8 80.4,250.2 64.4,250.2 65.3,249.8 	"/>
	<polygon class="st0" points="56.6,253.7 73.5,253.7 72.3,254.3 55.3,254.3 	"/>
	<polygon class="st0" points="373.4,262.9 393.3,262.9 395,264 374.9,264 	"/>
	<polygon class="st0" points="314.9,277.5 339,277.5 340.8,279.4 316.2,279.4 	"/>
	<polygon class="st0" points="356.1,269.6 334.1,269.6 332.9,268.2 354.5,268.2 	"/>
	<polygon class="st0" points="316.8,283.1 291.2,283.1 290.3,280.9 315.4,280.9 	"/>
	<polygon class="st0" points="335.4,271.1 357.8,271.1 359.5,272.7 336.8,272.7 	"/>
	<polygon class="st0" points="312.8,274.2 336.1,274.2 337.7,276 314,276 	"/>
	<polygon class="st0" points="319.4,287.1 292.8,287.1 291.8,284.6 317.8,284.6 	"/>
	<polygon class="st0" points="294.8,295.9 266,295.9 265.5,292.9 293.5,292.9 	"/>
	<polygon class="st0" points="309.1,271.1 310.1,272.7 287,272.7 286.3,271.1 	"/>
	<polygon class="st0" points="263.9,283.1 263.5,280.9 288.7,280.9 289.6,283.1 	"/>
	<polygon class="st0" points="291.2,287.1 264.5,287.1 264.1,284.6 290.2,284.6 	"/>
	<polygon class="st0" points="264.8,288.6 291.8,288.6 292.9,291.4 265.2,291.4 	"/>
	<polygon class="st0" points="235.3,300.8 235.5,297.4 264.7,297.4 265.3,300.8 	"/>
	<polygon class="st0" points="288.9,277.5 313.2,277.5 314.4,279.4 289.7,279.4 	"/>
	<polygon class="st0" points="287.6,274.2 311.1,274.2 312.2,276 288.3,276 	"/>
	<polygon class="st0" points="310.9,271.1 333.4,271.1 334.8,272.7 311.9,272.7 	"/>
	<polygon class="st0" points="296.7,300.8 266.8,300.8 266.2,297.4 295.4,297.4 	"/>
	<polygon class="st0" points="352.8,266.7 331.6,266.7 330.5,265.5 351.5,265.5 	"/>
	<polygon class="st0" points="159.3,277.5 183.4,277.5 182.3,279.4 157.7,279.4 	"/>
	<polygon class="st0" points="212.7,266.7 191,266.7 191.6,265.5 213.1,265.5 	"/>
	<polygon class="st0" points="298.9,306.1 267.7,306.1 267.1,302.3 297.3,302.3 	"/>
	<polygon class="st0" points="190.7,264 169.8,264 170.7,262.9 191.3,262.9 	"/>
	<polygon class="st0" points="235.8,272.7 212.5,272.7 213,271.1 235.9,271.1 	"/>
	<polygon class="st0" points="263.2,288.6 263.7,291.4 236,291.4 236.2,288.6 	"/>
	<polygon class="st0" points="287.3,277.5 288.1,279.4 263.2,279.4 262.9,277.5 	"/>
	<polygon class="st0" points="170.7,260.4 169.9,261.4 149.8,261.4 150.8,260.4 	"/>
	<polygon class="st0" points="264.5,295.9 235.6,295.9 235.9,292.9 264,292.9 	"/>
	<polygon class="st0" points="192.7,260.4 192.2,261.4 171.8,261.4 172.6,260.4 	"/>
	<polygon class="st0" points="235.5,276 211.5,276 212,274.2 235.7,274.2 	"/>
	<polygon class="st0" points="206.7,291.4 207.6,288.6 234.7,288.6 234.5,291.4 	"/>
	<polygon class="st0" points="208.4,280.9 207.7,283.1 182,283.1 183.2,280.9 	"/>
	<polygon class="st0" points="166.7,265.5 165.8,266.7 144.4,266.7 145.6,265.5 	"/>
	<polygon class="st0" points="267.1,311.8 234.5,311.8 234.8,307.6 266.4,307.6 	"/>
	<polygon class="st0" points="142.8,268.2 164.6,268.2 163.5,269.6 141.4,269.6 	"/>
	<polygon class="st0" points="186.9,271.1 186,272.7 163,272.7 164.2,271.1 	"/>
	<polygon class="st0" points="185.2,274.2 184.2,276 160.4,276 161.8,274.2 	"/>
	<polygon class="st0" points="293.4,288.6 320.3,288.6 322.1,291.4 294.5,291.4 	"/>
	<polygon class="st0" points="389.4,260.4 390.9,261.4 371.4,261.4 370.1,260.4 	"/>
	<polygon class="st0" points="298.3,254.3 279.6,254.3 279.3,253.7 297.9,253.7 	"/>
	<polygon class="st0" points="297,252.2 278.7,252.2 278.5,251.7 296.6,251.7 	"/>
	<polygon class="st0" points="463.6,248 464.5,248.3 449.7,248.3 448.9,248 	"/>
	<polygon class="st0" points="172.6,297.4 170.7,300.8 141,300.8 143.7,297.4 	"/>
	<polygon class="st0" points="434,249.8 449.5,249.8 450.5,250.2 435,250.2 	"/>
	<polygon class="st0" points="350.8,262.9 370.9,262.9 372.4,264 352,264 	"/>
	<polygon class="st0" points="136.9,306.1 139.8,302.3 169.9,302.3 167.8,306.1 	"/>
	<polygon class="st0" points="277.7,249.8 295.4,249.8 295.7,250.2 277.9,250.2 	"/>
	<polygon class="st0" points="110.1,340.4 115.3,333.8 152.8,333.8 149.2,340.4 	"/>
	<polygon class="st0" points="14.7,241.4 14.9,241.4 27.5,241.4 27.4,241.4 	"/>
	<polygon class="st0" points="275.5,248.3 258,248.3 258,248 275.4,248 	"/>
	<polygon class="st0" points="40.7,243 27.3,243 27.6,242.9 40.9,242.9 	"/>
	<polygon class="st0" points="156.8,326.4 153.6,332.3 116.5,332.3 121.1,326.4 	"/>
	<polygon class="st0" points="257.7,246.2 274.6,246.2 274.7,246.5 257.7,246.5 	"/>
	<polygon class="st0" points="276.3,250.2 258.3,250.2 258.3,249.8 276.1,249.8 	"/>
	<polygon class="st0" points="185.1,277.5 209.4,277.5 208.8,279.4 184,279.4 	"/>
	<polygon class="st0" points="209.3,283.1 209.9,280.9 235.2,280.9 235,283.1 	"/>
	<polygon class="st0" points="208,287.1 208.8,284.6 234.9,284.6 234.8,287.1 	"/>
	<polygon class="st0" points="266.2,306.1 234.9,306.1 235.2,302.3 265.5,302.3 	"/>
	<polygon class="st0" points="212.3,268.2 211.8,269.6 189.4,269.6 190.1,268.2 	"/>
	<polygon class="st0" points="166.5,268.2 188.4,268.2 187.7,269.6 165.4,269.6 	"/>
	<polygon class="st0" points="189.9,265.5 189.3,266.7 167.7,266.7 168.6,265.5 	"/>
	<polygon class="st0" points="210.4,274.2 209.9,276 185.9,276 186.9,274.2 	"/>
	<polygon class="st0" points="187.7,272.7 188.6,271.1 211.4,271.1 210.9,272.7 	"/>
	<polygon class="st0" points="207.2,284.6 206.5,287.1 179.9,287.1 181.2,284.6 	"/>
	<polygon class="st0" points="167.9,264 147.2,264 148.3,262.9 168.8,262.9 	"/>
	<polygon class="st0" points="127.8,261.4 129,260.4 148.6,260.4 147.7,261.4 	"/>
	<polygon class="st0" points="327.2,264 306.3,264 305.6,262.9 326.2,262.9 	"/>
	<polygon class="st0" points="235.3,279.4 210.4,279.4 211,277.5 235.4,277.5 	"/>
	<polygon class="st0" points="304,260.4 324,260.4 324.9,261.4 304.6,261.4 	"/>
	<polygon class="st0" points="177.6,291.4 179.1,288.6 206,288.6 205.2,291.4 	"/>
	<polygon class="st0" points="307.2,265.5 328.5,265.5 329.6,266.7 308,266.7 	"/>
	<polygon class="st0" points="332.1,269.6 309.9,269.6 309,268.2 330.9,268.2 	"/>
	<polygon class="st0" points="365.6,258.9 346.4,258.9 345.5,258.1 364.4,258.1 	"/>
	<polygon class="st0" points="305.5,265.5 306.3,266.7 284.6,266.7 284,265.5 	"/>
	<polygon class="st0" points="320,255.8 320.7,256.6 301.5,256.6 301.1,255.8 	"/>
	<polygon class="st0" points="283,262.9 303.8,262.9 304.5,264 283.4,264 	"/>
	<polygon class="st0" points="322.7,258.9 303,258.9 302.5,258.1 322,258.1 	"/>
	<polygon class="st0" points="282,260.4 302.2,260.4 302.8,261.4 282.4,261.4 	"/>
	<polygon class="st0" points="341.5,256.6 322.6,256.6 322,255.8 340.7,255.8 	"/>
	<polygon class="st0" points="174.2,255.8 173.7,256.6 154.7,256.6 155.4,255.8 	"/>
	<polygon class="st0" points="344.1,258.9 324.7,258.9 324,258.1 343.2,258.1 	"/>
	<polygon class="st0" points="286.7,276 262.6,276 262.4,274.2 286,274.2 	"/>
	<polygon class="st0" points="213.6,264 192.5,264 193.1,262.9 213.9,262.9 	"/>
	<polygon class="st0" points="236,269.6 213.4,269.6 213.8,268.2 236.1,268.2 	"/>
	<polygon class="st0" points="236.3,265.5 236.2,266.7 214.3,266.7 214.7,265.5 	"/>
	<polygon class="st0" points="261.8,271.1 284.7,271.1 285.4,272.7 262.1,272.7 	"/>
	<polygon class="st0" points="194,258.1 193.5,258.9 173.7,258.9 174.4,258.1 	"/>
	<polygon class="st0" points="302.8,311.8 301.1,307.6 332.5,307.6 335.2,311.8 	"/>
	<polygon class="st0" points="263,287.1 236.3,287.1 236.4,284.6 262.6,284.6 	"/>
	<polygon class="st0" points="236.4,262.9 236.4,264 215.1,264 215.5,262.9 	"/>
	<polygon class="st0" points="362.4,256.6 343.8,256.6 343,255.8 361.4,255.8 	"/>
	<polygon class="st0" points="371.2,283.1 346,283.1 344.1,280.9 368.7,280.9 	"/>
	<polygon class="st0" points="383.3,256.6 364.9,256.6 363.9,255.8 382.1,255.8 	"/>
	<polygon class="st0" points="353.2,291.4 350.8,288.6 377.3,288.6 380.4,291.4 	"/>
	<polygon class="st0" points="369.3,279.4 367.1,277.5 390.7,277.5 393.4,279.4 	"/>
	<polygon class="st0" points="355.2,295.9 326.8,295.9 324.8,292.9 352.6,292.9 	"/>
	<polygon class="st0" points="364.2,306.1 333.3,306.1 330.9,302.3 360.9,302.3 	"/>
	<polygon class="st0" points="363.4,274.2 386.2,274.2 388.6,276 365.4,276 	"/>
	<polygon class="st0" points="359.5,300.8 329.9,300.8 327.8,297.4 356.6,297.4 	"/>
	<polygon class="st0" points="375.6,287.1 349.5,287.1 347.3,284.6 372.9,284.6 	"/>
	<polygon class="st0" points="404.1,256.6 386.1,256.6 384.9,255.8 402.8,255.8 	"/>
	<polygon class="st0" points="384.6,271.1 406.4,271.1 408.9,272.7 386.7,272.7 	"/>
	<polygon class="st0" points="412.9,261.4 393.7,261.4 392.2,260.4 411.1,260.4 	"/>
	<polygon class="st0" points="387,258.9 368.1,258.9 366.9,258.1 385.6,258.1 	"/>
	<polygon class="st0" points="408.4,258.9 389.8,258.9 388.5,258.1 406.8,258.1 	"/>
	<polygon class="st0" points="404,269.6 382.6,269.6 380.7,268.2 401.8,268.2 	"/>
	<polygon class="st0" points="399.4,266.7 378.6,266.7 377,265.5 397.4,265.5 	"/>
	<polygon class="st0" points="451.9,269.6 431.1,269.6 428.5,268.2 449,268.2 	"/>
	<polygon class="st0" points="175.1,295.9 176.7,292.9 204.7,292.9 203.8,295.9 	"/>
	<polygon class="st0" points="325,295.9 296.4,295.9 295.1,292.9 323,292.9 	"/>
	<polygon class="st0" points="323.9,291.4 322.1,288.6 348.8,288.6 351.2,291.4 	"/>
	<polygon class="st0" points="347.5,287.1 321.1,287.1 319.6,284.6 345.3,284.6 	"/>
	<polygon class="st0" points="328.2,300.8 298.4,300.8 297,297.4 326,297.4 	"/>
	<polygon class="st0" points="234.1,318.1 234.4,313.3 267.4,313.3 268.2,318.1 	"/>
	<polygon class="st0" points="344,283.1 318.6,283.1 317.2,280.9 342.1,280.9 	"/>
	<polygon class="st0" points="268.7,311.8 268,307.6 299.5,307.6 301.2,311.8 	"/>
	<polygon class="st0" points="331.6,306.1 300.5,306.1 299,302.3 329.1,302.3 	"/>
	<polygon class="st0" points="360,271.1 382.1,271.1 384.2,272.7 361.8,272.7 	"/>
	<polygon class="st0" points="376.1,266.7 355.1,266.7 353.7,265.5 374.4,265.5 	"/>
	<polygon class="st0" points="349.8,264 329.1,264 328.2,262.9 348.6,262.9 	"/>
	<polygon class="st0" points="368.9,261.4 349.1,261.4 348.1,260.4 367.6,260.4 	"/>
	<polygon class="st0" points="346.9,261.4 326.9,261.4 326,260.4 345.8,260.4 	"/>
	<polygon class="st0" points="380,269.6 358.3,269.6 356.8,268.2 378.1,268.2 	"/>
	<polygon class="st0" points="341,277.5 364.8,277.5 367.1,279.4 342.8,279.4 	"/>
	<polygon class="st0" points="338.1,274.2 361.2,274.2 363.2,276 339.7,276 	"/>
	<polygon class="st0" points="206.3,292.9 234.4,292.9 234.1,295.9 205.3,295.9 	"/>
	<polygon class="st0" points="162.3,271.1 161.1,272.7 138.3,272.7 139.9,271.1 	"/>
	<polygon class="st0" points="119.2,268.2 140.7,268.2 139.3,269.6 117.4,269.6 	"/>
	<polygon class="st0" points="107.2,260.4 126.6,260.4 125.4,261.4 105.8,261.4 	"/>
	<polygon class="st0" points="146.1,262.9 145,264 124.5,264 125.9,262.9 	"/>
	<polygon class="st0" points="143.5,265.5 142.2,266.7 121.1,266.7 122.7,265.5 	"/>
	<polygon class="st0" points="129.5,258.1 128.5,258.9 109.5,258.9 110.7,258.1 	"/>
	<polygon class="st0" points="132.3,255.8 131.4,256.6 113,256.6 114,255.8 	"/>
	<polygon class="st0" points="153.3,255.8 152.5,256.6 133.8,256.6 134.7,255.8 	"/>
	<polygon class="st0" points="150.2,258.9 130.9,258.9 131.9,258.1 151,258.1 	"/>
	<polygon class="st0" points="179.5,284.6 178.2,287.1 151.7,287.1 153.6,284.6 	"/>
	<polygon class="st0" points="150.5,288.6 177.3,288.6 175.9,291.4 148.4,291.4 	"/>
	<polygon class="st0" points="285.2,268.2 307.2,268.2 308.1,269.6 285.7,269.6 	"/>
	<polygon class="st0" points="203.8,300.8 204.9,297.4 234,297.4 233.8,300.8 	"/>
	<polygon class="st0" points="181.5,280.9 180.3,283.1 154.8,283.1 156.5,280.9 	"/>
	<polygon class="st0" points="159.9,274.2 158.5,276 134.9,276 136.7,274.2 	"/>
	<polygon class="st0" points="171.8,258.9 152.3,258.9 153.2,258.1 172.5,258.1 	"/>
	<polygon class="st0" points="133.4,277.5 157.4,277.5 155.8,279.4 131.4,279.4 	"/>
	<polygon class="st0" points="107,246.2 106.6,246.5 91.1,246.5 91.6,246.2 	"/>
	<polygon class="st0" points="239.4,241.4 255.3,241.4 255.3,241.4 239.4,241.4 	"/>
	<polygon class="st0" points="257.1,252.2 238.7,252.2 238.7,251.7 257.1,251.7 	"/>
	<polygon class="st0" points="239.3,242.9 255.6,242.9 255.6,243 239.3,243 	"/>
	<polygon class="st0" points="257.5,254.3 238.5,254.3 238.6,253.7 257.4,253.7 	"/>
	<polygon class="st0" points="239.1,246.2 256.1,246.2 256.2,246.5 239.1,246.5 	"/>
	<polygon class="st0" points="239,248 256.4,248 256.5,248.3 239,248.3 	"/>
	<polygon class="st0" points="257.9,256.6 238.4,256.6 238.4,255.8 257.8,255.8 	"/>
	<polygon class="st0" points="239.2,244.5 255.9,244.5 255.9,244.7 239.2,244.7 	"/>
	<polygon class="st0" points="258.7,261.4 238.1,261.4 238.1,260.4 258.5,260.4 	"/>
	<polygon class="st0" points="397.1,241.4 410.9,241.4 411,241.4 397.2,241.4 	"/>
	<polygon class="st0" points="220,243 203.8,243 203.9,242.9 220,242.9 	"/>
	<polygon class="st0" points="237.7,244.7 221,244.7 221.1,244.5 237.7,244.5 	"/>
	<polygon class="st0" points="258.3,258.9 238.2,258.9 238.3,258.1 258.1,258.1 	"/>
	<polygon class="st0" points="204.7,241.4 204.7,241.4 220.5,241.4 220.5,241.4 	"/>
	<polygon class="st0" points="238.9,249.8 256.7,249.8 256.8,250.2 238.8,250.2 	"/>
	<polygon class="st0" points="222,241.4 222.1,241.4 237.9,241.4 237.9,241.4 	"/>
	<polygon class="st0" points="259.1,264 237.9,264 237.9,262.9 258.9,262.9 	"/>
	<polygon class="st0" points="237.6,246.5 220.5,246.5 220.6,246.2 237.6,246.2 	"/>
	<polygon class="st0" points="362,241.4 376.4,241.4 376.5,241.4 362,241.4 	"/>
	<polygon class="st0" points="344.4,241.4 359.1,241.4 359.2,241.4 344.4,241.4 	"/>
	<polygon class="st0" points="346.5,242.9 361.6,242.9 361.7,243 346.6,243 	"/>
	<polygon class="st0" points="328.6,242.9 344,242.9 344.1,243 328.7,243 	"/>
	<polygon class="st0" points="382.3,242.9 396.8,242.9 397,243 382.5,243 	"/>
	<polygon class="st0" points="364.4,242.9 379.2,242.9 379.4,243 364.6,243 	"/>
	<polygon class="st0" points="326.9,241.4 341.9,241.4 341.9,241.4 326.9,241.4 	"/>
	<polygon class="st0" points="379.5,241.4 393.6,241.4 393.7,241.4 379.6,241.4 	"/>
	<polygon class="st0" points="292.8,242.9 308.7,242.9 308.8,243 292.9,243 	"/>
	<polygon class="st0" points="274.9,242.9 291,242.9 291.1,243 275,243 	"/>
	<polygon class="st0" points="310.7,242.9 326.3,242.9 326.4,243 310.8,243 	"/>
	<polygon class="st0" points="257.4,244.5 274,244.5 274,244.7 257.4,244.7 	"/>
	<polygon class="st0" points="257.1,242.9 273.3,242.9 273.4,243 257.1,243 	"/>
	<polygon class="st0" points="274.3,241.4 290,241.4 290,241.4 274.3,241.4 	"/>
	<polygon class="st0" points="309.3,241.4 324.6,241.4 324.6,241.4 309.4,241.4 	"/>
	<polygon class="st0" points="291.8,241.4 307.3,241.4 307.4,241.4 291.8,241.4 	"/>
	<polygon class="st0" points="256.9,241.4 272.7,241.4 272.7,241.4 256.9,241.4 	"/>
	<polygon class="st0" points="237.8,243 221.6,243 221.6,242.9 237.8,242.9 	"/>
	<polygon class="st0" points="42.1,249.8 41.1,250.2 25.7,250.2 26.8,249.8 	"/>
	<polygon class="st0" points="16.3,253.7 32.5,253.7 31,254.3 14.7,254.3 	"/>
	<polygon class="st0" points="37.4,251.7 36.2,252.2 20.3,252.2 21.7,251.7 	"/>
	<polygon class="st0" points="187.4,241.4 187.4,241.4 203,241.4 203,241.4 	"/>
	<polygon class="st0" points="32,241.4 32.1,241.4 45.1,241.4 44.9,241.4 	"/>
	<polygon class="st0" points="46.6,248 45.8,248.3 30.9,248.3 31.7,248 	"/>
	<polygon class="st0" points="43.5,258.1 41.6,258.9 23.9,258.9 25.9,258.1 	"/>
	<polygon class="st0" points="18.1,246.2 32.1,246.2 31.5,246.5 17.3,246.5 	"/>
	<polygon class="st0" points="36.6,244.5 36.2,244.7 22.4,244.7 22.9,244.5 	"/>
	<polygon class="st0" points="64,271.1 61.2,272.7 39.5,272.7 42.7,271.1 	"/>
	<polygon class="st0" points="58.6,274.2 55.6,276 33.1,276 36.6,274.2 	"/>
	<polygon class="st0" points="30.2,277.5 53,277.5 49.5,279.4 26.3,279.4 	"/>
	<polygon class="st0" points="20.2,260.4 38.3,260.4 36.2,261.4 17.9,261.4 	"/>
	<polygon class="st0" points="73.9,280.9 70.6,283.1 46.1,283.1 49.9,280.9 	"/>
	<polygon class="st0" points="55.6,262.9 53.4,264 34.1,264 36.5,262.9 	"/>
	<polygon class="st0" points="24.8,268.2 45.1,268.2 42.3,269.6 21.7,269.6 	"/>
	<polygon class="st0" points="50.5,265.5 48,266.7 28.1,266.7 30.8,265.5 	"/>
	<polygon class="st0" points="48.4,255.8 46.8,256.6 29.6,256.6 31.3,255.8 	"/>
	<polygon class="st0" points="166.3,243 150.8,243 150.9,242.9 166.4,242.9 	"/>
	<polygon class="st0" points="135.5,241.4 135.6,241.4 150.4,241.4 150.4,241.4 	"/>
	<polygon class="st0" points="152.8,241.4 152.8,241.4 168,241.4 167.9,241.4 	"/>
	<polygon class="st0" points="148.4,243 133.1,243 133.3,242.9 148.5,242.9 	"/>
	<polygon class="st0" points="202.1,243 186.1,243 186.2,242.9 202.2,242.9 	"/>
	<polygon class="st0" points="118.3,241.4 118.3,241.4 132.9,241.4 132.8,241.4 	"/>
	<polygon class="st0" points="68.4,284.6 64.7,287.1 39.3,287.1 43.5,284.6 	"/>
	<polygon class="st0" points="184.2,243 168.5,243 168.6,242.9 184.3,242.9 	"/>
	<polygon class="st0" points="130.4,243 115.5,243 115.7,242.9 130.6,242.9 	"/>
	<polygon class="st0" points="58.6,243 44.9,243 45.2,242.9 58.9,242.9 	"/>
	<polygon class="st0" points="66.5,241.4 66.6,241.4 80.2,241.4 80.1,241.4 	"/>
	<polygon class="st0" points="76.6,243 62.6,243 62.8,242.9 76.8,242.9 	"/>
	<polygon class="st0" points="49.2,241.4 49.3,241.4 62.6,241.4 62.5,241.4 	"/>
	<polygon class="st0" points="94.5,243 80.2,243 80.4,242.9 94.7,242.9 	"/>
	<polygon class="st0" points="101,241.4 101.1,241.4 115.3,241.4 115.3,241.4 	"/>
	<polygon class="st0" points="83.7,241.4 83.8,241.4 97.8,241.4 97.7,241.4 	"/>
	<polygon class="st0" points="112.5,243 97.8,243 98,242.9 112.7,242.9 	"/>
	<polygon class="st0" points="170.1,241.4 170.1,241.4 185.5,241.4 185.5,241.4 	"/>
	<polygon class="st0" points="81.5,326.4 75.5,332.3 38.8,332.3 46.2,326.4 	"/>
	<polygon class="st0" points="45.7,324.9 11.1,324.9 18.9,319.6 52.3,319.6 	"/>
	<polygon class="st0" points="56.1,292.9 51.5,295.9 24.1,295.9 29.3,292.9 	"/>
	<polygon class="st0" points="67.2,340.4 28.6,340.4 36.9,333.8 74,333.8 	"/>
	<polygon class="st0" points="54.2,318.1 21.2,318.1 28.2,313.3 60.1,313.3 	"/>
	<polygon class="st0" points="44.2,300.8 15.6,300.8 21.5,297.4 49.3,297.4 	"/>
	<polygon class="st0" points="67.3,307.6 62,311.8 30.5,311.8 36.8,307.6 	"/>
	<polygon class="st0" points="36.3,306.1 6.4,306.1 13,302.3 42,302.3 	"/>
	<polygon class="st0" points="58,349.4 17.3,349.4 26.7,341.9 65.7,341.9 	"/>
	<polygon class="st0" points="47.9,359.4 4.7,359.4 15.4,350.9 56.5,350.9 	"/>
	<polygon class="st0" points="191.2,341.9 230.9,341.9 230.4,349.4 188.9,349.4 	"/>
	<polygon class="st0" points="193.7,333.8 231.5,333.8 231.1,340.4 191.7,340.4 	"/>
	<polygon class="st0" points="273.7,350.9 275.1,359.4 231.2,359.4 231.8,350.9 	"/>
	<polygon class="st0" points="320.5,359.4 276.6,359.4 275.2,350.9 317,350.9 	"/>
	<polygon class="st0" points="100,350.9 93.4,359.4 50,359.4 58.6,350.9 	"/>
	<polygon class="st0" points="143.5,350.9 138.9,359.4 95.3,359.4 101.9,350.9 	"/>
	<polygon class="st0" points="186.9,350.9 184.3,359.4 140.6,359.4 145.2,350.9 	"/>
	<polygon class="st0" points="230.3,350.9 229.7,359.4 185.9,359.4 188.5,350.9 	"/>
	<polygon class="st0" points="25.6,256.6 8.7,256.6 10.7,255.8 27.4,255.8 	"/>
	<polygon class="st0" points="26.6,248.3 12,248.3 12.9,248 27.5,248 	"/>
	<polygon class="st0" points="16,252.2 0.5,252.2 2,251.7 17.4,251.7 	"/>
	<polygon class="st0" points="17.8,244.7 4.4,244.7 5,244.5 18.3,244.5 	"/>
	<polygon class="st0" points="21.4,250.2 6.4,250.2 7.6,249.8 22.6,249.8 	"/>
	<polygon class="st0" points="433.8,271.1 455,271.1 458.2,272.7 436.7,272.7 	"/>
	<polygon class="st0" points="28.9,291.4 2.8,291.4 8.2,288.6 33.7,288.6 	"/>
	<polygon class="st0" points="23,242.9 22.7,243 9.7,243 10,242.9 	"/>
	<polygon class="st0" points="47,280.9 43.1,283.1 19,283.1 23.3,280.9 	"/>
	<polygon class="st0" points="19.9,258.9 2.5,258.9 4.7,258.1 22,258.1 	"/>
	<polygon class="st0" points="36.3,287.1 11.2,287.1 16,284.6 40.5,284.6 	"/>
	<polygon class="st0" points="29.8,276 7.7,276 11.6,274.2 33.3,274.2 	"/>
	<polygon class="st0" points="23,279.4 0,279.4 4.4,277.5 26.9,277.5 	"/>
	<polygon class="st0" points="30.5,264 11.5,264 14.2,262.9 32.9,262.9 	"/>
	<polygon class="st0" points="24.4,266.7 4.8,266.7 7.9,265.5 27.2,265.5 	"/>
	<polygon class="st0" points="36.2,272.7 14.9,272.7 18.4,271.1 39.3,271.1 	"/>
	<polygon class="st0" points="454.4,243 454.1,242.9 467.2,242.9 467.6,243 	"/>
	<polygon class="st0" points="485,241.4 497.1,241.4 497.2,241.4 485.1,241.4 	"/>
	<polygon class="st0" points="473.1,249.8 487.9,249.8 489.2,250.2 474.3,250.2 	"/>
	<polygon class="st0" points="481.9,246.2 495.5,246.2 496.3,246.5 482.6,246.5 	"/>
	<polygon class="st0" points="476.8,244.5 490.1,244.5 490.6,244.7 477.4,244.7 	"/>
	<polygon class="st0" points="478.4,251.7 493.7,251.7 495.3,252.2 479.9,252.2 	"/>
	<polygon class="st0" points="464.1,262.9 482.6,262.9 485.4,264 466.6,264 	"/>
	<polygon class="st0" points="468.9,255.8 485.5,255.8 487.5,256.6 470.7,256.6 	"/>
	<polygon class="st0" points="474.5,258.1 491.6,258.1 494,258.9 476.7,258.9 	"/>
	<polygon class="st0" points="400.5,243 400.3,242.9 414.4,242.9 414.7,243 	"/>
	<polygon class="st0" points="418.4,243 418.2,242.9 432,242.9 432.3,243 	"/>
	<polygon class="st0" points="436.4,243 436.1,242.9 449.6,242.9 449.9,243 	"/>
	<polygon class="st0" points="432.2,241.4 445.4,241.4 445.5,241.4 432.3,241.4 	"/>
	<polygon class="st0" points="414.6,241.4 428.1,241.4 428.2,241.4 414.7,241.4 	"/>
	<polygon class="st0" points="467.4,241.4 479.9,241.4 480,241.4 467.5,241.4 	"/>
	<polygon class="st0" points="472.3,243 472,242.9 484.9,242.9 485.2,243 	"/>
	<polygon class="st0" points="449.8,241.4 462.6,241.4 462.7,241.4 449.9,241.4 	"/>
	<polygon class="st0" points="470,265.5 489.2,265.5 492.4,266.7 472.9,266.7 	"/>
	<path class="st0" d="M498.4,279.4h-22.8l-4.1-2h1.5c0.2,0.2,0.4,0.4,0.6,0.7c0,0,0.2,0,0.3-0.1c0.3-0.2,0.5-0.4,0.7-0.5h19.2
		L498.4,279.4z"/>
	<polygon class="st0" points="476.3,268.2 496.2,268.2 499.8,269.6 479.6,269.6 	"/>
	<path class="st0" d="M466.8,310.4c-0.4,0.5-0.7,1-1.1,1.5h-2.5c0.2-1.5,0.4-3.1,0.6-4.2h0.5l1.7,1.1c0.3,0.3,0.5,0.7,0.8,1
		C467,309.9,467,310.2,466.8,310.4z"/>
	<path class="st0" d="M461.8,311.8h-22.1l-5.7-4.2h28.4c-0.2,1.2-0.4,2.4-0.6,3.6C461.8,311.4,461.8,311.6,461.8,311.8z"/>
	<path class="st0" d="M470.3,311.8c-0.2-0.3-0.5-0.7-0.7-1l1.6,1H470.3z"/>
	<path class="st0" d="M459.9,324.9h-2.6l-7.1-5.3h10.5c0,0.5-0.1,0.9-0.2,1.4C460.3,322.2,460.1,323.5,459.9,324.9z"/>
	<path class="st0" d="M475.4,319.6h8.1l8.4,5.3h-15.7c-0.2-1.4-0.4-2.7-0.6-4.1C475.5,320.4,475.4,320,475.4,319.6z"/>
	<path class="st0" d="M461.9,321.6c0-0.1,0.1-0.3,0.2-0.4c0.1,0.1,0.3,0.1,0.4,0.2c1.2,1.1,2.4,2.3,3.6,3.4h-4.6
		C461.5,323.8,461.7,322.7,461.9,321.6z"/>
	<path class="st0" d="M473.6,321.5c0.1-0.1,0.2-0.2,0.3-0.2c0.2-0.1,0.3-0.1,0.3,0.1c0,0.2,0.1,0.5,0.1,0.7c0.1,0.9,0.3,1.8,0.4,2.7
		H470C471.2,323.7,472.4,322.6,473.6,321.5z"/>
	<path class="st0" d="M469.2,323.7c-0.1,0.1-0.2,0.1-0.4,0.2c0-0.2,0-0.3,0-0.4c0-0.9,0-1.9,0-2.8c0-0.6,0.1-0.7,0.7-0.7
		c1,0,2,0,3,0c0.1,0,0.2,0.1,0.3,0.1c0,0.1-0.1,0.2-0.1,0.3C471.5,321.4,470.3,322.6,469.2,323.7z"/>
	<path class="st0" d="M467.2,323.8c-0.1,0-0.2,0-0.3-0.1c-1.2-1.1-2.3-2.2-3.5-3.3c-0.1-0.1-0.1-0.2-0.1-0.3c0.1,0,0.2-0.1,0.3-0.1
		c0.6,0,1.1,0,1.7,0c0,0,0,0,0,0c0.5,0,1,0,1.5,0c0.3,0,0.5,0.1,0.5,0.4c0,1,0,2.1,0,3.1C467.3,323.6,467.3,323.8,467.2,323.8z"/>
	<path class="st0" d="M473.1,315.6c-0.2-0.2-0.3-0.4-0.4-0.5c-0.4-0.6-0.9-1.2-1.3-1.7h1.5C473.1,314.6,473.2,315.5,473.1,315.6z"/>
	<path class="st0" d="M467.3,315.4C467.3,315.4,467.3,315.4,467.3,315.4c0,0.8,0,1.7,0,2.5c0,0.1,0,0.1,0,0.2H463c0,0,0,0,0-0.1
		c1.1-1.6,2.3-3.1,3.5-4.7h0.9C467.3,314,467.3,314.7,467.3,315.4z"/>
	<path class="st0" d="M468.8,315.4C468.7,315.4,468.7,315.4,468.8,315.4c0-0.7,0-1.4,0-2.1h0.9c1.2,1.6,2.3,3.1,3.5,4.7c0,0,0,0,0,0
		h-4.3c0,0,0-0.1,0-0.1C468.8,317.1,468.8,316.3,468.8,315.4z"/>
	<path class="st0" d="M463.8,314.5c-0.3,0.4-0.6,0.8-0.9,1.1c-0.1-0.1,0-1,0.2-2.3h1.5C464.3,313.7,464.1,314.1,463.8,314.5z"/>
	<path class="st0" d="M474.6,314l6.5,4.1h-5.9c-0.2-1.3-0.4-2.5-0.6-3.8C474.6,314.2,474.6,314.1,474.6,314z"/>
	<path class="st0" d="M460.8,318.1h-12.7l-6.4-4.7h19.8c-0.1,0.7-0.2,1.5-0.3,2.2C461.1,316.4,461,317.2,460.8,318.1z"/>
	<path class="st0" d="M464.8,332.3h-2.6c0.4-0.4,0.7-0.7,1.1-1.1L464.8,332.3z"/>
	<path class="st0" d="M458.8,332.3h-30.6l-6.6-5.9h35.2l2.6,1.9c-0.1,1-0.3,2-0.4,3.1C458.9,331.7,458.9,332,458.8,332.3z"/>
	<path class="st0" d="M460.6,331.8c0,0-0.1,0-0.1,0c0-0.1,0-0.2,0-0.3c0.1-0.7,0.2-1.5,0.3-2.2l1.4,1
		C461.7,330.8,461.1,331.3,460.6,331.8z"/>
	<polygon class="st0" points="403.6,350.9 411,359.4 367.5,359.4 362.1,350.9 	"/>
	<path class="st0" d="M486.4,348.7c-2.1,0-4.2,0-6.3,0c-0.4,0-0.6-0.2-0.6-0.5c-0.3-1.9-0.5-3.8-0.8-5.7l8.4,6.2
		C487,348.7,486.8,348.7,486.4,348.7z"/>
	<path class="st0" d="M468.9,342.9c0.1,0,0.2,0,0.3,0.1c0.2,0.1,0.3,0.2,0.4,0.4c2.2,1.7,4.4,3.3,6.6,5c0.1,0.1,0.2,0.2,0.3,0.3
		c0,0,0,0.1,0,0.1c-0.2,0-0.3,0-0.5,0.1c-0.7,0-1.3,0-2,0c-1.5,0-3.1,0-4.6,0c-0.3,0-0.6-0.1-0.6-0.5c0-1.7,0-3.5,0-5.2
		C468.8,343,468.8,342.9,468.9,342.9z"/>
	<path class="st0" d="M477.2,347.2c-2.3-1.8-4.6-3.5-7-5.3h6.9c0.3,1.9,0.5,3.8,0.7,5.7C477.6,347.5,477.4,347.4,477.2,347.2z"/>
	<path class="st0" d="M456.6,348.3c-0.1,0.4-0.2,0.5-0.6,0.5c-2.4,0-4.8,0-7.2,0c-0.6,0-0.6,0-0.6,0.6c0,0,0,0.1,0,0.1h-0.8
		l-8.4-7.5h18.4c-0.1,0.7-0.2,1.4-0.3,2.1C457,345.5,456.7,346.9,456.6,348.3z"/>
	<path class="st0" d="M487.2,348.8l0.8,0.6h-0.8C487.3,349.1,487.3,348.9,487.2,348.8z"/>
	<path class="st0" d="M466.9,343c0.1-0.1,0.2-0.1,0.3-0.1c0.1,0,0.1,0.2,0.1,0.3c0,0.3,0,0.5,0,0.8c0,1.4,0,2.8,0,4.2
		c0,0.6,0,0.6-0.6,0.6c-2.2,0-4.5,0-6.7,0c-0.1,0-0.2,0-0.5-0.1c0.2-0.2,0.3-0.3,0.5-0.4C462.3,346.5,464.6,344.7,466.9,343z"/>
	<path class="st0" d="M458.3,347.6c0,0-0.1-0.1-0.1-0.1c0-0.1,0-0.3,0-0.4c0.1-0.9,0.3-1.8,0.4-2.7c0.1-0.8,0.2-1.6,0.3-2.4h6.8
		C463.3,343.9,460.8,345.7,458.3,347.6z"/>
	<polygon class="st0" points="446.8,350.9 456.3,359.4 413,359.4 405.6,350.9 	"/>
	<path class="st0" d="M470.2,340.4c0.9-0.7,1.9-1.4,2.8-2.1l2.9,2.1H470.2z"/>
	<path class="st0" d="M469.2,339.4c-0.1,0.1-0.2,0.1-0.3,0c-0.1-0.1-0.1-0.2-0.1-0.3c0-1.1,0-2.3,0-3.4c0-0.3,0-0.4,0.1-0.5l2.9,2.2
		C470.9,338.1,470,338.8,469.2,339.4z"/>
	<path class="st0" d="M457.7,340.4h-20.3l-7.4-6.7h28.7c-0.3,1.8-0.5,3.7-0.8,5.5C457.8,339.7,457.7,340.1,457.7,340.4z"/>
	<path class="st0" d="M459.7,336.3c0-0.3,0.2-0.4,0.5-0.2c1.6,1.2,3.2,2.4,4.8,3.6c0.3,0.2,0.5,0.4,0.8,0.6h-6.6
		C459.4,339.1,459.5,337.7,459.7,336.3z"/>
	<path class="st0" d="M467.3,335.5c0,1.2,0,2.5,0,3.7c0,0.1-0.1,0.2-0.2,0.3c-0.1,0-0.2,0-0.3-0.1c-0.4-0.3-0.8-0.6-1.2-0.9
		c-1.3-1-2.7-2-4-3c-0.1-0.1-0.1-0.2-0.2-0.2c0.1,0,0.2-0.1,0.3-0.1c0.9,0,1.7,0,2.6,0c0,0,0,0,0,0c0.8,0,1.6,0,2.4,0
		C467.1,335.1,467.3,335.2,467.3,335.5z"/>
	<path class="st0" d="M473.2,302.3h14.6l6.9,3.8h-21.2c-0.1-0.6-0.2-1.1-0.2-1.7C473.2,303.7,473.2,303,473.2,302.3z"/>
	<path class="st0" d="M465.3,304.9c0-0.1,0.2-0.1,0.3-0.1c0.4,0,0.9,0,1.3,0c0.3,0,0.4,0.1,0.4,0.4c0,0.3,0,0.6,0,0.9h-1.2
		c-0.2-0.3-0.4-0.6-0.6-0.9C465.4,305.2,465.3,305,465.3,304.9z"/>
	<path class="st0" d="M469.1,304.8c0.4,0,0.9,0,1.3,0c0.1,0,0.2,0.1,0.3,0.1c0,0.1,0,0.2-0.1,0.3c-0.2,0.3-0.4,0.6-0.6,0.9h-1.2
		c0-0.3,0-0.6,0-0.9C468.8,305,468.9,304.8,469.1,304.8z"/>
	<path class="st0" d="M467.2,302.8c0,0.3-0.1,0.4-0.4,0.4c-0.6,0-1.2,0-1.8,0c-0.4,0-0.5-0.1-0.5-0.5c0-0.2,0-0.3,0-0.5h2.7
		C467.2,302.5,467.2,302.6,467.2,302.8z"/>
	<path class="st0" d="M471.6,302.8c0,0.3-0.1,0.5-0.4,0.4c-0.6,0-1.2,0-1.8,0c-0.4,0-0.4-0.1-0.4-0.4c0-0.2,0-0.3,0-0.5h2.7
		C471.6,302.5,471.6,302.6,471.6,302.8z"/>
	<path class="st0" d="M458.8,302.3h4c0,0.8,0,1.7-0.1,2.5L458.8,302.3z"/>
	<polygon class="st0" points="360.3,350.9 365.8,359.4 322.1,359.4 318.6,350.9 	"/>
	<path class="st0" d="M475.3,280.9l4.6,2.2h-3.3c0.1-0.1,0.1-0.3,0.1-0.9c0-0.5,0-0.5-0.5-0.5c-0.3,0-0.6,0-0.9,0
		c-0.3,0-0.4,0.3-0.3,0.5c0.1,0.3-0.2,0.7,0.1,0.9h-2.8c-0.1-0.8-0.3-1.5-0.6-2.2H475.3z"/>
	<path class="st0" d="M468.3,281.9c-0.2-0.2-0.3-0.2-0.5,0c-0.3,0.4-0.6,0.8-0.9,1.3h-1.5c0.1-0.3,0.1-0.7,0.3-1
		c0.1-0.4,0.3-0.8,0.4-1.2h3.9c0.3,0.7,0.5,1.3,0.6,2c0,0.1,0,0.1,0,0.2h-1.4C468.9,282.7,468.6,282.3,468.3,281.9z"/>
	<path class="st0" d="M463.9,283.1h-2.6c0.1-0.1,0.1-0.3,0.1-0.8c0-0.5,0-0.6-0.6-0.6c-0.2,0-0.4,0-0.6,0c-0.6,0-0.6,0-0.6,0.6
		c0,0.5,0,0.7,0.2,0.8h-3.9l-4-2.2h12.7c0,0.1-0.1,0.1-0.1,0.2C464.2,281.8,464,282.5,463.9,283.1z"/>
	<path class="st0" d="M467.6,275.4c0,0-0.1,0.1-0.1,0.1l-2.8-1.3h21.6l4.1,1.8h-21.6c-0.1-0.2-0.3-0.4-0.4-0.5
		C468,274.9,468,274.9,467.6,275.4z"/>
	<path class="st0" d="M467.6,285.2c0.1-0.2,0.2-0.4,0.3-0.5h0.4c0.4,0.7,0.7,1.4,0.7,2.3c0,0.1,0,0.1,0,0.2h-1.8
		C467.1,286.4,467.3,285.8,467.6,285.2z"/>
	<path class="st0" d="M464.4,287.1h-1.3l-4.5-2.5h5.3c0,0.2,0,0.5,0,0.7C463.9,286,464.1,286.6,464.4,287.1z"/>
	<path class="st0" d="M465.8,285.5c0,0.2-0.2,0.3-0.2,0.4c0,0-0.1,0-0.1,0c-0.1-0.4-0.1-0.8-0.1-1.2h0.8
		C466,284.9,465.9,285.2,465.8,285.5z"/>
	<path class="st0" d="M470.7,285.5c0,0.1-0.1,0.2-0.2,0.3c-0.1-0.1-0.2-0.2-0.2-0.3c-0.1-0.3-0.2-0.6-0.3-0.9h0.8
		C470.7,284.9,470.7,285.2,470.7,285.5z"/>
	<path class="st0" d="M482.9,284.6l5.1,2.5h-16.4c0.4-0.8,0.6-1.6,0.6-2.5H482.9z"/>
	<path class="st0" d="M469.6,290.7l-1.1-0.6c0.2-0.1,0.3-0.1,0.5-0.2c0.6-0.4,1.2-0.8,1.6-1.2h20.5l5.7,2.7h-26l-0.8-0.5
		C470,290.7,469.9,290.7,469.6,290.7z"/>
	<path class="st0" d="M465.4,297.8c-0.7,0-1.4,0-2.1,0c-0.3,0-0.4,0.1-0.4,0.4c0,0.9,0,1.7,0,2.6h-6.4l-5.4-3.4h15
		C466,297.7,465.9,297.8,465.4,297.8z"/>
	<path class="st0" d="M468.8,300.6c0-0.3,0-0.5,0-0.8c0-0.3,0.1-0.4,0.4-0.4c0.5,0,1,0,1.4,0c0.9,0,0.9,0,0.9,0.9c0,0.2,0,0.4,0,0.6
		h-2.7C468.8,300.7,468.8,300.6,468.8,300.6z"/>
	<path class="st0" d="M464.5,299.8c0-0.3,0.1-0.5,0.5-0.5c0.6,0,1.2,0,1.8,0c0.4,0,0.5,0.1,0.5,0.4c0,0.4,0,0.7,0,1.1h-2.7
		C464.5,300.5,464.5,300.1,464.5,299.8z"/>
	<path class="st0" d="M468,297.8c-0.4,0-0.5-0.1-0.5-0.4h1C468.5,297.7,468.4,297.8,468,297.8z"/>
	<path class="st0" d="M473.2,298.3c0-0.4-0.1-0.5-0.5-0.5c-0.7,0-1.4,0-2.1,0c-0.4,0-0.5-0.1-0.6-0.4h8.7l6.2,3.4h-11.8
		c0,0,0,0,0-0.1C473.1,299.9,473.1,299.1,473.2,298.3z"/>
	<path class="st0" d="M467.5,292.9h1.1c0,0.7,0,1.4,0,2.1c0,0,0,0,0,0c0,0.3,0,0.7,0,1h-1.1C467.5,294.9,467.5,293.9,467.5,292.9z"
		/>
	<path class="st0" d="M448.7,295.9l-4.9-3.1H466c0,1,0,2,0,3.1H448.7z"/>
	<path class="st0" d="M470.4,292.9l5.6,3.1h-6c0-1,0-2,0-3.1H470.4z"/>
	<polygon class="st0" points="481.3,254.3 465.1,254.3 463.5,253.7 479.6,253.7 	"/>
	<polygon class="st0" points="87.8,246.5 72.7,246.5 73.2,246.2 88.3,246.2 	"/>
	<polygon class="st0" points="78.2,262.9 76.3,264 56.7,264 58.9,262.9 	"/>
	<polygon class="st0" points="73.3,244.5 72.9,244.7 58.5,244.7 58.9,244.5 	"/>
	<polygon class="st0" points="144.4,246.2 144.1,246.5 128,246.5 128.4,246.2 	"/>
	<polygon class="st0" points="69,246.5 54.2,246.5 54.8,246.2 69.6,246.2 	"/>
	<polygon class="st0" points="128.2,244.5 127.9,244.7 112.6,244.7 112.9,244.5 	"/>
	<polygon class="st0" points="109.9,244.5 109.6,244.7 94.5,244.7 94.9,244.5 	"/>
	<polygon class="st0" points="125.7,246.2 125.3,246.5 109.6,246.5 110,246.2 	"/>
	<polygon class="st0" points="55,244.5 54.5,244.7 40.5,244.7 40.9,244.5 	"/>
	<polygon class="st0" points="65,258.1 63.3,258.9 45.3,258.9 47.1,258.1 	"/>
	<polygon class="st0" points="36.4,246.2 50.9,246.2 50.3,246.5 35.8,246.5 	"/>
	<polygon class="st0" points="69.4,255.8 67.9,256.6 50.4,256.6 52,255.8 	"/>
	<polygon class="st0" points="42,260.4 60.4,260.4 58.5,261.4 39.8,261.4 	"/>
	<polygon class="st0" points="36.5,253.7 53,253.7 51.7,254.3 35,254.3 	"/>
	<polygon class="st0" points="65.7,248 65,248.3 49.7,248.3 50.5,248 	"/>
	<polygon class="st0" points="61.7,249.8 60.8,250.2 45,250.2 46.1,249.8 	"/>
	<polygon class="st0" points="57.5,251.7 56.3,252.2 40.1,252.2 41.4,251.7 	"/>
	<polygon class="st0" points="91.6,244.5 91.2,244.7 76.5,244.7 76.9,244.5 	"/>
	<polygon class="st0" points="237.5,248 237.5,248.3 219.9,248.3 220,248 	"/>
	<polygon class="st0" points="237.3,250.2 219.4,250.2 219.5,249.8 237.4,249.8 	"/>
	<polygon class="st0" points="219.5,244.5 219.5,244.7 202.9,244.7 203,244.5 	"/>
	<polygon class="st0" points="219,246.2 218.9,246.5 202,246.5 202.1,246.2 	"/>
	<polygon class="st0" points="278.8,256.6 259.4,256.6 259.3,255.8 278.5,255.8 	"/>
	<polygon class="st0" points="218.4,248.3 201,248.3 201.2,248 218.5,248 	"/>
	<polygon class="st0" points="259.8,268.2 260.1,269.6 237.5,269.6 237.6,268.2 	"/>
	<polygon class="st0" points="259.4,265.5 259.6,266.7 237.7,266.7 237.8,265.5 	"/>
	<polygon class="st0" points="181.7,246.2 181.6,246.5 165,246.5 165.2,246.2 	"/>
	<polygon class="st0" points="164.8,244.5 164.6,244.7 148.7,244.7 148.9,244.5 	"/>
	<polygon class="st0" points="180.1,248.3 163.1,248.3 163.4,248 180.4,248 	"/>
	<polygon class="st0" points="201.3,244.5 201.2,244.7 184.8,244.7 185,244.5 	"/>
	<polygon class="st0" points="146.5,244.5 146.3,244.7 130.6,244.7 130.9,244.5 	"/>
	<polygon class="st0" points="163.1,246.2 162.8,246.5 146.5,246.5 146.8,246.2 	"/>
	<polygon class="st0" points="200.4,246.2 200.3,246.5 183.5,246.5 183.7,246.2 	"/>
	<polygon class="st0" points="199.3,248.3 182,248.3 182.3,248 199.4,248 	"/>
	<polygon class="st0" points="183.1,244.5 182.9,244.7 166.7,244.7 166.9,244.5 	"/>
	<polygon class="st0" points="90.6,319.6 124.5,319.6 120.4,324.9 85.2,324.9 	"/>
	<polygon class="st0" points="394.4,340.4 355.4,340.4 351.1,333.8 388.5,333.8 	"/>
	<polygon class="st0" points="350.1,332.3 346.3,326.4 382,326.4 387.2,332.3 	"/>
	<polygon class="st0" points="417.7,324.9 382.7,324.9 378,319.6 411.8,319.6 	"/>
	<polygon class="st0" points="410.2,318.1 376.7,318.1 372.6,313.3 404.9,313.3 	"/>
	<polygon class="st0" points="353.6,340.4 314.4,340.4 311.7,333.8 349.3,333.8 	"/>
	<polygon class="st0" points="233,333.8 270.8,333.8 271.9,340.4 232.6,340.4 	"/>
	<polygon class="st0" points="271.1,326.4 307.1,326.4 309.5,332.3 272.1,332.3 	"/>
	<polygon class="st0" points="308.7,326.4 344.5,326.4 348.3,332.3 311.1,332.3 	"/>
	<polygon class="st0" points="371.2,311.8 367.5,307.6 398.5,307.6 403.2,311.8 	"/>
	<polygon class="st0" points="431.8,287.1 406.3,287.1 402.9,284.6 427.9,284.6 	"/>
	<polygon class="st0" points="425.5,283.1 400.9,283.1 397.9,280.9 422,280.9 	"/>
	<polygon class="st0" points="429.4,306.1 399.1,306.1 394.8,302.3 424.3,302.3 	"/>
	<polygon class="st0" points="416.9,276 414.1,274.2 436.3,274.2 439.5,276 	"/>
	<polygon class="st0" points="419.3,277.5 442.3,277.5 445.9,279.4 422.4,279.4 	"/>
	<polygon class="st0" points="422.3,300.8 393.2,300.8 389.4,297.4 417.7,297.4 	"/>
	<polygon class="st0" points="408.3,288.6 434.2,288.6 438.6,291.4 412,291.4 	"/>
	<polygon class="st0" points="415.6,295.9 387.7,295.9 384.3,292.9 411.5,292.9 	"/>
	<polygon class="st0" points="76.4,302.3 106,302.3 102.1,306.1 71.6,306.1 	"/>
	<polygon class="st0" points="100.8,280.9 98,283.1 73.3,283.1 76.6,280.9 	"/>
	<polygon class="st0" points="115.6,292.9 112.5,295.9 84.4,295.9 88.3,292.9 	"/>
	<polygon class="st0" points="65.1,288.6 91.2,288.6 87.7,291.4 61,291.4 	"/>
	<polygon class="st0" points="56,277.5 79.1,277.5 76.1,279.4 52.5,279.4 	"/>
	<polygon class="st0" points="96.2,284.6 93.1,287.1 67.4,287.1 71,284.6 	"/>
	<polygon class="st0" points="84,274.2 81.3,276 58.6,276 61.6,274.2 	"/>
	<polygon class="st0" points="48.4,268.2 69,268.2 66.5,269.6 45.6,269.6 	"/>
	<polygon class="st0" points="88.6,271.1 86.2,272.7 64.2,272.7 66.9,271.1 	"/>
	<polygon class="st0" points="258.9,253.7 277.7,253.7 277.9,254.3 259,254.3 	"/>
	<polygon class="st0" points="122.3,324.9 126.4,319.6 160.5,319.6 157.6,324.9 	"/>
	<polygon class="st0" points="200,313.3 232.9,313.3 232.6,318.1 198.6,318.1 	"/>
	<polygon class="st0" points="159.4,324.9 162.2,319.6 196.5,319.6 194.9,324.9 	"/>
	<polygon class="st0" points="196.5,324.9 198.1,319.6 232.5,319.6 232.1,324.9 	"/>
	<polygon class="st0" points="73.7,265.5 71.6,266.7 51.3,266.7 53.8,265.5 	"/>
	<polygon class="st0" points="111,297.4 107.5,300.8 78.3,300.8 82.5,297.4 	"/>
	<polygon class="st0" points="133.8,307.6 130.5,311.8 98.4,311.8 102.7,307.6 	"/>
	<polygon class="st0" points="129.3,313.3 125.6,318.1 92.1,318.1 96.9,313.3 	"/>
	<polygon class="st0" points="441.4,262.9 460.3,262.9 462.8,264 443.7,264 	"/>
	<polygon class="st0" points="414.1,319.6 447.6,319.6 454.8,324.9 420,324.9 	"/>
	<polygon class="st0" points="384,326.4 419.4,326.4 426,332.3 389.2,332.3 	"/>
	<polygon class="st0" points="407.1,313.3 439.2,313.3 445.6,318.1 412.4,318.1 	"/>
	<polygon class="st0" points="315,341.9 354.5,341.9 359.4,349.4 318,349.4 	"/>
	<polygon class="st0" points="390.5,333.8 427.7,333.8 435.1,340.4 396.4,340.4 	"/>
	<polygon class="st0" points="402.3,349.4 361.1,349.4 356.3,341.9 395.7,341.9 	"/>
	<polygon class="st0" points="397.7,341.9 436.8,341.9 445.2,349.4 404.3,349.4 	"/>
	<polygon class="st0" points="426.8,302.3 456,302.3 462,306.1 432,306.1 	"/>
	<polygon class="st0" points="400.7,307.6 431.5,307.6 437.2,311.8 405.5,311.8 	"/>
	<polygon class="st0" points="439.4,274.2 461.3,274.2 465,276 442.7,276 	"/>
	<path class="st0" d="M468,277.5L468,277.5c0.2,0.2,0.3,0.3,0.3,0.4c0.3,0.5,0.6,1,0.9,1.6h-2.5C467.1,278.8,467.5,278.1,468,277.5z
		"/>
	<path class="st0" d="M472.2,279.4h-1.3c-0.1-0.3-0.3-0.5-0.4-0.8L472.2,279.4z"/>
	<path class="st0" d="M449,279.4l-3.6-2h16.1c0.3,0.2,0.6,0.4,0.9,0.6c0,0,0.1,0,0.2,0c0.1,0,0.1-0.1,0.2-0.2
		c0.1-0.2,0.3-0.4,0.4-0.5h3c-0.4,0.6-0.8,1.3-1.1,2H449z"/>
	<polygon class="st0" points="424.8,280.9 448.6,280.9 452.7,283.1 428.3,283.1 	"/>
	<path class="st0" d="M458.4,271.1h20.9l3.6,1.6h-14.2c0-0.8,0-0.8-1.1-0.8c-0.3,0-0.4,0.1-0.4,0.4c0,0.1,0,0.3,0,0.4h-5.6
		L458.4,271.1z"/>
	<polygon class="st0" points="420.2,297.4 448.2,297.4 453.6,300.8 424.8,300.8 	"/>
	<polygon class="st0" points="430.7,284.6 455.4,284.6 459.9,287.1 434.7,287.1 	"/>
	<polygon class="st0" points="414,292.9 441,292.9 445.8,295.9 418.2,295.9 	"/>
	<path class="st0" d="M466,291.2c0,0,0,0.1,0,0.1h-24.6l-4.4-2.7h25.6l3.8,2.1C466.1,290.7,466,290.8,466,291.2z"/>
	<polygon class="st0" points="258.6,251.7 276.9,251.7 277.1,252.2 258.7,252.2 	"/>
	<polygon class="st0" points="54.7,319.6 88.4,319.6 83,324.9 48.1,324.9 	"/>
	<polygon class="st0" points="100.6,307.6 96.3,311.8 64.4,311.8 69.7,307.6 	"/>
	<polygon class="st0" points="94.8,313.3 89.9,318.1 56.6,318.1 62.6,313.3 	"/>
	<polygon class="st0" points="113.4,333.8 108.2,340.4 69.3,340.4 76.1,333.8 	"/>
	<polygon class="st0" points="119.2,326.4 114.6,332.3 77.6,332.3 83.7,326.4 	"/>
	<polygon class="st0" points="273.7,341.9 313.4,341.9 316.4,349.4 275,349.4 	"/>
	<polygon class="st0" points="80.1,297.4 75.9,300.8 46.9,300.8 52,297.4 	"/>
	<polygon class="st0" points="44.7,302.3 74,302.3 69.2,306.1 39,306.1 	"/>
	<polygon class="st0" points="475.8,269.6 455.3,269.6 452.4,268.2 472.6,268.2 	"/>
	<polygon class="st0" points="232.5,341.9 272.2,341.9 273.4,349.4 231.9,349.4 	"/>
	<polygon class="st0" points="194.2,332.3 196,326.4 232,326.4 231.6,332.3 	"/>
	<polygon class="st0" points="155.3,332.3 158.5,326.4 194.4,326.4 192.6,332.3 	"/>
	<polygon class="st0" points="272.3,333.8 310.1,333.8 312.8,340.4 273.5,340.4 	"/>
	<polygon class="st0" points="60.2,349.4 67.8,341.9 107,341.9 101.2,349.4 	"/>
	<polygon class="st0" points="150.9,340.4 154.5,333.8 192.2,333.8 190.1,340.4 	"/>
	<polygon class="st0" points="103.1,349.4 108.9,341.9 148.4,341.9 144.3,349.4 	"/>
	<polygon class="st0" points="146,349.4 150.1,341.9 189.7,341.9 187.4,349.4 	"/>
	<polygon class="st0" points="447.9,255.8 464.8,255.8 466.6,256.6 449.6,256.6 	"/>
	<polygon class="st0" points="364.4,244.7 348.9,244.7 348.6,244.5 364.1,244.5 	"/>
	<polygon class="st0" points="367.2,246.5 351.3,246.5 350.9,246.2 366.8,246.2 	"/>
	<polygon class="st0" points="332.3,248.3 315.4,248.3 315.1,248 331.9,248 	"/>
	<polygon class="st0" points="346.4,244.7 330.6,244.7 330.4,244.5 346.1,244.5 	"/>
	<polygon class="st0" points="348.7,246.5 332.5,246.5 332.2,246.2 348.4,246.2 	"/>
	<polygon class="st0" points="400.5,244.7 385.6,244.7 385.3,244.5 400.1,244.5 	"/>
	<polygon class="st0" points="382.5,244.7 367.2,244.7 366.9,244.5 382.1,244.5 	"/>
	<polygon class="st0" points="469.1,266.7 449.3,266.7 446.8,265.5 466.3,265.5 	"/>
	<polygon class="st0" points="311.8,246.5 295.1,246.5 294.9,246.2 311.6,246.2 	"/>
	<polygon class="st0" points="294.4,248.3 277.1,248.3 277,248 294.2,248 	"/>
	<polygon class="st0" points="293.3,246.5 276.4,246.5 276.3,246.2 293.1,246.2 	"/>
	<polygon class="st0" points="292.1,244.7 275.7,244.7 275.6,244.5 292,244.5 	"/>
	<polygon class="st0" points="330.3,246.5 313.8,246.5 313.6,246.2 330,246.2 	"/>
	<polygon class="st0" points="310.2,244.7 293.9,244.7 293.8,244.5 310.1,244.5 	"/>
	<polygon class="st0" points="404.1,246.5 388.8,246.5 388.3,246.2 403.6,246.2 	"/>
	<polygon class="st0" points="328.3,244.7 312.2,244.7 312.1,244.5 328.1,244.5 	"/>
	<polygon class="st0" points="313.4,248.3 296.2,248.3 296,248 313.1,248 	"/>
	<polygon class="st0" points="385.7,246.5 370,246.5 369.6,246.2 385.2,246.2 	"/>
	<polygon class="st0" points="475.4,252.2 459.7,252.2 458.4,251.7 474,251.7 	"/>
	<polygon class="st0" points="85.9,292.9 82,295.9 54.2,295.9 58.8,292.9 	"/>
	<polygon class="st0" points="453.6,249.8 468.7,249.8 469.9,250.2 454.6,250.2 	"/>
	<polygon class="st0" points="483.4,248.3 469,248.3 468,248 482.4,248 	"/>
	<polygon class="st0" points="418.5,244.7 403.9,244.7 403.6,244.5 418.1,244.5 	"/>
	<polygon class="st0" points="36.7,288.6 62.4,288.6 58.3,291.4 31.9,291.4 	"/>
	<polygon class="st0" points="477.9,246.5 463.9,246.5 463.2,246.2 477.1,246.2 	"/>
	<polygon class="st0" points="472.6,258.9 454.9,258.9 453,258.1 470.4,258.1 	"/>
	<polygon class="st0" points="478.8,261.4 460.6,261.4 458.4,260.4 476.4,260.4 	"/>
	<polygon class="st0" points="441,246.5 426.3,246.5 425.7,246.2 440.4,246.2 	"/>
	<polygon class="st0" points="436.6,244.7 422.3,244.7 421.9,244.5 436.1,244.5 	"/>
	<polygon class="st0" points="472.6,244.7 459,244.7 458.5,244.5 472.1,244.5 	"/>
	<polygon class="st0" points="422.6,246.5 407.5,246.5 407,246.2 422,246.2 	"/>
	<polygon class="st0" points="459.4,246.5 445.1,246.5 444.5,246.2 458.7,246.2 	"/>
	<polygon class="st0" points="454.6,244.7 440.6,244.7 440.2,244.5 454.1,244.5 	"/>
	
		<linearGradient id="SVGID_1_" gradientUnits="userSpaceOnUse" x1="31.9816" y1="293.5674" x2="31.9816" y2="261.3408" gradientTransform="matrix(-1 0 0 1 500 0)">
		<stop  offset="0" style="stop-color:#60A685"/>
		<stop  offset="1" style="stop-color:#60A685;stop-opacity:0"/>
	</linearGradient>
	<polygon class="st1" points="468,277.5 468,277.5 468,277.5 	"/>
	
		<linearGradient id="SVGID_2_" gradientUnits="userSpaceOnUse" x1="11.4027" y1="360.9248" x2="11.4027" y2="238.4062" gradientTransform="matrix(-1 0 0 1 500 0)">
		<stop  offset="0" style="stop-color:#60A685"/>
		<stop  offset="1" style="stop-color:#60A685;stop-opacity:0"/>
	</linearGradient>
	<path class="st2" d="M500,332.3v1.5h-22.6c-0.1-0.5-0.1-1-0.2-1.5H500z"/>
	
		<linearGradient id="SVGID_3_" gradientUnits="userSpaceOnUse" x1="12.8679" y1="360.9248" x2="12.8679" y2="238.4062" gradientTransform="matrix(-1 0 0 1 500 0)">
		<stop  offset="0" style="stop-color:#60A685"/>
		<stop  offset="1" style="stop-color:#60A685;stop-opacity:0"/>
	</linearGradient>
	<path class="st3" d="M491.8,324.9l-8.4-5.3h-8.1c-0.1-0.5-0.1-1-0.2-1.5h5.9l-6.5-4.1c-0.1-0.7-0.2-1.4-0.3-2.1H500v1.5h-23.6
		l7.5,4.7H500v1.5h-13.7l8.4,5.3h5.3v1.5h-3l3,1.9v1.8l-5.8-3.6h-17.9c-0.1-0.5-0.1-1-0.2-1.5H491.8z"/>
	
		<linearGradient id="SVGID_4_" gradientUnits="userSpaceOnUse" x1="250" y1="360.9248" x2="250" y2="238.4062" gradientTransform="matrix(-1 0 0 1 500 0)">
		<stop  offset="0" style="stop-color:#60A685"/>
		<stop  offset="1" style="stop-color:#60A685;stop-opacity:0"/>
	</linearGradient>
	<path class="st4" d="M0,239.1l0,0.8l0,0.8l0,0.7h9.9l-0.1,0H0l0,1.5h5.1L4.7,243H0l0,1.5v0l0,0.2l0,1.4l0,0.1h13.4l-0.7,0.3H0
		l0,1.5h8.3l-1,0.3H0l0,1.5h3l-1.2,0.4H0l0,0.6l0,0.9l0,0.5l0,0.2l0,1.3h12l-1.6,0.6H0l0,1.5h6.4l-1.9,0.7H0l0,1.5h0.4L0,258.2
		l0,0.7l0,0.9l0,0.6h16.3l-2.3,1H0l0,1.5h10.2L7.6,264H0l0,1.5h3.9l-3,1.2H0l0,0.4l0,1.1l0,0.5l1.2-0.5h20l-3.1,1.4H0l0,1.5h14.7
		l-3.5,1.6H0l0,1.5h7.9L4,276H0l0,1.5h0.7L0,277.8l0,1.6v0l0,1.5h20l-4.3,2.2H0l0,1.5h12.7l-4.8,2.5H0l0,1.5h4.9L0,291.1l0,0.2
		l0,1.4l0,0.1h26.3l-5.3,3.1H0l0,1.5h18.5l-5.9,3.4H0l0,1.5h10l-6.6,3.8H0l0,1.5h0.8L0,308.1l0,1.7l3.8-2.2h30.3l-6.3,4.2H0l0,1.5
		h25.5l-7,4.7H0l0,1.5h16.3l-7.9,5.3H0l0,1.5h6.1L0,330.5l0,1.8l8.8-5.9h35l-7.4,5.9H0l0,1.5h34.5l-8.4,6.7H0l0,1.5h24.3l-9.4,7.5H0
		l0,1.5h13l-10.7,8.5H0l0,1.5h500v-1.5h-41.4l-9.5-8.5h41l9.9,7.3v-1.9l-7.4-5.5h7.4v-1.5h-9.4l-10.2-7.5H500v-1.5h-21.6l0,0
		c0.1,0.7,0.2,1.4,0.3,2.1l8.4,6.2c0.1,0,0.1,0,0.1,0.1l0.8,0.6h-0.8c0,0.1,0,0.1,0,0.2c0,0.6,0,0.6-0.6,0.6c-6.3,0-12.6,0-18.9,0
		c-6.3,0-12.5,0-18.8,0c-0.8,0-0.8,0-0.8-0.8h-0.8l-8.4-7.5h18.4c0.1-0.5,0.1-1,0.2-1.5h-20.3l-7.4-6.7h28.7c0.1-0.5,0.1-1,0.2-1.5
		h-30.6l-6.6-5.9h35.2l2.6,1.9c0.1-0.4,0.1-0.8,0.2-1.2c0-0.2,0-0.3,0.1-0.5l-0.3-0.2h0.3c0.1-0.5,0.1-1,0.2-1.5h-2.6l-7.1-5.3h10.5
		c0-0.3,0.1-0.7,0.1-1c0-0.2,0.1-0.3,0.1-0.5h-12.7l-6.4-4.7h19.8c0.1-0.5,0.1-1,0.2-1.5h-22.1l-5.7-4.2h28.4
		c0.1-0.9,0.3-1.8,0.3-2.8c0,0,0,0,0-0.1l-3.9-2.5h4c0-0.5,0-1,0-1.5h-6.4l-5.4-3.4h15c0-0.1,0-0.2,0-0.3c0-0.4,0-0.8,0-1.2h-17.4
		l-4.9-3.1H466c0-0.5,0-1,0-1.5h-24.6l-4.4-2.7h25.6l3.8,2.1c0,0,0,0,0.1,0c0.9,0,1.9,0,2.8,0c0.1,0,0.2,0,0.2,0l-1.1-0.6
		c-0.5,0.1-0.9,0.1-1.4-0.2c-0.3-0.2-0.6-0.3-0.8-0.5c-0.9-0.6-1.5-1.3-1.9-2.2h-1.3l-4.5-2.5h5.3c0-0.5,0-1,0.1-1.5h-2.6
		c-0.1,0.1-0.3,0.1-0.8,0.1c-0.4,0-0.6,0-0.7-0.1h-3.9l-4-2.2h12.7c0.2-0.5,0.4-1,0.6-1.5H449l-3.6-2h16.1c-0.1-0.1-0.2-0.2-0.2-0.2
		c-0.3-0.4,0.3-0.7,0.4-1c0.1-0.2,0.3-0.3,0.5-0.1c0.3,0.2,0.6,0.5,1,0.7c0.2,0.2,0.2,0.3,0.1,0.5c0,0-0.1,0.1-0.1,0.1h3
		c0.4-0.7,0.9-1.3,1.3-1.9l-2.8-1.3h21.6l4.1,1.8h-21.6c0.6,0.9,1.2,1.7,1.7,2.7l1.7,0.8h-1.3c0.1,0.3,0.3,0.6,0.4,0.9
		c0.1,0.2,0.2,0.4,0.2,0.6h3.7l4.6,2.2h-3.3c-0.1,0.1-0.3,0.1-0.8,0.1c-0.2,0-0.3,0-0.5,0c-0.1,0-0.2,0-0.3-0.1h-2.8
		c0.1,0.4,0.1,0.9,0.1,1.3c0,0.1,0,0.1,0,0.2h10.7l5.1,2.5h-16.4c0,0.1-0.1,0.2-0.1,0.2c-0.3,0.5-0.6,0.9-1,1.3h20.5l5.7,2.7h-26
		l-0.8-0.5c0,0.1,0,0.2,0,0.4c0,0.5,0,1,0,1.5h0.4l5.6,3.1h-6c0,0.4,0,0.9,0,1.3c0,0.1,0,0.1,0,0.2h8.7l6.2,3.4h-11.8
		c0,0.5,0,1,0,1.5h14.6l6.9,3.8h-21.2c0.1,0.5,0.1,1,0.2,1.5h23.7l2.6,1.4v-1.4v-0.3v-1.2h-2.2l-6.9-3.8h9.2v-1.5h-11.9l-6.2-3.4
		H500v-1.5h-20.9l-5.6-3.1h26.3l0.1,0.1v-0.1v-1.5v-0.1l-5.4-2.6h5.4v-1.5h-8.5l-5.1-2.5H500v-1.5h-16.7l-4.6-2.2H500v-0.8v-0.7v-1
		l-2.4-1h2.4V276h-5.8l-4.1-1.8h9.9v-1.5h-13.3l-3.6-1.6h17v-1.4v-0.1v-1.4v-0.1v-1.4h-3.5l-3.2-1.2h6.7V264h-10.5l-2.8-1.1H500
		v-1.5h-17.1l-2.4-1h17.7l1.9,0.7v-0.7v-0.9v-0.6h-1.6l-2.3-0.8h3.9v-1.5h-8.1l-2-0.7H500v-1.5h-14.3l-1.7-0.6h15.7l0.2,0.1v-0.1
		v-1.5v0l-1.5-0.5h1.5v-1.5h-6l-1.3-0.4h7.3v-1.5h-11.8l-1-0.3H500v-0.4v-1.1v-0.3V246v-1.3h-4.3l-0.6-0.2h4.8V243h-9.7l-0.3-0.1
		H500v-0.7v-0.8v0v-0.7v-0.8v0v-1.5H2.4l-0.1,0L0,239.1z M474.6,277.5h19.2l4.6,2h-22.8l-4.1-2h1.5c-0.1-0.1-0.2-0.2-0.3-0.4
		c0.1-0.1,0.2-0.2,0.2-0.3c0.1-0.1,0.3-0.2,0.5-0.3c0.9-0.6,0.9-0.6,1.5,0.3c0.2,0.3,0.1,0.4-0.1,0.6
		C474.7,277.4,474.7,277.4,474.6,277.5z M27.5,241.4l-0.1,0H14.7l0.1,0H27.5z M27.6,242.9h13.3l-0.3,0.1H27.3L27.6,242.9z
		 M275.4,248l0.1,0.3H258L258,248H275.4z M257.7,246.5l0-0.3h17l0.1,0.3H257.7z M276.1,249.8l0.2,0.4h-17.9l-0.1-0.4H276.1z
		 M116.5,332.3l4.6-5.9h35.7l-3.2,5.9H116.5z M152.8,333.8l-3.6,6.7h-39.1l5.2-6.7H152.8z M311.1,332.3l-2.4-5.9h35.8l3.8,5.9H311.1
		z M349.3,333.8l4.3,6.7h-39.2l-2.7-6.7H349.3z M450.5,250.2H435l-1-0.4h15.5L450.5,250.2z M449.7,248.3l-0.8-0.3h14.7l0.9,0.3
		H449.7z M296.6,251.7l0.3,0.5h-18.3l-0.2-0.5H296.6z M277.9,250.2l-0.2-0.4h17.7l0.3,0.4H277.9z M297.9,253.7l0.4,0.6h-18.8
		l-0.2-0.6H297.9z M141,300.8l2.7-3.4h28.9l-1.9,3.4H141z M169.9,302.3l-2.1,3.8h-30.9l3-3.8H169.9z M372.4,264H352l-1.2-1.1h20.1
		L372.4,264z M371.4,261.4l-1.3-1h19.2l1.5,1H371.4z M326.2,262.9l1,1.1h-20.9l-0.7-1.1H326.2z M304.6,261.4l-0.6-1h20l0.8,1H304.6z
		 M168.8,262.9l-0.9,1.1h-20.7l1.1-1.1H168.8z M147.7,261.4h-19.9l1.2-1h19.6L147.7,261.4z M179.9,287.1l1.3-2.5h26l-0.8,2.5H179.9z
		 M206,288.6l-0.8,2.7h-27.6l1.5-2.7H206z M330.9,268.2l1.2,1.4h-22.2l-0.9-1.4H330.9z M308,266.7l-0.8-1.2h21.2l1.1,1.2H308z
		 M330.5,265.5h21l1.4,1.2h-21.3L330.5,265.5z M354.5,268.2l1.6,1.4h-22l-1.2-1.4H354.5z M334.8,272.7h-22.9l-1-1.6h22.6
		L334.8,272.7z M312.2,276h-23.9l-0.7-1.8h23.5L312.2,276z M288.7,280.9l0.9,2.2h-25.7l-0.4-2.2H288.7z M290.2,284.6l1,2.5h-26.7
		l-0.4-2.5H290.2z M264.7,297.4l0.6,3.4h-30l0.2-3.4H264.7z M235.4,277.5l-0.1,2h-24.9l0.6-2H235.4z M210.9,272.7h-23.2l0.9-1.6
		h22.8L210.9,272.7z M235.2,280.9l-0.2,2.2h-25.8l0.7-2.2H235.2z M234.9,284.6l-0.2,2.5H208l0.8-2.5H234.9z M184,279.4l1.1-2h24.3
		l-0.6,2H184z M185.9,276l1-1.8h23.5l-0.5,1.8H185.9z M165.4,269.6l1.1-1.4h22l-0.8,1.4H165.4z M167.7,266.7l1-1.2h21.3l-0.7,1.2
		H167.7z M190.1,268.2h22.1l-0.4,1.4h-22.5L190.1,268.2z M235.7,274.2l-0.1,1.8h-24.1l0.5-1.8H235.7z M265.5,302.3l0.6,3.8h-31.2
		l0.3-3.8H265.5z M266.4,307.6l0.7,4.2h-32.6l0.3-4.2H266.4z M234.5,291.4h-27.7l0.8-2.7h27.1L234.5,291.4z M182,283.1l1.2-2.2h25.1
		l-0.7,2.2H182z M157.7,279.4l1.5-2h24.2l-1.1,2H157.7z M160.4,276l1.4-1.8h23.4l-1,1.8H160.4z M163,272.7l1.2-1.6h22.6l-0.9,1.6
		H163z M141.4,269.6l1.4-1.4h21.7l-1.1,1.4H141.4z M144.4,266.7l1.3-1.2h21.1l-1,1.2H144.4z M149.8,261.4l1-1h19.9l-0.8,1H149.8z
		 M191.3,262.9l-0.6,1.1h-21l0.9-1.1H191.3z M171.8,261.4l0.8-1h20.1l-0.5,1H171.8z M213.1,265.5l-0.4,1.2H191l0.7-1.2H213.1z
		 M235.9,271.1l-0.1,1.6h-23.3l0.5-1.6H235.9z M264,292.9l0.5,3.1h-28.8l0.2-3.1H264z M236,291.4l0.2-2.7h27.1l0.5,2.7H236z
		 M263.2,279.4l-0.3-2h24.4l0.8,2H263.2z M287,272.7l-0.6-1.6h22.8l1,1.6H287z M285.7,269.6l-0.6-1.4h22.1l0.9,1.4H285.7z
		 M326,260.4h19.8l1.1,1h-20L326,260.4z M348.6,262.9l1.2,1.1h-20.6l-1-1.1H348.6z M348.1,260.4h19.5l1.3,1h-19.8L348.1,260.4z
		 M374.4,265.5l1.7,1.2h-21l-1.4-1.2H374.4z M378.1,268.2l1.9,1.4h-21.7l-1.6-1.4H378.1z M359.5,272.7h-22.7l-1.4-1.6h22.3
		L359.5,272.7z M337.7,276H314l-1.1-1.8h23.3L337.7,276z M314.4,279.4h-24.7l-0.8-2h24.3L314.4,279.4z M315.4,280.9l1.4,2.2h-25.6
		l-0.9-2.2H315.4z M317.8,284.6l1.6,2.5h-26.5l-1-2.5H317.8z M292.9,291.4h-27.7l-0.5-2.7h27L292.9,291.4z M293.5,292.9l1.2,3.1H266
		l-0.5-3.1H293.5z M295.4,297.4l1.4,3.4h-29.9l-0.6-3.4H295.4z M297.3,302.3l1.5,3.8h-31.2l-0.6-3.8H297.3z M268.2,318.1h-34.1
		l0.3-4.7h33L268.2,318.1z M205.3,295.9l0.9-3.1h28.1l-0.2,3.1H205.3z M234,297.4l-0.2,3.4h-30l1-3.4H234z M203.8,295.9h-28.7
		l1.7-3.1h28L203.8,295.9z M148.4,291.4l2.1-2.7h26.8l-1.5,2.7H148.4z M151.7,287.1l1.9-2.5h25.9l-1.3,2.5H151.7z M154.8,283.1
		l1.7-2.2h25l-1.2,2.2H154.8z M131.4,279.4l2-2h23.9l-1.5,2H131.4z M134.9,276l1.8-1.8h23.2l-1.4,1.8H134.9z M138.3,272.7l1.6-1.6
		h22.4l-1.2,1.6H138.3z M117.4,269.6l1.8-1.4h21.5l-1.4,1.4H117.4z M121.1,266.7l1.6-1.2h20.8l-1.3,1.2H121.1z M124.5,264l1.4-1.1
		h20.2L145,264H124.5z M105.8,261.4l1.4-1h19.4l-1.2,1H105.8z M109.5,258.9l1.2-0.8h18.8l-1,0.8H109.5z M113,256.6l1.1-0.7h18.3
		l-0.9,0.7H113z M151,258.1l-0.9,0.8h-19.3l1-0.8H151z M133.8,256.6l0.9-0.7h18.6l-0.7,0.7H133.8z M172.5,258.1l-0.7,0.8h-19.5
		l0.9-0.8H172.5z M154.7,256.6l0.7-0.7h18.8l-0.6,0.7H154.7z M174.4,258.1H194l-0.5,0.8h-19.8L174.4,258.1z M213.9,262.9l-0.3,1.1
		h-21.1l0.6-1.1H213.9z M236.1,268.2l-0.1,1.4h-22.6l0.4-1.4H236.1z M214.3,266.7l0.4-1.2h21.6l-0.1,1.2H214.3z M215.1,264l0.3-1.1
		h21l-0.1,1.1H215.1z M262.6,284.6l0.4,2.5h-26.7l0.2-2.5H262.6z M262.4,274.2H286l0.7,1.8h-24L262.4,274.2z M262.1,272.7l-0.3-1.6
		h22.9l0.6,1.6H262.1z M284.6,266.7l-0.5-1.2h21.4l0.8,1.2H284.6z M283.4,264l-0.4-1.1h20.8l0.7,1.1H283.4z M282.4,261.4l-0.4-1
		h20.2l0.6,1H282.4z M301.5,256.6l-0.5-0.7H320l0.6,0.7H301.5z M322,258.1l0.7,0.8H303l-0.5-0.8H322z M322,255.8h18.7l0.8,0.7h-18.9
		L322,255.8z M343.2,258.1l0.9,0.8h-19.4l-0.7-0.8H343.2z M343,255.8h18.4l1,0.7h-18.6L343,255.8z M364.4,258.1l1.1,0.8h-19.2
		l-0.9-0.8H364.4z M363.9,255.8h18.2l1.1,0.7h-18.3L363.9,255.8z M385.6,258.1l1.3,0.8h-18.9l-1.1-0.8H385.6z M384.9,255.8h17.9
		l1.3,0.7h-18L384.9,255.8z M406.8,258.1l1.5,0.8h-18.6l-1.3-0.8H406.8z M411.1,260.4l1.8,1h-19.2l-1.5-1H411.1z M395,264h-20.1
		l-1.5-1.1h19.8L395,264z M397.4,265.5l2,1.2h-20.7l-1.7-1.2H397.4z M401.8,268.2l2.2,1.4h-21.4l-1.9-1.4H401.8z M384.2,272.7h-22.4
		l-1.8-1.6h22.1L384.2,272.7z M363.2,276h-23.5l-1.6-1.8h23.1L363.2,276z M340.8,279.4h-24.5l-1.3-2H339L340.8,279.4z M342.1,280.9
		l1.9,2.2h-25.4l-1.4-2.2H342.1z M345.3,284.6l2.2,2.5h-26.4l-1.6-2.5H345.3z M322.1,291.4h-27.6l-1.1-2.7h26.9L322.1,291.4z
		 M323,292.9l2,3.1h-28.6l-1.2-3.1H323z M326,297.4l2.2,3.4h-29.8l-1.4-3.4H326z M329.1,302.3l2.4,3.8h-31.1l-1.5-3.8H329.1z
		 M301.2,311.8h-32.5l-0.7-4.2h31.5L301.2,311.8z M301.8,313.3l1.9,4.7h-34l-0.8-4.7H301.8z M269.3,324.9h-35.7l0.4-5.3h34.4
		L269.3,324.9z M233.4,306.1h-31.2l1.2-3.8h30.3L233.4,306.1z M172.4,300.8l1.9-3.4h29.1l-1,3.4H172.4z M144.8,295.9l2.4-3.1H175
		l-1.7,3.1H144.8z M146.5,291.4h-27.2l2.8-2.7h26.6L146.5,291.4z M123.6,287.1l2.5-2.5h25.6l-1.9,2.5H123.6z M127.6,283.1l2.2-2.2
		h24.8l-1.7,2.2H127.6z M129.3,279.4h-24.2l2.5-2h23.7L129.3,279.4z M109.5,276l2.2-1.8h22.9l-1.8,1.8H109.5z M113.6,272.7l2-1.6
		h22.2l-1.6,1.6H113.6z M93.5,269.6l2.1-1.4h21.2l-1.8,1.4H93.5z M97.8,266.7l1.9-1.2h20.6l-1.6,1.2H97.8z M101.9,264l1.6-1.1h19.9
		l-1.4,1.1H101.9z M83.8,261.4l1.7-1h19.1l-1.4,1H83.8z M88.1,258.9l1.4-0.8H108l-1.2,0.8H88.1z M92.1,256.6l1.2-0.7h18l-1.1,0.7
		H92.1z M75.6,254.3l1.2-0.6H94l-1.1,0.6H75.6z M79.8,252.2l1-0.5h16.7l-0.9,0.5H79.8z M114.5,253.7l-0.9,0.6H95.9l1.1-0.6H114.5z
		 M99.6,252.2l0.9-0.5h17l-0.8,0.5H99.6z M135,253.7l-0.8,0.6h-17.9l0.9-0.6H135z M119.4,252.2l0.8-0.5h17.3l-0.6,0.5H119.4z
		 M155.4,253.7l-0.6,0.6h-18.2l0.8-0.6H155.4z M139.3,252.2l0.6-0.5h17.6l-0.5,0.5H139.3z M157.6,253.7h18.3l-0.5,0.6h-18.5
		L157.6,253.7z M159.1,252.2l0.5-0.5h17.8l-0.4,0.5H159.1z M195.2,255.8l-0.4,0.7h-19.2l0.6-0.7H195.2z M214.7,260.4l-0.3,1h-20.5
		l0.5-1H214.7z M195.2,258.9l0.5-0.8h19.7l-0.3,0.8H195.2z M196.5,256.6l0.4-0.7h19.2l-0.2,0.7H196.5z M216.2,260.4h20.4l-0.1,1
		h-20.6L216.2,260.4z M216.7,258.9l0.3-0.8h19.8l-0.1,0.8H216.7z M262,280.9l0.4,2.2h-25.8l0.2-2.2H262z M236.8,279.4l0.1-2h24.4
		l0.3,2H236.8z M261.3,268.2h22.2l0.6,1.4h-22.5L261.3,268.2z M261.1,266.7l-0.2-1.2h21.5l0.5,1.2H261.1z M260.6,264l-0.2-1.1h20.9
		l0.4,1.1H260.6z M281.1,258.1h19.7l0.5,0.8h-19.9L281.1,258.1z M280.4,256.6l-0.3-0.7h19.1l0.5,0.7H280.4z M299.7,253.7h18.4
		l0.5,0.6h-18.6L299.7,253.7z M318.4,251.7h17.7l0.6,0.5h-17.9L318.4,251.7z M338.4,253.7l0.7,0.6h-18.4l-0.5-0.6H338.4z
		 M338.4,251.7h17.5l0.7,0.5h-17.6L338.4,251.7z M358.6,253.7l0.8,0.6h-18.1l-0.7-0.6H358.6z M358.4,251.7h17.2l0.8,0.5h-17.3
		L358.4,251.7z M378.7,253.7l1,0.6h-17.8l-0.8-0.6H378.7z M378.4,251.7h16.9l0.9,0.5h-17L378.4,251.7z M398.9,253.7l1.1,0.6h-17.5
		l-1-0.6H398.9z M398.4,251.7h16.6l1.1,0.5h-16.7L398.4,251.7z M419.1,253.7l1.3,0.6h-17.2l-1.1-0.6H419.1z M418.4,251.7h16.3
		l1.2,0.5h-16.4L418.4,251.7z M439.3,253.7l1.4,0.6h-16.9l-1.3-0.6H439.3z M425,256.6h-17.7l-1.3-0.7h17.6L425,256.6z M428,258.1
		l1.7,0.8h-18.3l-1.5-0.8H428z M432.9,260.4l2,1H416l-1.8-1H432.9z M417.6,264h-19.8l-1.7-1.1h19.5L417.6,264z M420.4,265.5l2.3,1.2
		h-20.4l-2-1.2H420.4z M425.4,268.2l2.6,1.4h-21.1l-2.2-1.4H425.4z M408.9,272.7h-22.2l-2.1-1.6h21.8L408.9,272.7z M388.6,276h-23.2
		l-2-1.8h22.8L388.6,276z M367.1,279.4h-24.3l-1.7-2h23.8L367.1,279.4z M368.7,280.9l2.5,2.2H346l-1.9-2.2H368.7z M372.9,284.6
		l2.8,2.5h-26.1l-2.2-2.5H372.9z M351.2,291.4h-27.4l-1.8-2.7h26.7L351.2,291.4z M352.6,292.9l2.7,3.1h-28.4l-2-3.1H352.6z
		 M356.6,297.4l3,3.4h-29.6l-2.2-3.4H356.6z M360.9,302.3l3.3,3.8h-30.9l-2.4-3.8H360.9z M335.2,311.8h-32.4l-1.7-4.2h31.4
		L335.2,311.8z M336.2,313.3l3,4.7h-33.9l-1.9-4.7H336.2z M340.2,319.6l3.4,5.3h-35.5l-2.1-5.3H340.2z M306.5,324.9h-35.6l-0.9-5.3
		h34.4L306.5,324.9z M270.6,332.3h-37.4l0.4-5.9h36L270.6,332.3z M233,311.8h-32.6l1.3-4.2h31.6L233,311.8z M169.5,306.1l2.1-3.8
		h30.2l-1.2,3.8H169.5z M200.2,307.6l-1.3,4.2h-32.5l2.3-4.2H200.2z M198.4,313.3l-1.4,4.7H163l2.6-4.7H198.4z M161.3,318.1h-33.8
		l3.7-4.7h32.7L161.3,318.1z M132.4,311.8l3.3-4.2H167l-2.3,4.2H132.4z M135,306.1h-30.7l3.9-3.8h29.8L135,306.1z M109.6,300.8
		l3.5-3.4h28.7l-2.7,3.4H109.6z M114.6,295.9l3.1-3.1h27.6l-2.4,3.1H114.6z M117.1,291.4h-27l3.4-2.7h26.3L117.1,291.4z M95.5,287.1
		l3.1-2.5H124l-2.5,2.5H95.5z M100.4,283.1l2.8-2.2h24.5l-2.2,2.2H100.4z M102.7,279.4H78.8l3-2h23.4L102.7,279.4z M84,276l2.6-1.8
		h22.6l-2.2,1.8H84z M88.9,272.7l2.4-1.6h21.9l-2,1.6H88.9z M69.5,269.6l2.4-1.4h20.9l-2.1,1.4H69.5z M74.6,266.7l2.2-1.2H97
		l-1.9,1.2H74.6z M79.3,264l1.9-1.1h19.7l-1.6,1.1H79.3z M61.8,261.4l1.9-1h18.8l-1.7,1H61.8z M66.7,258.9l1.6-0.8h18.2l-1.4,0.8
		H66.7z M71.2,256.6l1.4-0.7h17.7l-1.2,0.7H71.2z M55.3,254.3l1.4-0.6h16.9l-1.2,0.6H55.3z M60,252.2l1.1-0.5h16.4l-1,0.5H60z
		 M64.4,250.2l0.9-0.4h15.9l-0.8,0.4H64.4z M68.6,248.3l0.7-0.3h15.5l-0.7,0.3H68.6z M100.8,249.8l-0.7,0.4H83.7l0.8-0.4H100.8z
		 M87.5,248.3l0.7-0.3H104l-0.6,0.3H87.5z M120.4,249.8l-0.6,0.4h-16.7l0.7-0.4H120.4z M106.4,248.3l0.6-0.3h16.1l-0.5,0.3H106.4z
		 M139.9,249.8l-0.5,0.4h-16.9l0.6-0.4H139.9z M125.3,248.3l0.5-0.3h16.4l-0.4,0.3H125.3z M142.3,249.8h17.1l-0.4,0.4h-17.2
		L142.3,249.8z M144.2,248.3l0.4-0.3h16.7l-0.3,0.3H144.2z M161.6,249.8h17.4l-0.3,0.4h-17.5L161.6,249.8z M196.3,253.7l-0.3,0.6
		h-18.7l0.5-0.6H196.3z M179,252.2l0.4-0.5h18.1l-0.3,0.5H179z M180.5,250.2l0.3-0.4h17.6l-0.2,0.4H180.5z M216.7,253.7l-0.2,0.6
		h-18.8l0.3-0.6H216.7z M198.8,252.2l0.3-0.5h18.2l-0.2,0.5H198.8z M199.9,250.2l0.2-0.4h17.8l-0.1,0.4H199.9z M236.9,255.8
		l-0.1,0.7h-19.5l0.2-0.7H236.9z M218.1,254.3l0.2-0.6h18.8l0,0.6H218.1z M218.7,252.2l0.2-0.5h18.3l0,0.5H218.7z M260.8,274.2
		l0.3,1.8H237l0.1-1.8H260.8z M237.3,272.7l0.1-1.6h22.9l0.3,1.6H237.3z M260.2,261.4l-0.2-1h20.3l0.4,1H260.2z M259.8,258.9
		l-0.1-0.8h19.8l0.3,0.8H259.8z M297.2,249.8h17.5l0.4,0.4h-17.6L297.2,249.8z M316.4,251.7l0.5,0.5h-18.1l-0.3-0.5H316.4z
		 M316.7,249.8H334l0.5,0.4h-17.4L316.7,249.8z M334.2,248h16.6l0.5,0.3h-16.7L334.2,248z M353.2,249.8l0.6,0.4h-17.1l-0.5-0.4
		H353.2z M353.3,248h16.3l0.5,0.3h-16.4L353.3,248z M372.5,249.8l0.7,0.4h-16.8l-0.6-0.4H372.5z M372.4,248h16l0.6,0.3h-16.1
		L372.4,248z M391.7,249.8l0.8,0.4H376l-0.7-0.4H391.7z M391.5,248h15.7l0.7,0.3h-15.8L391.5,248z M411,249.8l0.9,0.4h-16.2
		l-0.8-0.4H411z M410.6,248H426l0.8,0.3h-15.4L410.6,248z M430.2,249.8l1,0.4h-15.9l-0.9-0.4H430.2z M429.8,248h15l0.8,0.3h-15.1
		L429.8,248z M454.3,251.7l1.3,0.5h-16l-1.2-0.5H454.3z M459.4,253.7l1.6,0.6h-16.6l-1.4-0.6H459.4z M445.8,256.6h-17.4l-1.5-0.7
		h17.2L445.8,256.6z M449.2,258.1l1.9,0.8h-18l-1.7-0.8H449.2z M454.6,260.4l2.2,1h-18.5l-2-1H454.6z M440.2,264h-19.5l-2-1.1H438
		L440.2,264z M443.3,265.5l2.6,1.2h-20.1l-2.3-1.2H443.3z M449,268.2l2.9,1.4h-20.8l-2.6-1.4H449z M433.6,272.7h-21.9l-2.5-1.6h21.5
		L433.6,272.7z M414.1,276h-22.9l-2.4-1.8h22.5L414.1,276z M393.4,279.4h-24l-2.2-2h23.6L393.4,279.4z M395.4,280.9l3,2.2h-24.9
		l-2.5-2.2H395.4z M400.4,284.6l3.3,2.5h-25.9l-2.8-2.5H400.4z M380.4,291.4h-27.1l-2.4-2.7h26.5L380.4,291.4z M382,292.9l3.4,3.1
		h-28.2l-2.7-3.1H382z M387.1,297.4l3.8,3.4h-29.4l-3-3.4H387.1z M392.6,302.3l4.2,3.8h-30.6l-3.3-3.8H392.6z M369.2,311.8H337
		l-2.7-4.2h31.2L369.2,311.8z M370.6,313.3l4.2,4.7H341l-3-4.7H370.6z M376,319.6l4.6,5.3h-35.3l-3.4-5.3H376z M309.5,332.3h-37.4
		l-1-5.9h36L309.5,332.3z M271.9,340.4h-39.4l0.5-6.7h37.8L271.9,340.4z M198.6,318.1l1.4-4.7h32.9l-0.3,4.7H198.6z M232.5,319.6
		l-0.4,5.3h-35.7l1.6-5.3H232.5z M194.9,324.9h-35.6l2.9-5.3h34.3L194.9,324.9z M157.6,324.9h-35.4l4.1-5.3h34.1L157.6,324.9z
		 M120.4,324.9H85.2l5.4-5.3h33.9L120.4,324.9z M92.1,318.1l4.8-4.7h32.4l-3.7,4.7H92.1z M98.4,311.8l4.3-4.2h31.1l-3.3,4.2H98.4z
		 M102.1,306.1H71.6l4.8-3.8H106L102.1,306.1z M78.3,300.8l4.3-3.4H111l-3.5,3.4H78.3z M84.4,295.9l3.8-3.1h27.3l-3.1,3.1H84.4z
		 M87.7,291.4H61l4.1-2.7h26.1L87.7,291.4z M67.4,287.1l3.7-2.5h25.1l-3.1,2.5H67.4z M73.3,283.1l3.3-2.2h24.2l-2.8,2.2H73.3z
		 M76.1,279.4H52.5l3.4-2h23.1L76.1,279.4z M58.6,276l3.1-1.8H84l-2.6,1.8H58.6z M64.2,272.7l2.7-1.6h21.6l-2.4,1.6H64.2z
		 M45.6,269.6l2.8-1.4H69l-2.4,1.4H45.6z M51.3,266.7l2.4-1.2h20l-2.2,1.2H51.3z M56.7,264l2.2-1.1h19.3l-1.9,1.1H56.7z M39.8,261.4
		l2.1-1h18.4l-1.9,1H39.8z M45.3,258.9l1.8-0.8H65l-1.6,0.8H45.3z M50.4,256.6l1.6-0.7h17.4l-1.4,0.7H50.4z M35,254.3l1.5-0.6H53
		l-1.4,0.6H35z M40.1,252.2l1.3-0.5h16.1l-1.1,0.5H40.1z M45,250.2l1-0.4h15.6l-0.9,0.4H45z M49.7,248.3l0.8-0.3h15.2l-0.7,0.3H49.7
		z M35.8,246.5l0.7-0.3h14.4l-0.6,0.3H35.8z M40.5,244.7l0.5-0.2h14l-0.4,0.2H40.5z M69.6,246.2l-0.6,0.3H54.2l0.6-0.3H69.6z
		 M58.5,244.7l0.4-0.2h14.4l-0.4,0.2H58.5z M88.3,246.2l-0.5,0.3H72.7l0.6-0.3H88.3z M76.5,244.7l0.4-0.2h14.7l-0.3,0.2H76.5z
		 M91.6,246.2H107l-0.4,0.3H91.1L91.6,246.2z M94.5,244.7l0.3-0.2h15l-0.3,0.2H94.5z M110,246.2h15.7l-0.4,0.3h-15.8L110,246.2z
		 M112.6,244.7l0.3-0.2h15.3l-0.3,0.2H112.6z M128.4,246.2h16l-0.3,0.3H128L128.4,246.2z M130.6,244.7l0.3-0.2h15.6l-0.2,0.2H130.6z
		 M146.8,246.2h16.3l-0.3,0.3h-16.3L146.8,246.2z M148.7,244.7l0.2-0.2h15.9l-0.2,0.2H148.7z M180.4,248l-0.3,0.3h-17l0.3-0.3H180.4
		z M165,246.5l0.3-0.3h16.5l-0.2,0.3H165z M166.7,244.7l0.2-0.2h16.1l-0.1,0.2H166.7z M199.4,248l-0.2,0.3H182l0.3-0.3H199.4z
		 M183.5,246.5l0.2-0.3h16.7l-0.1,0.3H183.5z M184.8,244.7l0.1-0.2h16.3l-0.1,0.2H184.8z M218.5,248l-0.1,0.3H201l0.2-0.3H218.5z
		 M202,246.5l0.1-0.3H219l-0.1,0.3H202z M202.9,244.7l0.1-0.2h16.5l-0.1,0.2H202.9z M237.4,249.8l0,0.4h-18l0.1-0.4H237.4z
		 M219.9,248.3l0.1-0.3h17.4l0,0.3H219.9z M237.6,268.2h22.3l0.2,1.4h-22.6L237.6,268.2z M237.7,266.7l0.1-1.2h21.6l0.2,1.2H237.7z
		 M259.3,255.8h19.3l0.3,0.7h-19.4L259.3,255.8z M259,254.3l-0.1-0.6h18.8l0.2,0.6H259z M258.7,252.2l-0.1-0.5h18.3l0.2,0.5H258.7z
		 M275.6,244.5H292l0.1,0.2h-16.5L275.6,244.5z M293.1,246.2l0.2,0.3h-16.9l-0.1-0.3H293.1z M294.2,248l0.2,0.3h-17.3L277,248H294.2
		z M293.8,244.5h16.3l0.2,0.2h-16.3L293.8,244.5z M311.6,246.2l0.2,0.3h-16.7l-0.2-0.3H311.6z M313.1,248l0.3,0.3h-17.2L296,248
		H313.1z M312.1,244.5h16l0.2,0.2h-16.1L312.1,244.5z M330,246.2l0.3,0.3h-16.5l-0.2-0.3H330z M331.9,248l0.4,0.3h-16.9l-0.3-0.3
		H331.9z M330.4,244.5h15.8l0.2,0.2h-15.8L330.4,244.5z M348.4,246.2l0.3,0.3h-16.2l-0.3-0.3H348.4z M348.6,244.5h15.5l0.3,0.2
		h-15.5L348.6,244.5z M366.8,246.2l0.4,0.3h-15.9l-0.3-0.3H366.8z M366.9,244.5h15.2l0.3,0.2h-15.2L366.9,244.5z M385.2,246.2
		l0.5,0.3H370l-0.4-0.3H385.2z M385.3,244.5h14.9l0.4,0.2h-14.9L385.3,244.5z M403.6,246.2l0.5,0.3h-15.3l-0.5-0.3H403.6z
		 M403.6,244.5h14.6l0.4,0.2h-14.6L403.6,244.5z M422,246.2l0.6,0.3h-15l-0.5-0.3H422z M421.9,244.5h14.2l0.4,0.2h-14.3L421.9,244.5
		z M440.4,246.2l0.6,0.3h-14.7l-0.6-0.3H440.4z M440.2,244.5h13.9l0.5,0.2h-13.9L440.2,244.5z M458.7,246.2l0.7,0.3h-14.4l-0.6-0.3
		H458.7z M458.5,244.5h13.6l0.5,0.2H459L458.5,244.5z M477.1,246.2l0.8,0.3h-14l-0.7-0.3H477.1z M482.4,248l1,0.3H469L468,248H482.4
		z M469.9,250.2h-15.2l-1.1-0.4h15.1L469.9,250.2z M474,251.7l1.4,0.5h-15.7l-1.3-0.5H474z M479.6,253.7l1.7,0.6h-16.2l-1.6-0.6
		H479.6z M466.6,256.6h-17.1l-1.7-0.7h16.9L466.6,256.6z M470.4,258.1l2.1,0.8h-17.6l-1.9-0.8H470.4z M476.4,260.4l2.4,1h-18.2
		l-2.2-1H476.4z M462.8,264h-19.2l-2.3-1.1h18.9L462.8,264z M466.3,265.5l2.9,1.2h-19.8l-2.6-1.2H466.3z M472.6,268.2l3.2,1.4h-20.5
		l-2.9-1.4H472.6z M458.2,272.7h-21.5l-2.9-1.6H455L458.2,272.7z M439.5,276h-22.6l-2.8-1.8h22.2L439.5,276z M419.6,279.4h-23.8
		l-2.7-2h23.3L419.6,279.4z M422,280.9l3.5,2.2h-24.6l-3-2.2H422z M427.9,284.6l3.9,2.5h-25.6l-3.3-2.5H427.9z M409.5,291.4h-26.9
		l-3.1-2.7h26.2L409.5,291.4z M411.5,292.9l4.1,3.1h-27.9l-3.4-3.1H411.5z M417.7,297.4l4.6,3.4h-29.1l-3.8-3.4H417.7z M424.3,302.3
		l5.1,3.8h-30.4l-4.2-3.8H424.3z M403.2,311.8h-32l-3.7-4.2h31L403.2,311.8z M404.9,313.3l5.3,4.7h-33.5l-4.2-4.7H404.9z
		 M411.8,319.6l5.9,5.3h-35.1l-4.6-5.3H411.8z M387.2,332.3h-37.1l-3.8-5.9H382L387.2,332.3z M388.5,333.8l5.8,6.7h-39l-4.3-6.7
		H388.5z M395.7,341.9l6.6,7.5h-41.1l-4.8-7.5H395.7z M359.4,349.4H318l-3-7.5h39.5L359.4,349.4z M316.4,349.4H275l-1.3-7.5h39.7
		L316.4,349.4z M273.5,340.4l-1.1-6.7h37.7l2.7,6.7H273.5z M273.4,349.4h-41.5l0.5-7.5h39.7L273.4,349.4z M231.6,332.3h-37.4
		l1.8-5.9h36L231.6,332.3z M192.6,332.3h-37.3l3.2-5.9h35.9L192.6,332.3z M192.2,333.8l-2,6.7h-39.2l3.6-6.7H192.2z M189.7,341.9
		l-2.3,7.5H146l4.1-7.5H189.7z M144.3,349.4h-41.2l5.9-7.5h39.4L144.3,349.4z M101.2,349.4h-41l7.6-7.5H107L101.2,349.4z
		 M69.3,340.4l6.8-6.7h37.3l-5.2,6.7H69.3z M77.6,332.3l6-5.9h35.5l-4.6,5.9H77.6z M83,324.9H48.1l6.6-5.3h33.7L83,324.9z
		 M56.6,318.1l5.9-4.7h32.2l-4.8,4.7H56.6z M64.4,311.8l5.3-4.2h30.8l-4.3,4.2H64.4z M69.2,306.1H39l5.7-3.8H74L69.2,306.1z
		 M46.9,300.8l5.1-3.4h28.1l-4.3,3.4H46.9z M54.2,295.9l4.6-3.1h27.1l-3.8,3.1H54.2z M58.3,291.4H31.9l4.7-2.7h25.8L58.3,291.4z
		 M39.3,287.1l4.3-2.5h24.8l-3.7,2.5H39.3z M46.1,283.1l3.8-2.2h23.9l-3.3,2.2H46.1z M49.5,279.4H26.3l3.9-2H53L49.5,279.4z
		 M33.1,276l3.5-1.8h22l-3.1,1.8H33.1z M39.5,272.7l3.1-1.6H64l-2.7,1.6H39.5z M21.7,269.6l3.1-1.4h20.3l-2.8,1.4H21.7z M28.1,266.7
		l2.7-1.2h19.6l-2.4,1.2H28.1z M34.1,264l2.4-1.1h19l-2.2,1.1H34.1z M17.9,261.4l2.3-1h18.1l-2.1,1H17.9z M23.9,258.9l2-0.8h17.6
		l-1.8,0.8H23.9z M29.6,256.6l1.8-0.7h17l-1.6,0.7H29.6z M14.7,254.3l1.6-0.6h16.2l-1.5,0.6H14.7z M20.3,252.2l1.4-0.5h15.7
		l-1.3,0.5H20.3z M25.7,250.2l1.1-0.4h15.3l-1,0.4H25.7z M30.9,248.3l0.9-0.3h14.8l-0.8,0.3H30.9z M17.3,246.5l0.7-0.3h14.1
		l-0.7,0.3H17.3z M22.4,244.7l0.5-0.2h13.7l-0.5,0.2H22.4z M45.1,241.4l-0.1,0H32l0.1,0H45.1z M45.2,242.9h13.7l-0.3,0.1H44.9
		L45.2,242.9z M62.6,241.4L62.6,241.4l-13.4,0l0.1,0H62.6z M62.8,242.9h14l-0.2,0.1h-14L62.8,242.9z M80.2,241.4L80.2,241.4l-13.7,0
		l0.1,0H80.2z M80.4,242.9h14.3l-0.2,0.1H80.2L80.4,242.9z M97.8,241.4L97.8,241.4l-14,0l0.1,0H97.8z M98,242.9h14.6l-0.2,0.1H97.8
		L98,242.9z M115.3,241.4L115.3,241.4l-14.3,0l0.1,0H115.3z M115.7,242.9h14.9l-0.2,0.1h-15L115.7,242.9z M132.9,241.4L132.9,241.4
		l-14.6,0l0.1,0H132.9z M133.3,242.9h15.2l-0.1,0.1h-15.2L133.3,242.9z M150.4,241.4L150.4,241.4l-14.9,0l0.1,0H150.4z M150.9,242.9
		h15.5l-0.1,0.1h-15.5L150.9,242.9z M168,241.4L168,241.4l-15.2,0l0,0H168z M168.6,242.9h15.8l-0.1,0.1h-15.8L168.6,242.9z
		 M185.5,241.4L185.5,241.4l-15.4,0l0,0H185.5z M186.2,242.9h16l-0.1,0.1h-16L186.2,242.9z M203,241.4L203,241.4l-15.6,0l0,0H203z
		 M203.9,242.9H220l0,0.1h-16.2L203.9,242.9z M220.5,241.4L220.5,241.4l-15.8,0l0,0H220.5z M220.6,246.2h17l0,0.3h-17.1L220.6,246.2
		z M221.1,244.5h16.6l0,0.2H221L221.1,244.5z M221.6,242.9h16.2l0,0.1h-16.3L221.6,242.9z M237.9,241.4L237.9,241.4l-15.9,0l0,0
		H237.9z M237.9,262.9h21l0.2,1.1h-21.2L237.9,262.9z M238.1,260.4h20.4l0.2,1h-20.6L238.1,260.4z M238.3,258.1h19.8l0.1,0.8h-20
		L238.3,258.1z M238.4,255.8h19.3l0.1,0.7h-19.5L238.4,255.8z M238.6,253.7h18.8l0.1,0.6h-19L238.6,253.7z M238.7,251.7h18.3
		l0.1,0.5h-18.5L238.7,251.7z M255.3,241.4h-15.9l0,0L255.3,241.4L255.3,241.4z M255.6,243h-16.3l0-0.1h16.3L255.6,243z
		 M255.9,244.7h-16.7l0-0.2h16.6L255.9,244.7z M256.2,246.5h-17.1l0-0.3h17L256.2,246.5z M256.5,248.3H239l0-0.3h17.5L256.5,248.3z
		 M256.8,250.2h-18l0-0.4h17.9L256.8,250.2z M272.7,241.4h-15.8l0,0L272.7,241.4L272.7,241.4z M273.4,243h-16.2l0-0.1h16.2
		L273.4,243z M274,244.7h-16.6l0-0.2H274L274,244.7z M290,241.4h-15.7l0,0L290,241.4L290,241.4z M291.1,243H275l0-0.1H291L291.1,243
		z M307.4,241.4h-15.5l0,0L307.4,241.4L307.4,241.4z M308.8,243h-15.9l-0.1-0.1h15.9L308.8,243z M324.6,241.4h-15.3l0,0L324.6,241.4
		L324.6,241.4z M326.4,243h-15.7l-0.1-0.1h15.7L326.4,243z M341.9,241.4h-15l0,0L341.9,241.4L341.9,241.4z M344.1,243h-15.4
		l-0.1-0.1H344L344.1,243z M359.2,241.4h-14.7l-0.1,0L359.2,241.4L359.2,241.4z M361.7,243h-15.1l-0.1-0.1h15.1L361.7,243z
		 M376.5,241.4H362l-0.1,0L376.5,241.4L376.5,241.4z M379.4,243h-14.8l-0.2-0.1h14.8L379.4,243z M393.7,241.4h-14.1l-0.1,0
		L393.7,241.4L393.7,241.4z M397,243h-14.5l-0.2-0.1h14.5L397,243z M411,241.4h-13.8l-0.1,0L411,241.4L411,241.4z M414.4,242.9
		l0.2,0.1h-14.2l-0.2-0.1H414.4z M428.2,241.4h-13.5l-0.1,0L428.2,241.4L428.2,241.4z M432,242.9l0.3,0.1h-13.9l-0.2-0.1H432z
		 M445.5,241.4h-13.2l-0.1,0h13.2L445.5,241.4z M449.6,242.9l0.3,0.1h-13.5l-0.3-0.1H449.6z M462.7,241.4h-12.8l-0.1,0h12.8
		L462.7,241.4z M467.2,242.9l0.3,0.1h-13.2l-0.3-0.1H467.2z M480,241.4h-12.5l-0.1,0h12.5L480,241.4z M484.9,242.9l0.3,0.1h-12.9
		l-0.3-0.1H484.9z M485.1,241.4l-0.1,0h12.1l0.1,0H485.1z M490.6,244.7h-13.3l-0.5-0.2h13.2L490.6,244.7z M482.6,246.5l-0.8-0.3
		h13.6l0.8,0.3H482.6z M489.2,250.2h-14.9l-1.2-0.4h14.8L489.2,250.2z M479.9,252.2l-1.4-0.5h15.3l1.5,0.5H479.9z M487.5,256.6
		h-16.7l-1.8-0.7h16.6L487.5,256.6z M476.7,258.9l-2.1-0.8h17.1l2.3,0.8H476.7z M485.4,264h-18.8l-2.5-1.1h18.6L485.4,264z
		 M492.4,266.7h-19.5l-2.9-1.2h19.2L492.4,266.7z M479.6,269.6l-3.2-1.4h19.8l3.6,1.4H479.6z M467.3,272.7h-5.6l-3.3-1.6h20.9
		l3.6,1.6h-14.2c0,0,0,0,0,0.1c0,0.2,0,0.3,0,0.5c-0.2,0.6-0.6,0.2-1,0.3c-0.2,0.1-0.4,0-0.5-0.3
		C467.3,273.1,467.3,272.9,467.3,272.7z M442.7,276l-3.2-1.8h21.9l3.7,1.8H442.7z M445.9,279.4h-23.5l-3.2-2h23L445.9,279.4z
		 M452.7,283.1h-24.3l-3.5-2.2h23.8L452.7,283.1z M434.7,287.1l-3.9-2.5h24.7l4.5,2.5H434.7z M438.6,291.4H412l-3.7-2.7h25.9
		L438.6,291.4z M445.8,295.9h-27.7l-4.1-3.1H441L445.8,295.9z M453.6,300.8h-28.8l-4.6-3.4h28L453.6,300.8z M432,306.1l-5.1-3.8H456
		l6,3.8H432z M437.2,311.8h-31.7l-4.7-4.2h30.7L437.2,311.8z M445.6,318.1h-33.2l-5.3-4.7h32.1L445.6,318.1z M420,324.9l-5.9-5.3
		h33.6l7.1,5.3H420z M426,332.3h-36.8l-5.2-5.9h35.4L426,332.3z M435.1,340.4h-38.8l-5.8-6.7h37.2L435.1,340.4z M445.2,349.4h-40.9
		l-6.6-7.5h39.1L445.2,349.4z M413,359.4l-7.5-8.5h41.3l9.5,8.5H413z M367.5,359.4l-5.4-8.5h41.5l7.5,8.5H367.5z M322.1,359.4
		l-3.4-8.5h41.7l5.4,8.5H322.1z M275.2,350.9H317l3.4,8.5h-43.8L275.2,350.9z M231.2,359.4l0.6-8.5h41.9l1.4,8.5H231.2z
		 M231.1,340.4h-39.4l2-6.7h37.8L231.1,340.4z M230.4,349.4h-41.5l2.3-7.5h39.7L230.4,349.4z M185.9,359.4l2.6-8.5h41.8l-0.6,8.5
		H185.9z M140.6,359.4l4.6-8.5h41.7l-2.6,8.5H140.6z M95.3,359.4l6.6-8.5h41.6l-4.6,8.5H95.3z M50,359.4l8.6-8.5H100l-6.6,8.5H50z
		 M15.4,350.9h41.1l-8.6,8.5H4.7L15.4,350.9z M26.7,341.9h39l-7.6,7.5H17.3L26.7,341.9z M36.9,333.8h37l-6.8,6.7H28.6L36.9,333.8z
		 M46.2,326.4h35.3l-6,5.9H38.8L46.2,326.4z M18.9,319.6h33.4l-6.6,5.3H11.1L18.9,319.6z M28.2,313.3h31.9l-5.9,4.7h-33L28.2,313.3z
		 M36.8,307.6h30.6l-5.3,4.2H30.5L36.8,307.6z M13,302.3h29l-5.7,3.8H6.4L13,302.3z M21.5,297.4h27.8l-5.1,3.4H15.6L21.5,297.4z
		 M29.3,292.9h26.8l-4.6,3.1H24.1L29.3,292.9z M8.2,288.6h25.5l-4.7,2.7H2.8L8.2,288.6z M16,284.6h24.5l-4.3,2.5H11.2L16,284.6z
		 M23.3,280.9H47l-3.8,2.2H19L23.3,280.9z M4.4,277.5h22.5l-3.9,2H0L4.4,277.5z M33.3,274.2l-3.5,1.8H7.7l3.9-1.8H33.3z M39.3,271.1
		l-3.1,1.6H14.9l3.5-1.6H39.3z M27.2,265.5l-2.7,1.2H4.8l3-1.2H27.2z M32.9,262.9l-2.4,1.1h-19l2.7-1.1H32.9z M22,258.1l-2,0.8H2.5
		l2.2-0.8H22z M27.4,255.8l-1.8,0.7H8.7l1.9-0.7H27.4z M17.4,251.7l-1.4,0.5H0.5l1.5-0.5H17.4z M22.6,249.8l-1.1,0.4h-15l1.2-0.4
		H22.6z M27.5,248l-0.9,0.3H12l1-0.3H27.5z M18.3,244.5l-0.5,0.2H4.4l0.6-0.2H18.3z M10,242.9h13l-0.3,0.1h-13L10,242.9z"/>
	<path class="st5" d="M461.1,326.9c0,0.2-0.1,0.5-0.1,0.7l-1.3-1c0-0.1,0-0.2,0-0.2h1.5C461.1,326.5,461.1,326.7,461.1,326.9z"/>
	<path class="st5" d="M476.3,336.1c0,0-0.1-0.1-0.1-0.1c-0.5,0.3-0.9,0.7-1.4,1c-0.2,0.1-0.3,0.3-0.5,0.4l-1.2-0.9
		c0.5-0.4,1-0.8,1.5-1.2c0,0,0-0.1,0-0.1c-0.1,0-0.3-0.1-0.4-0.1c-1,0-2,0-2.9,0l-1.8-1.3h8c0.3,2.1,0.6,4.1,0.9,6.2
		c0,0.2,0,0.3,0.1,0.5l-1.7-1.2C476.6,338.1,476.4,337.1,476.3,336.1z"/>
	<path class="st5" d="M472.7,311c-0.2-1.2-0.4-2.5-0.5-3.4h1.5c0.1,0.8,0.2,1.6,0.3,2.3c0.1,0.6,0.2,1.3,0.3,1.9H474L472.7,311z"/>
	<path class="st5" d="M469.2,327.9c-0.1-0.1-0.2-0.1-0.3-0.2c0,0.1-0.1,0.2-0.1,0.3c0,1.4,0,2.8,0,4.2h-1.4l0,0c0-1.4,0-2.8,0-4.2
		c0-0.1-0.1-0.3-0.1-0.3c-0.1,0-0.3,0-0.3,0.1c-0.8,0.8-1.6,1.5-2.4,2.3l-1.2-0.9c1-1,2-1.9,3.1-2.9h3.4c1.7,1.6,3.3,3.2,5,4.8
		c0.2,0.2,0.4,0.5,0.6,0.8c0.1,0,0.1-0.1,0.2-0.1c0-0.1,0.1-0.2,0.1-0.3c-0.2-1.6-0.5-3.1-0.7-4.7c0-0.1,0-0.3-0.1-0.4h1.5
		c0.2,1.3,0.4,2.6,0.5,3.9c0.1,0.7,0.2,1.4,0.3,2.1h-3.4C472.3,330.8,470.7,329.4,469.2,327.9z"/>
	<path class="st5" d="M467.3,307.6h3.5c-0.4,0.5-0.7,1-1.1,1.5L467.3,307.6z"/>
	<path class="st5" d="M463.3,311.8h-1.5c0-0.2,0.1-0.4,0.1-0.6c0.2-1.2,0.4-2.4,0.6-3.6h1.5C463.7,308.7,463.5,310.3,463.3,311.8z"
		/>
	<path class="st5" d="M465.7,311.8c0.4-0.5,0.7-1,1.1-1.5c0.2-0.2,0.2-0.4,0-0.7c-0.3-0.3-0.5-0.7-0.8-1l3.5,2.2
		c0.2,0.3,0.5,0.7,0.7,1H465.7z"/>
	<path class="st5" d="M475.4,319.6h-14.7c0,0.5-0.1,0.9-0.2,1.4c-0.2,1.3-0.4,2.6-0.6,3.9h1.5c0.2-1.1,0.3-2.2,0.5-3.2
		c0-0.1,0.1-0.3,0.2-0.4c0.1,0.1,0.3,0.1,0.4,0.2c1.2,1.1,2.4,2.3,3.6,3.4h4c1.2-1.1,2.3-2.2,3.5-3.4c0.1-0.1,0.2-0.2,0.3-0.2
		c0.2-0.1,0.3-0.1,0.3,0.1c0,0.2,0.1,0.5,0.1,0.7c0.1,0.9,0.3,1.8,0.4,2.7h1.5c-0.2-1.4-0.4-2.7-0.6-4.1
		C475.5,320.4,475.4,320,475.4,319.6z M467.3,320.4c0,1,0,2.1,0,3.1c0,0.1-0.1,0.3-0.1,0.3c-0.1,0-0.2,0-0.3-0.1
		c-1.2-1.1-2.3-2.2-3.5-3.3c-0.1-0.1-0.1-0.2-0.1-0.3c0.1,0,0.2-0.1,0.3-0.1c0.6,0,1.1,0,1.7,0c0,0,0,0,0,0c0.5,0,1,0,1.5,0
		C467.1,319.9,467.3,320,467.3,320.4z M472.8,320c0,0.1-0.1,0.2-0.1,0.3c-1.2,1.1-2.3,2.2-3.5,3.3c-0.1,0.1-0.2,0.1-0.4,0.2
		c0-0.2,0-0.3,0-0.4c0-0.9,0-1.9,0-2.8c0-0.6,0.1-0.7,0.7-0.7c1,0,2,0,3,0C472.6,319.9,472.7,320,472.8,320z"/>
	<path class="st5" d="M467.3,315.4C467.3,315.4,467.3,315.4,467.3,315.4c0-0.7,0-1.4,0-2.1h1.4c0,0.7,0,1.4,0,2.1c0,0,0,0,0,0
		c0,0.8,0,1.7,0,2.5c0,0,0,0.1,0,0.1h-1.5c0-0.1,0-0.1,0-0.2C467.3,317.1,467.3,316.2,467.3,315.4z"/>
	<path class="st5" d="M473.1,318c-1.1-1.6-2.3-3.1-3.5-4.7h1.8c0.4,0.6,0.9,1.2,1.3,1.7c0.1,0.2,0.3,0.3,0.4,0.5
		c0.1-0.1,0-1-0.2-2.3h0.6l1,0.6c0,0.1,0,0.2,0,0.3c0.2,1.3,0.4,2.5,0.6,3.8L473.1,318C473.1,318.1,473.1,318,473.1,318z"/>
	<path class="st5" d="M462.9,315.6c0.3-0.4,0.6-0.8,0.9-1.1c0.3-0.4,0.6-0.7,0.8-1.1h1.8c-1.2,1.6-2.3,3.1-3.5,4.7c0,0,0,0,0,0.1
		h-2.2c0.1-0.8,0.3-1.7,0.4-2.5c0.1-0.7,0.2-1.5,0.3-2.2h1.5C462.9,314.6,462.9,315.5,462.9,315.6z"/>
	<path class="st5" d="M460.5,331.5c0,0.1,0,0.2,0,0.3c0,0,0.1,0,0.1,0c0.5-0.5,1-1,1.6-1.5l1.2,0.9c-0.4,0.4-0.7,0.7-1.1,1.1h-3.4
		c0-0.3,0.1-0.6,0.1-0.9c0.1-1,0.3-2,0.4-3.1l1.4,1C460.7,330,460.6,330.7,460.5,331.5z"/>
	<path class="st5" d="M459,341.9h-1.5c-0.1,0.7-0.2,1.4-0.3,2.1c-0.2,1.4-0.4,2.8-0.6,4.2c-0.1,0.4-0.2,0.5-0.6,0.5
		c-2.4,0-4.8,0-7.2,0c-0.6,0-0.6,0-0.6,0.6c0,0,0,0.1,0,0.1h39.1c0-0.3,0-0.5-0.1-0.6l-0.1-0.1c-0.1,0-0.3,0-0.7,0
		c-2.1,0-4.2,0-6.3,0c-0.4,0-0.6-0.2-0.6-0.5c-0.3-1.9-0.5-3.8-0.8-5.7l-0.8-0.6h-0.8c0.3,1.9,0.5,3.8,0.7,5.7
		c-0.3-0.1-0.5-0.3-0.6-0.4c-2.3-1.8-4.6-3.5-7-5.3h-4.4c-2.5,1.9-5,3.8-7.5,5.7c0,0-0.1-0.1-0.1-0.1c0-0.1,0-0.3,0-0.4
		c0.1-0.9,0.3-1.8,0.4-2.7C458.7,343.6,458.8,342.7,459,341.9z M468.8,348.3c0-1.7,0-3.5,0-5.2c0-0.1,0.1-0.2,0.1-0.2
		c0.1,0,0.2,0,0.3,0.1c0.2,0.1,0.3,0.2,0.4,0.4c2.2,1.7,4.4,3.3,6.6,5c0.1,0.1,0.2,0.2,0.3,0.3c0,0,0,0.1,0,0.1
		c-0.2,0-0.3,0-0.5,0.1c-0.7,0-1.3,0-2,0c-1.5,0-3.1,0-4.6,0C469,348.7,468.8,348.7,468.8,348.3z M459.5,348.6
		c0.2-0.2,0.3-0.3,0.5-0.4c2.3-1.8,4.6-3.5,6.9-5.2c0.1-0.1,0.2-0.1,0.3-0.1c0.1,0,0.1,0.2,0.1,0.3c0,0.3,0,0.5,0,0.8
		c0,1.4,0,2.8,0,4.2c0,0.6,0,0.6-0.6,0.6c-2.2,0-4.5,0-6.7,0C459.9,348.7,459.8,348.7,459.5,348.6z"/>
	<path class="st5" d="M466.9,333.8h-8.2c-0.3,1.8-0.5,3.7-0.8,5.5c-0.1,0.4-0.1,0.7-0.2,1.1h1.5c0.2-1.4,0.4-2.7,0.6-4.1
		c0-0.3,0.2-0.4,0.5-0.2c1.6,1.2,3.2,2.4,4.8,3.6c0.3,0.2,0.5,0.4,0.8,0.6h4.4c0.9-0.7,1.9-1.4,2.8-2.1l-1.2-0.9
		c-0.9,0.7-1.7,1.3-2.6,2c-0.1,0.1-0.2,0.1-0.3,0c-0.1-0.1-0.1-0.2-0.1-0.3c0-1.1,0-2.3,0-3.4c0-0.3,0-0.4,0.1-0.5L466.9,333.8z
		 M466.8,335.1c0.3,0,0.5,0.1,0.5,0.4c0,1.2,0,2.5,0,3.7c0,0.1-0.1,0.2-0.2,0.3c-0.1,0-0.2,0-0.3-0.1c-0.4-0.3-0.8-0.6-1.2-0.9
		c-1.3-1-2.7-2-4-3c-0.1-0.1-0.1-0.2-0.2-0.2c0.1,0,0.2-0.1,0.3-0.1c0.9,0,1.7,0,2.6,0c0,0,0,0,0,0
		C465.2,335.1,466,335.1,466.8,335.1z"/>
	<path class="st5" d="M470.6,305.2c0.1-0.1,0.1-0.2,0.1-0.3c0-0.1-0.2-0.1-0.3-0.1c-0.4,0-0.9,0-1.3,0c-0.3,0-0.4,0.2-0.4,0.4
		c0,0.3,0,0.6,0,0.9h-1.5c0-0.3,0-0.6,0-0.9c0-0.3-0.1-0.4-0.4-0.4c-0.4,0-0.9,0-1.3,0c-0.1,0-0.3,0.1-0.3,0.1c0,0.1,0,0.2,0.1,0.3
		c0.2,0.3,0.4,0.6,0.6,0.9h-1.2l-2.1-1.3c0.1-0.8,0.1-1.6,0.1-2.5h1.6c0,0.2,0,0.3,0,0.5c0,0.3,0.1,0.5,0.5,0.5c0.6,0,1.2,0,1.8,0
		c0.3,0,0.4-0.1,0.4-0.4c0-0.2,0-0.3,0-0.5h1.6c0,0.2,0,0.3,0,0.5c0,0.3,0.1,0.5,0.4,0.4c0.6,0,1.2,0,1.8,0c0.4,0,0.5-0.1,0.4-0.4
		c0-0.2,0-0.3,0-0.5h1.6c0,0.7,0,1.4,0.1,2.1c0.1,0.6,0.1,1.1,0.2,1.7H470C470.2,305.8,470.4,305.5,470.6,305.2z"/>
	<path class="st5" d="M470,290.9l-0.4-0.2C469.9,290.7,470,290.7,470,290.9z"/>
	<path class="st5" d="M471.6,300.2c0-0.9,0-0.9-0.9-0.9c-0.5,0-1,0-1.4,0c-0.3,0-0.4,0.1-0.4,0.4c0,0.3,0,0.5,0,0.8
		c0,0.1,0,0.2,0,0.3h-1.6c0-0.4,0-0.7,0-1.1c0-0.3-0.1-0.4-0.5-0.4c-0.6,0-1.2,0-1.8,0c-0.4,0-0.5,0.1-0.5,0.5c0,0.3,0,0.7,0,1h-1.6
		c0-0.9,0-1.7,0-2.6c0-0.3,0.1-0.4,0.4-0.4c0.7,0,1.4,0,2.1,0c0.5,0,0.6,0,0.6-0.4h1.5c0,0.3,0.2,0.4,0.5,0.4c0.3,0,0.5-0.1,0.5-0.4
		h1.5c0,0.3,0.2,0.4,0.6,0.4c0.7,0,1.4,0,2.1,0c0.4,0,0.5,0.1,0.5,0.5c0,0.8,0,1.7,0,2.5c0,0,0,0,0,0.1h-1.6
		C471.6,300.6,471.6,300.4,471.6,300.2z"/>
	<path class="st5" d="M468.6,294.9C468.6,294.9,468.6,294.9,468.6,294.9c0-0.7,0-1.4,0-2.1h1.4c0,1,0,2,0,3.1h-1.5
		C468.6,295.6,468.6,295.3,468.6,294.9z"/>
	<path class="st5" d="M467.5,295.9H466c0-1,0-2,0-3.1h1.4C467.5,293.9,467.5,294.9,467.5,295.9z"/>
	<path class="st5" d="M466,291.4c0,0,0-0.1,0-0.1c0-0.4,0.1-0.5,0.4-0.5l1.2,0.7H466z"/>
	<path class="st5" d="M474.7,324.9h1.5c0.1,0.5,0.1,1,0.2,1.5h-1.5C474.8,325.9,474.7,325.4,474.7,324.9z"/>
	<path class="st5" d="M471.8,306.2c-0.3,0.3-0.5,0.7-0.8,1c-0.1,0.1-0.2,0.3-0.3,0.4h-3.5l2.3,1.5c-0.1,0.1-0.2,0.3-0.3,0.4
		c-0.3,0.3-0.2,0.6,0,0.9c0.1,0.1,0.2,0.3,0.3,0.4l-3.5-2.2c-0.6-0.8-1.1-1.5-1.7-2.3c0-0.1-0.1-0.1-0.2-0.1
		c-0.1,0.1-0.2,0.6-0.3,1.4h-1.5c0.1-0.9,0.3-1.8,0.3-2.8c0,0,0,0,0-0.1l2.1,1.3h1.2c0.3,0.4,0.5,0.7,0.8,1.1
		c0.1,0.1,0.2,0.1,0.3,0.2c0-0.1,0.1-0.2,0.1-0.3c0-0.3,0-0.6,0-0.9c0,0,0,0,0,0c0,0,0,0,0,0h1.5c0,0,0,0.1,0,0.1c0,0,0,0,0,0
		c0,0.3,0,0.6,0,0.9c0,0.1,0.1,0.2,0.1,0.3c0.1-0.1,0.2-0.1,0.3-0.2c0.3-0.4,0.6-0.8,0.8-1.2h3.4c0.1,0.5,0.1,1,0.2,1.5h-1.5
		C472,306.8,471.9,306.3,471.8,306.2z"/>
	<path class="st5" d="M477.9,341.9h-0.8c-0.1-0.9-0.3-1.8-0.4-2.7l1.7,1.2c0.1,0.7,0.2,1.4,0.3,2.1L477.9,341.9z"/>
	<path class="st5" d="M473.5,313.3H473c-0.1-0.7-0.2-1.5-0.3-2.3l1.3,0.8h0.3c0.1,0.7,0.2,1.4,0.3,2.1L473.5,313.3z"/>
	<path class="st5" d="M468.6,292.7c0-0.3-0.1-0.5-0.5-0.5c-0.5,0-0.6,0.1-0.6,0.5c0,0.1,0,0.1,0,0.2H466c0-0.5,0-1,0-1.5h1.6
		l-1.2-0.7c0,0,0,0,0.1,0c0.9,0,1.9,0,2.8,0c0.1,0,0.2,0,0.2,0l0.4,0.2c0,0.1,0,0.2,0,0.4c0,0.5,0,1,0,1.5h-1.4
		C468.6,292.8,468.6,292.7,468.6,292.7z"/>
	<path class="st5" d="M468.6,297.1c0-0.4,0-0.8,0-1.2h1.5c0,0.4,0,0.9,0,1.3c0,0.1,0,0.1,0,0.2h-1.5
		C468.6,297.3,468.6,297.2,468.6,297.1z"/>
	<path class="st5" d="M471.6,300.8h1.6c0,0.5,0,1,0,1.5h-1.6C471.6,301.8,471.6,301.3,471.6,300.8z"/>
	<path class="st5" d="M471.1,335.1c-0.6,0-1.2,0-1.7,0c-0.3,0-0.5,0-0.6,0.2l-2-1.5h-8.2c0.1-0.5,0.1-1,0.2-1.5h3.4
		c-0.3,0.3-0.6,0.6-0.9,0.8c-0.1,0.1-0.2,0.2-0.3,0.4c0.2,0,0.4,0.1,0.6,0.1c1.7,0,3.4,0,5.1,0c0.4,0,0.5-0.1,0.5-0.5
		c0-0.3,0-0.6,0-0.9l0,0h1.4c0,0.2,0,0.4,0,0.6c0,0.7,0,0.7,0.7,0.7c1.7,0,3.3,0,5,0c0.1,0,0.3,0,0.4,0c0,0,0-0.1,0.1-0.1
		c-0.4-0.3-0.7-0.7-1.1-1c0,0-0.1-0.1-0.1-0.1h3.4c0.1,0.5,0.1,1,0.2,1.5h-8L471.1,335.1z"/>
	<path class="st5" d="M471.8,337.4c0.3-0.2,0.6-0.5,0.9-0.7c0.1-0.1,0.2-0.2,0.3-0.2l1.2,0.9c-0.4,0.3-0.8,0.6-1.2,0.9L471.8,337.4z
		"/>
	<path class="st5" d="M462.2,330.3c0.2-0.2,0.4-0.4,0.6-0.6c0.2-0.2,0.3-0.3,0.5-0.5l1.2,0.9c-0.4,0.4-0.7,0.7-1.1,1.1L462.2,330.3z
		"/>
	<path class="st5" d="M468.8,300.8c0,0.2,0,0.3,0,0.5c0,0,0,0,0,0c0,0.3,0,0.7,0,1h-1.6c0-0.5,0-1,0-1.5H468.8z"/>
	<path class="st5" d="M467.5,296.6c0,0.2,0,0.3,0,0.5c0,0.1,0,0.2,0,0.3H466c0-0.1,0-0.2,0-0.3c0-0.4,0-0.8,0-1.2h1.5
		C467.5,296.2,467.5,296.4,467.5,296.6z"/>
	<path class="st5" d="M469.8,341.6c0.2,0.1,0.3,0.2,0.5,0.4h-4.4c0.3-0.2,0.6-0.5,1-0.7c-0.3-0.3-0.7-0.5-1-0.8h4.4
		c-0.2,0.1-0.3,0.2-0.5,0.4C469.3,341.1,469.3,341.2,469.8,341.6z"/>
	<path class="st5" d="M487.3,349.6c0,0.6,0,0.6-0.6,0.6c-6.3,0-12.6,0-18.9,0c-6.3,0-12.5,0-18.8,0c-0.8,0-0.8,0-0.8-0.8h39.1
		C487.3,349.5,487.3,349.5,487.3,349.6z"/>
	<path class="st5" d="M487.2,348.8l-0.1-0.1C487.2,348.8,487.2,348.8,487.2,348.8z"/>
	<path class="st5" d="M463.1,313.3h-1.5c0.1-0.5,0.1-1,0.2-1.5h1.5C463.2,312.4,463.1,312.9,463.1,313.3z"/>
	<path class="st5" d="M461.2,326.4h-1.5c0.1-0.5,0.1-1,0.2-1.5h1.5C461.3,325.4,461.2,325.9,461.2,326.4z"/>
	<path class="st5" d="M460.8,329.3l-1.4-1c0.1-0.4,0.1-0.8,0.2-1.2c0-0.2,0-0.3,0.1-0.5l1.3,1C460.9,328.1,460.8,328.7,460.8,329.3z
		"/>
	<path class="st5" d="M466.6,325.4c-0.2-0.2-0.4-0.4-0.6-0.5h4c-0.2,0.2-0.4,0.4-0.6,0.6c-0.2,0.2-0.3,0.4,0,0.6
		c0.1,0.1,0.2,0.2,0.3,0.3h-3.4c0.1-0.1,0.2-0.2,0.3-0.3C466.9,325.8,466.9,325.7,466.6,325.4z"/>
	<path class="st5" d="M466.5,313.3h-1.8c0.4-0.5,0.7-1,1.1-1.5h4.6c0.4,0.5,0.7,1,1.1,1.5h-1.8c-0.2-0.2-0.3-0.4-0.5-0.6
		c-0.1-0.1-0.2-0.1-0.3-0.2c0,0.1-0.1,0.2-0.1,0.3c0,0.2,0,0.3,0,0.5h-1.4c0-0.2,0-0.3,0-0.5c0-0.1-0.1-0.2-0.1-0.3"/>
	<path class="st5" d="M459,341.9h-1.5c0.1-0.5,0.1-1,0.2-1.5h1.5C459.1,340.9,459,341.4,459,341.9z"/>
	<path class="st5" d="M462.9,318.4c0.1,0,0.2,0.1,0.3,0.1c1.2,0,2.3,0,3.5,0c0.5,0,0.6-0.1,0.6-0.4h1.5c0,0.3,0.2,0.4,0.5,0.4
		c1.2,0,2.4,0,3.6,0c0.1,0,0.2-0.1,0.3-0.1c0-0.1-0.1-0.2-0.1-0.3h2.1c0.1,0.5,0.1,1,0.2,1.5h-14.7c0-0.3,0.1-0.7,0.1-1
		c0-0.2,0.1-0.3,0.1-0.5h2.2C462.9,318.2,462.9,318.3,462.9,318.4z"/>
	<path class="st5" d="M464.5,301.3C464.5,301.3,464.5,301.3,464.5,301.3c0,0.3,0,0.7,0,1h-1.6c0-0.5,0-1,0-1.5h1.6
		C464.5,301,464.5,301.2,464.5,301.3z"/>
	<path class="st5" d="M465.6,282.2c-0.1,0.3-0.2,0.7-0.3,1h-1.5c0.1-0.7,0.3-1.4,0.5-2c0-0.1,0.1-0.1,0.1-0.2h1.6
		C465.9,281.3,465.8,281.7,465.6,282.2z"/>
	<path class="st5" d="M468.3,281.9c0.3,0.4,0.6,0.8,0.9,1.3h-2.3c0.3-0.4,0.6-0.9,0.9-1.3C468,281.7,468.1,281.7,468.3,281.9z"/>
	<path class="st5" d="M470.6,283c-0.1-0.7-0.4-1.4-0.6-2h1.6c0.3,0.7,0.5,1.5,0.6,2.2h-1.5C470.6,283.1,470.6,283,470.6,283z"/>
	<path class="st5" d="M467.5,275.5c0,0,0.1-0.1,0.1-0.1c0.4-0.5,0.4-0.5,0.8,0c0.1,0.2,0.3,0.4,0.4,0.5h-0.4L467.5,275.5z"/>
	<path class="st5" d="M468.9,286.9c0.1-0.8-0.3-1.6-0.7-2.3h1.7c0.1,0.3,0.2,0.6,0.3,0.9c0,0.1,0.2,0.2,0.2,0.3
		c0.1-0.1,0.2-0.2,0.2-0.3c0-0.3,0-0.6,0-0.9h1.5c0,0.9-0.2,1.7-0.6,2.5h-2.8C468.9,287.1,468.9,287,468.9,286.9z"/>
	<path class="st5" d="M465.4,285.8c0,0,0.1,0,0.1,0c0.1-0.1,0.2-0.3,0.2-0.4c0.1-0.3,0.2-0.5,0.3-0.8h1.7c-0.1,0.2-0.2,0.4-0.3,0.5
		c-0.3,0.6-0.5,1.3-0.4,1.9h-2.8c-0.3-0.5-0.4-1.1-0.5-1.7c0-0.2,0-0.5,0-0.7h1.5C465.3,285,465.3,285.4,465.4,285.8z"/>
	<path class="st5" d="M469,289.9c-0.2,0.1-0.3,0.2-0.5,0.2l-2.7-1.5h4.8C470.1,289.1,469.5,289.5,469,289.9z"/>
	<path class="st5" d="M466.8,279.4h-1.7c0.3-0.7,0.7-1.3,1.1-2h1.8C467.5,278.1,467.1,278.8,466.8,279.4z"/>
	<path class="st5" d="M468.4,277.9c-0.1-0.1-0.2-0.2-0.3-0.4h0.1l2.4,1.2c0.1,0.3,0.3,0.5,0.4,0.8h-1.6
		C469,278.9,468.7,278.4,468.4,277.9z"/>
	<path class="st5" d="M468,284.4c0,0.1-0.1,0.2-0.1,0.3h-1.7c0.2-0.5,0.5-1,0.8-1.5h2.3c0.3,0.5,0.6,0.9,0.8,1.5c0,0,0,0,0,0h-1.7
		c0-0.1-0.1-0.2-0.1-0.3C468.1,284.4,468,284.4,468,284.4z"/>
	<path class="st5" d="M469.3,279.4h1.6c0.1,0.3,0.3,0.6,0.4,0.9c0.1,0.2,0.2,0.4,0.2,0.6H470C469.8,280.4,469.5,279.9,469.3,279.4z"
		/>
	<path class="st5" d="M465.3,284.6h-1.5c0-0.5,0-1,0.1-1.5h1.5C465.3,283.6,465.3,284.1,465.3,284.6z"/>
	<path class="st5" d="M468,277.5C468,277.5,468,277.5,468,277.5C468,277.5,468,277.5,468,277.5h-1.8c0.4-0.7,0.9-1.3,1.3-1.9
		l0.9,0.4h0.4c0.6,0.9,1.2,1.7,1.7,2.7L468,277.5L468,277.5z"/>
	<path class="st5" d="M468.5,290.1c-0.5,0.1-0.9,0.1-1.4-0.2c-0.3-0.2-0.6-0.3-0.8-0.5c-0.9-0.6-1.5-1.3-1.9-2.2h2.8c0,0,0,0,0,0
		c0,0.3,0.2,0.7,0.3,0.9c0.5,0.6,0.6,0.5,1.1,0c0.2-0.2,0.3-0.6,0.3-0.9h2.8c0,0.1-0.1,0.2-0.1,0.2c-0.3,0.5-0.6,0.9-1,1.3h-4.8
		L468.5,290.1z"/>
	<path class="st5" d="M466.1,280.9h-1.6c0.2-0.5,0.4-1,0.6-1.5h1.7C466.5,279.9,466.3,280.4,466.1,280.9z"/>
	<path class="st5" d="M470.6,283.1h1.5c0.1,0.4,0.1,0.9,0.1,1.3c0,0.1,0,0.1,0,0.2h-1.5C470.7,284.1,470.7,283.6,470.6,283.1z"/>
	<path class="st5" d="M462.6,278.1c-0.1,0-0.1,0-0.2,0c-0.3-0.2-0.6-0.4-0.9-0.6h1.7c-0.1,0.2-0.3,0.4-0.4,0.5
		C462.7,278,462.6,278.1,462.6,278.1z"/>
	<path class="st5" d="M461.3,277.2c-0.3-0.4,0.3-0.7,0.4-1c0.1-0.2,0.3-0.3,0.5-0.1c0.3,0.2,0.6,0.5,1,0.7c0.2,0.2,0.2,0.3,0.1,0.5
		c0,0-0.1,0.1-0.1,0.1h-1.7C461.4,277.4,461.3,277.3,461.3,277.2z"/>
	<path class="st5" d="M473.6,278.1c-0.2-0.2-0.4-0.4-0.6-0.7h1.6c-0.2,0.2-0.5,0.4-0.7,0.5C473.8,278.1,473.7,278.1,473.6,278.1z"/>
	<path class="st5" d="M472.7,277.1c0.1-0.1,0.2-0.2,0.2-0.3c0.1-0.1,0.3-0.2,0.5-0.3c0.9-0.6,0.9-0.6,1.5,0.3
		c0.2,0.3,0.1,0.4-0.1,0.6c-0.1,0-0.1,0.1-0.2,0.1H473C472.9,277.3,472.8,277.2,472.7,277.1z"/>
	<path class="st5" d="M474.8,282.2c-0.1-0.2,0-0.5,0.3-0.5c0.3,0,0.6,0,0.9,0c0.5,0,0.6,0,0.5,0.5c0,0.6,0,0.8-0.1,0.9h-1.6
		C474.6,283,474.9,282.5,474.8,282.2z"/>
	<path class="st5" d="M475.7,283.2c-0.2,0-0.3,0-0.5,0c-0.1,0-0.2,0-0.3-0.1h1.6C476.4,283.2,476.2,283.2,475.7,283.2z"/>
	<path class="st5" d="M459.6,282.3c0-0.6,0-0.6,0.6-0.6c0.2,0,0.4,0,0.6,0c0.6,0,0.6,0,0.6,0.6c0,0.5,0,0.7-0.1,0.8h-1.5
		C459.6,283.1,459.6,282.8,459.6,282.3z"/>
	<path class="st5" d="M460.5,283.2c-0.4,0-0.6,0-0.7-0.1h1.5C461.2,283.2,460.9,283.2,460.5,283.2z"/>
	<path class="st5" d="M467.7,271.9c1,0,1.1,0,1.1,0.8h-1.4c0-0.1,0-0.3,0-0.4C467.3,272,467.4,271.9,467.7,271.9z"/>
	<path class="st5" d="M468.8,272.7c0,0.2,0,0.3,0,0.5c-0.2,0.6-0.6,0.2-1,0.3c-0.2,0.1-0.4,0-0.5-0.3c0-0.2,0-0.4,0-0.6L468.8,272.7
		C468.8,272.7,468.8,272.7,468.8,272.7z"/>
</g>
</svg>
