<svg id="Layer_1" data-name="Layer 1" xmlns="http://www.w3.org/2000/svg" xmlns:xlink="http://www.w3.org/1999/xlink" viewBox="0 0 500 122.52"><defs><style>.cls-1{fill:url(#linear-gradient);}.cls-2{fill:#60a685;}.cls-3{fill:url(#linear-gradient-2);}.cls-4{fill:url(#linear-gradient-3);}.cls-5{fill:url(#linear-gradient-4);}</style><linearGradient id="linear-gradient" x1="31.98" y1="293.57" x2="31.98" y2="261.34" gradientTransform="matrix(-1, 0, 0, 1, 500, -238.41)" gradientUnits="userSpaceOnUse"><stop offset="0" stop-color="#60a685"/><stop offset="0.07" stop-color="#60a685" stop-opacity="0.92"/><stop offset="0.52" stop-color="#60a685" stop-opacity="0.43"/><stop offset="0.84" stop-color="#60a685" stop-opacity="0.12"/><stop offset="1" stop-color="#60a685" stop-opacity="0"/></linearGradient><linearGradient id="linear-gradient-2" x1="11.4" y1="360.92" x2="11.4" y2="238.41" gradientTransform="matrix(-1, 0, 0, 1, 500, 0)" gradientUnits="userSpaceOnUse"><stop offset="0.12" stop-color="#60a685"/><stop offset="0.18" stop-color="#60a685" stop-opacity="0.92"/><stop offset="0.58" stop-color="#60a685" stop-opacity="0.43"/><stop offset="0.86" stop-color="#60a685" stop-opacity="0.12"/><stop offset="1" stop-color="#60a685" stop-opacity="0"/></linearGradient><linearGradient id="linear-gradient-3" x1="12.87" y1="360.92" x2="12.87" y2="238.41" xlink:href="#linear-gradient-2"/><linearGradient id="linear-gradient-4" x1="250" y1="360.92" x2="250" y2="238.41" xlink:href="#linear-gradient-2"/></defs><title>home-grid-v2</title><polygon class="cls-1" points="468.02 39.04 468.02 39.05 468.01 39.05 468.02 39.04"/><path class="cls-2" d="M480.09,348.74c-.4,0-.57-.15-.63-.55-.26-1.9-.53-3.79-.79-5.69-.1-.69-.19-1.39-.29-2.08l-.07-.5q-.44-3.08-.9-6.15l-.22-1.5c-.1-.69-.2-1.38-.3-2.07q-.28-1.93-.55-3.85l-.21-1.5q-.29-2-.58-4.07l-.18-1.22-.22-1.5q-.28-1.89-.55-3.78l0-.3q-.15-1.07-.3-2.14L474,310c-.11-.78-.23-1.56-.35-2.35-.07-.5-.13-1-.2-1.5s-.16-1.14-.22-1.72a20.51,20.51,0,0,1-.08-2.08c0-.5,0-1,0-1.5,0,0,0,0,0-.07q0-1.24,0-2.49c0-.36-.14-.5-.5-.49-.7,0-1.39,0-2.09,0-.39,0-.52-.06-.55-.36a1.57,1.57,0,0,1,0-.2c0-.43,0-.87,0-1.3q0-1.53,0-3.06,0-.77,0-1.54a2.17,2.17,0,0,0,0-.41c0-.16-.13-.2-.37-.2h-3.12c-.39,0-.45.07-.45.52q0,.07,0,.14,0,.75,0,1.5,0,1.53,0,3.06,0,.6,0,1.21a2.38,2.38,0,0,1,0,.29c0,.32-.17.37-.65.36-.7,0-1.39,0-2.09,0-.29,0-.4.11-.4.44,0,.87,0,1.74,0,2.62,0,.5,0,1,0,1.5,0,.83,0,1.65-.11,2.47,0,0,0,0,0,.07-.07.92-.2,1.84-.34,2.76-.18,1.2-.39,2.4-.56,3.6l-.09.63c-.07.5-.14,1-.21,1.5-.1.73-.2,1.47-.31,2.2s-.29,1.68-.43,2.52c0,.17-.06.35-.09.52,0,.33-.08.65-.11,1s-.09.91-.15,1.36c-.18,1.31-.38,2.61-.57,3.92l-.22,1.5,0,.23-.07.51c-.06.39-.11.79-.17,1.18-.14,1-.28,2-.43,3.07l-.13.94-.22,1.5-.8,5.55-.16,1.11-.21,1.5q-.15,1.06-.3,2.12c-.2,1.4-.42,2.8-.61,4.21-.05.38-.23.45-.59.48-3.32.29-3.63.37-6,.53-.94.06-1,0-2.41.17,0,0,0,.21,0,.21,0,.75.53.77,1.11,1,1.42.58,12.69.28,19.06.28h19c.6,0,1.64-.57,1.64-1.16a1,1,0,0,0-.35-.34C486.16,349.22,483.23,349,480.09,348.74Zm-6.89-30.36a1.15,1.15,0,0,1-.32.1c-1.19,0-2.38,0-3.57,0-.35,0-.51-.14-.54-.43a.87.87,0,0,1,0-.12c0-.84,0-1.68,0-2.53h0c0-.69,0-1.38,0-2.07,0-.15,0-.3,0-.45a1,1,0,0,1,.14-.34c.1.05.22.09.28.17l.46.62q1.74,2.34,3.46,4.69v0A1.79,1.79,0,0,1,473.2,318.38Zm-.53-7.36c.11.81.22,1.62.3,2.32a12.17,12.17,0,0,1,.16,2.27l-.42-.53-1.29-1.74-1.11-1.5-.73-1-.3-.41a.64.64,0,0,1,0-.91l.33-.44,1.11-1.48.34-.45.78-1a7.85,7.85,0,0,1,.33,1.45C472.31,308.54,472.5,309.78,472.67,311Zm-7.25-5.77a.41.41,0,0,1-.09-.31.37.37,0,0,1,.28-.15c.43,0,.85,0,1.28,0a.37.37,0,0,1,.4.4c0,.31,0,.61,0,.92v0h0c0,.31,0,.61,0,.92a.24.24,0,1,1-.44.14l-.81-1.1Zm3.73,2c-.06.08-.19.11-.29.16a.83.83,0,0,1-.12-.27c0-.31,0-.61,0-.92h0s0-.08,0-.12c0-.3,0-.59,0-.89s.1-.43.37-.43c.44,0,.88,0,1.32,0,.09,0,.25.05.27.12a.42.42,0,0,1-.07.32l-.65.88C469.72,306.5,469.44,306.89,469.15,307.27Zm1.56-7.93c.86,0,.86,0,.86.86q0,.31,0,.63,0,.75,0,1.5c0,.16,0,.32,0,.48s-.09.46-.45.44a15.46,15.46,0,0,0-1.84,0c-.36,0-.45-.13-.44-.44s0-.32,0-.48q0-.5,0-1h0q0-.25,0-.5v-.26c0-.27,0-.53,0-.8s.1-.44.43-.42S470.23,299.34,470.71,299.34Zm-3.22-2.18c0-.17,0-.35,0-.52s0-.48,0-.72c0-1,0-2,0-3.06,0-.06,0-.13,0-.19,0-.44.1-.49.62-.5s.47.18.46.52c0,.06,0,.11,0,.17,0,.69,0,1.38,0,2.07h0c0,.33,0,.66,0,1s0,.81,0,1.21a2,2,0,0,1,0,.29c0,.28-.16.36-.5.36s-.49-.08-.54-.36A1.5,1.5,0,0,1,467.49,297.15Zm-3,4.18h0c0-.17,0-.34,0-.51,0-.34,0-.68,0-1s.11-.49.47-.48a16.82,16.82,0,0,0,1.8,0c.36,0,.45.11.45.42s0,.71,0,1.07,0,1,0,1.5c0,.16,0,.32,0,.48,0,.32-.12.43-.42.43-.62,0-1.23,0-1.85,0-.36,0-.48-.13-.47-.47,0-.15,0-.3,0-.45Q464.48,301.83,464.48,301.33Zm-1.22,10.51c.2-1.5.44-3.11.63-4.23a7.19,7.19,0,0,1,.31-1.39.8.8,0,0,1,.19.14l1.71,2.31.77,1a.52.52,0,0,1,0,.67l-1.1,1.47-1.12,1.5-.83,1.11-.86,1.15a11.1,11.1,0,0,1,.15-2.26C463.13,312.88,463.19,312.37,463.26,311.85ZM463,318q1.72-2.34,3.45-4.66l.75-.77a1.06,1.06,0,0,1,.11.31c0,.15,0,.31,0,.46,0,.69,0,1.38,0,2.06h0c0,.83,0,1.66,0,2.49,0,.07,0,.12,0,.17,0,.35-.14.41-.6.42h-3.49a1.27,1.27,0,0,1-.32-.09,2.78,2.78,0,0,1,.11-.33A.42.42,0,0,1,463,318Zm6.58,25.29,6.58,5a2.36,2.36,0,0,1,.26.28l0,.12c-.17,0-.33,0-.5.05h-6.59c-.32,0-.56-.06-.56-.45,0-1.73,0-3.45,0-5.18a.31.31,0,0,1,.13-.25.37.37,0,0,1,.28.08C469.31,343,469.44,343.19,469.59,343.3Zm-2.41-.41c.06,0,.13.17.13.26,0,.27,0,.53,0,.8,0,1.39,0,2.78,0,4.17,0,.58,0,.61-.63.61H460a2.61,2.61,0,0,1-.45-.1c.22-.2.34-.32.47-.43l6.87-5.24A.41.41,0,0,1,467.19,342.89Zm9.91-1q.39,2.83.74,5.68a2.68,2.68,0,0,1-.64-.39l-7-5.28-.48-.36c-.48-.36-.47-.42,0-.77l.48-.36,2.78-2.11,1.25-.95.51-.38,1.37-1,.13.09c.15,1,.3,2.08.45,3.12S477,341,477.09,341.93Zm-6-6.86h2.94a2.57,2.57,0,0,1,.44.08l0,.13L473,336.46l-.3.23-.93.72-2.62,2c-.07.05-.23.09-.28,0a.43.43,0,0,1-.12-.3q0-1.72,0-3.45a1,1,0,0,1,.08-.49c.08-.13.23-.16.56-.16Zm-3.84.4c0,1.24,0,2.49,0,3.73a.38.38,0,0,1-.16.28c-.06,0-.2,0-.27-.09l-1.2-.93-4-3a.89.89,0,0,1-.16-.24c.09,0,.17-.13.26-.13h2.6v0h2.45C467.09,335.07,467.3,335.16,467.3,335.47Zm6.6-3.09,1.06,1-.07.14c-.14,0-.28,0-.42,0h-5c-.66,0-.71,0-.71-.7,0-.22,0-.43,0-.65,0-1.4,0-2.8,0-4.21a1,1,0,0,1,.13-.33,1.44,1.44,0,0,1,.32.18l4.58,4.36Zm1-6,.06.43c.22,1.56.46,3.12.68,4.68a1.19,1.19,0,0,1-.06.34l-.19.08a9,9,0,0,0-.64-.77q-2.49-2.4-5-4.77l-.3-.29c-.25-.24-.23-.39,0-.61l.63-.6,3.52-3.35a1.67,1.67,0,0,1,.28-.23c.17-.1.31-.09.34.15s.06.48.09.72l.38,2.72Zm-8-6.42c.3,0,.48.11.48.45,0,1,0,2.08,0,3.13,0,.09-.06.26-.11.26a.41.41,0,0,1-.31-.1q-1.74-1.65-3.46-3.33a1,1,0,0,1-.15-.29.91.91,0,0,1,.3-.13c.57,0,1.15,0,1.72,0v0Zm1.91,3.49q0-1.41,0-2.81c0-.62.07-.68.7-.68h3a1,1,0,0,1,.31.12.92.92,0,0,1-.14.29q-1.73,1.67-3.48,3.32a1.61,1.61,0,0,1-.38.19C468.76,323.66,468.74,323.54,468.74,323.43ZM461,327.57l.09-.69.08-.53c.07-.5.15-1,.22-1.5.16-1.08.31-2.16.47-3.24a2.11,2.11,0,0,1,.16-.42,2,2,0,0,1,.39.23l3.61,3.43.57.54c.32.3.34.4,0,.7l-.27.26-3.05,2.91-.48.45-.62.6-1.56,1.5-.13,0a1.47,1.47,0,0,1,0-.32c.1-.73.2-1.46.3-2.19C460.84,328.7,460.92,328.14,461,327.57Zm2.39,3.63,1.1-1.05,2.37-2.26a.49.49,0,0,1,.34-.13s.12.19.12.29c0,1.4,0,2.79,0,4.19q0,.43,0,.86c0,.37-.15.51-.53.51-1.71,0-3.42,0-5.13,0-.16,0-.33,0-.57-.06a3.2,3.2,0,0,1,.31-.45l.87-.83Zm-4.22,9.23.57-4.08c0-.35.2-.41.48-.2L465,339.8l.82.63,1,.75-1,.75-7.48,5.7-.12-.08a3.18,3.18,0,0,1,0-.45c.13-.91.28-1.82.41-2.73l.34-2.44Z" transform="translate(0 -238.41)"/><path class="cls-2" d="M464.36,287.11a5.78,5.78,0,0,0,1.94,2.23c.26.18.55.33.81.51a1.49,1.49,0,0,0,1.36.22,2.16,2.16,0,0,0,.48-.22,9.26,9.26,0,0,0,1.64-1.24,5,5,0,0,0,1-1.27c0-.07.07-.15.1-.23a6,6,0,0,0,.57-2.47c0-.07,0-.13,0-.2a9.57,9.57,0,0,0-.12-1.3,11.65,11.65,0,0,0-.58-2.21c-.08-.21-.15-.43-.24-.64s-.26-.58-.39-.86-.26-.54-.4-.81a20.9,20.9,0,0,0-1.68-2.67c-.13-.18-.26-.36-.4-.54-.38-.48-.41-.49-.78,0l-.1.13a21.93,21.93,0,0,0-1.34,1.93,19.29,19.29,0,0,0-1.09,2q-.34.73-.62,1.5l-.08.19a11.42,11.42,0,0,0-.52,2,8.18,8.18,0,0,0-.08,1.5,7.19,7.19,0,0,0,0,.73A5.69,5.69,0,0,0,464.36,287.11Zm4.21.93c-.44.55-.61.59-1.08,0a1.91,1.91,0,0,1-.35-.91s0,0,0,0a3.41,3.41,0,0,1,.42-1.94l.26-.53.14-.28.14,0,.13.26a4.41,4.41,0,0,1,.68,2.29c0,.06,0,.12,0,.17A1.86,1.86,0,0,1,468.57,288Zm-3.18-4.9a7.59,7.59,0,0,1,.25-1q.21-.62.45-1.23c.21-.51.45-1,.7-1.5a14.86,14.86,0,0,1,1.23-2h0c.15.19.25.3.33.42.33.51.63,1,.92,1.57a15.41,15.41,0,0,1,.71,1.5,11.23,11.23,0,0,1,.64,2c0,.06,0,.12,0,.18a8.53,8.53,0,0,1,.07,1.5c0,.29,0,.58,0,.87,0,.1-.13.19-.21.29a1.21,1.21,0,0,1-.24-.29c-.11-.28-.18-.58-.29-.87v0a8.71,8.71,0,0,0-.76-1.46,13,13,0,0,0-.91-1.26c-.16-.2-.31-.24-.48,0q-.49.62-.91,1.28a8.26,8.26,0,0,0-.79,1.5,6.13,6.13,0,0,0-.27.81,1.81,1.81,0,0,1-.25.44l-.15,0a6.34,6.34,0,0,1-.15-1.2A6.66,6.66,0,0,1,465.39,283.15Z" transform="translate(0 -238.41)"/><path class="cls-2" d="M461.49,277.45c.27.23.6.42.89.63a.63.63,0,0,0,.19,0,1,1,0,0,0,.19-.15c.14-.17.26-.35.39-.53l.08-.11a.34.34,0,0,0-.07-.55l-1-.71a.31.31,0,0,0-.51.11c-.15.34-.77.57-.44,1A1.59,1.59,0,0,0,461.49,277.45Z" transform="translate(0 -238.41)"/><path class="cls-2" d="M473.62,278.11s.2,0,.28-.1l.74-.55.16-.12c.23-.16.28-.31.1-.56-.63-.89-.62-.9-1.51-.26l-.45.33a2.31,2.31,0,0,0-.22.25l.32.36C473.23,277.67,473.43,277.9,473.62,278.11Z" transform="translate(0 -238.41)"/><path class="cls-2" d="M474.8,282.25c.09.28-.21.72.13.9a.68.68,0,0,0,.25.07,5.12,5.12,0,0,0,.52,0c.48,0,.7,0,.81-.07s.09-.31.1-.87,0-.53-.55-.53h-.92A.34.34,0,0,0,474.8,282.25Z" transform="translate(0 -238.41)"/><path class="cls-2" d="M459.75,283.15a1.73,1.73,0,0,0,.74.07c.46,0,.67,0,.78-.07s.1-.31.1-.83,0-.58-.6-.58h-.56c-.57,0-.62,0-.62.6S459.59,283.05,459.75,283.15Z" transform="translate(0 -238.41)"/><path class="cls-2" d="M467.32,273.24c0,.3.24.36.46.29s.82.3,1-.3a2,2,0,0,0,0-.48v-.07c0-.8,0-.8-1.05-.79-.27,0-.4.13-.4.38s0,.27,0,.4S467.31,273.05,467.32,273.24Z" transform="translate(0 -238.41)"/><path class="cls-3" d="M500,332.28v1.5H477.41l-.22-1.5Z" transform="translate(0 -238.41)"/><path class="cls-4" d="M491.84,324.85l-8.4-5.28h-8.06l-.22-1.5h5.89L474.57,314q-.15-1.07-.3-2.14H500v1.5H476.36l7.51,4.72H500v1.5H486.26l8.4,5.28H500v1.5h-3l3,1.86V330l-5.78-3.63H476.35l-.21-1.5Z" transform="translate(0 -238.41)"/><path class="cls-5" d="M0,239.12v2.27H9.9l-.12,0H0v1.5H5.05l-.33.1H0v1.5H0v1.68H13.43l-.73.25H0V248H8.33l-1,.33H0v1.5H3l-1.22.42H0v3.51H12l-1.64.61H0v1.5H6.37l-1.93.72H0v1.5H.42l-.42.16v2.18H16.25l-2.35,1H0v1.5H10.24L7.56,264H0v1.5H3.9l-3,1.25H0v2l1.16-.48h20L18,269.6H0v1.5H14.73l-3.48,1.58H0v1.5H7.94L4,276H0v1.5H.74l-.74.33v1.65H0v1.5H20l-4.35,2.21H0v1.5H12.72l-4.85,2.47H0v1.5H4.92L0,291.12v1.74H26.34l-5.29,3.06H0v1.5H18.46l-5.89,3.41H0v1.5H10l-6.56,3.79H0v1.5H.83l-.83.48v1.73l3.83-2.21H34.09l-6.31,4.23H0v1.5H25.54l-7,4.72H0v1.5H16.25l-7.88,5.28H0v1.5H6.14L0,330.47v1.81l8.83-5.92h35l-7.43,5.92H0v1.5H34.52l-8.35,6.66H0v1.5H24.29l-9.42,7.5H0v1.5H13L2.34,359.42H0v1.5H500v-1.5H458.55l-9.47-8.49h41l9.93,7.34v-1.87l-7.4-5.47H500v-1.5h-9.43l-10.15-7.5H500v-1.5H478.38c.1.69.19,1.39.29,2.08l8.44,6.24a.18.18,0,0,1,.11.08l.81.6h-.76c0,.05,0,.1,0,.16,0,.59,0,.59-.6.59H449c-.79,0-.82,0-.83-.76h-.78l-8.37-7.5h18.43c1-.61,1.07-1.11.21-1.5H437.36l-7.43-6.66h28.7c1.44-.44,2-.92.22-1.5H428.26l-6.61-5.92h35.16l2.59,1.92c.33-.34,1.89-.41.91-1-.15-.09,0-.13,0-.3l-1-.63,1.31-.1c.07-.5,0-.86.05-1.36l-3.39,0-7.15-5.28h11.19c0-.33.35-.63.4-1,0-.17-.13-.25-.1-.43l-13.52-.11-6.39-4.72,20.77,0c.07-.5,0-1,.1-1.46l-22.9,0L434,307.62l29-.07c.14-.92.08-1.16.15-2.09,0,0,.07-.35.08-.38l-4.41-2.76,4.66-.08c0-.5,0-.88,0-1.38l-7,0L451,297.42h15.45c0-.08,0-.23,0-.35,0-.4-.05-.73-.05-1.13H448.65l-4.86-3.06,22.75-.1c0-.5-.1-.86-.1-1.36l-25,0L437,288.61h25.63l3.82,2.09h3.12l-1.14-.62a1.49,1.49,0,0,1-1.36-.22c-.26-.18-.55-.33-.81-.51a5.78,5.78,0,0,1-1.94-2.23h-1.31l-4.5-2.47h5.26a8.18,8.18,0,0,1,.08-1.5h-2.64c-.1.09-.32.06-.78.07a1.73,1.73,0,0,1-.74-.07h-3.94l-4-2.21H464.5q.28-.77.62-1.5H449l-3.62-2h16.08a1.59,1.59,0,0,1-.23-.25c-.33-.44.29-.67.44-1a.31.31,0,0,1,.51-.11l1,.71a.34.34,0,0,1,.07.55l-.08.11h3a21.93,21.93,0,0,1,1.34-1.93l-2.77-1.34h21.58l4.08,1.77H468.82a20.9,20.9,0,0,1,1.68,2.67l1.68.81h-1.27c.13.28.27.57.39.86s.16.43.24.64h3.73l4.56,2.21h-3.33c-.11.08-.33.06-.81.07a5.12,5.12,0,0,1-.52,0,.68.68,0,0,1-.25-.07h-2.8a9.57,9.57,0,0,1,.12,1.3c0,.07,0,.13,0,.2h10.69l5.09,2.47H471.67c0,.08-.06.15-.1.23a5,5,0,0,1-1,1.27h20.52l5.67,2.75h-26l-.83-.45a2.17,2.17,0,0,1,0,.41q0,.77,0,1.54h.42l5.59,3.06h-6c0,.43,0,.87,0,1.3a1.57,1.57,0,0,0,0,.2h8.73l6.22,3.41H473.15c0,.5,0,1,0,1.5h14.56l6.93,3.79h-21.2c.07.5.13,1,.2,1.5h23.74L500,309v-2.93h-2.23l-6.93-3.79H500v-1.5H488.1l-6.22-3.41H500v-1.5H479.14l-5.59-3.06h26.33l.12.06v-1.67l-5.44-2.64H500v-1.5h-8.54l-5.09-2.47H500v-1.5H483.28l-4.56-2.21H500v-2.46l-2.35-1H500V276h-5.8l-4.08-1.77H500v-1.5H486.67L483,271.1h17V266.7h-3.53l-3.16-1.25H500V264H489.5l-2.79-1.1H500v-1.5H482.91l-2.44-1h17.66l1.88.68v-2.18h-1.62l-2.32-.84H500v-1.5h-8.1l-2-.72H500v-1.5H485.74l-1.7-.61h15.74l.23.08v-1.58h0l-1.53-.51H500v-1.5h-6l-1.26-.42H500v-1.5H488.17l-1-.33H500V244.7h-4.26l-.57-.18H500V243h-9.71l-.34-.1H500v-4.51H2.4l-.1,0Zm474.64,38.34h19.24l4.56,2H475.62l-4.09-2H473l-.32-.36a2.31,2.31,0,0,1,.22-.25l.45-.33c.89-.64.88-.63,1.51.26.18.25.13.4-.1.56ZM27.48,241.38l-.11,0H14.74l.12,0Zm.14,1.54H40.93l-.28.1H27.31Zm247.74,5,.13.33H258L258,248Zm-17.65-1.5,0-.25h17l.1.25Zm18.39,3.33.17.42H258.33l-.07-.42ZM116.46,332.28l4.62-5.92h35.74l-3.22,5.92Zm36.33,1.5-3.62,6.66H110.1l5.2-6.66Zm158.29-1.5-2.4-5.92h35.85l3.8,5.92Zm38.22,1.5,4.27,6.66H314.39l-2.69-6.66Zm101.22-83.57H435l-1-.42h15.47Zm-.78-1.92-.85-.33h14.71l.92.33Zm-153.1,3.42.33.51H278.7l-.21-.51Zm-18.76-1.5-.17-.42h17.7l.27.42Zm20.05,3.51.39.61H279.55l-.25-.61ZM141,300.82l2.66-3.41h28.89l-1.85,3.41Zm28.88,1.5-2.06,3.79H136.88l3-3.79ZM372.4,264H352l-1.22-1.1h20.11Zm-1-2.6-1.3-1h19.24l1.53,1Zm-45.23,1.5,1,1.1H306.28l-.7-1.1Zm-21.57-1.5-.62-1h20l.85,1Zm-135.86,1.5-.86,1.1H147.16l1.12-1.1Zm-21.09-1.5H127.79l1.21-1h19.64Zm32.21,25.76,1.34-2.47h26l-.76,2.47Zm26.15,1.5-.84,2.75H177.56l1.49-2.75ZM330.88,268.2l1.24,1.41H309.91l-.9-1.41ZM308,266.7l-.8-1.25h21.22l1.09,1.25Zm22.42-1.25h21l1.39,1.25H331.56Zm24.05,2.75,1.57,1.41h-22l-1.24-1.41Zm-19.7,4.49H311.89l-1-1.58h22.56ZM312.2,276H288.3l-.72-1.77h23.48Zm-23.51,5,.89,2.21H263.85l-.37-2.21Zm1.5,3.71,1,2.47H264.52l-.41-2.47Zm-25.48,12.77.57,3.41h-30l.24-3.41Zm-29.29-20-.14,2H210.4l.61-2Zm-24.53-4.77H187.71l.86-1.58h22.81Zm24.29,8.25-.15,2.21H209.26l.68-2.21Zm-.26,3.71-.17,2.47H208l.76-2.47ZM184,279.44l1.08-2h24.32l-.61,2Zm1.89-3.48,1-1.77h23.55L209.9,276Zm-20.55-6.35,1.1-1.41h22l-.76,1.41Zm2.27-2.91,1-1.25h21.31l-.68,1.25Zm22.5,1.5h22.13l-.43,1.41H189.38Zm45.51,6-.12,1.77H211.47l.54-1.77Zm29.89,28.14.64,3.79H234.94l.26-3.79Zm.89,5.29.71,4.23h-32.6l.29-4.23Zm-32-16.26H206.74l.84-2.75h27.07ZM182,283.15l1.2-2.21h25.15l-.68,2.21Zm-24.31-3.71,1.55-2h24.15l-1.08,2Zm2.72-3.48,1.38-1.77h23.38l-1,1.77Zm2.55-3.27,1.23-1.58h22.65l-.86,1.58Zm-21.57-3.08,1.43-1.41h21.74l-1.1,1.41Zm3-2.91,1.27-1.25h21.09l-1,1.25Zm5.44-5.34,1-1h19.89l-.75,1Zm41.54,1.5-.6,1.1h-21l.86-1.1Zm-19.52-1.5.75-1h20.11l-.52,1Zm41.29,4.1-.38,1.25H191l.68-1.25Zm22.75,5.65-.11,1.58H212.47l.48-1.58ZM264,292.86l.51,3.06H235.65l.21-3.06Zm-28-1.5.19-2.75h27.09l.46,2.75Zm27.27-11.92-.33-2h24.39l.8,2ZM287,272.68l-.64-1.58h22.75l1,1.58Zm-1.25-3.08-.57-1.41h22.06l.9,1.41ZM326,260.39h19.79l1.07,1h-20Zm22.54,2.46,1.22,1.1H329.15l-1-1.1Zm-.5-2.46h19.53l1.3,1H349.13Zm26.37,5.06,1.68,1.25h-21l-1.39-1.25Zm3.71,2.75,1.9,1.41H358.34l-1.57-1.41Zm-18.62,4.49H336.82l-1.39-1.58h22.33ZM337.7,276H314l-1.14-1.77h23.29Zm-23.26,3.48H289.71l-.8-2h24.26Zm1,1.5,1.42,2.21H291.21l-.89-2.21Zm2.38,3.71,1.58,2.47H292.81l-1-2.47Zm-24.87,6.71H265.23l-.46-2.75h27Zm.61,1.5,1.24,3.06H266l-.51-3.06Zm1.84,4.56,1.38,3.41H266.81l-.57-3.41Zm2,4.91,1.54,3.79H267.7l-.64-3.79Zm-29.17,15.75H234.11l.33-4.72h33Zm-62.84-22.15.94-3.06h28.07l-.21,3.06Zm28.7,1.5-.24,3.41h-30l1-3.41Zm-30.26-1.5h-28.7l1.66-3.06h28Zm-55.38-4.56,2.14-2.75h26.8l-1.49,2.75Zm3.31-4.25,1.92-2.47H179.5l-1.34,2.47Zm3.1-4,1.73-2.21h25l-1.2,2.21Zm-23.41-3.71,2-2h23.94l-1.55,2Zm3.54-3.48,1.8-1.77h23.16L158.52,276Zm3.33-3.27,1.61-1.58h22.43l-1.23,1.58Zm-20.83-3.08,1.76-1.41H140.7l-1.43,1.41Zm3.65-2.91,1.56-1.25h20.84l-1.27,1.25Zm3.44-2.75,1.38-1.1h20.22L145,264Zm-18.74-2.6,1.44-1h19.36l-1.21,1Zm3.67-2.46,1.25-.84h18.81l-1,.84Zm3.48-2.34,1.08-.72h18.28l-.9.72Zm38.06,1.5-.85.84H130.88l1-.84Zm-17.2-1.5.9-.72h18.56l-.73.72Zm38.68,1.5-.65.84H152.31l.85-.84Zm-17.81-1.5.73-.72h18.81l-.56.72Zm19.71,1.5H194l-.45.84H173.75Zm39.51,4.8-.34,1.1H192.46l.6-1.1Zm22.16,5.34-.1,1.41H213.41l.43-1.41Zm-21.77-1.5.38-1.25h21.58l-.09,1.25Zm.84-2.75.34-1.1h21l-.08,1.1Zm47.44,20.7.41,2.47H236.26l.17-2.47Zm-.23-10.46H286l.72,1.77h-24Zm-.25-1.5-.26-1.58h22.88l.64,1.58Zm22.45-6-.5-1.25h21.41l.8,1.25ZM283.44,264l-.44-1.1h20.8l.7,1.1Zm-1.05-2.6-.39-1h20.21l.62,1Zm19.14-4.8-.46-.72H320l.63.72Zm20.43,1.5.73.84H303l-.54-.84Zm0-2.22h18.71l.8.72H322.65Zm21.19,2.22.93.84H324.7l-.73-.84Zm-.23-2.22h18.45l1,.72H343.78Zm21.45,2.22,1.13.84H346.38l-.93-.84Zm-.48-2.22h18.16l1.15.72H364.92Zm21.69,2.22,1.33.84H368.08l-1.13-.84Zm-.71-2.22h17.86l1.32.72h-18Zm21.92,2.22,1.53.84H389.79l-1.33-.84Zm4.27,2.34,1.76,1H393.7l-1.53-1ZM395,264H374.93l-1.48-1.1h19.83Zm2.38,1.5,2,1.25H378.64L377,265.45Zm4.36,2.75L404,269.6H382.57l-1.9-1.41Zm-17.55,4.49H361.77L360,271.1h22.07Zm-21,3.27H339.7l-1.56-1.77H361.2Zm-22.42,3.48H316.22l-1.27-2H339Zm1.32,1.5,1.94,2.21H318.6l-1.42-2.21Zm3.26,3.71,2.17,2.47H321.14l-1.58-2.47Zm-23.25,6.71H294.53l-1.11-2.75h26.9Zm1,1.5,2,3.06H296.38l-1.24-3.06Zm2.92,4.56,2.18,3.41h-29.8L297,297.42Zm3.15,4.91,2.43,3.79H300.5L299,302.32Zm-27.92,9.52H268.66l-.71-4.23h31.54Zm.61,1.5,1.91,4.72h-34l-.79-4.72Zm-32.49,11.51H233.64l.37-5.28h34.43Zm-35.88-18.74H202.22l1.16-3.79H233.7Zm-61-5.29,1.85-3.41h29.05l-1,3.41Zm-27.57-4.91,2.39-3.06H175l-1.66,3.06Zm1.66-4.56H119.27l2.79-2.75h26.58Zm-22.91-4.25,2.51-2.47h25.64l-1.92,2.47Zm4-4,2.25-2.21h24.76l-1.73,2.21Zm1.64-3.71H105.1l2.49-2h23.69ZM109.47,276l2.22-1.77H134.6L132.8,276Zm4.1-3.27,2-1.58h22.18l-1.61,1.58ZM93.49,269.6l2.1-1.41H116.8L115,269.6Zm4.34-2.91,1.86-1.25h20.56l-1.56,1.25Zm4.09-2.75,1.64-1.1H123.5l-1.38,1.1Zm-18.12-2.6,1.66-1h19.07l-1.44,1Zm4.26-2.46,1.45-.84H108l-1.25.84Zm4-2.34,1.25-.72h18l-1.08.72Zm-16.48-2.22,1.21-.61H94l-1.06.61Zm4.15-2.11,1-.51h16.7l-.89.51Zm34.72,1.5-.91.61H95.94l1.06-.61Zm-14.89-1.5.89-.51h17l-.76.51Zm35.37,1.5-.77.61H116.27l.91-.61Zm-15.54-1.5.76-.51h17.3l-.64.51Zm36,1.5-.62.61H136.6l.77-.61Zm-16.18-1.5.64-.51h17.58l-.52.51Zm18.32,1.5h18.31l-.48.61H156.94Zm1.53-1.5.52-.51h17.83l-.4.51Zm36.07,3.61-.39.72h-19.2l.56-.72Zm19.51,4.56-.3,1h-20.5l.52-1Zm-19.46-1.5.45-.84h19.72l-.26.84Zm1.27-2.34.39-.72h19.2l-.22.72Zm19.76,3.84h20.38l-.07,1H215.94Zm.46-1.5.26-.84h19.82l-.06.84Zm45.27,22,.37,2.21h-25.8l.15-2.21Zm-25.17-1.5.14-2h24.45l.33,2Zm24.55-11.24h22.19l.57,1.41H261.58Zm-.25-1.5-.21-1.25h21.54l.5,1.25Zm-.46-2.75-.18-1.1h20.93l.44,1.1Zm20.42-5.9h19.66l.54.84H281.4Zm-.61-1.5-.29-.72h19.13l.46.72Zm19.27-2.83h18.44l.54.61H300.11Zm18.67-2h17.73l.57.51H318.84Zm20,2,.68.61H320.7l-.54-.61Zm0-2h17.47l.69.51H338.94Zm20.19,2,.83.61H341.3l-.68-.61Zm-.2-2h17.19l.82.51H359.06Zm20.39,2,1,.61H361.92l-.83-.61Zm-.38-2h16.88l.94.51h-17Zm20.56,2,1.12.61H382.54l-1-.61Zm-.55-2h16.57l1.06.51h-16.7Zm20.73,2,1.27.61h-17.2l-1.12-.61Zm-.71-2h16.25l1.18.51H419.45Zm20.88,2,1.41.61H423.81l-1.27-.61ZM425,256.55H407.23l-1.32-.72h17.55Zm3.1,1.5,1.73.84H411.5l-1.53-.84Zm4.82,2.34,2,1H416l-1.76-1ZM417.62,264H397.83l-1.75-1.1h19.53Zm2.74,1.5,2.27,1.25H402.2l-2-1.25Zm5,2.75,2.57,1.41H406.82l-2.24-1.41Zm-16.48,4.49H386.74l-2.14-1.58h21.78ZM388.64,276H365.42l-2-1.77h22.8Zm-21.58,3.48H342.75l-1.74-2h23.84Zm1.67,1.5,2.47,2.21H346l-1.94-2.21Zm4.14,3.71,2.75,2.47H349.5l-2.17-2.47Zm-21.64,6.71H323.87l-1.76-2.75h26.71Zm1.32,1.5,2.69,3.06H326.79l-2-3.06Zm4,4.56,3,3.41H329.94l-2.18-3.41Zm4.31,4.91,3.33,3.79H333.34l-2.43-3.79Zm-25.63,9.52H302.82l-1.71-4.23h31.41Zm1,1.5,3,4.72H305.34l-1.91-4.72Zm4,6.22,3.39,5.28H308.09l-2.14-5.28Zm-33.72,5.28H270.84l-.89-5.28h34.37Zm-35.9,7.42H233.12l.41-5.92h36ZM233,311.85H200.46l1.3-4.23h31.57Zm-63.5-5.73,2.06-3.79h30.22l-1.16,3.79Zm30.65,1.5-1.3,4.23H166.42l2.3-4.23Zm-1.76,5.73L197,318.07H163l2.57-4.72Zm-37.1,4.72H127.55l3.69-4.72H163.9Zm-28.92-6.22,3.3-4.23H167l-2.3,4.23Zm2.57-5.73H104.25l3.86-3.79h29.83Zm-25.34-5.29,3.47-3.41h28.67l-2.66,3.41Zm5-4.91,3.11-3.06h27.59l-2.39,3.06Zm2.5-4.56h-27l3.45-2.75h26.33Zm-21.65-4.25,3.09-2.47H124l-2.51,2.47Zm5-4,2.77-2.21h24.51l-2.25,2.21Zm2.25-3.71H78.82l3-2h23.41ZM84,276l2.64-1.77h22.63L107.06,276Zm4.88-3.27,2.36-1.58h21.9l-2,1.58ZM69.54,269.6,72,268.2H92.89l-2.1,1.41Zm5-2.91,2.15-1.25H97l-1.86,1.25ZM79.31,264l1.9-1.1h19.65L99.22,264Zm-17.5-2.6,1.89-1H82.47l-1.66,1Zm4.84-2.46,1.64-.84H86.51l-1.45.84Zm4.59-2.34,1.42-.72H90.35l-1.25.72Zm-16-2.22,1.35-.61H73.51l-1.21.61ZM60,252.22l1.13-.51H77.47l-1,.51Zm4.43-2,.93-.42H81.24l-.83.42Zm4.23-1.92.73-.33h15.5l-.65.33Zm32.18,1.5-.73.42H83.73l.83-.42Zm-13.3-1.5.65-.33H104l-.58.33Zm32.85,1.5-.63.42H103.07l.73-.42Zm-14-1.5L107,248h16.12l-.5.33Zm33.51,1.5-.53.42H122.42l.63-.42Zm-14.61-1.5.5-.33H142.2l-.42.33Zm17,1.5h17.13l-.43.42H141.78Zm1.88-1.5.42-.33H161.3l-.34.33Zm17.39,1.5h17.38l-.33.42H161.14Zm34.74,3.93-.33.61H177.3l.48-.61ZM179,252.22l.4-.51H197.4l-.28.51Zm1.57-2,.33-.42h17.59l-.23.42Zm36.19,3.51-.19.61H197.68l.33-.61Zm-17.88-1.5.28-.51h18.22l-.16.51Zm1.09-2,.23-.42h17.76l-.13.42Zm37,5.63-.05.72H217.41l.22-.72Zm-18.84-1.5.19-.61h18.8l0,.61Zm.65-2.11.16-.51h18.32l0,.51Zm42.09,22,.3,1.77H237l.12-1.77Zm-23.57-1.5.11-1.58h22.94l.26,1.58Zm22.94-11.33-.16-1h20.34l.39,1Zm-.41-2.46-.14-.84h19.79l.34.84Zm37.41-9.1h17.51l.37.42H297.46Zm19.2,1.92.45.51H298.76l-.33-.51Zm.31-1.92H334l.47.42H317.07ZM334.18,248h16.58l.45.33H334.55Zm19.06,1.83.57.42H336.7l-.47-.42Zm0-1.83h16.3l.53.33H353.74Zm19.21,1.83.67.42H356.33l-.57-.42Zm-.1-1.83h16l.61.33H372.93Zm19.34,1.83.77.42H376l-.67-.42Zm-.22-1.83H407.2l.69.33H392.13ZM411,249.79l.87.42H395.64l-.77-.42Zm-.34-1.83H426l.77.33H411.33Zm19.58,1.83,1,.42h-15.9l-.87-.42Zm-.45-1.83h15l.85.33H430.54Zm24.56,3.75,1.3.51h-16l-1.18-.51Zm5.11,2,1.56.61H444.45l-1.41-.61Zm-13.65,2.83h-17.4l-1.49-.72h17.23Zm3.45,1.5,1.92.84h-18l-1.73-.84Zm5.37,2.34,2.22,1H438.3l-2-1ZM440.22,264H420.74l-2-1.1H438Zm3.1,1.5,2.57,1.25H425.76l-2.27-1.25ZM449,268.2l2.9,1.41H431.07l-2.57-1.41Zm-15.41,4.49H411.71l-2.51-1.58h21.48ZM414.1,276H391.17l-2.4-1.77h22.51Zm-20.75,3.48h-24l-2.21-2h23.57Zm2,1.5,3,2.21H373.45L371,280.94Zm5,3.71,3.34,2.47H377.87l-2.75-2.47Zm-20,6.71H353.23l-2.41-2.75H377.3Zm1.67,1.5,3.41,3.06H357.24l-2.69-3.06Zm5.09,4.56,3.8,3.41H361.55l-3-3.41Zm5.47,4.91,4.23,3.79H366.2l-3.33-3.79Zm-23.36,9.52H337l-2.71-4.23h31.22Zm1.32,1.5,4.15,4.72H341l-3-4.72Zm5.47,6.22,4.64,5.28h-35.3L342,319.57Zm-66.55,12.71H272.09l-1-5.92h36Zm-37.54,8.16H232.56l.46-6.66h37.8Zm-73.38-22.36,1.45-4.72h32.93l-.33,4.72Zm33.95,1.5-.37,5.28H196.48l1.62-5.28Zm-37.59,5.28H159.35l2.87-5.28h34.3Zm-37.26,0H122.26l4.12-5.28h34.14Zm-37.29,0H85.18l5.38-5.28h33.92Zm-28.27-6.78,4.81-4.72h32.45l-3.69,4.72Zm6.33-6.22,4.31-4.23h31.09l-3.3,4.23Zm3.69-5.73H71.63l4.76-3.79H106Zm-23.84-5.29,4.27-3.41H111l-3.47,3.41Zm6.15-4.91,3.84-3.06H115.6l-3.11,3.06Zm3.31-4.56H61l4.1-2.75H91.18Zm-20.37-4.25L71,284.65H96.16l-3.09,2.47Zm5.92-4,3.3-2.21h24.23L98,283.15Zm2.84-3.71H52.54l3.43-2H79.08ZM58.56,276l3.06-1.77H84L81.32,276Zm5.66-3.27,2.73-1.58H88.56l-2.36,1.58ZM45.6,269.6l2.76-1.41H69l-2.43,1.41Zm5.71-2.91,2.45-1.25h20l-2.15,1.25Zm5.4-2.75,2.16-1.1H78.21l-1.9,1.1Zm-16.87-2.6,2.12-1H60.4l-1.89,1Zm5.43-2.46,1.84-.84H65l-1.64.84Zm5.15-2.34,1.59-.72H69.36l-1.42.72ZM35,254.33l1.5-.61H53l-1.35.61Zm5.16-2.11,1.25-.51H57.45l-1.13.51Zm4.91-2,1-.42H61.68l-.92.42Zm4.68-1.92.81-.33H65.72l-.73.33Zm-14-1.83.67-.25H50.87l-.61.25Zm4.69-1.75.47-.18H55l-.43.18Zm29.13,1.5-.56.25H54.21l.61-.25Zm-11.1-1.5.43-.18H73.27l-.39.18Zm29.81,1.5-.5.25H72.65l.55-.25Zm-11.78-1.5.39-.18H91.59l-.35.18Zm15.09,1.5H107l-.44.25H91.1Zm2.95-1.5.35-.18h15l-.3.18ZM110,246.2h15.7l-.38.25H109.56Zm2.59-1.5.3-.18H128.2l-.26.18Zm15.81,1.5h16l-.32.25H128Zm2.24-1.5.26-.18h15.6l-.22.18Zm16.17,1.5h16.28l-.26.25H146.48Zm1.88-1.5.22-.18h15.88l-.18.18Zm31.7,3.25-.26.33h-17l.34-.33ZM165,246.45l.26-.25h16.53l-.2.25Zm1.78-1.75.18-.18h16.13l-.14.18Zm32.7,3.25-.18.33H182l.26-.33Zm-16-1.5.2-.25H200.4l-.14.25Zm1.37-1.75.14-.18h16.35l-.1.18ZM218.48,248l-.1.33H201l.18-.33ZM202,246.45l.14-.25H219l-.08.25Zm1-1.75.1-.18h16.52l-.05.18Zm34.43,5.08,0,.42h-18l.13-.42Zm-17.41-1.5.1-.33h17.43l0,.33Zm17.63,19.91h22.25l.24,1.41H237.48Zm.1-1.5.09-1.25h21.6l.21,1.25Zm21.6-10.86h19.26l.29.72H259.4Zm-.25-1.5-.1-.61h18.76l.25.61Zm-.35-2.11-.09-.51h18.29l.21.51Zm16.91-7.69H292l.11.18H275.65Zm17.53,1.68.16.25H276.36l-.1-.25Zm1.12,1.75.21.33H277.11L277,248Zm-.42-3.43h16.26l.15.18H293.93Zm17.74,1.68.22.25H295.06l-.16-.25Zm1.54,1.75.29.33H296.23L296,248Zm-1-3.43h16l.2.18H312.23ZM330,246.2l.28.25H313.77l-.22-.25Zm2,1.75.37.33H315.38l-.29-.33Zm-1.58-3.43h15.77l.24.18H330.55Zm18,1.68.34.25H332.51l-.28-.25Zm.26-1.68h15.48l.28.18H348.89Zm18.15,1.68.4.25H351.26l-.34-.25Zm.15-1.68h15.18l.32.18H367.23Zm18.24,1.68.46.25H370l-.4-.25Zm.06-1.68h14.87l.36.18H385.58Zm18.33,1.68.52.25H388.78l-.46-.25Zm0-1.68h14.55l.41.18H403.93ZM422,246.2l.58.25h-15l-.52-.25Zm-.09-1.68h14.23l.45.18H422.29Zm18.48,1.68.64.25H426.32l-.58-.25Zm-.16-1.68h13.9l.49.18H440.65Zm18.55,1.68.7.25H445.09l-.64-.25Zm-.23-1.68h13.56l.53.18H459Zm18.61,1.68.76.25h-14l-.7-.25Zm5.28,1.75,1,.33H469L468,248Zm-12.55,2.25H454.62l-1.07-.42H468.7Zm4.16,1.5,1.42.51H459.73l-1.3-.51Zm5.59,2,1.7.61H465.09l-1.56-.61Zm-13,2.83H449.56l-1.66-.72h16.91Zm3.81,1.5,2.12.84H454.93l-1.92-.84Zm5.93,2.34,2.44,1H460.6l-2.22-1ZM462.81,264H443.66l-2.27-1.1h18.9Zm3.45,1.5,2.86,1.25H449.32l-2.57-1.25Zm6.32,2.75,3.24,1.41h-20.5l-2.9-1.41Zm-14.34,4.49H436.7l-2.89-1.58H455ZM439.55,276H416.91l-2.82-1.77h22.21Zm-19.91,3.48H395.87l-2.68-2h23.29Zm2.38,1.5,3.52,2.21H400.89l-3-2.21Zm5.9,3.71,3.92,2.47H406.26l-3.34-2.47Zm-18.44,6.71H382.61l-3.06-2.75h26.22Zm2,1.5,4.14,3.06H387.7l-3.41-3.06Zm6.17,4.56,4.61,3.41H393.17l-3.8-3.41Zm6.64,4.91,5.13,3.79H399.08l-4.23-3.79Zm-21.09,9.52h-32l-3.72-4.23h31Zm1.67,1.5,5.27,4.72H376.7l-4.15-4.72Zm6.95,6.22,5.89,5.28H382.66L378,319.57Zm-24.65,12.71H350.12l-3.8-5.92H382Zm1.32,1.5,5.85,6.66h-39l-4.27-6.66Zm7.17,8.16,6.59,7.5H361.13l-4.81-7.5Zm-36.32,7.5H318l-3-7.5h39.54Zm-42.94,0H275l-1.26-7.5h39.67Zm-43-9-1.12-6.66h37.74l2.69,6.66Zm0,9H231.93l.52-7.5h39.73Zm-41.82-17.16H194.2l1.82-5.92h36Zm-39,0H155.32l3.22-5.92h35.91Zm-.46,1.5-2,6.66H150.89l3.62-6.66Zm-2.5,8.16-2.3,7.5H146l4.08-7.5Zm-45.39,7.5H103.07l5.86-7.5h39.44Zm-43.12,0h-41l7.64-7.5H107Zm-31.84-9,6.77-6.66h37.29l-5.2,6.66Zm8.3-8.16,6-5.92h35.53l-4.62,5.92ZM83,324.85H48.12l6.63-5.28H88.42Zm-26.41-6.78,5.93-4.72H94.75l-4.81,4.72Zm7.81-6.22,5.31-4.23h30.83l-4.31,4.23Zm4.78-5.73H39l5.66-3.79H74Zm-22.3-5.29L52,297.42H80.14l-4.27,3.41Zm7.32-4.91,4.56-3.06H85.85L82,295.92Zm4.1-4.56H31.93l4.75-2.75H62.44Zm-19.07-4.25,4.26-2.47H68.35l-3.68,2.47Zm6.86-4,3.82-2.21H73.89l-3.3,2.21Zm3.42-3.71H26.27l3.9-2H53ZM33.11,276l3.48-1.77h22L55.56,276Zm6.43-3.27,3.11-1.58H64l-2.73,1.58ZM21.66,269.6l3.1-1.41h20.3l-2.76,1.41Zm6.4-2.91,2.74-1.25H50.45L48,266.7Zm6-2.75,2.42-1.1h19L53.4,264Zm-16.26-2.6,2.35-1H38.33l-2.12,1Zm6-2.46,2-.84H43.47l-1.84.84Zm5.7-2.34,1.76-.72h17l-1.59.72Zm-14.89-2.22,1.64-.61H32.52l-1.5.61Zm5.66-2.11,1.37-.51H37.44l-1.25.51Zm5.39-2,1.12-.42H42.12l-1,.42Zm5.14-1.92.89-.33H46.59l-.81.33Zm-13.54-1.83.73-.25h14.1l-.67.25Zm5.11-1.75.51-.18h13.7l-.47.18Zm22.63-3.32-.1,0H32l.11,0Zm.17,1.54H58.87l-.26.1H44.94Zm17.41-1.54-.09,0H49.24l.1,0Zm.2,1.54h14l-.23.1h-14Zm17.37-1.54-.08,0H66.49l.09,0Zm.24,1.54h14.3l-.21.1H80.21Zm17.33-1.54-.08,0H83.74l.09,0Zm.28,1.54h14.62l-.18.1H97.84Zm17.28-1.54-.07,0H101l.08,0Zm.34,1.54h14.93l-.16.1h-15Zm17.22-1.54-.06,0H118.26l.07,0Zm.4,1.54h15.22l-.13.1H133.13Zm17.15-1.54,0,0H135.53l.06,0Zm.48,1.54h15.5l-.11.1H150.79ZM168,241.38l0,0H152.8l0,0Zm.57,1.54h15.75l-.08.1H168.45Zm17-1.54,0,0h-15.4l0,0Zm.7,1.54h16l-.06.1h-16Zm16.8-1.54,0,0H187.38l0,0Zm.87,1.54H220l0,.1H203.83Zm16.61-1.54v0H204.7l0,0Zm.09,4.82h17l0,.25H220.51Zm.51-1.68h16.62v.18H221Zm.49-1.6h16.24v.1H221.56Zm16.34-1.54v0H222v0Zm0,21.47h21l.18,1.1H237.87Zm.17-2.46h20.4l.16,1H238.05Zm.16-2.34h19.85l.14.84h-20Zm.15-2.22h19.32l.12.72H238.38Zm.15-2.11H257.4l.1.61h-19Zm.14-2h18.34l.09.51H238.68Zm16.62-10.29H239.44v0h15.9Zm.27,1.6H239.32v-.1h16.26Zm.28,1.68H239.21v-.18h16.64Zm.29,1.75h-17.1l0-.25h17Zm.31,1.83H239l0-.33h17.45Zm.32,1.92h-18l0-.42h17.89Zm15.9-8.79H256.86v0h15.84Zm.65,1.6H257.13l0-.1h16.2Zm.68,1.68H257.41l0-.18H274Zm16-3.28H274.33l0,0H290Zm1,1.6H275l0-.1H291Zm16.28-1.6H291.83l0,0h15.52Zm1.41,1.6H292.86l-.07-.1h15.88Zm15.88-1.6H309.35l0,0H324.6Zm1.79,1.6H310.76l-.09-.1h15.65Zm15.49-1.6h-15l0,0h15Zm2.17,1.6H328.68l-.12-.1H344Zm15.1-1.6H344.45l-.05,0h14.74Zm2.55,1.6H346.62l-.14-.1h15.1Zm14.71-1.6H362l-.06,0h14.44Zm2.93,1.6H364.57l-.17-.1h14.8Zm14.33-1.6H379.58l-.07,0h14.13ZM397,243H382.52l-.19-.1h14.49Zm13.94-1.6H397.16l-.08,0h13.81Zm3.45,1.5.24.1h-14.2l-.22-.1Zm13.8-1.5H414.74l-.09,0h13.48Zm3.81,1.5.27.1H418.43l-.24-.1Zm13.44-1.5H432.32l-.1,0h13.15Zm4.16,1.5.29.1H436.39l-.27-.1Zm13.09-1.5H449.9l-.11,0h12.81Zm4.52,1.5.32.1h-13.2l-.29-.1Zm12.73-1.5H467.49l-.12,0h12.48Zm4.87,1.5.34.1H472.32l-.32-.1Zm.23-1.5-.13,0h12.14l.13,0Zm5.56,3.28H477.37l-.53-.18h13.22Zm-8,1.75-.76-.25h13.62l.82.25Zm6.54,3.75H474.29l-1.17-.42h14.81Zm-9.32,2-1.42-.51h15.26l1.54.51Zm7.6,4.33H470.73l-1.83-.72h16.58Zm-10.82,2.34-2.12-.84h17.1l2.32.84Zm8.75,5.06H466.58l-2.53-1.1h18.57Zm7,2.75H472.89L470,265.45h19.19Zm-12.79,2.91-3.24-1.41h19.84l3.57,1.41Zm-12.27,3.08h-5.63l-3.26-1.58h20.85l3.64,1.58H468.75v.07a2,2,0,0,1,0,.48c-.15.6-.65.2-1,.3s-.44,0-.46-.29S467.31,272.87,467.31,272.68ZM442.67,276l-3.24-1.77h21.9L465,276Zm3.24,3.48H422.45l-3.15-2h23Zm6.78,3.71H428.35l-3.51-2.21h23.81Zm-18,4-3.92-2.47h24.69l4.5,2.47Zm3.93,4.25H412l-3.71-2.75h25.93Zm7.25,4.56H418.17L414,292.86H441Zm7.8,4.91H424.8l-4.61-3.41h28ZM432,306.12l-5.13-3.79H456l6,3.79Zm5.23,5.73H405.47l-4.72-4.23h30.72Zm8.42,6.22h-33.2l-5.27-4.72h32.08ZM420,324.85l-5.89-5.28h33.56l7.15,5.28Zm6,7.42H389.18l-5.2-5.92h35.43Zm9.1,8.16H396.35l-5.85-6.66h37.19Zm10,9h-40.9l-6.59-7.5h39.12Zm-32.12,10-7.46-8.49h41.25l9.47,8.49Zm-45.5,0-5.45-8.49h41.49l7.46,8.49Zm-45.47,0-3.44-8.49h41.68l5.45,8.49Zm-46.86-8.49H317l3.44,8.49H276.63Zm-44,8.49.59-8.49h41.86l1.42,8.49Zm-.18-19H191.7l2-6.66h37.77Zm-.63,9H188.94l2.3-7.5h39.71Zm-44.55,10,2.6-8.49h41.84l-.59,8.49Zm-45.32,0,4.61-8.49h41.74l-2.6,8.49Zm-45.29,0,6.63-8.49h41.57l-4.61,8.49Zm-45.27,0,8.64-8.49H100l-6.63,8.49Zm-34.6-8.49H56.5l-8.64,8.49H4.74Zm11.3-9h39L58,349.43H17.28Zm10.23-8.16H74l-6.77,6.66H28.58Zm9.31-7.42H81.51l-6,5.92H38.81Zm-27.29-6.78H52.34l-6.63,5.28H11.07Zm9.29-6.22H60.15l-5.93,4.72h-33Zm8.55-5.73H67.34L62,311.85H30.47ZM13,302.32H42l-5.66,3.79H6.42Zm8.48-4.91H49.3l-5.08,3.41H15.57Zm7.88-4.56H56.1l-4.56,3.06H24.05ZM8.23,288.61H33.68l-4.75,2.75H2.83Zm7.8-4H40.54l-4.26,2.47H11.18Zm7.29-3.71H47l-3.82,2.21H19Zm-19-3.48H26.86l-3.9,2H0Zm28.92-3.27L29.8,276H7.67l3.9-1.77Zm6.06-3.08-3.11,1.58H14.88l3.48-1.58Zm-12.16-5.65-2.74,1.25H4.82l3-1.25Zm5.72-2.6L30.48,264h-19l2.68-1.1Zm-11-4.8-2,.84H2.47l2.24-.84Zm5.42-2.22-1.76.72H8.73l1.93-.72Zm-10-4.13-1.37.51H.52L2,251.71Zm5.14-1.92-1.12.42h-15l1.22-.42ZM27.46,248l-.89.33H12l1-.33Zm-9.14-3.43-.51.18H4.4l.56-.18ZM10,242.92H23l-.31.1h-13Z" transform="translate(0 -238.41)"/></svg>