<?xml version="1.0" encoding="utf-8"?>
<!-- Generator: Adobe Illustrator 21.1.0, SVG Export Plug-In . SVG Version: 6.00 Build 0)  -->
<svg version="1.1" id="Layer_1" xmlns="http://www.w3.org/2000/svg" xmlns:xlink="http://www.w3.org/1999/xlink" x="0px" y="0px"
	 viewBox="0 0 500 500" style="enable-background:new 0 0 500 500;" xml:space="preserve">
<style type="text/css">
	.st0{fill:url(#SVGID_1_);}
	.st1{fill:url(#SVGID_2_);}
	.st2{fill:url(#SVGID_3_);}
	.st3{fill:url(#SVGID_4_);}
	.st4{fill:#60A685;}
</style>
<linearGradient id="SVGID_1_" gradientUnits="userSpaceOnUse" x1="31.9816" y1="293.5674" x2="31.9816" y2="261.3408" gradientTransform="matrix(-1 0 0 1 500 0)">
	<stop  offset="0" style="stop-color:#60A685"/>
	<stop  offset="1" style="stop-color:#60A685;stop-opacity:0"/>
</linearGradient>
<polygon class="st0" points="468,277.5 468,277.5 468,277.5 "/>
<g>
	
		<linearGradient id="SVGID_2_" gradientUnits="userSpaceOnUse" x1="11.4027" y1="360.9248" x2="11.4027" y2="238.4062" gradientTransform="matrix(-1 0 0 1 500 0)">
		<stop  offset="0.1156" style="stop-color:#60A685"/>
		<stop  offset="1" style="stop-color:#60A685;stop-opacity:0"/>
	</linearGradient>
	<path class="st1" d="M500,332.3v1.5h-22.6c-0.1-0.5-0.1-1-0.2-1.5H500z"/>
	
		<linearGradient id="SVGID_3_" gradientUnits="userSpaceOnUse" x1="12.8679" y1="360.9248" x2="12.8679" y2="238.4062" gradientTransform="matrix(-1 0 0 1 500 0)">
		<stop  offset="0.1156" style="stop-color:#60A685"/>
		<stop  offset="1" style="stop-color:#60A685;stop-opacity:0"/>
	</linearGradient>
	<path class="st2" d="M491.8,324.9l-8.4-5.3h-8.1c-0.1-0.5-0.1-1-0.2-1.5h5.9l-6.5-4.1c-0.1-0.7-0.2-1.4-0.3-2.1H500v1.5h-23.6
		l7.5,4.7H500v1.5h-13.7l8.4,5.3h5.3v1.5h-3l3,1.9v1.8l-5.8-3.6h-17.9c-0.1-0.5-0.1-1-0.2-1.5H491.8z"/>
	
		<linearGradient id="SVGID_4_" gradientUnits="userSpaceOnUse" x1="250" y1="360.9248" x2="250" y2="238.4062" gradientTransform="matrix(-1 0 0 1 500 0)">
		<stop  offset="0.1156" style="stop-color:#60A685"/>
		<stop  offset="1" style="stop-color:#60A685;stop-opacity:0"/>
	</linearGradient>
	<path class="st3" d="M0,239.1l0,0.8l0,0.8l0,0.7h9.9l-0.1,0H0l0,1.5h5.1L4.7,243H0l0,1.5v0l0,0.2l0,1.4l0,0.1h13.4l-0.7,0.3H0
		l0,1.5h8.3l-1,0.3H0l0,1.5h3l-1.2,0.4H0l0,0.6l0,0.9l0,0.5l0,0.2l0,1.3h12l-1.6,0.6H0l0,1.5h6.4l-1.9,0.7H0l0,1.5h0.4L0,258.2
		l0,0.7l0,0.9l0,0.6h16.3l-2.3,1H0l0,1.5h10.2L7.6,264H0l0,1.5h3.9l-3,1.2H0l0,0.4l0,1.1l0,0.5l1.2-0.5h20l-3.1,1.4H0l0,1.5h14.7
		l-3.5,1.6H0l0,1.5h7.9L4,276H0l0,1.5h0.7L0,277.8l0,1.6v0l0,1.5h20l-4.3,2.2H0l0,1.5h12.7l-4.8,2.5H0l0,1.5h4.9L0,291.1l0,0.2
		l0,1.4l0,0.1h26.3l-5.3,3.1H0l0,1.5h18.5l-5.9,3.4H0l0,1.5h10l-6.6,3.8H0l0,1.5h0.8L0,308.1l0,1.7l3.8-2.2h30.3l-6.3,4.2H0l0,1.5
		h25.5l-7,4.7H0l0,1.5h16.3l-7.9,5.3H0l0,1.5h6.1L0,330.5l0,1.8l8.8-5.9h35l-7.4,5.9H0l0,1.5h34.5l-8.4,6.7H0l0,1.5h24.3l-9.4,7.5H0
		l0,1.5h13l-10.7,8.5H0l0,1.5h500v-1.5h-41.4l-9.5-8.5h41l9.9,7.3v-1.9l-7.4-5.5h7.4v-1.5h-9.4l-10.2-7.5H500v-1.5h-21.6l0,0
		c0.1,0.7,0.2,1.4,0.3,2.1l8.4,6.2c0.1,0,0.1,0,0.1,0.1l0.8,0.6h-0.8c0,0.1,0,0.1,0,0.2c0,0.6,0,0.6-0.6,0.6c-6.3,0-12.6,0-18.9,0
		c-6.3,0-12.5,0-18.8,0c-0.8,0-0.8,0-0.8-0.8h-0.8l-8.4-7.5h18.4c0.1-0.5,0.1-1,0.2-1.5h-20.3l-7.4-6.7h28.7c0.1-0.5,0.1-1,0.2-1.5
		h-30.6l-6.6-5.9h35.2l2.6,1.9c0.1-0.4,0.1-0.8,0.2-1.2c0-0.2,0-0.3,0.1-0.5l-0.3-0.2h0.3c0.1-0.5,0.1-1,0.2-1.5h-2.6l-7.1-5.3h10.5
		c0-0.3,0.1-0.7,0.1-1c0-0.2,0.1-0.3,0.1-0.5h-12.7l-6.4-4.7h19.8c0.1-0.5,0.1-1,0.2-1.5h-22.1l-5.7-4.2h28.4
		c0.1-0.9,0.3-1.8,0.3-2.8c0,0,0,0,0-0.1l-3.9-2.5h4c0-0.5,0-1,0-1.5h-6.4l-5.4-3.4h15c0-0.1,0-0.2,0-0.3c0-0.4,0-0.8,0-1.2h-17.4
		l-4.9-3.1H466c0-0.5,0-1,0-1.5h-24.6l-4.4-2.7h25.6l3.8,2.1c0,0,0,0,0.1,0c0.9,0,1.9,0,2.8,0c0.1,0,0.2,0,0.2,0l-1.1-0.6
		c-0.5,0.1-0.9,0.1-1.4-0.2c-0.3-0.2-0.6-0.3-0.8-0.5c-0.9-0.6-1.5-1.3-1.9-2.2h-1.3l-4.5-2.5h5.3c0-0.5,0-1,0.1-1.5h-2.6
		c-0.1,0.1-0.3,0.1-0.8,0.1c-0.4,0-0.6,0-0.7-0.1h-3.9l-4-2.2h12.7c0.2-0.5,0.4-1,0.6-1.5H449l-3.6-2h16.1c-0.1-0.1-0.2-0.2-0.2-0.2
		c-0.3-0.4,0.3-0.7,0.4-1c0.1-0.2,0.3-0.3,0.5-0.1c0.3,0.2,0.6,0.5,1,0.7c0.2,0.2,0.2,0.3,0.1,0.5c0,0-0.1,0.1-0.1,0.1h3
		c0.4-0.7,0.9-1.3,1.3-1.9l-2.8-1.3h21.6l4.1,1.8h-21.6c0.6,0.9,1.2,1.7,1.7,2.7l1.7,0.8h-1.3c0.1,0.3,0.3,0.6,0.4,0.9
		c0.1,0.2,0.2,0.4,0.2,0.6h3.7l4.6,2.2h-3.3c-0.1,0.1-0.3,0.1-0.8,0.1c-0.2,0-0.3,0-0.5,0c-0.1,0-0.2,0-0.3-0.1h-2.8
		c0.1,0.4,0.1,0.9,0.1,1.3c0,0.1,0,0.1,0,0.2h10.7l5.1,2.5h-16.4c0,0.1-0.1,0.2-0.1,0.2c-0.3,0.5-0.6,0.9-1,1.3h20.5l5.7,2.7h-26
		l-0.8-0.5c0,0.1,0,0.2,0,0.4c0,0.5,0,1,0,1.5h0.4l5.6,3.1h-6c0,0.4,0,0.9,0,1.3c0,0.1,0,0.1,0,0.2h8.7l6.2,3.4h-11.8
		c0,0.5,0,1,0,1.5h14.6l6.9,3.8h-21.2c0.1,0.5,0.1,1,0.2,1.5h23.7l2.6,1.4v-1.4v-0.3v-1.2h-2.2l-6.9-3.8h9.2v-1.5h-11.9l-6.2-3.4
		H500v-1.5h-20.9l-5.6-3.1h26.3l0.1,0.1v-0.1v-1.5v-0.1l-5.4-2.6h5.4v-1.5h-8.5l-5.1-2.5H500v-1.5h-16.7l-4.6-2.2H500v-0.8v-0.7v-1
		l-2.4-1h2.4V276h-5.8l-4.1-1.8h9.9v-1.5h-13.3l-3.6-1.6h17v-1.4v-0.1v-1.4v-0.1v-1.4h-3.5l-3.2-1.2h6.7V264h-10.5l-2.8-1.1H500
		v-1.5h-17.1l-2.4-1h17.7l1.9,0.7v-0.7v-0.9v-0.6h-1.6l-2.3-0.8h3.9v-1.5h-8.1l-2-0.7H500v-1.5h-14.3l-1.7-0.6h15.7l0.2,0.1v-0.1
		v-1.5v0l-1.5-0.5h1.5v-1.5h-6l-1.3-0.4h7.3v-1.5h-11.8l-1-0.3H500v-0.4v-1.1v-0.3V246v-1.3h-4.3l-0.6-0.2h4.8V243h-9.7l-0.3-0.1
		H500v-0.7v-0.8v0v-0.7v-0.8v0v-1.5H2.4l-0.1,0L0,239.1z M474.6,277.5h19.2l4.6,2h-22.8l-4.1-2h1.5c-0.1-0.1-0.2-0.2-0.3-0.4
		c0.1-0.1,0.2-0.2,0.2-0.3c0.1-0.1,0.3-0.2,0.5-0.3c0.9-0.6,0.9-0.6,1.5,0.3c0.2,0.3,0.1,0.4-0.1,0.6
		C474.7,277.4,474.7,277.4,474.6,277.5z M27.5,241.4l-0.1,0H14.7l0.1,0H27.5z M27.6,242.9h13.3l-0.3,0.1H27.3L27.6,242.9z
		 M275.4,248l0.1,0.3H258L258,248H275.4z M257.7,246.5l0-0.3h17l0.1,0.3H257.7z M276.1,249.8l0.2,0.4h-17.9l-0.1-0.4H276.1z
		 M116.5,332.3l4.6-5.9h35.7l-3.2,5.9H116.5z M152.8,333.8l-3.6,6.7h-39.1l5.2-6.7H152.8z M311.1,332.3l-2.4-5.9h35.8l3.8,5.9H311.1
		z M349.3,333.8l4.3,6.7h-39.2l-2.7-6.7H349.3z M450.5,250.2H435l-1-0.4h15.5L450.5,250.2z M449.7,248.3l-0.8-0.3h14.7l0.9,0.3
		H449.7z M296.6,251.7l0.3,0.5h-18.3l-0.2-0.5H296.6z M277.9,250.2l-0.2-0.4h17.7l0.3,0.4H277.9z M297.9,253.7l0.4,0.6h-18.8
		l-0.2-0.6H297.9z M141,300.8l2.7-3.4h28.9l-1.9,3.4H141z M169.9,302.3l-2.1,3.8h-30.9l3-3.8H169.9z M372.4,264H352l-1.2-1.1h20.1
		L372.4,264z M371.4,261.4l-1.3-1h19.2l1.5,1H371.4z M326.2,262.9l1,1.1h-20.9l-0.7-1.1H326.2z M304.6,261.4l-0.6-1h20l0.8,1H304.6z
		 M168.8,262.9l-0.9,1.1h-20.7l1.1-1.1H168.8z M147.7,261.4h-19.9l1.2-1h19.6L147.7,261.4z M179.9,287.1l1.3-2.5h26l-0.8,2.5H179.9z
		 M206,288.6l-0.8,2.7h-27.6l1.5-2.7H206z M330.9,268.2l1.2,1.4h-22.2l-0.9-1.4H330.9z M308,266.7l-0.8-1.2h21.2l1.1,1.2H308z
		 M330.5,265.5h21l1.4,1.2h-21.3L330.5,265.5z M354.5,268.2l1.6,1.4h-22l-1.2-1.4H354.5z M334.8,272.7h-22.9l-1-1.6h22.6
		L334.8,272.7z M312.2,276h-23.9l-0.7-1.8h23.5L312.2,276z M288.7,280.9l0.9,2.2h-25.7l-0.4-2.2H288.7z M290.2,284.6l1,2.5h-26.7
		l-0.4-2.5H290.2z M264.7,297.4l0.6,3.4h-30l0.2-3.4H264.7z M235.4,277.5l-0.1,2h-24.9l0.6-2H235.4z M210.9,272.7h-23.2l0.9-1.6
		h22.8L210.9,272.7z M235.2,280.9l-0.2,2.2h-25.8l0.7-2.2H235.2z M234.9,284.6l-0.2,2.5H208l0.8-2.5H234.9z M184,279.4l1.1-2h24.3
		l-0.6,2H184z M185.9,276l1-1.8h23.5l-0.5,1.8H185.9z M165.4,269.6l1.1-1.4h22l-0.8,1.4H165.4z M167.7,266.7l1-1.2h21.3l-0.7,1.2
		H167.7z M190.1,268.2h22.1l-0.4,1.4h-22.5L190.1,268.2z M235.7,274.2l-0.1,1.8h-24.1l0.5-1.8H235.7z M265.5,302.3l0.6,3.8h-31.2
		l0.3-3.8H265.5z M266.4,307.6l0.7,4.2h-32.6l0.3-4.2H266.4z M234.5,291.4h-27.7l0.8-2.7h27.1L234.5,291.4z M182,283.1l1.2-2.2h25.1
		l-0.7,2.2H182z M157.7,279.4l1.5-2h24.2l-1.1,2H157.7z M160.4,276l1.4-1.8h23.4l-1,1.8H160.4z M163,272.7l1.2-1.6h22.6l-0.9,1.6
		H163z M141.4,269.6l1.4-1.4h21.7l-1.1,1.4H141.4z M144.4,266.7l1.3-1.2h21.1l-1,1.2H144.4z M149.8,261.4l1-1h19.9l-0.8,1H149.8z
		 M191.3,262.9l-0.6,1.1h-21l0.9-1.1H191.3z M171.8,261.4l0.8-1h20.1l-0.5,1H171.8z M213.1,265.5l-0.4,1.2H191l0.7-1.2H213.1z
		 M235.9,271.1l-0.1,1.6h-23.3l0.5-1.6H235.9z M264,292.9l0.5,3.1h-28.8l0.2-3.1H264z M236,291.4l0.2-2.7h27.1l0.5,2.7H236z
		 M263.2,279.4l-0.3-2h24.4l0.8,2H263.2z M287,272.7l-0.6-1.6h22.8l1,1.6H287z M285.7,269.6l-0.6-1.4h22.1l0.9,1.4H285.7z
		 M326,260.4h19.8l1.1,1h-20L326,260.4z M348.6,262.9l1.2,1.1h-20.6l-1-1.1H348.6z M348.1,260.4h19.5l1.3,1h-19.8L348.1,260.4z
		 M374.4,265.5l1.7,1.2h-21l-1.4-1.2H374.4z M378.1,268.2l1.9,1.4h-21.7l-1.6-1.4H378.1z M359.5,272.7h-22.7l-1.4-1.6h22.3
		L359.5,272.7z M337.7,276H314l-1.1-1.8h23.3L337.7,276z M314.4,279.4h-24.7l-0.8-2h24.3L314.4,279.4z M315.4,280.9l1.4,2.2h-25.6
		l-0.9-2.2H315.4z M317.8,284.6l1.6,2.5h-26.5l-1-2.5H317.8z M292.9,291.4h-27.7l-0.5-2.7h27L292.9,291.4z M293.5,292.9l1.2,3.1H266
		l-0.5-3.1H293.5z M295.4,297.4l1.4,3.4h-29.9l-0.6-3.4H295.4z M297.3,302.3l1.5,3.8h-31.2l-0.6-3.8H297.3z M268.2,318.1h-34.1
		l0.3-4.7h33L268.2,318.1z M205.3,295.9l0.9-3.1h28.1l-0.2,3.1H205.3z M234,297.4l-0.2,3.4h-30l1-3.4H234z M203.8,295.9h-28.7
		l1.7-3.1h28L203.8,295.9z M148.4,291.4l2.1-2.7h26.8l-1.5,2.7H148.4z M151.7,287.1l1.9-2.5h25.9l-1.3,2.5H151.7z M154.8,283.1
		l1.7-2.2h25l-1.2,2.2H154.8z M131.4,279.4l2-2h23.9l-1.5,2H131.4z M134.9,276l1.8-1.8h23.2l-1.4,1.8H134.9z M138.3,272.7l1.6-1.6
		h22.4l-1.2,1.6H138.3z M117.4,269.6l1.8-1.4h21.5l-1.4,1.4H117.4z M121.1,266.7l1.6-1.2h20.8l-1.3,1.2H121.1z M124.5,264l1.4-1.1
		h20.2L145,264H124.5z M105.8,261.4l1.4-1h19.4l-1.2,1H105.8z M109.5,258.9l1.2-0.8h18.8l-1,0.8H109.5z M113,256.6l1.1-0.7h18.3
		l-0.9,0.7H113z M151,258.1l-0.9,0.8h-19.3l1-0.8H151z M133.8,256.6l0.9-0.7h18.6l-0.7,0.7H133.8z M172.5,258.1l-0.7,0.8h-19.5
		l0.9-0.8H172.5z M154.7,256.6l0.7-0.7h18.8l-0.6,0.7H154.7z M174.4,258.1H194l-0.5,0.8h-19.8L174.4,258.1z M213.9,262.9l-0.3,1.1
		h-21.1l0.6-1.1H213.9z M236.1,268.2l-0.1,1.4h-22.6l0.4-1.4H236.1z M214.3,266.7l0.4-1.2h21.6l-0.1,1.2H214.3z M215.1,264l0.3-1.1
		h21l-0.1,1.1H215.1z M262.6,284.6l0.4,2.5h-26.7l0.2-2.5H262.6z M262.4,274.2H286l0.7,1.8h-24L262.4,274.2z M262.1,272.7l-0.3-1.6
		h22.9l0.6,1.6H262.1z M284.6,266.7l-0.5-1.2h21.4l0.8,1.2H284.6z M283.4,264l-0.4-1.1h20.8l0.7,1.1H283.4z M282.4,261.4l-0.4-1
		h20.2l0.6,1H282.4z M301.5,256.6l-0.5-0.7H320l0.6,0.7H301.5z M322,258.1l0.7,0.8H303l-0.5-0.8H322z M322,255.8h18.7l0.8,0.7h-18.9
		L322,255.8z M343.2,258.1l0.9,0.8h-19.4l-0.7-0.8H343.2z M343,255.8h18.4l1,0.7h-18.6L343,255.8z M364.4,258.1l1.1,0.8h-19.2
		l-0.9-0.8H364.4z M363.9,255.8h18.2l1.1,0.7h-18.3L363.9,255.8z M385.6,258.1l1.3,0.8h-18.9l-1.1-0.8H385.6z M384.9,255.8h17.9
		l1.3,0.7h-18L384.9,255.8z M406.8,258.1l1.5,0.8h-18.6l-1.3-0.8H406.8z M411.1,260.4l1.8,1h-19.2l-1.5-1H411.1z M395,264h-20.1
		l-1.5-1.1h19.8L395,264z M397.4,265.5l2,1.2h-20.7l-1.7-1.2H397.4z M401.8,268.2l2.2,1.4h-21.4l-1.9-1.4H401.8z M384.2,272.7h-22.4
		l-1.8-1.6h22.1L384.2,272.7z M363.2,276h-23.5l-1.6-1.8h23.1L363.2,276z M340.8,279.4h-24.5l-1.3-2H339L340.8,279.4z M342.1,280.9
		l1.9,2.2h-25.4l-1.4-2.2H342.1z M345.3,284.6l2.2,2.5h-26.4l-1.6-2.5H345.3z M322.1,291.4h-27.6l-1.1-2.7h26.9L322.1,291.4z
		 M323,292.9l2,3.1h-28.6l-1.2-3.1H323z M326,297.4l2.2,3.4h-29.8l-1.4-3.4H326z M329.1,302.3l2.4,3.8h-31.1l-1.5-3.8H329.1z
		 M301.2,311.8h-32.5l-0.7-4.2h31.5L301.2,311.8z M301.8,313.3l1.9,4.7h-34l-0.8-4.7H301.8z M269.3,324.9h-35.7l0.4-5.3h34.4
		L269.3,324.9z M233.4,306.1h-31.2l1.2-3.8h30.3L233.4,306.1z M172.4,300.8l1.9-3.4h29.1l-1,3.4H172.4z M144.8,295.9l2.4-3.1H175
		l-1.7,3.1H144.8z M146.5,291.4h-27.2l2.8-2.7h26.6L146.5,291.4z M123.6,287.1l2.5-2.5h25.6l-1.9,2.5H123.6z M127.6,283.1l2.2-2.2
		h24.8l-1.7,2.2H127.6z M129.3,279.4h-24.2l2.5-2h23.7L129.3,279.4z M109.5,276l2.2-1.8h22.9l-1.8,1.8H109.5z M113.6,272.7l2-1.6
		h22.2l-1.6,1.6H113.6z M93.5,269.6l2.1-1.4h21.2l-1.8,1.4H93.5z M97.8,266.7l1.9-1.2h20.6l-1.6,1.2H97.8z M101.9,264l1.6-1.1h19.9
		l-1.4,1.1H101.9z M83.8,261.4l1.7-1h19.1l-1.4,1H83.8z M88.1,258.9l1.4-0.8H108l-1.2,0.8H88.1z M92.1,256.6l1.2-0.7h18l-1.1,0.7
		H92.1z M75.6,254.3l1.2-0.6H94l-1.1,0.6H75.6z M79.8,252.2l1-0.5h16.7l-0.9,0.5H79.8z M114.5,253.7l-0.9,0.6H95.9l1.1-0.6H114.5z
		 M99.6,252.2l0.9-0.5h17l-0.8,0.5H99.6z M135,253.7l-0.8,0.6h-17.9l0.9-0.6H135z M119.4,252.2l0.8-0.5h17.3l-0.6,0.5H119.4z
		 M155.4,253.7l-0.6,0.6h-18.2l0.8-0.6H155.4z M139.3,252.2l0.6-0.5h17.6l-0.5,0.5H139.3z M157.6,253.7h18.3l-0.5,0.6h-18.5
		L157.6,253.7z M159.1,252.2l0.5-0.5h17.8l-0.4,0.5H159.1z M195.2,255.8l-0.4,0.7h-19.2l0.6-0.7H195.2z M214.7,260.4l-0.3,1h-20.5
		l0.5-1H214.7z M195.2,258.9l0.5-0.8h19.7l-0.3,0.8H195.2z M196.5,256.6l0.4-0.7h19.2l-0.2,0.7H196.5z M216.2,260.4h20.4l-0.1,1
		h-20.6L216.2,260.4z M216.7,258.9l0.3-0.8h19.8l-0.1,0.8H216.7z M262,280.9l0.4,2.2h-25.8l0.2-2.2H262z M236.8,279.4l0.1-2h24.4
		l0.3,2H236.8z M261.3,268.2h22.2l0.6,1.4h-22.5L261.3,268.2z M261.1,266.7l-0.2-1.2h21.5l0.5,1.2H261.1z M260.6,264l-0.2-1.1h20.9
		l0.4,1.1H260.6z M281.1,258.1h19.7l0.5,0.8h-19.9L281.1,258.1z M280.4,256.6l-0.3-0.7h19.1l0.5,0.7H280.4z M299.7,253.7h18.4
		l0.5,0.6h-18.6L299.7,253.7z M318.4,251.7h17.7l0.6,0.5h-17.9L318.4,251.7z M338.4,253.7l0.7,0.6h-18.4l-0.5-0.6H338.4z
		 M338.4,251.7h17.5l0.7,0.5h-17.6L338.4,251.7z M358.6,253.7l0.8,0.6h-18.1l-0.7-0.6H358.6z M358.4,251.7h17.2l0.8,0.5h-17.3
		L358.4,251.7z M378.7,253.7l1,0.6h-17.8l-0.8-0.6H378.7z M378.4,251.7h16.9l0.9,0.5h-17L378.4,251.7z M398.9,253.7l1.1,0.6h-17.5
		l-1-0.6H398.9z M398.4,251.7h16.6l1.1,0.5h-16.7L398.4,251.7z M419.1,253.7l1.3,0.6h-17.2l-1.1-0.6H419.1z M418.4,251.7h16.3
		l1.2,0.5h-16.4L418.4,251.7z M439.3,253.7l1.4,0.6h-16.9l-1.3-0.6H439.3z M425,256.6h-17.7l-1.3-0.7h17.6L425,256.6z M428,258.1
		l1.7,0.8h-18.3l-1.5-0.8H428z M432.9,260.4l2,1H416l-1.8-1H432.9z M417.6,264h-19.8l-1.7-1.1h19.5L417.6,264z M420.4,265.5l2.3,1.2
		h-20.4l-2-1.2H420.4z M425.4,268.2l2.6,1.4h-21.1l-2.2-1.4H425.4z M408.9,272.7h-22.2l-2.1-1.6h21.8L408.9,272.7z M388.6,276h-23.2
		l-2-1.8h22.8L388.6,276z M367.1,279.4h-24.3l-1.7-2h23.8L367.1,279.4z M368.7,280.9l2.5,2.2H346l-1.9-2.2H368.7z M372.9,284.6
		l2.8,2.5h-26.1l-2.2-2.5H372.9z M351.2,291.4h-27.4l-1.8-2.7h26.7L351.2,291.4z M352.6,292.9l2.7,3.1h-28.4l-2-3.1H352.6z
		 M356.6,297.4l3,3.4h-29.6l-2.2-3.4H356.6z M360.9,302.3l3.3,3.8h-30.9l-2.4-3.8H360.9z M335.2,311.8h-32.4l-1.7-4.2h31.4
		L335.2,311.8z M336.2,313.3l3,4.7h-33.9l-1.9-4.7H336.2z M340.2,319.6l3.4,5.3h-35.5l-2.1-5.3H340.2z M306.5,324.9h-35.6l-0.9-5.3
		h34.4L306.5,324.9z M270.6,332.3h-37.4l0.4-5.9h36L270.6,332.3z M233,311.8h-32.6l1.3-4.2h31.6L233,311.8z M169.5,306.1l2.1-3.8
		h30.2l-1.2,3.8H169.5z M200.2,307.6l-1.3,4.2h-32.5l2.3-4.2H200.2z M198.4,313.3l-1.4,4.7H163l2.6-4.7H198.4z M161.3,318.1h-33.8
		l3.7-4.7h32.7L161.3,318.1z M132.4,311.8l3.3-4.2H167l-2.3,4.2H132.4z M135,306.1h-30.7l3.9-3.8h29.8L135,306.1z M109.6,300.8
		l3.5-3.4h28.7l-2.7,3.4H109.6z M114.6,295.9l3.1-3.1h27.6l-2.4,3.1H114.6z M117.1,291.4h-27l3.4-2.7h26.3L117.1,291.4z M95.5,287.1
		l3.1-2.5H124l-2.5,2.5H95.5z M100.4,283.1l2.8-2.2h24.5l-2.2,2.2H100.4z M102.7,279.4H78.8l3-2h23.4L102.7,279.4z M84,276l2.6-1.8
		h22.6l-2.2,1.8H84z M88.9,272.7l2.4-1.6h21.9l-2,1.6H88.9z M69.5,269.6l2.4-1.4h20.9l-2.1,1.4H69.5z M74.6,266.7l2.2-1.2H97
		l-1.9,1.2H74.6z M79.3,264l1.9-1.1h19.7l-1.6,1.1H79.3z M61.8,261.4l1.9-1h18.8l-1.7,1H61.8z M66.7,258.9l1.6-0.8h18.2l-1.4,0.8
		H66.7z M71.2,256.6l1.4-0.7h17.7l-1.2,0.7H71.2z M55.3,254.3l1.4-0.6h16.9l-1.2,0.6H55.3z M60,252.2l1.1-0.5h16.4l-1,0.5H60z
		 M64.4,250.2l0.9-0.4h15.9l-0.8,0.4H64.4z M68.6,248.3l0.7-0.3h15.5l-0.7,0.3H68.6z M100.8,249.8l-0.7,0.4H83.7l0.8-0.4H100.8z
		 M87.5,248.3l0.7-0.3H104l-0.6,0.3H87.5z M120.4,249.8l-0.6,0.4h-16.7l0.7-0.4H120.4z M106.4,248.3l0.6-0.3h16.1l-0.5,0.3H106.4z
		 M139.9,249.8l-0.5,0.4h-16.9l0.6-0.4H139.9z M125.3,248.3l0.5-0.3h16.4l-0.4,0.3H125.3z M142.3,249.8h17.1l-0.4,0.4h-17.2
		L142.3,249.8z M144.2,248.3l0.4-0.3h16.7l-0.3,0.3H144.2z M161.6,249.8h17.4l-0.3,0.4h-17.5L161.6,249.8z M196.3,253.7l-0.3,0.6
		h-18.7l0.5-0.6H196.3z M179,252.2l0.4-0.5h18.1l-0.3,0.5H179z M180.5,250.2l0.3-0.4h17.6l-0.2,0.4H180.5z M216.7,253.7l-0.2,0.6
		h-18.8l0.3-0.6H216.7z M198.8,252.2l0.3-0.5h18.2l-0.2,0.5H198.8z M199.9,250.2l0.2-0.4h17.8l-0.1,0.4H199.9z M236.9,255.8
		l-0.1,0.7h-19.5l0.2-0.7H236.9z M218.1,254.3l0.2-0.6h18.8l0,0.6H218.1z M218.7,252.2l0.2-0.5h18.3l0,0.5H218.7z M260.8,274.2
		l0.3,1.8H237l0.1-1.8H260.8z M237.3,272.7l0.1-1.6h22.9l0.3,1.6H237.3z M260.2,261.4l-0.2-1h20.3l0.4,1H260.2z M259.8,258.9
		l-0.1-0.8h19.8l0.3,0.8H259.8z M297.2,249.8h17.5l0.4,0.4h-17.6L297.2,249.8z M316.4,251.7l0.5,0.5h-18.1l-0.3-0.5H316.4z
		 M316.7,249.8H334l0.5,0.4h-17.4L316.7,249.8z M334.2,248h16.6l0.5,0.3h-16.7L334.2,248z M353.2,249.8l0.6,0.4h-17.1l-0.5-0.4
		H353.2z M353.3,248h16.3l0.5,0.3h-16.4L353.3,248z M372.5,249.8l0.7,0.4h-16.8l-0.6-0.4H372.5z M372.4,248h16l0.6,0.3h-16.1
		L372.4,248z M391.7,249.8l0.8,0.4H376l-0.7-0.4H391.7z M391.5,248h15.7l0.7,0.3h-15.8L391.5,248z M411,249.8l0.9,0.4h-16.2
		l-0.8-0.4H411z M410.6,248H426l0.8,0.3h-15.4L410.6,248z M430.2,249.8l1,0.4h-15.9l-0.9-0.4H430.2z M429.8,248h15l0.8,0.3h-15.1
		L429.8,248z M454.3,251.7l1.3,0.5h-16l-1.2-0.5H454.3z M459.4,253.7l1.6,0.6h-16.6l-1.4-0.6H459.4z M445.8,256.6h-17.4l-1.5-0.7
		h17.2L445.8,256.6z M449.2,258.1l1.9,0.8h-18l-1.7-0.8H449.2z M454.6,260.4l2.2,1h-18.5l-2-1H454.6z M440.2,264h-19.5l-2-1.1H438
		L440.2,264z M443.3,265.5l2.6,1.2h-20.1l-2.3-1.2H443.3z M449,268.2l2.9,1.4h-20.8l-2.6-1.4H449z M433.6,272.7h-21.9l-2.5-1.6h21.5
		L433.6,272.7z M414.1,276h-22.9l-2.4-1.8h22.5L414.1,276z M393.4,279.4h-24l-2.2-2h23.6L393.4,279.4z M395.4,280.9l3,2.2h-24.9
		l-2.5-2.2H395.4z M400.4,284.6l3.3,2.5h-25.9l-2.8-2.5H400.4z M380.4,291.4h-27.1l-2.4-2.7h26.5L380.4,291.4z M382,292.9l3.4,3.1
		h-28.2l-2.7-3.1H382z M387.1,297.4l3.8,3.4h-29.4l-3-3.4H387.1z M392.6,302.3l4.2,3.8h-30.6l-3.3-3.8H392.6z M369.2,311.8H337
		l-2.7-4.2h31.2L369.2,311.8z M370.6,313.3l4.2,4.7H341l-3-4.7H370.6z M376,319.6l4.6,5.3h-35.3l-3.4-5.3H376z M309.5,332.3h-37.4
		l-1-5.9h36L309.5,332.3z M271.9,340.4h-39.4l0.5-6.7h37.8L271.9,340.4z M198.6,318.1l1.4-4.7h32.9l-0.3,4.7H198.6z M232.5,319.6
		l-0.4,5.3h-35.7l1.6-5.3H232.5z M194.9,324.9h-35.6l2.9-5.3h34.3L194.9,324.9z M157.6,324.9h-35.4l4.1-5.3h34.1L157.6,324.9z
		 M120.4,324.9H85.2l5.4-5.3h33.9L120.4,324.9z M92.1,318.1l4.8-4.7h32.4l-3.7,4.7H92.1z M98.4,311.8l4.3-4.2h31.1l-3.3,4.2H98.4z
		 M102.1,306.1H71.6l4.8-3.8H106L102.1,306.1z M78.3,300.8l4.3-3.4H111l-3.5,3.4H78.3z M84.4,295.9l3.8-3.1h27.3l-3.1,3.1H84.4z
		 M87.7,291.4H61l4.1-2.7h26.1L87.7,291.4z M67.4,287.1l3.7-2.5h25.1l-3.1,2.5H67.4z M73.3,283.1l3.3-2.2h24.2l-2.8,2.2H73.3z
		 M76.1,279.4H52.5l3.4-2h23.1L76.1,279.4z M58.6,276l3.1-1.8H84l-2.6,1.8H58.6z M64.2,272.7l2.7-1.6h21.6l-2.4,1.6H64.2z
		 M45.6,269.6l2.8-1.4H69l-2.4,1.4H45.6z M51.3,266.7l2.4-1.2h20l-2.2,1.2H51.3z M56.7,264l2.2-1.1h19.3l-1.9,1.1H56.7z M39.8,261.4
		l2.1-1h18.4l-1.9,1H39.8z M45.3,258.9l1.8-0.8H65l-1.6,0.8H45.3z M50.4,256.6l1.6-0.7h17.4l-1.4,0.7H50.4z M35,254.3l1.5-0.6H53
		l-1.4,0.6H35z M40.1,252.2l1.3-0.5h16.1l-1.1,0.5H40.1z M45,250.2l1-0.4h15.6l-0.9,0.4H45z M49.7,248.3l0.8-0.3h15.2l-0.7,0.3H49.7
		z M35.8,246.5l0.7-0.3h14.4l-0.6,0.3H35.8z M40.5,244.7l0.5-0.2h14l-0.4,0.2H40.5z M69.6,246.2l-0.6,0.3H54.2l0.6-0.3H69.6z
		 M58.5,244.7l0.4-0.2h14.4l-0.4,0.2H58.5z M88.3,246.2l-0.5,0.3H72.7l0.6-0.3H88.3z M76.5,244.7l0.4-0.2h14.7l-0.3,0.2H76.5z
		 M91.6,246.2H107l-0.4,0.3H91.1L91.6,246.2z M94.5,244.7l0.3-0.2h15l-0.3,0.2H94.5z M110,246.2h15.7l-0.4,0.3h-15.8L110,246.2z
		 M112.6,244.7l0.3-0.2h15.3l-0.3,0.2H112.6z M128.4,246.2h16l-0.3,0.3H128L128.4,246.2z M130.6,244.7l0.3-0.2h15.6l-0.2,0.2H130.6z
		 M146.8,246.2h16.3l-0.3,0.3h-16.3L146.8,246.2z M148.7,244.7l0.2-0.2h15.9l-0.2,0.2H148.7z M180.4,248l-0.3,0.3h-17l0.3-0.3H180.4
		z M165,246.5l0.3-0.3h16.5l-0.2,0.3H165z M166.7,244.7l0.2-0.2h16.1l-0.1,0.2H166.7z M199.4,248l-0.2,0.3H182l0.3-0.3H199.4z
		 M183.5,246.5l0.2-0.3h16.7l-0.1,0.3H183.5z M184.8,244.7l0.1-0.2h16.3l-0.1,0.2H184.8z M218.5,248l-0.1,0.3H201l0.2-0.3H218.5z
		 M202,246.5l0.1-0.3H219l-0.1,0.3H202z M202.9,244.7l0.1-0.2h16.5l-0.1,0.2H202.9z M237.4,249.8l0,0.4h-18l0.1-0.4H237.4z
		 M219.9,248.3l0.1-0.3h17.4l0,0.3H219.9z M237.6,268.2h22.3l0.2,1.4h-22.6L237.6,268.2z M237.7,266.7l0.1-1.2h21.6l0.2,1.2H237.7z
		 M259.3,255.8h19.3l0.3,0.7h-19.4L259.3,255.8z M259,254.3l-0.1-0.6h18.8l0.2,0.6H259z M258.7,252.2l-0.1-0.5h18.3l0.2,0.5H258.7z
		 M275.6,244.5H292l0.1,0.2h-16.5L275.6,244.5z M293.1,246.2l0.2,0.3h-16.9l-0.1-0.3H293.1z M294.2,248l0.2,0.3h-17.3L277,248H294.2
		z M293.8,244.5h16.3l0.2,0.2h-16.3L293.8,244.5z M311.6,246.2l0.2,0.3h-16.7l-0.2-0.3H311.6z M313.1,248l0.3,0.3h-17.2L296,248
		H313.1z M312.1,244.5h16l0.2,0.2h-16.1L312.1,244.5z M330,246.2l0.3,0.3h-16.5l-0.2-0.3H330z M331.9,248l0.4,0.3h-16.9l-0.3-0.3
		H331.9z M330.4,244.5h15.8l0.2,0.2h-15.8L330.4,244.5z M348.4,246.2l0.3,0.3h-16.2l-0.3-0.3H348.4z M348.6,244.5h15.5l0.3,0.2
		h-15.5L348.6,244.5z M366.8,246.2l0.4,0.3h-15.9l-0.3-0.3H366.8z M366.9,244.5h15.2l0.3,0.2h-15.2L366.9,244.5z M385.2,246.2
		l0.5,0.3H370l-0.4-0.3H385.2z M385.3,244.5h14.9l0.4,0.2h-14.9L385.3,244.5z M403.6,246.2l0.5,0.3h-15.3l-0.5-0.3H403.6z
		 M403.6,244.5h14.6l0.4,0.2h-14.6L403.6,244.5z M422,246.2l0.6,0.3h-15l-0.5-0.3H422z M421.9,244.5h14.2l0.4,0.2h-14.3L421.9,244.5
		z M440.4,246.2l0.6,0.3h-14.7l-0.6-0.3H440.4z M440.2,244.5h13.9l0.5,0.2h-13.9L440.2,244.5z M458.7,246.2l0.7,0.3h-14.4l-0.6-0.3
		H458.7z M458.5,244.5h13.6l0.5,0.2H459L458.5,244.5z M477.1,246.2l0.8,0.3h-14l-0.7-0.3H477.1z M482.4,248l1,0.3H469L468,248H482.4
		z M469.9,250.2h-15.2l-1.1-0.4h15.1L469.9,250.2z M474,251.7l1.4,0.5h-15.7l-1.3-0.5H474z M479.6,253.7l1.7,0.6h-16.2l-1.6-0.6
		H479.6z M466.6,256.6h-17.1l-1.7-0.7h16.9L466.6,256.6z M470.4,258.1l2.1,0.8h-17.6l-1.9-0.8H470.4z M476.4,260.4l2.4,1h-18.2
		l-2.2-1H476.4z M462.8,264h-19.2l-2.3-1.1h18.9L462.8,264z M466.3,265.5l2.9,1.2h-19.8l-2.6-1.2H466.3z M472.6,268.2l3.2,1.4h-20.5
		l-2.9-1.4H472.6z M458.2,272.7h-21.5l-2.9-1.6H455L458.2,272.7z M439.5,276h-22.6l-2.8-1.8h22.2L439.5,276z M419.6,279.4h-23.8
		l-2.7-2h23.3L419.6,279.4z M422,280.9l3.5,2.2h-24.6l-3-2.2H422z M427.9,284.6l3.9,2.5h-25.6l-3.3-2.5H427.9z M409.5,291.4h-26.9
		l-3.1-2.7h26.2L409.5,291.4z M411.5,292.9l4.1,3.1h-27.9l-3.4-3.1H411.5z M417.7,297.4l4.6,3.4h-29.1l-3.8-3.4H417.7z M424.3,302.3
		l5.1,3.8h-30.4l-4.2-3.8H424.3z M403.2,311.8h-32l-3.7-4.2h31L403.2,311.8z M404.9,313.3l5.3,4.7h-33.5l-4.2-4.7H404.9z
		 M411.8,319.6l5.9,5.3h-35.1l-4.6-5.3H411.8z M387.2,332.3h-37.1l-3.8-5.9H382L387.2,332.3z M388.5,333.8l5.8,6.7h-39l-4.3-6.7
		H388.5z M395.7,341.9l6.6,7.5h-41.1l-4.8-7.5H395.7z M359.4,349.4H318l-3-7.5h39.5L359.4,349.4z M316.4,349.4H275l-1.3-7.5h39.7
		L316.4,349.4z M273.5,340.4l-1.1-6.7h37.7l2.7,6.7H273.5z M273.4,349.4h-41.5l0.5-7.5h39.7L273.4,349.4z M231.6,332.3h-37.4
		l1.8-5.9h36L231.6,332.3z M192.6,332.3h-37.3l3.2-5.9h35.9L192.6,332.3z M192.2,333.8l-2,6.7h-39.2l3.6-6.7H192.2z M189.7,341.9
		l-2.3,7.5H146l4.1-7.5H189.7z M144.3,349.4h-41.2l5.9-7.5h39.4L144.3,349.4z M101.2,349.4h-41l7.6-7.5H107L101.2,349.4z
		 M69.3,340.4l6.8-6.7h37.3l-5.2,6.7H69.3z M77.6,332.3l6-5.9h35.5l-4.6,5.9H77.6z M83,324.9H48.1l6.6-5.3h33.7L83,324.9z
		 M56.6,318.1l5.9-4.7h32.2l-4.8,4.7H56.6z M64.4,311.8l5.3-4.2h30.8l-4.3,4.2H64.4z M69.2,306.1H39l5.7-3.8H74L69.2,306.1z
		 M46.9,300.8l5.1-3.4h28.1l-4.3,3.4H46.9z M54.2,295.9l4.6-3.1h27.1l-3.8,3.1H54.2z M58.3,291.4H31.9l4.7-2.7h25.8L58.3,291.4z
		 M39.3,287.1l4.3-2.5h24.8l-3.7,2.5H39.3z M46.1,283.1l3.8-2.2h23.9l-3.3,2.2H46.1z M49.5,279.4H26.3l3.9-2H53L49.5,279.4z
		 M33.1,276l3.5-1.8h22l-3.1,1.8H33.1z M39.5,272.7l3.1-1.6H64l-2.7,1.6H39.5z M21.7,269.6l3.1-1.4h20.3l-2.8,1.4H21.7z M28.1,266.7
		l2.7-1.2h19.6l-2.4,1.2H28.1z M34.1,264l2.4-1.1h19l-2.2,1.1H34.1z M17.9,261.4l2.3-1h18.1l-2.1,1H17.9z M23.9,258.9l2-0.8h17.6
		l-1.8,0.8H23.9z M29.6,256.6l1.8-0.7h17l-1.6,0.7H29.6z M14.7,254.3l1.6-0.6h16.2l-1.5,0.6H14.7z M20.3,252.2l1.4-0.5h15.7
		l-1.3,0.5H20.3z M25.7,250.2l1.1-0.4h15.3l-1,0.4H25.7z M30.9,248.3l0.9-0.3h14.8l-0.8,0.3H30.9z M17.3,246.5l0.7-0.3h14.1
		l-0.7,0.3H17.3z M22.4,244.7l0.5-0.2h13.7l-0.5,0.2H22.4z M45.1,241.4l-0.1,0H32l0.1,0H45.1z M45.2,242.9h13.7l-0.3,0.1H44.9
		L45.2,242.9z M62.6,241.4L62.6,241.4l-13.4,0l0.1,0H62.6z M62.8,242.9h14l-0.2,0.1h-14L62.8,242.9z M80.2,241.4L80.2,241.4l-13.7,0
		l0.1,0H80.2z M80.4,242.9h14.3l-0.2,0.1H80.2L80.4,242.9z M97.8,241.4L97.8,241.4l-14,0l0.1,0H97.8z M98,242.9h14.6l-0.2,0.1H97.8
		L98,242.9z M115.3,241.4L115.3,241.4l-14.3,0l0.1,0H115.3z M115.7,242.9h14.9l-0.2,0.1h-15L115.7,242.9z M132.9,241.4L132.9,241.4
		l-14.6,0l0.1,0H132.9z M133.3,242.9h15.2l-0.1,0.1h-15.2L133.3,242.9z M150.4,241.4L150.4,241.4l-14.9,0l0.1,0H150.4z M150.9,242.9
		h15.5l-0.1,0.1h-15.5L150.9,242.9z M168,241.4L168,241.4l-15.2,0l0,0H168z M168.6,242.9h15.8l-0.1,0.1h-15.8L168.6,242.9z
		 M185.5,241.4L185.5,241.4l-15.4,0l0,0H185.5z M186.2,242.9h16l-0.1,0.1h-16L186.2,242.9z M203,241.4L203,241.4l-15.6,0l0,0H203z
		 M203.9,242.9H220l0,0.1h-16.2L203.9,242.9z M220.5,241.4L220.5,241.4l-15.8,0l0,0H220.5z M220.6,246.2h17l0,0.3h-17.1L220.6,246.2
		z M221.1,244.5h16.6l0,0.2H221L221.1,244.5z M221.6,242.9h16.2l0,0.1h-16.3L221.6,242.9z M237.9,241.4L237.9,241.4l-15.9,0l0,0
		H237.9z M237.9,262.9h21l0.2,1.1h-21.2L237.9,262.9z M238.1,260.4h20.4l0.2,1h-20.6L238.1,260.4z M238.3,258.1h19.8l0.1,0.8h-20
		L238.3,258.1z M238.4,255.8h19.3l0.1,0.7h-19.5L238.4,255.8z M238.6,253.7h18.8l0.1,0.6h-19L238.6,253.7z M238.7,251.7h18.3
		l0.1,0.5h-18.5L238.7,251.7z M255.3,241.4h-15.9l0,0L255.3,241.4L255.3,241.4z M255.6,243h-16.3l0-0.1h16.3L255.6,243z
		 M255.9,244.7h-16.7l0-0.2h16.6L255.9,244.7z M256.2,246.5h-17.1l0-0.3h17L256.2,246.5z M256.5,248.3H239l0-0.3h17.5L256.5,248.3z
		 M256.8,250.2h-18l0-0.4h17.9L256.8,250.2z M272.7,241.4h-15.8l0,0L272.7,241.4L272.7,241.4z M273.4,243h-16.2l0-0.1h16.2
		L273.4,243z M274,244.7h-16.6l0-0.2H274L274,244.7z M290,241.4h-15.7l0,0L290,241.4L290,241.4z M291.1,243H275l0-0.1H291L291.1,243
		z M307.4,241.4h-15.5l0,0L307.4,241.4L307.4,241.4z M308.8,243h-15.9l-0.1-0.1h15.9L308.8,243z M324.6,241.4h-15.3l0,0L324.6,241.4
		L324.6,241.4z M326.4,243h-15.7l-0.1-0.1h15.7L326.4,243z M341.9,241.4h-15l0,0L341.9,241.4L341.9,241.4z M344.1,243h-15.4
		l-0.1-0.1H344L344.1,243z M359.2,241.4h-14.7l-0.1,0L359.2,241.4L359.2,241.4z M361.7,243h-15.1l-0.1-0.1h15.1L361.7,243z
		 M376.5,241.4H362l-0.1,0L376.5,241.4L376.5,241.4z M379.4,243h-14.8l-0.2-0.1h14.8L379.4,243z M393.7,241.4h-14.1l-0.1,0
		L393.7,241.4L393.7,241.4z M397,243h-14.5l-0.2-0.1h14.5L397,243z M411,241.4h-13.8l-0.1,0L411,241.4L411,241.4z M414.4,242.9
		l0.2,0.1h-14.2l-0.2-0.1H414.4z M428.2,241.4h-13.5l-0.1,0L428.2,241.4L428.2,241.4z M432,242.9l0.3,0.1h-13.9l-0.2-0.1H432z
		 M445.5,241.4h-13.2l-0.1,0h13.2L445.5,241.4z M449.6,242.9l0.3,0.1h-13.5l-0.3-0.1H449.6z M462.7,241.4h-12.8l-0.1,0h12.8
		L462.7,241.4z M467.2,242.9l0.3,0.1h-13.2l-0.3-0.1H467.2z M480,241.4h-12.5l-0.1,0h12.5L480,241.4z M484.9,242.9l0.3,0.1h-12.9
		l-0.3-0.1H484.9z M485.1,241.4l-0.1,0h12.1l0.1,0H485.1z M490.6,244.7h-13.3l-0.5-0.2h13.2L490.6,244.7z M482.6,246.5l-0.8-0.3
		h13.6l0.8,0.3H482.6z M489.2,250.2h-14.9l-1.2-0.4h14.8L489.2,250.2z M479.9,252.2l-1.4-0.5h15.3l1.5,0.5H479.9z M487.5,256.6
		h-16.7l-1.8-0.7h16.6L487.5,256.6z M476.7,258.9l-2.1-0.8h17.1l2.3,0.8H476.7z M485.4,264h-18.8l-2.5-1.1h18.6L485.4,264z
		 M492.4,266.7h-19.5l-2.9-1.2h19.2L492.4,266.7z M479.6,269.6l-3.2-1.4h19.8l3.6,1.4H479.6z M467.3,272.7h-5.6l-3.3-1.6h20.9
		l3.6,1.6h-14.2c0,0,0,0,0,0.1c0,0.2,0,0.3,0,0.5c-0.2,0.6-0.6,0.2-1,0.3c-0.2,0.1-0.4,0-0.5-0.3
		C467.3,273.1,467.3,272.9,467.3,272.7z M442.7,276l-3.2-1.8h21.9l3.7,1.8H442.7z M445.9,279.4h-23.5l-3.2-2h23L445.9,279.4z
		 M452.7,283.1h-24.3l-3.5-2.2h23.8L452.7,283.1z M434.7,287.1l-3.9-2.5h24.7l4.5,2.5H434.7z M438.6,291.4H412l-3.7-2.7h25.9
		L438.6,291.4z M445.8,295.9h-27.7l-4.1-3.1H441L445.8,295.9z M453.6,300.8h-28.8l-4.6-3.4h28L453.6,300.8z M432,306.1l-5.1-3.8H456
		l6,3.8H432z M437.2,311.8h-31.7l-4.7-4.2h30.7L437.2,311.8z M445.6,318.1h-33.2l-5.3-4.7h32.1L445.6,318.1z M420,324.9l-5.9-5.3
		h33.6l7.1,5.3H420z M426,332.3h-36.8l-5.2-5.9h35.4L426,332.3z M435.1,340.4h-38.8l-5.8-6.7h37.2L435.1,340.4z M445.2,349.4h-40.9
		l-6.6-7.5h39.1L445.2,349.4z M413,359.4l-7.5-8.5h41.3l9.5,8.5H413z M367.5,359.4l-5.4-8.5h41.5l7.5,8.5H367.5z M322.1,359.4
		l-3.4-8.5h41.7l5.4,8.5H322.1z M275.2,350.9H317l3.4,8.5h-43.8L275.2,350.9z M231.2,359.4l0.6-8.5h41.9l1.4,8.5H231.2z
		 M231.1,340.4h-39.4l2-6.7h37.8L231.1,340.4z M230.4,349.4h-41.5l2.3-7.5h39.7L230.4,349.4z M185.9,359.4l2.6-8.5h41.8l-0.6,8.5
		H185.9z M140.6,359.4l4.6-8.5h41.7l-2.6,8.5H140.6z M95.3,359.4l6.6-8.5h41.6l-4.6,8.5H95.3z M50,359.4l8.6-8.5H100l-6.6,8.5H50z
		 M15.4,350.9h41.1l-8.6,8.5H4.7L15.4,350.9z M26.7,341.9h39l-7.6,7.5H17.3L26.7,341.9z M36.9,333.8h37l-6.8,6.7H28.6L36.9,333.8z
		 M46.2,326.4h35.3l-6,5.9H38.8L46.2,326.4z M18.9,319.6h33.4l-6.6,5.3H11.1L18.9,319.6z M28.2,313.3h31.9l-5.9,4.7h-33L28.2,313.3z
		 M36.8,307.6h30.6l-5.3,4.2H30.5L36.8,307.6z M13,302.3h29l-5.7,3.8H6.4L13,302.3z M21.5,297.4h27.8l-5.1,3.4H15.6L21.5,297.4z
		 M29.3,292.9h26.8l-4.6,3.1H24.1L29.3,292.9z M8.2,288.6h25.5l-4.7,2.7H2.8L8.2,288.6z M16,284.6h24.5l-4.3,2.5H11.2L16,284.6z
		 M23.3,280.9H47l-3.8,2.2H19L23.3,280.9z M4.4,277.5h22.5l-3.9,2H0L4.4,277.5z M33.3,274.2l-3.5,1.8H7.7l3.9-1.8H33.3z M39.3,271.1
		l-3.1,1.6H14.9l3.5-1.6H39.3z M27.2,265.5l-2.7,1.2H4.8l3-1.2H27.2z M32.9,262.9l-2.4,1.1h-19l2.7-1.1H32.9z M22,258.1l-2,0.8H2.5
		l2.2-0.8H22z M27.4,255.8l-1.8,0.7H8.7l1.9-0.7H27.4z M17.4,251.7l-1.4,0.5H0.5l1.5-0.5H17.4z M22.6,249.8l-1.1,0.4h-15l1.2-0.4
		H22.6z M27.5,248l-0.9,0.3H12l1-0.3H27.5z M18.3,244.5l-0.5,0.2H4.4l0.6-0.2H18.3z M10,242.9h13l-0.3,0.1h-13L10,242.9z"/>
</g>
<g>
	<path class="st4" d="M480.1,348.7c-0.4,0-0.6-0.2-0.6-0.5c-0.3-1.9-0.5-3.8-0.8-5.7c-0.1-0.7-0.2-1.4-0.3-2.1c0-0.2,0-0.3-0.1-0.5
		c-0.3-2.1-0.6-4.1-0.9-6.2c-0.1-0.5-0.1-1-0.2-1.5c-0.1-0.7-0.2-1.4-0.3-2.1c-0.2-1.3-0.4-2.6-0.5-3.9c-0.1-0.5-0.1-1-0.2-1.5
		c-0.2-1.4-0.4-2.7-0.6-4.1c-0.1-0.4-0.1-0.8-0.2-1.2c-0.1-0.5-0.1-1-0.2-1.5c-0.2-1.3-0.4-2.5-0.6-3.8c0-0.1,0-0.2,0-0.3
		c-0.1-0.7-0.2-1.4-0.3-2.1c-0.1-0.6-0.2-1.3-0.3-1.9c-0.1-0.8-0.2-1.6-0.3-2.3c-0.1-0.5-0.1-1-0.2-1.5c-0.1-0.6-0.2-1.1-0.2-1.7
		c-0.1-0.7-0.1-1.4-0.1-2.1c0-0.5,0-1,0-1.5c0,0,0,0,0-0.1c0-0.8,0-1.7,0-2.5c0-0.4-0.1-0.5-0.5-0.5c-0.7,0-1.4,0-2.1,0
		c-0.4,0-0.5-0.1-0.6-0.4c0-0.1,0-0.1,0-0.2c0-0.4,0-0.9,0-1.3c0-1,0-2,0-3.1c0-0.5,0-1,0-1.5c0-0.2,0-0.3,0-0.4
		c0-0.2-0.1-0.2-0.4-0.2c-0.1,0-0.1,0-0.2,0c-0.9,0-1.9,0-2.8,0c0,0,0,0-0.1,0c-0.4,0-0.4,0.1-0.4,0.5c0,0,0,0.1,0,0.1
		c0,0.5,0,1,0,1.5c0,1,0,2,0,3.1c0,0.4,0,0.8,0,1.2c0,0.1,0,0.2,0,0.3c0,0.3-0.2,0.4-0.6,0.4c-0.7,0-1.4,0-2.1,0
		c-0.3,0-0.4,0.1-0.4,0.4c0,0.9,0,1.7,0,2.6c0,0.5,0,1,0,1.5c0,0.8,0,1.7-0.1,2.5c0,0,0,0,0,0.1c-0.1,0.9-0.2,1.8-0.3,2.8
		c-0.2,1.2-0.4,2.4-0.6,3.6c0,0.2-0.1,0.4-0.1,0.6c-0.1,0.5-0.1,1-0.2,1.5c-0.1,0.7-0.2,1.5-0.3,2.2c-0.1,0.8-0.3,1.7-0.4,2.5
		c0,0.2-0.1,0.3-0.1,0.5c0,0.3-0.1,0.7-0.1,1c0,0.5-0.1,0.9-0.2,1.4c-0.2,1.3-0.4,2.6-0.6,3.9c-0.1,0.5-0.1,1-0.2,1.5
		c0,0.1,0,0.2,0,0.2c0,0.2,0,0.3-0.1,0.5c-0.1,0.4-0.1,0.8-0.2,1.2c-0.1,1-0.3,2-0.4,3.1c0,0.3-0.1,0.6-0.1,0.9
		c-0.1,0.5-0.1,1-0.2,1.5c-0.3,1.8-0.5,3.7-0.8,5.5c-0.1,0.4-0.1,0.7-0.2,1.1c-0.1,0.5-0.1,1-0.2,1.5c-0.1,0.7-0.2,1.4-0.3,2.1
		c-0.2,1.4-0.4,2.8-0.6,4.2c-0.1,0.4-0.2,0.4-0.6,0.5c-3.3,0.3-3.6,0.4-6,0.5c-0.9,0.1-0.3,0-1.8,0.2c0,0,0,0,0,0
		c0,0.7-0.1,1,0.5,1.2c1.4,0.6,12.7,0.3,19.1,0.3c6.2,0,12.7,0,19,0c0.6,0,1.6-0.6,1.6-1.2c0-0.1-0.3-0.3-0.3-0.3
		C486.2,349.2,483.2,349,480.1,348.7z M473.2,318.4c-0.1,0-0.2,0.1-0.3,0.1c-1.2,0-2.4,0-3.6,0c-0.3,0-0.5-0.1-0.5-0.4
		c0,0,0-0.1,0-0.1c0-0.8,0-1.7,0-2.5c0,0,0,0,0,0c0-0.7,0-1.4,0-2.1c0-0.2,0-0.3,0-0.5c0-0.1,0.1-0.2,0.1-0.3
		c0.1,0.1,0.2,0.1,0.3,0.2c0.2,0.2,0.3,0.4,0.5,0.6c1.2,1.6,2.3,3.1,3.5,4.7c0,0,0,0,0,0C473.1,318.2,473.2,318.3,473.2,318.4z
		 M472.7,311c0.1,0.8,0.2,1.6,0.3,2.3c0.1,1.2,0.2,2.2,0.2,2.3c-0.2-0.2-0.3-0.4-0.4-0.5c-0.4-0.6-0.9-1.2-1.3-1.7
		c-0.4-0.5-0.7-1-1.1-1.5c-0.2-0.3-0.5-0.7-0.7-1c-0.1-0.1-0.2-0.3-0.3-0.4c-0.3-0.3-0.3-0.6,0-0.9c0.1-0.1,0.2-0.3,0.3-0.4
		c0.4-0.5,0.7-1,1.1-1.5c0.1-0.1,0.2-0.3,0.3-0.4c0.3-0.3,0.5-0.7,0.8-1c0.1,0.1,0.2,0.7,0.3,1.5C472.3,308.5,472.5,309.8,472.7,311
		z M465.4,305.3c-0.1-0.1-0.1-0.2-0.1-0.3c0-0.1,0.2-0.1,0.3-0.1c0.4,0,0.9,0,1.3,0c0.3,0,0.4,0.1,0.4,0.4c0,0.3,0,0.6,0,0.9
		c0,0,0,0,0,0c0,0,0,0,0,0c0,0.3,0,0.6,0,0.9c0,0.1-0.1,0.2-0.1,0.3c-0.1-0.1-0.2-0.1-0.3-0.2c-0.3-0.4-0.5-0.7-0.8-1.1
		C465.8,305.8,465.6,305.5,465.4,305.3z M469.2,307.3c-0.1,0.1-0.2,0.1-0.3,0.2c0-0.1-0.1-0.2-0.1-0.3c0-0.3,0-0.6,0-0.9
		c0,0,0,0,0,0c0,0,0-0.1,0-0.1c0-0.3,0-0.6,0-0.9c0-0.2,0.1-0.4,0.4-0.4c0.4,0,0.9,0,1.3,0c0.1,0,0.2,0.1,0.3,0.1
		c0,0.1,0,0.2-0.1,0.3c-0.2,0.3-0.4,0.6-0.6,0.9C469.7,306.5,469.4,306.9,469.2,307.3z M470.7,299.3c0.9,0,0.9,0,0.9,0.9
		c0,0.2,0,0.4,0,0.6c0,0.5,0,1,0,1.5c0,0.2,0,0.3,0,0.5c0,0.3-0.1,0.5-0.4,0.4c-0.6,0-1.2,0-1.8,0c-0.4,0-0.4-0.1-0.4-0.4
		c0-0.2,0-0.3,0-0.5c0-0.3,0-0.7,0-1c0,0,0,0,0,0c0-0.2,0-0.3,0-0.5c0-0.1,0-0.2,0-0.3c0-0.3,0-0.5,0-0.8c0-0.3,0.1-0.4,0.4-0.4
		C469.7,299.4,470.2,299.3,470.7,299.3z M467.5,297.2c0-0.2,0-0.3,0-0.5c0-0.2,0-0.5,0-0.7c0-1,0-2,0-3.1c0-0.1,0-0.1,0-0.2
		c0-0.4,0.1-0.5,0.6-0.5c0.4,0,0.5,0.2,0.5,0.5c0,0.1,0,0.1,0,0.2c0,0.7,0,1.4,0,2.1c0,0,0,0,0,0c0,0.3,0,0.7,0,1c0,0.4,0,0.8,0,1.2
		c0,0.1,0,0.2,0,0.3c0,0.3-0.2,0.4-0.5,0.4c-0.4,0-0.5-0.1-0.5-0.4C467.5,297.3,467.5,297.3,467.5,297.2z M464.5,301.3
		C464.5,301.3,464.5,301.3,464.5,301.3c0-0.2,0-0.3,0-0.5c0-0.3,0-0.7,0-1c0-0.3,0.1-0.5,0.5-0.5c0.6,0,1.2,0,1.8,0
		c0.4,0,0.5,0.1,0.5,0.4c0,0.4,0,0.7,0,1.1c0,0.5,0,1,0,1.5c0,0.2,0,0.3,0,0.5c0,0.3-0.1,0.4-0.4,0.4c-0.6,0-1.2,0-1.8,0
		c-0.4,0-0.5-0.1-0.5-0.5c0-0.2,0-0.3,0-0.5C464.5,302,464.5,301.7,464.5,301.3z M463.3,311.8c0.2-1.5,0.4-3.1,0.6-4.2
		c0.1-0.8,0.3-1.3,0.3-1.4c0.1,0,0.1,0.1,0.2,0.1c0.6,0.8,1.1,1.5,1.7,2.3c0.3,0.3,0.5,0.7,0.8,1c0.2,0.2,0.1,0.5,0,0.7
		c-0.4,0.5-0.7,1-1.1,1.5c-0.4,0.5-0.7,1-1.1,1.5c-0.3,0.4-0.6,0.7-0.8,1.1c-0.3,0.4-0.6,0.8-0.9,1.1c-0.1-0.1,0-1,0.2-2.3
		C463.1,312.9,463.2,312.4,463.3,311.8z M463,318c1.1-1.6,2.3-3.1,3.5-4.7l0.8-0.8c0,0.1,0.1,0.2,0.1,0.3c0,0.2,0,0.3,0,0.5
		c0,0.7,0,1.4,0,2.1c0,0,0,0,0,0c0,0.8,0,1.7,0,2.5c0,0.1,0,0.1,0,0.2c0,0.4-0.1,0.4-0.6,0.4c-1.2,0-2.3,0-3.5,0
		c-0.1,0-0.2-0.1-0.3-0.1C462.9,318.3,462.9,318.2,463,318C463,318.1,463,318,463,318z M469.6,343.3c2.2,1.7,4.4,3.3,6.6,5
		c0.1,0.1,0.2,0.2,0.3,0.3c0,0,0,0.1,0,0.1c-0.2,0-0.3,0-0.5,0.1c-0.7,0-1.3,0-2,0c-1.5,0-3.1,0-4.6,0c-0.3,0-0.6-0.1-0.6-0.5
		c0-1.7,0-3.5,0-5.2c0-0.1,0.1-0.2,0.1-0.2c0.1,0,0.2,0,0.3,0.1C469.3,343,469.4,343.2,469.6,343.3z M467.2,342.9
		c0.1,0,0.1,0.2,0.1,0.3c0,0.3,0,0.5,0,0.8c0,1.4,0,2.8,0,4.2c0,0.6,0,0.6-0.6,0.6c-2.2,0-4.5,0-6.7,0c-0.1,0-0.2,0-0.5-0.1
		c0.2-0.2,0.3-0.3,0.5-0.4c2.3-1.8,4.6-3.5,6.9-5.2C467,342.9,467.1,342.9,467.2,342.9z M477.1,341.9c0.3,1.9,0.5,3.8,0.7,5.7
		c-0.3-0.1-0.5-0.3-0.6-0.4c-2.3-1.8-4.6-3.5-7-5.3c-0.2-0.1-0.3-0.2-0.5-0.4c-0.5-0.4-0.5-0.4,0-0.8c0.2-0.1,0.3-0.2,0.5-0.4
		c0.9-0.7,1.9-1.4,2.8-2.1c0.4-0.3,0.8-0.6,1.2-0.9c0.2-0.1,0.3-0.3,0.5-0.4c0.5-0.3,0.9-0.7,1.4-1c0,0,0.1,0.1,0.1,0.1
		c0.2,1,0.3,2.1,0.4,3.1C476.8,340.1,477,341,477.1,341.9z M471.1,335.1c1,0,2,0,2.9,0c0.1,0,0.3,0,0.4,0.1c0,0,0,0.1,0,0.1
		c-0.5,0.4-1,0.8-1.5,1.2c-0.1,0.1-0.2,0.2-0.3,0.2c-0.3,0.2-0.6,0.5-0.9,0.7c-0.9,0.7-1.7,1.3-2.6,2c-0.1,0.1-0.2,0.1-0.3,0
		c-0.1-0.1-0.1-0.2-0.1-0.3c0-1.1,0-2.3,0-3.4c0-0.3,0-0.4,0.1-0.5c0.1-0.1,0.2-0.2,0.6-0.2C470,335.1,470.6,335.1,471.1,335.1z
		 M467.3,335.5c0,1.2,0,2.5,0,3.7c0,0.1-0.1,0.2-0.2,0.3c-0.1,0-0.2,0-0.3-0.1c-0.4-0.3-0.8-0.6-1.2-0.9c-1.3-1-2.7-2-4-3
		c-0.1-0.1-0.1-0.2-0.2-0.2c0.1,0,0.2-0.1,0.3-0.1c0.9,0,1.7,0,2.6,0c0,0,0,0,0,0c0.8,0,1.6,0,2.4,0
		C467.1,335.1,467.3,335.2,467.3,335.5z M473.9,332.4c0.4,0.3,0.7,0.7,1.1,1c0,0,0,0.1-0.1,0.1c-0.1,0-0.3,0-0.4,0c-1.7,0-3.3,0-5,0
		c-0.7,0-0.7,0-0.7-0.7c0-0.2,0-0.4,0-0.6c0-1.4,0-2.8,0-4.2c0-0.1,0.1-0.2,0.1-0.3c0.1,0.1,0.2,0.1,0.3,0.2
		c1.5,1.5,3.1,2.9,4.6,4.4C473.8,332.3,473.9,332.3,473.9,332.4z M474.9,326.4c0,0.1,0,0.3,0.1,0.4c0.2,1.6,0.5,3.1,0.7,4.7
		c0,0.1,0,0.2-0.1,0.3c-0.1,0-0.1,0.1-0.2,0.1c-0.2-0.3-0.4-0.5-0.6-0.8c-1.7-1.6-3.3-3.2-5-4.8c-0.1-0.1-0.2-0.2-0.3-0.3
		c-0.3-0.2-0.2-0.4,0-0.6c0.2-0.2,0.4-0.4,0.6-0.6c1.2-1.1,2.3-2.2,3.5-3.4c0.1-0.1,0.2-0.2,0.3-0.2c0.2-0.1,0.3-0.1,0.3,0.1
		c0,0.2,0.1,0.5,0.1,0.7c0.1,0.9,0.3,1.8,0.4,2.7C474.7,325.4,474.8,325.9,474.9,326.4z M466.8,319.9c0.3,0,0.5,0.1,0.5,0.4
		c0,1,0,2.1,0,3.1c0,0.1-0.1,0.3-0.1,0.3c-0.1,0-0.2,0-0.3-0.1c-1.2-1.1-2.3-2.2-3.5-3.3c-0.1-0.1-0.1-0.2-0.1-0.3
		c0.1,0,0.2-0.1,0.3-0.1c0.6,0,1.1,0,1.7,0c0,0,0,0,0,0C465.8,319.9,466.3,319.9,466.8,319.9z M468.7,323.4c0-0.9,0-1.9,0-2.8
		c0-0.6,0.1-0.7,0.7-0.7c1,0,2,0,3,0c0.1,0,0.2,0.1,0.3,0.1c0,0.1-0.1,0.2-0.1,0.3c-1.2,1.1-2.3,2.2-3.5,3.3
		c-0.1,0.1-0.2,0.1-0.4,0.2C468.8,323.7,468.7,323.5,468.7,323.4z M461,327.6c0-0.2,0.1-0.5,0.1-0.7c0-0.2,0.1-0.4,0.1-0.5
		c0.1-0.5,0.1-1,0.2-1.5c0.2-1.1,0.3-2.2,0.5-3.2c0-0.1,0.1-0.3,0.2-0.4c0.1,0.1,0.3,0.1,0.4,0.2c1.2,1.1,2.4,2.3,3.6,3.4
		c0.2,0.2,0.4,0.4,0.6,0.5c0.3,0.3,0.3,0.4,0,0.7c-0.1,0.1-0.2,0.2-0.3,0.3c-1,1-2,1.9-3.1,2.9c-0.2,0.2-0.3,0.3-0.5,0.5
		c-0.2,0.2-0.4,0.4-0.6,0.6c-0.5,0.5-1,1-1.6,1.5c0,0-0.1,0-0.1,0c0-0.1,0-0.2,0-0.3c0.1-0.7,0.2-1.5,0.3-2.2
		C460.8,328.7,460.9,328.1,461,327.6z M463.4,331.2c0.4-0.4,0.7-0.7,1.1-1.1c0.8-0.8,1.6-1.5,2.4-2.3c0.1-0.1,0.2-0.1,0.3-0.1
		c0,0,0.1,0.2,0.1,0.3c0,1.4,0,2.8,0,4.2c0,0.3,0,0.6,0,0.9c0,0.4-0.1,0.5-0.5,0.5c-1.7,0-3.4,0-5.1,0c-0.2,0-0.3,0-0.6-0.1
		c0.1-0.2,0.2-0.3,0.3-0.4c0.3-0.3,0.6-0.6,0.9-0.8C462.6,331.9,463,331.6,463.4,331.2z M459.2,340.4c0.2-1.4,0.4-2.7,0.6-4.1
		c0-0.3,0.2-0.4,0.5-0.2c1.6,1.2,3.2,2.4,4.8,3.6c0.3,0.2,0.5,0.4,0.8,0.6c0.3,0.2,0.6,0.5,1,0.8c-0.3,0.3-0.7,0.5-1,0.7
		c-2.5,1.9-5,3.8-7.5,5.7c0,0-0.1-0.1-0.1-0.1c0-0.1,0-0.3,0-0.4c0.1-0.9,0.3-1.8,0.4-2.7c0.1-0.8,0.2-1.6,0.3-2.4
		C459,341.4,459.1,340.9,459.2,340.4z"/>
	<path class="st4" d="M464.4,287.1c0.4,0.9,1.1,1.6,1.9,2.2c0.3,0.2,0.5,0.3,0.8,0.5c0.5,0.3,0.9,0.4,1.4,0.2
		c0.2-0.1,0.3-0.1,0.5-0.2c0.6-0.4,1.2-0.8,1.6-1.2c0.4-0.4,0.7-0.8,1-1.3c0-0.1,0.1-0.2,0.1-0.2c0.4-0.8,0.6-1.6,0.6-2.5
		c0-0.1,0-0.1,0-0.2c0-0.4-0.1-0.9-0.1-1.3c-0.1-0.8-0.3-1.5-0.6-2.2c-0.1-0.2-0.2-0.4-0.2-0.6c-0.1-0.3-0.3-0.6-0.4-0.9
		c-0.1-0.3-0.3-0.5-0.4-0.8c-0.5-0.9-1.1-1.8-1.7-2.7c-0.1-0.2-0.3-0.4-0.4-0.5c-0.4-0.5-0.4-0.5-0.8,0c0,0-0.1,0.1-0.1,0.1
		c-0.5,0.6-0.9,1.3-1.3,1.9c-0.4,0.6-0.8,1.3-1.1,2c-0.2,0.5-0.4,1-0.6,1.5c0,0.1-0.1,0.1-0.1,0.2c-0.2,0.7-0.4,1.3-0.5,2
		c-0.1,0.5-0.1,1-0.1,1.5c0,0.2,0,0.5,0,0.7C463.9,286,464.1,286.6,464.4,287.1z M468.6,288c-0.4,0.5-0.6,0.6-1.1,0
		c-0.2-0.2-0.3-0.6-0.3-0.9c0,0,0,0,0,0c-0.1-0.7,0.1-1.3,0.4-1.9c0.1-0.2,0.2-0.4,0.3-0.5c0-0.1,0.1-0.2,0.1-0.3c0,0,0.1,0,0.1,0
		c0,0.1,0.1,0.2,0.1,0.3c0.4,0.7,0.7,1.4,0.7,2.3c0,0.1,0,0.1,0,0.2C468.9,287.4,468.8,287.8,468.6,288z M465.4,283.1
		c0.1-0.3,0.1-0.7,0.3-1c0.1-0.4,0.3-0.8,0.4-1.2c0.2-0.5,0.4-1,0.7-1.5c0.4-0.7,0.8-1.3,1.2-2c0,0,0,0,0,0c0,0,0,0,0,0
		c0.2,0.2,0.3,0.3,0.3,0.4c0.3,0.5,0.6,1,0.9,1.6c0.3,0.5,0.5,1,0.7,1.5c0.3,0.7,0.5,1.3,0.6,2c0,0.1,0,0.1,0,0.2
		c0.1,0.5,0.1,1,0.1,1.5c0,0.3,0,0.6,0,0.9c0,0.1-0.1,0.2-0.2,0.3c-0.1-0.1-0.2-0.2-0.2-0.3c-0.1-0.3-0.2-0.6-0.3-0.9c0,0,0,0,0,0
		c-0.2-0.5-0.5-1-0.8-1.5c-0.3-0.4-0.6-0.9-0.9-1.3c-0.2-0.2-0.3-0.2-0.5,0c-0.3,0.4-0.6,0.8-0.9,1.3c-0.3,0.5-0.6,1-0.8,1.5
		c-0.1,0.3-0.2,0.5-0.3,0.8c0,0.2-0.2,0.3-0.2,0.4c0,0-0.1,0-0.1,0c-0.1-0.4-0.1-0.8-0.1-1.2C465.3,284.1,465.3,283.6,465.4,283.1z"
		/>
	<path class="st4" d="M461.5,277.5c0.3,0.2,0.6,0.4,0.9,0.6c0,0,0.1,0,0.2,0c0.1,0,0.1-0.1,0.2-0.2c0.1-0.2,0.3-0.4,0.4-0.5
		c0,0,0.1-0.1,0.1-0.1c0.2-0.2,0.2-0.4-0.1-0.5c-0.3-0.2-0.6-0.5-1-0.7c-0.2-0.1-0.4-0.1-0.5,0.1c-0.2,0.3-0.8,0.6-0.4,1
		C461.3,277.3,461.4,277.4,461.5,277.5z"/>
	<path class="st4" d="M473.6,278.1c0,0,0.2,0,0.3-0.1c0.3-0.2,0.5-0.4,0.7-0.5c0.1,0,0.1-0.1,0.2-0.1c0.2-0.2,0.3-0.3,0.1-0.6
		c-0.6-0.9-0.6-0.9-1.5-0.3c-0.2,0.1-0.3,0.2-0.5,0.3c-0.1,0.1-0.1,0.1-0.2,0.3c0.1,0.1,0.2,0.2,0.3,0.4
		C473.2,277.7,473.4,277.9,473.6,278.1z"/>
	<path class="st4" d="M474.8,282.2c0.1,0.3-0.2,0.7,0.1,0.9c0.1,0,0.1,0.1,0.3,0.1c0.2,0,0.3,0,0.5,0c0.5,0,0.7,0,0.8-0.1
		c0.1-0.1,0.1-0.3,0.1-0.9c0-0.5,0-0.5-0.5-0.5c-0.3,0-0.6,0-0.9,0C474.8,281.8,474.7,282,474.8,282.2z"/>
	<path class="st4" d="M459.7,283.1c0.1,0.1,0.3,0.1,0.7,0.1c0.5,0,0.7,0,0.8-0.1c0.1-0.1,0.1-0.3,0.1-0.8c0-0.5,0-0.6-0.6-0.6
		c-0.2,0-0.4,0-0.6,0c-0.6,0-0.6,0-0.6,0.6C459.6,282.8,459.6,283.1,459.7,283.1z"/>
	<path class="st4" d="M467.3,273.2c0,0.3,0.2,0.4,0.5,0.3c0.3-0.1,0.8,0.3,1-0.3c0-0.2,0-0.3,0-0.5c0,0,0,0,0-0.1
		c0-0.8,0-0.8-1.1-0.8c-0.3,0-0.4,0.1-0.4,0.4c0,0.1,0,0.3,0,0.4C467.3,272.9,467.3,273.1,467.3,273.2z"/>
</g>
</svg>
