<?xml version="1.0" encoding="utf-8"?>
<!-- Generator: Adobe Illustrator 21.1.0, SVG Export Plug-In . SVG Version: 6.00 Build 0)  -->
<svg version="1.1" id="Layer_1" xmlns="http://www.w3.org/2000/svg" xmlns:xlink="http://www.w3.org/1999/xlink" x="0px" y="0px"
	 viewBox="0 0 500 500" style="enable-background:new 0 0 500 500;" xml:space="preserve">
<style type="text/css">
	.st0{fill:url(#SVGID_1_);}
	.st1{fill:none;}
	.st2{fill:url(#SVGID_2_);}
</style>
<linearGradient id="SVGID_1_" gradientUnits="userSpaceOnUse" x1="250" y1="239.156" x2="250" y2="64.7047">
	<stop  offset="0" style="stop-color:#7F7DC1;stop-opacity:0"/>
	<stop  offset="0.4868" style="stop-color:#7F7DC1;stop-opacity:0.5"/>
	<stop  offset="0.9779" style="stop-color:#7F7DC1;stop-opacity:0"/>
</linearGradient>
<path class="st0" d="M57.7,162.3l-3.2,4.4l13-9.7h70.4l15.7,31.9l1.1-4.5l35.2,54.9h114.3l23.4-24.3l-2,6.7l76-73.9H437l2.7-46.1
	l-18.3,16.7l18.3-24.2L430,67.1l13.9,23l32.4-5.5l-32.1,12l4.7,1l-4,3.8l2,46.1H500V64.7H0v97.6"/>
<g>
	<polygon class="st1" points="103.8,252.2 120.8,252.2 121.6,251.7 104.7,251.7 	"/>
	<polygon class="st1" points="160.8,318.1 194.7,318.1 196.6,313.3 163.8,313.3 	"/>
	<polygon class="st1" points="123.6,252.2 140.9,252.2 141.6,251.7 124.5,251.7 	"/>
	<polygon class="st1" points="100,254.3 117.5,254.3 118.4,253.7 101.1,253.7 	"/>
	<polygon class="st1" points="64.2,252.2 80.6,252.2 81.6,251.7 65.4,251.7 	"/>
	<polygon class="st1" points="59.3,254.3 76.2,254.3 77.5,253.7 60.7,253.7 	"/>
	<polygon class="st1" points="79.6,254.3 96.8,254.3 97.9,253.7 80.9,253.7 	"/>
	<polygon class="st1" points="84,252.2 100.7,252.2 101.6,251.7 85.1,251.7 	"/>
	<polygon class="st1" points="140.6,254.3 158.7,254.3 159.4,253.7 141.4,253.7 	"/>
	<polygon class="st1" points="198.7,258.9 218.6,258.9 218.9,258.1 199.3,258.1 	"/>
	<polygon class="st1" points="219.8,255.8 200.7,255.8 200.2,256.6 219.6,256.6 	"/>
	<polygon class="st1" points="239.5,262.9 218.6,262.9 218.2,264 239.4,264 	"/>
	<polygon class="st1" points="119.3,324.9 154.6,324.9 158,319.6 124,319.6 	"/>
	<polygon class="st1" points="160.9,254.3 179.3,254.3 179.8,253.7 161.6,253.7 	"/>
	<polygon class="st1" points="181.3,254.3 199.9,254.3 200.3,253.7 181.8,253.7 	"/>
	<polygon class="st1" points="143.5,252.2 161.1,252.2 161.6,251.7 144.2,251.7 	"/>
	<polygon class="st1" points="163.3,252.2 181.2,252.2 181.6,251.7 163.9,251.7 	"/>
	<polygon class="st1" points="90.5,291.4 117.4,291.4 120.5,288.6 94.2,288.6 	"/>
	<polygon class="st1" points="126.6,283.1 129,280.9 104.6,280.9 101.6,283.1 	"/>
	<polygon class="st1" points="142.8,295.9 145.5,292.9 118,292.9 114.6,295.9 	"/>
	<polygon class="st1" points="94.1,255.8 76.5,255.8 75,256.6 92.8,256.6 	"/>
	<polygon class="st1" points="96.3,287.1 122.1,287.1 124.9,284.6 99.6,284.6 	"/>
	<polygon class="st1" points="215.9,269.6 238.4,269.6 238.7,268.2 216.5,268.2 	"/>
	<polygon class="st1" points="125.3,318.1 159,318.1 162,313.3 129.4,313.3 	"/>
	<polygon class="st1" points="163,311.8 165.7,307.6 134.5,307.6 130.8,311.8 	"/>
	<polygon class="st1" points="103.2,306.1 133.8,306.1 137.1,302.3 107.4,302.3 	"/>
	<polygon class="st1" points="109.1,300.8 138.5,300.8 141.4,297.4 112.9,297.4 	"/>
	<polygon class="st1" points="77.4,266.7 97.8,266.7 99.8,265.5 79.6,265.5 	"/>
	<polygon class="st1" points="65.1,261.4 84,261.4 85.8,260.4 67.1,260.4 	"/>
	<polygon class="st1" points="80.4,279.4 104.1,279.4 106.8,277.5 83.5,277.5 	"/>
	<polygon class="st1" points="70.2,258.9 88.5,258.9 90,258.1 72,258.1 	"/>
	<polygon class="st1" points="103.9,262.9 84.4,262.9 82.4,264 102.2,264 	"/>
	<polygon class="st1" points="72.1,269.6 93.2,269.6 95.4,268.2 74.6,268.2 	"/>
	<polygon class="st1" points="111.2,274.2 88.7,274.2 85.9,276 108.8,276 	"/>
	<polygon class="st1" points="66.4,272.7 88.3,272.7 90.8,271.1 69.3,271.1 	"/>
	<polygon class="st1" points="239.1,265.5 217.6,265.5 217.1,266.7 238.9,266.7 	"/>
	<polygon class="st1" points="362.3,271.1 363.9,272.7 386.4,272.7 384.4,271.1 	"/>
	<polygon class="st1" points="404.4,268.2 383.2,268.2 385,269.6 406.5,269.6 	"/>
	<polygon class="st1" points="365.4,274.2 367.2,276 390.5,276 388.3,274.2 	"/>
	<polygon class="st1" points="379.8,265.5 381.3,266.7 402.2,266.7 400.3,265.5 	"/>
	<polygon class="st1" points="376.5,262.9 377.9,264 398.1,264 396.4,262.9 	"/>
	<polygon class="st1" points="392.4,277.5 368.7,277.5 370.7,279.4 394.9,279.4 	"/>
	<polygon class="st1" points="388.7,255.8 389.7,256.6 407.9,256.6 406.7,255.8 	"/>
	<polygon class="st1" points="414.5,260.4 395.5,260.4 396.9,261.4 416.2,261.4 	"/>
	<polygon class="st1" points="392,258.1 393.2,258.9 411.9,258.9 410.5,258.1 	"/>
	<polygon class="st1" points="297.8,306.1 296.6,302.3 266.3,302.3 266.6,306.1 	"/>
	<polygon class="st1" points="325.7,297.4 296.7,297.4 297.7,300.8 327.6,300.8 	"/>
	<polygon class="st1" points="266,319.6 231.6,319.6 230.7,324.9 266.4,324.9 	"/>
	<polygon class="st1" points="345.4,280.9 347.1,283.1 372.4,283.1 370.1,280.9 	"/>
	<polygon class="st1" points="231.1,313.3 198.2,313.3 196.3,318.1 230.3,318.1 	"/>
	<polygon class="st1" points="348.3,284.6 350.2,287.1 376.4,287.1 373.9,284.6 	"/>
	<polygon class="st1" points="325,292.9 326.6,295.9 355.2,295.9 352.8,292.9 	"/>
	<polygon class="st1" points="377.9,288.6 351.4,288.6 353.5,291.4 380.7,291.4 	"/>
	<polygon class="st1" points="345.2,254.3 363.4,254.3 362.6,253.7 344.6,253.7 	"/>
	<polygon class="st1" points="285.6,261.4 306.1,261.4 305.6,260.4 285.3,260.4 	"/>
	<polygon class="st1" points="284.6,258.1 284.9,258.9 304.8,258.9 304.3,258.1 	"/>
	<polygon class="st1" points="305.2,256.6 324.4,256.6 323.9,255.8 304.8,255.8 	"/>
	<polygon class="st1" points="322.5,251.7 322.9,252.2 340.9,252.2 340.4,251.7 	"/>
	<polygon class="st1" points="423.2,253.7 406,253.7 407.1,254.3 424.4,254.3 	"/>
	<polygon class="st1" points="237.7,283.1 263.5,283.1 263.3,280.9 238,280.9 	"/>
	<polygon class="st1" points="263.4,260.4 263.5,261.4 284.1,261.4 283.8,260.4 	"/>
	<polygon class="st1" points="263.2,258.1 263.3,258.9 283.3,258.9 283,258.1 	"/>
	<polygon class="st1" points="283.9,255.8 284.2,256.6 303.5,256.6 303.1,255.8 	"/>
	<polygon class="st1" points="365.8,254.3 383.7,254.3 382.8,253.7 365,253.7 	"/>
	<polygon class="st1" points="386.4,254.3 404.1,254.3 403,253.7 385.5,253.7 	"/>
	<polygon class="st1" points="382.5,251.7 383.3,252.2 400.4,252.2 399.5,251.7 	"/>
	<polygon class="st1" points="402.5,251.7 403.4,252.2 420.2,252.2 419.2,251.7 	"/>
	<polygon class="st1" points="342.5,251.7 343,252.2 360.7,252.2 360.1,251.7 	"/>
	<polygon class="st1" points="324.1,253.7 324.6,254.3 343.1,254.3 342.4,253.7 	"/>
	<polygon class="st1" points="362.5,251.7 363.2,252.2 380.6,252.2 379.8,251.7 	"/>
	<polygon class="st1" points="238.6,277.5 238.3,279.4 263.2,279.4 263.1,277.5 	"/>
	<polygon class="st1" points="120.3,254.3 138.1,254.3 138.9,253.7 121.3,253.7 	"/>
	<polygon class="st1" points="262.8,251.7 262.8,252.2 281.3,252.2 281.1,251.7 	"/>
	<polygon class="st1" points="239.7,271.1 239.4,272.7 262.7,272.7 262.6,271.1 	"/>
	<polygon class="st1" points="219.6,260.4 219.2,261.4 239.8,261.4 240,260.4 	"/>
	<polygon class="st1" points="238.9,276 263,276 262.8,274.2 239.2,274.2 	"/>
	<polygon class="st1" points="240.4,258.1 220.6,258.1 220.2,258.9 240.2,258.9 	"/>
	<polygon class="st1" points="184.9,250.2 202.5,250.2 202.8,249.8 185.3,249.8 	"/>
	<polygon class="st1" points="165.6,250.2 182.9,250.2 183.3,249.8 166,249.8 	"/>
	<polygon class="st1" points="183.2,252.2 201.2,252.2 201.6,251.7 183.6,251.7 	"/>
	<polygon class="st1" points="302.6,251.7 302.9,252.2 321,252.2 320.6,251.7 	"/>
	<polygon class="st1" points="301.6,249.8 301.8,250.2 319.5,250.2 319.1,249.8 	"/>
	<polygon class="st1" points="262.9,253.7 263,254.3 281.9,254.3 281.7,253.7 	"/>
	<polygon class="st1" points="148.8,248.3 165.4,248.3 165.8,248 149.2,248 	"/>
	<polygon class="st1" points="304,254.3 322.7,254.3 322.2,253.7 303.7,253.7 	"/>
	<polygon class="st1" points="283.5,254.3 302.3,254.3 302,253.7 283.3,253.7 	"/>
	<polygon class="st1" points="282.7,251.7 282.8,252.2 301.2,252.2 300.9,251.7 	"/>
	<polygon class="st1" points="263.1,256.6 282.6,256.6 282.4,255.8 263.1,255.8 	"/>
	<polygon class="st1" points="282.1,249.8 282.2,250.2 300.1,250.2 299.8,249.8 	"/>
	<polygon class="st1" points="88.1,250.2 104.4,250.2 105.1,249.8 89,249.8 	"/>
	<polygon class="st1" points="73.1,255.8 55.9,255.8 54.2,256.6 71.6,256.6 	"/>
	<polygon class="st1" points="146.2,250.2 163.3,250.2 163.8,249.8 146.8,249.8 	"/>
	<polygon class="st1" points="48.8,258.9 66.8,258.9 68.5,258.1 50.8,258.1 	"/>
	<polygon class="st1" points="44.4,252.2 60.4,252.2 61.6,251.7 45.7,251.7 	"/>
	<polygon class="st1" points="43.2,261.4 61.7,261.4 63.7,260.4 45.4,260.4 	"/>
	<polygon class="st1" points="54.3,248.3 69.5,248.3 70.2,248 55.2,248 	"/>
	<polygon class="st1" points="54.1,266.7 74.2,266.7 76.5,265.5 56.7,265.5 	"/>
	<polygon class="st1" points="81.3,262.9 62,262.9 59.8,264 79.3,264 	"/>
	<polygon class="st1" points="39,254.3 55.6,254.3 57,253.7 40.6,253.7 	"/>
	<polygon class="st1" points="111,248.3 127.1,248.3 127.6,248 111.6,248 	"/>
	<polygon class="st1" points="126.8,250.2 143.7,250.2 144.2,249.8 127.5,249.8 	"/>
	<polygon class="st1" points="107.5,250.2 124,250.2 124.7,249.8 108.3,249.8 	"/>
	<polygon class="st1" points="129.9,248.3 146.3,248.3 146.7,248 130.4,248 	"/>
	<polygon class="st1" points="68.8,250.2 84.7,250.2 85.6,249.8 69.8,249.8 	"/>
	<polygon class="st1" points="73.2,248.3 88.7,248.3 89.4,248 74,248 	"/>
	<polygon class="st1" points="92.1,248.3 107.9,248.3 108.5,248 92.8,248 	"/>
	<polygon class="st1" points="321.1,249.8 321.4,250.2 338.9,250.2 338.4,249.8 	"/>
	<polygon class="st1" points="333,307.6 335.3,311.8 367.6,311.8 364.3,307.6 	"/>
	<polygon class="st1" points="391.9,302.3 362.1,302.3 365,306.1 395.8,306.1 	"/>
	<polygon class="st1" points="338.7,248 339,248.3 355.8,248.3 355.4,248 	"/>
	<polygon class="st1" points="406.4,288.6 380.1,288.6 382.9,291.4 409.9,291.4 	"/>
	<polygon class="st1" points="358.2,297.4 360.9,300.8 390.4,300.8 386.9,297.4 	"/>
	<polygon class="st1" points="354.7,292.9 357.1,295.9 385.4,295.9 382.3,292.9 	"/>
	<polygon class="st1" points="386.8,271.1 388.8,272.7 411.1,272.7 408.7,271.1 	"/>
	<polygon class="st1" points="390.7,274.2 392.9,276 416,276 413.3,274.2 	"/>
	<polygon class="st1" points="418.2,277.5 394.8,277.5 397.3,279.4 421.2,279.4 	"/>
	<polygon class="st1" points="372.3,280.9 374.5,283.1 399.6,283.1 396.8,280.9 	"/>
	<polygon class="st1" points="328.4,302.3 298.2,302.3 299.3,306.1 330.5,306.1 	"/>
	<polygon class="st1" points="194.1,319.6 159.8,319.6 156.4,324.9 191.9,324.9 	"/>
	<polygon class="st1" points="299.5,311.8 298.2,307.6 266.7,307.6 267,311.8 	"/>
	<polygon class="st1" points="230,319.6 195.7,319.6 193.5,324.9 229.2,324.9 	"/>
	<polygon class="st1" points="266.5,326.4 230.4,326.4 229.4,332.3 266.9,332.3 	"/>
	<polygon class="st1" points="333.6,311.8 331.3,307.6 299.8,307.6 301.1,311.8 	"/>
	<polygon class="st1" points="372.4,318.1 368.8,313.3 336.1,313.3 338.7,318.1 	"/>
	<polygon class="st1" points="337,318.1 334.4,313.3 301.6,313.3 303,318.1 	"/>
	<polygon class="st1" points="376,284.6 378.6,287.1 404.5,287.1 401.4,284.6 	"/>
	<polygon class="st1" points="380.3,250.2 396.9,250.2 396.2,249.8 379.6,249.8 	"/>
	<polygon class="st1" points="396,248 396.6,248.3 412.5,248.3 411.8,248 	"/>
	<polygon class="st1" points="376.9,248 377.4,248.3 393.6,248.3 393,248 	"/>
	<polygon class="st1" points="428,268.2 407.1,268.2 409.2,269.6 430.5,269.6 	"/>
	<polygon class="st1" points="340.6,249.8 341,250.2 358.2,250.2 357.7,249.8 	"/>
	<polygon class="st1" points="360.6,250.2 377.6,250.2 377,249.8 360.1,249.8 	"/>
	<polygon class="st1" points="415.2,248 415.8,248.3 431.4,248.3 430.7,248 	"/>
	<polygon class="st1" points="357.8,248 358.2,248.3 374.7,248.3 374.2,248 	"/>
	<polygon class="st1" points="399.9,250.2 416.3,250.2 415.4,249.8 399.2,249.8 	"/>
	<polygon class="st1" points="436.3,260.4 417.5,260.4 419.2,261.4 438.2,261.4 	"/>
	<polygon class="st1" points="399.1,262.9 400.8,264 420.7,264 418.8,262.9 	"/>
	<polygon class="st1" points="403,265.5 404.9,266.7 425.4,266.7 423.3,265.5 	"/>
	<polygon class="st1" points="413.5,258.1 414.9,258.9 433.3,258.9 431.7,258.1 	"/>
	<polygon class="st1" points="409.7,255.8 410.9,256.6 428.8,256.6 427.3,255.8 	"/>
	<polygon class="st1" points="422.5,251.7 423.5,252.2 440,252.2 438.9,251.7 	"/>
	<polygon class="st1" points="418.8,249.8 419.6,250.2 435.6,250.2 434.7,249.8 	"/>
	<polygon class="st1" points="443.4,253.7 426.5,253.7 427.7,254.3 444.7,254.3 	"/>
	<polygon class="st1" points="126.6,262.9 106.7,262.9 105,264 125.1,264 	"/>
	<polygon class="st1" points="159.2,279.4 183.8,279.4 185.1,277.5 161,277.5 	"/>
	<polygon class="st1" points="143.9,269.6 165.9,269.6 167.1,268.2 145.5,268.2 	"/>
	<polygon class="st1" points="209.7,280.9 184.6,280.9 183.2,283.1 208.8,283.1 	"/>
	<polygon class="st1" points="140.5,272.7 163.2,272.7 164.6,271.1 142.2,271.1 	"/>
	<polygon class="st1" points="187.2,274.2 163.9,274.2 162.3,276 186,276 	"/>
	<polygon class="st1" points="180.6,287.1 207.2,287.1 208.2,284.6 182.2,284.6 	"/>
	<polygon class="st1" points="234.5,292.9 206.5,292.9 205.2,295.9 234,295.9 	"/>
	<polygon class="st1" points="190.9,271.1 189.9,272.7 213,272.7 213.7,271.1 	"/>
	<polygon class="st1" points="236.5,280.9 211.3,280.9 210.4,283.1 236.1,283.1 	"/>
	<polygon class="st1" points="209.8,284.6 208.8,287.1 235.5,287.1 235.9,284.6 	"/>
	<polygon class="st1" points="208.2,288.6 207.1,291.4 234.8,291.4 235.2,288.6 	"/>
	<polygon class="st1" points="234.7,300.8 264.7,300.8 264.5,297.4 235.3,297.4 	"/>
	<polygon class="st1" points="186.8,277.5 185.6,279.4 210.3,279.4 211.1,277.5 	"/>
	<polygon class="st1" points="188.9,274.2 187.8,276 211.7,276 212.4,274.2 	"/>
	<polygon class="st1" points="165.2,272.7 188.1,272.7 189.1,271.1 166.6,271.1 	"/>
	<polygon class="st1" points="203.3,300.8 233.2,300.8 233.8,297.4 204.6,297.4 	"/>
	<polygon class="st1" points="147.2,266.7 168.4,266.7 169.5,265.5 148.5,265.5 	"/>
	<polygon class="st1" points="340.7,277.5 316.6,277.5 317.7,279.4 342.3,279.4 	"/>
	<polygon class="st1" points="287.3,266.7 309,266.7 308.4,265.5 286.9,265.5 	"/>
	<polygon class="st1" points="201.1,306.1 232.3,306.1 232.9,302.3 202.7,302.3 	"/>
	<polygon class="st1" points="309.3,264 330.2,264 329.3,262.9 308.7,262.9 	"/>
	<polygon class="st1" points="264.2,272.7 287.5,272.7 287,271.1 264.1,271.1 	"/>
	<polygon class="st1" points="236.8,288.6 236.3,291.4 264,291.4 263.8,288.6 	"/>
	<polygon class="st1" points="212.7,277.5 211.9,279.4 236.8,279.4 237.1,277.5 	"/>
	<polygon class="st1" points="329.3,260.4 330.1,261.4 350.2,261.4 349.2,260.4 	"/>
	<polygon class="st1" points="235.5,295.9 264.4,295.9 264.1,292.9 236,292.9 	"/>
	<polygon class="st1" points="307.3,260.4 307.8,261.4 328.2,261.4 327.4,260.4 	"/>
	<polygon class="st1" points="264.5,276 288.5,276 288,274.2 264.3,274.2 	"/>
	<polygon class="st1" points="293.3,291.4 292.4,288.6 265.3,288.6 265.5,291.4 	"/>
	<polygon class="st1" points="291.6,280.9 292.3,283.1 318,283.1 316.8,280.9 	"/>
	<polygon class="st1" points="333.3,265.5 334.2,266.7 355.6,266.7 354.4,265.5 	"/>
	<polygon class="st1" points="265.2,307.6 233.6,307.6 232.9,311.8 265.5,311.8 	"/>
	<polygon class="st1" points="357.2,268.2 335.4,268.2 336.5,269.6 358.6,269.6 	"/>
	<polygon class="st1" points="313.1,271.1 314,272.7 337,272.7 335.8,271.1 	"/>
	<polygon class="st1" points="314.8,274.2 315.8,276 339.6,276 338.2,274.2 	"/>
	<polygon class="st1" points="177.9,291.4 205.5,291.4 206.6,288.6 179.7,288.6 	"/>
	<polygon class="st1" points="110.6,260.4 109.1,261.4 128.6,261.4 129.9,260.4 	"/>
	<polygon class="st1" points="201.7,254.3 220.4,254.3 220.7,253.7 202.1,253.7 	"/>
	<polygon class="st1" points="203,252.2 221.3,252.2 221.5,251.7 203.4,251.7 	"/>
	<polygon class="st1" points="36.4,248 35.5,248.3 50.3,248.3 51.1,248 	"/>
	<polygon class="st1" points="327.4,297.4 329.3,300.8 359,300.8 356.3,297.4 	"/>
	<polygon class="st1" points="66,249.8 50.5,249.8 49.5,250.2 65,250.2 	"/>
	<polygon class="st1" points="149.2,262.9 129.1,262.9 127.6,264 148,264 	"/>
	<polygon class="st1" points="363.1,306.1 360.2,302.3 330.1,302.3 332.2,306.1 	"/>
	<polygon class="st1" points="222.3,249.8 204.6,249.8 204.3,250.2 222.1,250.2 	"/>
	<polygon class="st1" points="389.9,340.4 384.7,333.8 347.2,333.8 350.8,340.4 	"/>
	<polygon class="st1" points="485.3,241.4 485.1,241.4 472.5,241.4 472.6,241.4 	"/>
	<polygon class="st1" points="224.5,248.3 242,248.3 242,248 224.6,248 	"/>
	<polygon class="st1" points="459.3,243 472.7,243 472.4,242.9 459.1,242.9 	"/>
	<polygon class="st1" points="343.2,326.4 346.4,332.3 383.5,332.3 378.9,326.4 	"/>
	<polygon class="st1" points="242.3,246.2 225.4,246.2 225.3,246.5 242.3,246.5 	"/>
	<polygon class="st1" points="223.7,250.2 241.7,250.2 241.7,249.8 223.9,249.8 	"/>
	<polygon class="st1" points="314.9,277.5 290.6,277.5 291.2,279.4 316,279.4 	"/>
	<polygon class="st1" points="290.1,280.9 264.8,280.9 265,283.1 290.7,283.1 	"/>
	<polygon class="st1" points="292,287.1 291.2,284.6 265.1,284.6 265.2,287.1 	"/>
	<polygon class="st1" points="233.8,306.1 265.1,306.1 264.8,302.3 234.5,302.3 	"/>
	<polygon class="st1" points="287.7,268.2 288.2,269.6 310.6,269.6 309.9,268.2 	"/>
	<polygon class="st1" points="333.5,268.2 311.6,268.2 312.3,269.6 334.6,269.6 	"/>
	<polygon class="st1" points="310.1,265.5 310.7,266.7 332.3,266.7 331.4,265.5 	"/>
	<polygon class="st1" points="289.6,274.2 290.1,276 314.1,276 313.1,274.2 	"/>
	<polygon class="st1" points="312.3,272.7 311.4,271.1 288.6,271.1 289.1,272.7 	"/>
	<polygon class="st1" points="292.8,284.6 293.5,287.1 320.1,287.1 318.8,284.6 	"/>
	<polygon class="st1" points="332.1,264 352.8,264 351.7,262.9 331.2,262.9 	"/>
	<polygon class="st1" points="372.2,261.4 371,260.4 351.4,260.4 352.3,261.4 	"/>
	<polygon class="st1" points="172.8,264 193.7,264 194.4,262.9 173.8,262.9 	"/>
	<polygon class="st1" points="264.7,279.4 289.6,279.4 289,277.5 264.6,277.5 	"/>
	<polygon class="st1" points="196,260.4 176,260.4 175.1,261.4 195.4,261.4 	"/>
	<polygon class="st1" points="322.4,291.4 320.9,288.6 294,288.6 294.8,291.4 	"/>
	<polygon class="st1" points="192.8,265.5 171.5,265.5 170.4,266.7 192,266.7 	"/>
	<polygon class="st1" points="167.9,269.6 190.1,269.6 191,268.2 169.1,268.2 	"/>
	<polygon class="st1" points="134.4,258.9 153.6,258.9 154.5,258.1 135.6,258.1 	"/>
	<polygon class="st1" points="194.5,265.5 193.7,266.7 215.4,266.7 216,265.5 	"/>
	<polygon class="st1" points="180,255.8 179.3,256.6 198.5,256.6 198.9,255.8 	"/>
	<polygon class="st1" points="217,262.9 196.2,262.9 195.5,264 216.6,264 	"/>
	<polygon class="st1" points="177.3,258.9 197,258.9 197.5,258.1 178,258.1 	"/>
	<polygon class="st1" points="218,260.4 197.8,260.4 197.2,261.4 217.6,261.4 	"/>
	<polygon class="st1" points="158.5,256.6 177.4,256.6 178,255.8 159.3,255.8 	"/>
	<polygon class="st1" points="325.8,255.8 326.3,256.6 345.3,256.6 344.6,255.8 	"/>
	<polygon class="st1" points="155.9,258.9 175.3,258.9 176,258.1 156.8,258.1 	"/>
	<polygon class="st1" points="213.3,276 237.4,276 237.6,274.2 214,274.2 	"/>
	<polygon class="st1" points="286.4,264 307.5,264 306.9,262.9 286.1,262.9 	"/>
	<polygon class="st1" points="264,269.6 286.6,269.6 286.2,268.2 263.9,268.2 	"/>
	<polygon class="st1" points="263.7,265.5 263.8,266.7 285.7,266.7 285.3,265.5 	"/>
	<polygon class="st1" points="238.2,271.1 215.3,271.1 214.6,272.7 237.9,272.7 	"/>
	<polygon class="st1" points="306,258.1 306.5,258.9 326.3,258.9 325.6,258.1 	"/>
	<polygon class="st1" points="197.2,311.8 198.9,307.6 167.5,307.6 164.8,311.8 	"/>
	<polygon class="st1" points="237,287.1 263.7,287.1 263.6,284.6 237.4,284.6 	"/>
	<polygon class="st1" points="263.6,262.9 263.6,264 284.9,264 284.5,262.9 	"/>
	<polygon class="st1" points="137.6,256.6 156.2,256.6 157,255.8 138.6,255.8 	"/>
	<polygon class="st1" points="154,283.1 155.9,280.9 131.3,280.9 128.8,283.1 	"/>
	<polygon class="st1" points="116.7,256.6 135.1,256.6 136.1,255.8 117.9,255.8 	"/>
	<polygon class="st1" points="119.6,291.4 146.8,291.4 149.2,288.6 122.7,288.6 	"/>
	<polygon class="st1" points="106.6,279.4 130.7,279.4 132.9,277.5 109.3,277.5 	"/>
	<polygon class="st1" points="173.2,295.9 175.2,292.9 147.4,292.9 144.8,295.9 	"/>
	<polygon class="st1" points="135.8,306.1 166.7,306.1 169.1,302.3 139.1,302.3 	"/>
	<polygon class="st1" points="136.6,274.2 113.8,274.2 111.4,276 134.6,276 	"/>
	<polygon class="st1" points="140.5,300.8 170.1,300.8 172.2,297.4 143.4,297.4 	"/>
	<polygon class="st1" points="124.4,287.1 150.5,287.1 152.7,284.6 127.1,284.6 	"/>
	<polygon class="st1" points="95.9,256.6 113.9,256.6 115.1,255.8 97.2,255.8 	"/>
	<polygon class="st1" points="91.1,272.7 113.3,272.7 115.4,271.1 93.6,271.1 	"/>
	<polygon class="st1" points="87.1,261.4 106.3,261.4 107.8,260.4 88.9,260.4 	"/>
	<polygon class="st1" points="113,258.9 131.9,258.9 133.1,258.1 114.4,258.1 	"/>
	<polygon class="st1" points="91.6,258.9 110.2,258.9 111.5,258.1 93.2,258.1 	"/>
	<polygon class="st1" points="96,269.6 117.4,269.6 119.3,268.2 98.2,268.2 	"/>
	<polygon class="st1" points="100.6,266.7 121.4,266.7 123,265.5 102.6,265.5 	"/>
	<polygon class="st1" points="48.1,269.6 68.9,269.6 71.5,268.2 51,268.2 	"/>
	<polygon class="st1" points="324.9,295.9 323.3,292.9 295.3,292.9 296.2,295.9 	"/>
	<polygon class="st1" points="203.6,295.9 204.9,292.9 177,292.9 175,295.9 	"/>
	<polygon class="st1" points="148.8,291.4 176.1,291.4 177.9,288.6 151.2,288.6 	"/>
	<polygon class="st1" points="152.5,287.1 178.9,287.1 180.4,284.6 154.7,284.6 	"/>
	<polygon class="st1" points="171.8,300.8 201.6,300.8 203,297.4 174,297.4 	"/>
	<polygon class="st1" points="265.6,313.3 232.6,313.3 231.8,318.1 265.9,318.1 	"/>
	<polygon class="st1" points="182.8,280.9 157.9,280.9 156,283.1 181.4,283.1 	"/>
	<polygon class="st1" points="231.3,311.8 232,307.6 200.5,307.6 198.8,311.8 	"/>
	<polygon class="st1" points="168.4,306.1 199.5,306.1 201,302.3 170.9,302.3 	"/>
	<polygon class="st1" points="115.8,272.7 138.2,272.7 140,271.1 117.9,271.1 	"/>
	<polygon class="st1" points="123.9,266.7 144.9,266.7 146.3,265.5 125.6,265.5 	"/>
	<polygon class="st1" points="150.2,264 170.9,264 171.8,262.9 151.4,262.9 	"/>
	<polygon class="st1" points="131.1,261.4 150.9,261.4 151.9,260.4 132.4,260.4 	"/>
	<polygon class="st1" points="153.1,261.4 173.1,261.4 174,260.4 154.2,260.4 	"/>
	<polygon class="st1" points="120,269.6 141.7,269.6 143.2,268.2 121.9,268.2 	"/>
	<polygon class="st1" points="132.9,279.4 157.2,279.4 159,277.5 135.2,277.5 	"/>
	<polygon class="st1" points="161.9,274.2 138.8,274.2 136.8,276 160.3,276 	"/>
	<polygon class="st1" points="293.7,292.9 265.6,292.9 265.9,295.9 294.7,295.9 	"/>
	<polygon class="st1" points="337.7,271.1 338.9,272.7 361.7,272.7 360.1,271.1 	"/>
	<polygon class="st1" points="380.8,268.2 359.3,268.2 360.7,269.6 382.6,269.6 	"/>
	<polygon class="st1" points="392.8,260.4 373.4,260.4 374.6,261.4 394.2,261.4 	"/>
	<polygon class="st1" points="353.9,262.9 355,264 375.5,264 374.1,262.9 	"/>
	<polygon class="st1" points="356.5,265.5 357.8,266.7 378.9,266.7 377.3,265.5 	"/>
	<polygon class="st1" points="370.5,258.1 371.5,258.9 390.5,258.9 389.3,258.1 	"/>
	<polygon class="st1" points="367.7,255.8 368.6,256.6 387,256.6 386,255.8 	"/>
	<polygon class="st1" points="346.7,255.8 347.5,256.6 366.2,256.6 365.3,255.8 	"/>
	<polygon class="st1" points="349.8,258.9 369.1,258.9 368.1,258.1 349,258.1 	"/>
	<polygon class="st1" points="320.5,284.6 321.8,287.1 348.3,287.1 346.4,284.6 	"/>
	<polygon class="st1" points="349.5,288.6 322.7,288.6 324.1,291.4 351.6,291.4 	"/>
	<polygon class="st1" points="214.8,268.2 192.8,268.2 191.9,269.6 214.3,269.6 	"/>
	<polygon class="st1" points="296.2,300.8 295.1,297.4 266,297.4 266.2,300.8 	"/>
	<polygon class="st1" points="318.5,280.9 319.7,283.1 345.2,283.1 343.5,280.9 	"/>
	<polygon class="st1" points="340.1,274.2 341.5,276 365.1,276 363.3,274.2 	"/>
	<polygon class="st1" points="328.2,258.9 347.7,258.9 346.8,258.1 327.5,258.1 	"/>
	<polygon class="st1" points="366.6,277.5 342.6,277.5 344.2,279.4 368.6,279.4 	"/>
	<polygon class="st1" points="393,246.2 393.4,246.5 408.9,246.5 408.4,246.2 	"/>
	<polygon class="st1" points="260.6,241.4 244.7,241.4 244.7,241.4 260.6,241.4 	"/>
	<polygon class="st1" points="242.9,252.2 261.3,252.2 261.3,251.7 242.9,251.7 	"/>
	<polygon class="st1" points="260.7,242.9 244.4,242.9 244.4,243 260.7,243 	"/>
	<polygon class="st1" points="242.5,254.3 261.5,254.3 261.4,253.7 242.6,253.7 	"/>
	<polygon class="st1" points="260.9,246.2 243.9,246.2 243.8,246.5 260.9,246.5 	"/>
	<polygon class="st1" points="261,248 243.6,248 243.5,248.3 261,248.3 	"/>
	<polygon class="st1" points="242.1,256.6 261.6,256.6 261.6,255.8 242.2,255.8 	"/>
	<polygon class="st1" points="260.8,244.5 244.1,244.5 244.1,244.7 260.8,244.7 	"/>
	<polygon class="st1" points="241.3,261.4 261.9,261.4 261.9,260.4 241.5,260.4 	"/>
	<polygon class="st1" points="102.9,241.4 89.1,241.4 89,241.4 102.8,241.4 	"/>
	<polygon class="st1" points="280,243 296.2,243 296.1,242.9 280,242.9 	"/>
	<polygon class="st1" points="262.3,244.7 279,244.7 278.9,244.5 262.3,244.5 	"/>
	<polygon class="st1" points="241.7,258.9 261.8,258.9 261.7,258.1 241.9,258.1 	"/>
	<polygon class="st1" points="295.3,241.4 295.3,241.4 279.5,241.4 279.5,241.4 	"/>
	<polygon class="st1" points="261.1,249.8 243.3,249.8 243.2,250.2 261.2,250.2 	"/>
	<polygon class="st1" points="278,241.4 277.9,241.4 262.1,241.4 262.1,241.4 	"/>
	<polygon class="st1" points="240.9,264 262.1,264 262.1,262.9 241.1,262.9 	"/>
	<polygon class="st1" points="262.4,246.5 279.5,246.5 279.4,246.2 262.4,246.2 	"/>
	<polygon class="st1" points="138,241.4 123.6,241.4 123.5,241.4 138,241.4 	"/>
	<polygon class="st1" points="155.6,241.4 140.9,241.4 140.8,241.4 155.6,241.4 	"/>
	<polygon class="st1" points="153.5,242.9 138.4,242.9 138.3,243 153.4,243 	"/>
	<polygon class="st1" points="171.4,242.9 156,242.9 155.9,243 171.3,243 	"/>
	<polygon class="st1" points="117.7,242.9 103.2,242.9 103,243 117.5,243 	"/>
	<polygon class="st1" points="135.6,242.9 120.8,242.9 120.6,243 135.4,243 	"/>
	<polygon class="st1" points="173.1,241.4 158.1,241.4 158.1,241.4 173.1,241.4 	"/>
	<polygon class="st1" points="120.5,241.4 106.4,241.4 106.3,241.4 120.4,241.4 	"/>
	<polygon class="st1" points="207.2,242.9 191.3,242.9 191.2,243 207.1,243 	"/>
	<polygon class="st1" points="225.1,242.9 209,242.9 208.9,243 225,243 	"/>
	<polygon class="st1" points="189.3,242.9 173.7,242.9 173.6,243 189.2,243 	"/>
	<polygon class="st1" points="242.6,244.5 226,244.5 226,244.7 242.6,244.7 	"/>
	<polygon class="st1" points="242.9,242.9 226.7,242.9 226.6,243 242.9,243 	"/>
	<polygon class="st1" points="225.7,241.4 210,241.4 210,241.4 225.7,241.4 	"/>
	<polygon class="st1" points="190.7,241.4 175.4,241.4 175.4,241.4 190.6,241.4 	"/>
	<polygon class="st1" points="208.2,241.4 192.7,241.4 192.6,241.4 208.2,241.4 	"/>
	<polygon class="st1" points="243.1,241.4 227.3,241.4 227.3,241.4 243.1,241.4 	"/>
	<polygon class="st1" points="262.2,243 278.4,243 278.4,242.9 262.2,242.9 	"/>
	<polygon class="st1" points="457.9,249.8 458.9,250.2 474.3,250.2 473.2,249.8 	"/>
	<polygon class="st1" points="483.7,253.7 467.5,253.7 469,254.3 485.3,254.3 	"/>
	<polygon class="st1" points="462.6,251.7 463.8,252.2 479.7,252.2 478.3,251.7 	"/>
	<polygon class="st1" points="312.6,241.4 312.6,241.4 297,241.4 297,241.4 	"/>
	<polygon class="st1" points="468,241.4 467.9,241.4 454.9,241.4 455.1,241.4 	"/>
	<polygon class="st1" points="453.4,248 454.2,248.3 469.1,248.3 468.3,248 	"/>
	<polygon class="st1" points="456.5,258.1 458.4,258.9 476.1,258.9 474.1,258.1 	"/>
	<polygon class="st1" points="481.9,246.2 467.9,246.2 468.5,246.5 482.7,246.5 	"/>
	<polygon class="st1" points="463.4,244.5 463.8,244.7 477.6,244.7 477.1,244.5 	"/>
	<polygon class="st1" points="436,271.1 438.8,272.7 460.5,272.7 457.3,271.1 	"/>
	<polygon class="st1" points="441.4,274.2 444.4,276 466.9,276 463.4,274.2 	"/>
	<polygon class="st1" points="469.8,277.5 447,277.5 450.5,279.4 473.7,279.4 	"/>
	<polygon class="st1" points="479.8,260.4 461.7,260.4 463.8,261.4 482.1,261.4 	"/>
	<polygon class="st1" points="426.1,280.9 429.4,283.1 453.9,283.1 450.1,280.9 	"/>
	<polygon class="st1" points="444.4,262.9 446.6,264 465.9,264 463.5,262.9 	"/>
	<polygon class="st1" points="475.2,268.2 454.9,268.2 457.7,269.6 478.3,269.6 	"/>
	<polygon class="st1" points="449.5,265.5 452,266.7 471.9,266.7 469.2,265.5 	"/>
	<polygon class="st1" points="451.6,255.8 453.2,256.6 470.4,256.6 468.7,255.8 	"/>
	<polygon class="st1" points="333.7,243 349.2,243 349.1,242.9 333.6,242.9 	"/>
	<polygon class="st1" points="364.5,241.4 364.4,241.4 349.6,241.4 349.6,241.4 	"/>
	<polygon class="st1" points="347.2,241.4 347.2,241.4 332,241.4 332.1,241.4 	"/>
	<polygon class="st1" points="351.6,243 366.9,243 366.7,242.9 351.5,242.9 	"/>
	<polygon class="st1" points="297.9,243 313.9,243 313.8,242.9 297.8,242.9 	"/>
	<polygon class="st1" points="381.7,241.4 381.7,241.4 367.1,241.4 367.2,241.4 	"/>
	<polygon class="st1" points="431.6,284.6 435.3,287.1 460.7,287.1 456.5,284.6 	"/>
	<polygon class="st1" points="315.8,243 331.5,243 331.4,242.9 315.7,242.9 	"/>
	<polygon class="st1" points="369.6,243 384.5,243 384.3,242.9 369.4,242.9 	"/>
	<polygon class="st1" points="441.4,243 455.1,243 454.8,242.9 441.1,242.9 	"/>
	<polygon class="st1" points="433.5,241.4 433.4,241.4 419.8,241.4 419.9,241.4 	"/>
	<polygon class="st1" points="423.4,243 437.4,243 437.2,242.9 423.2,242.9 	"/>
	<polygon class="st1" points="450.8,241.4 450.7,241.4 437.4,241.4 437.5,241.4 	"/>
	<polygon class="st1" points="405.5,243 419.8,243 419.6,242.9 405.3,242.9 	"/>
	<polygon class="st1" points="399,241.4 398.9,241.4 384.7,241.4 384.7,241.4 	"/>
	<polygon class="st1" points="416.3,241.4 416.2,241.4 402.2,241.4 402.3,241.4 	"/>
	<polygon class="st1" points="387.5,243 402.2,243 402,242.9 387.3,242.9 	"/>
	<polygon class="st1" points="329.9,241.4 329.9,241.4 314.5,241.4 314.5,241.4 	"/>
	<polygon class="st1" points="418.5,326.4 424.5,332.3 461.2,332.3 453.8,326.4 	"/>
	<polygon class="st1" points="454.3,324.9 488.9,324.9 481.1,319.6 447.7,319.6 	"/>
	<polygon class="st1" points="443.9,292.9 448.5,295.9 475.9,295.9 470.7,292.9 	"/>
	<polygon class="st1" points="432.8,340.4 471.4,340.4 463.1,333.8 426,333.8 	"/>
	<polygon class="st1" points="445.8,318.1 478.8,318.1 471.8,313.3 439.9,313.3 	"/>
	<polygon class="st1" points="455.8,300.8 484.4,300.8 478.5,297.4 450.7,297.4 	"/>
	<polygon class="st1" points="432.7,307.6 438,311.8 469.5,311.8 463.2,307.6 	"/>
	<polygon class="st1" points="463.7,306.1 493.6,306.1 487,302.3 458,302.3 	"/>
	<polygon class="st1" points="442,349.4 482.7,349.4 473.3,341.9 434.3,341.9 	"/>
	<polygon class="st1" points="452.1,359.4 495.3,359.4 484.6,350.9 443.5,350.9 	"/>
	<polygon class="st1" points="308.8,341.9 269.1,341.9 269.6,349.4 311.1,349.4 	"/>
	<polygon class="st1" points="306.3,333.8 268.5,333.8 268.9,340.4 308.3,340.4 	"/>
	<polygon class="st1" points="226.3,350.9 224.9,359.4 268.8,359.4 268.2,350.9 	"/>
	<polygon class="st1" points="179.5,359.4 223.4,359.4 224.8,350.9 183,350.9 	"/>
	<polygon class="st1" points="400,350.9 406.6,359.4 450,359.4 441.4,350.9 	"/>
	<polygon class="st1" points="356.5,350.9 361.1,359.4 404.7,359.4 398.1,350.9 	"/>
	<polygon class="st1" points="313.1,350.9 315.7,359.4 359.4,359.4 354.8,350.9 	"/>
	<polygon class="st1" points="269.7,350.9 270.3,359.4 314.1,359.4 311.5,350.9 	"/>
	<polygon class="st1" points="474.4,256.6 491.3,256.6 489.3,255.8 472.6,255.8 	"/>
	<polygon class="st1" points="473.4,248.3 488,248.3 487.1,248 472.5,248 	"/>
	<polygon class="st1" points="484,252.2 499.5,252.2 498,251.7 482.6,251.7 	"/>
	<polygon class="st1" points="482.2,244.7 495.6,244.7 495,244.5 481.7,244.5 	"/>
	<polygon class="st1" points="478.6,250.2 493.6,250.2 492.4,249.8 477.4,249.8 	"/>
	<polygon class="st1" points="41.8,272.7 63.3,272.7 66.2,271.1 45,271.1 	"/>
	<polygon class="st1" points="471.1,291.4 497.2,291.4 491.8,288.6 466.3,288.6 	"/>
	<polygon class="st1" points="477,242.9 477.3,243 490.3,243 490,242.9 	"/>
	<polygon class="st1" points="453,280.9 456.9,283.1 481,283.1 476.7,280.9 	"/>
	<polygon class="st1" points="480.1,258.9 497.5,258.9 495.3,258.1 478,258.1 	"/>
	<polygon class="st1" points="463.7,287.1 488.8,287.1 484,284.6 459.5,284.6 	"/>
	<polygon class="st1" points="470.2,276 492.3,276 488.4,274.2 466.7,274.2 	"/>
	<polygon class="st1" points="477,279.4 500,279.4 495.6,277.5 473.1,277.5 	"/>
	<polygon class="st1" points="469.5,264 488.5,264 485.8,262.9 467.1,262.9 	"/>
	<polygon class="st1" points="475.6,266.7 495.2,266.7 492.1,265.5 472.8,265.5 	"/>
	<polygon class="st1" points="463.8,272.7 485.1,272.7 481.6,271.1 460.7,271.1 	"/>
	<polygon class="st1" points="45.6,243 45.9,242.9 32.8,242.9 32.4,243 	"/>
	<polygon class="st1" points="15,241.4 2.9,241.4 2.8,241.4 14.9,241.4 	"/>
	<polygon class="st1" points="26.9,249.8 12.1,249.8 10.8,250.2 25.7,250.2 	"/>
	<polygon class="st1" points="18.1,246.2 4.5,246.2 3.7,246.5 17.4,246.5 	"/>
	<polygon class="st1" points="23.2,244.5 9.9,244.5 9.4,244.7 22.6,244.7 	"/>
	<polygon class="st1" points="21.6,251.7 6.3,251.7 4.7,252.2 20.1,252.2 	"/>
	<polygon class="st1" points="35.9,262.9 17.4,262.9 14.6,264 33.4,264 	"/>
	<polygon class="st1" points="31.1,255.8 14.5,255.8 12.5,256.6 29.3,256.6 	"/>
	<polygon class="st1" points="25.5,258.1 8.4,258.1 6,258.9 23.3,258.9 	"/>
	<polygon class="st1" points="99.5,243 99.7,242.9 85.6,242.9 85.3,243 	"/>
	<polygon class="st1" points="81.6,243 81.8,242.9 68,242.9 67.7,243 	"/>
	<polygon class="st1" points="63.6,243 63.9,242.9 50.4,242.9 50.1,243 	"/>
	<polygon class="st1" points="67.8,241.4 54.6,241.4 54.5,241.4 67.7,241.4 	"/>
	<polygon class="st1" points="85.4,241.4 71.9,241.4 71.8,241.4 85.3,241.4 	"/>
	<polygon class="st1" points="32.6,241.4 20.1,241.4 20,241.4 32.5,241.4 	"/>
	<polygon class="st1" points="27.7,243 28,242.9 15.1,242.9 14.8,243 	"/>
	<polygon class="st1" points="50.2,241.4 37.4,241.4 37.3,241.4 50.1,241.4 	"/>
	<polygon class="st1" points="30,265.5 10.8,265.5 7.6,266.7 27.1,266.7 	"/>
	<polygon class="st1" points="28.5,277.5 6.1,277.5 1.6,279.4 24.4,279.4 	"/>
	<polygon class="st1" points="23.7,268.2 3.8,268.2 0.2,269.6 20.4,269.6 	"/>
	<polygon class="st1" points="66,307.6 35.6,307.6 28.8,311.8 60.3,311.8 	"/>
	<polygon class="st1" points="49.8,319.6 16.6,319.6 8.2,324.9 42.7,324.9 	"/>
	<polygon class="st1" points="58.3,313.3 26.5,313.3 18.9,318.1 51.9,318.1 	"/>
	<polygon class="st1" points="78.3,326.4 43.2,326.4 35.2,332.3 71.7,332.3 	"/>
	<polygon class="st1" points="96.4,350.9 89,359.4 132.5,359.4 137.9,350.9 	"/>
	<polygon class="st1" points="61,341.9 22.1,341.9 12,349.4 52.6,349.4 	"/>
	<polygon class="st1" points="53.2,350.9 43.7,359.4 87,359.4 94.4,350.9 	"/>
	<polygon class="st1" points="70.1,333.8 33.1,333.8 24.1,340.4 62.6,340.4 	"/>
	<polygon class="st1" points="41.2,302.3 12.3,302.3 5.4,306.1 35.1,306.1 	"/>
	<polygon class="st1" points="139.7,350.9 134.2,359.4 177.9,359.4 181.4,350.9 	"/>
	<polygon class="st1" points="48.2,280.9 24.7,280.9 20.2,283.1 44.2,283.1 	"/>
	<polygon class="st1" points="35.2,274.2 13.6,274.2 9.6,276 31.6,276 	"/>
	<polygon class="st1" points="41.4,284.6 17.1,284.6 12,287.1 36.9,287.1 	"/>
	<polygon class="st1" points="34.2,288.6 8.9,288.6 3.2,291.4 29.2,291.4 	"/>
	<polygon class="st1" points="49,297.4 21.2,297.4 15,300.8 43.6,300.8 	"/>
	<polygon class="st1" points="56.2,292.9 29.6,292.9 24,295.9 51.3,295.9 	"/>
	<polygon class="st1" points="18.7,254.3 34.9,254.3 36.5,253.7 20.4,253.7 	"/>
	<polygon class="st1" points="412.2,246.5 427.3,246.5 426.8,246.2 411.7,246.2 	"/>
	<polygon class="st1" points="421.8,262.9 423.7,264 443.3,264 441.1,262.9 	"/>
	<polygon class="st1" points="426.7,244.5 427.1,244.7 441.5,244.7 441.1,244.5 	"/>
	<polygon class="st1" points="355.6,246.2 355.9,246.5 372,246.5 371.6,246.2 	"/>
	<polygon class="st1" points="431,246.5 445.8,246.5 445.2,246.2 430.4,246.2 	"/>
	<polygon class="st1" points="371.8,244.5 372.1,244.7 387.4,244.7 387.1,244.5 	"/>
	<polygon class="st1" points="390.1,244.5 390.4,244.7 405.5,244.7 405.1,244.5 	"/>
	<polygon class="st1" points="374.3,246.2 374.7,246.5 390.4,246.5 390,246.2 	"/>
	<polygon class="st1" points="445,244.5 445.5,244.7 459.5,244.7 459.1,244.5 	"/>
	<polygon class="st1" points="435,258.1 436.7,258.9 454.7,258.9 452.9,258.1 	"/>
	<polygon class="st1" points="463.6,246.2 449.1,246.2 449.7,246.5 464.2,246.5 	"/>
	<polygon class="st1" points="430.6,255.8 432.1,256.6 449.6,256.6 448,255.8 	"/>
	<polygon class="st1" points="458,260.4 439.6,260.4 441.5,261.4 460.2,261.4 	"/>
	<polygon class="st1" points="463.5,253.7 447,253.7 448.3,254.3 465,254.3 	"/>
	<polygon class="st1" points="434.3,248 435,248.3 450.3,248.3 449.5,248 	"/>
	<polygon class="st1" points="438.3,249.8 439.2,250.2 455,250.2 453.9,249.8 	"/>
	<polygon class="st1" points="442.5,251.7 443.7,252.2 459.9,252.2 458.6,251.7 	"/>
	<polygon class="st1" points="408.4,244.5 408.8,244.7 423.5,244.7 423.1,244.5 	"/>
	<polygon class="st1" points="262.5,248 262.5,248.3 280.1,248.3 280,248 	"/>
	<polygon class="st1" points="262.7,250.2 280.6,250.2 280.5,249.8 262.6,249.8 	"/>
	<polygon class="st1" points="280.5,244.5 280.5,244.7 297.1,244.7 297,244.5 	"/>
	<polygon class="st1" points="281,246.2 281.1,246.5 298,246.5 297.9,246.2 	"/>
	<polygon class="st1" points="221.2,256.6 240.6,256.6 240.7,255.8 221.5,255.8 	"/>
	<polygon class="st1" points="281.6,248.3 299,248.3 298.8,248 281.5,248 	"/>
	<polygon class="st1" points="240.2,268.2 239.9,269.6 262.5,269.6 262.4,268.2 	"/>
	<polygon class="st1" points="240.6,265.5 240.4,266.7 262.3,266.7 262.2,265.5 	"/>
	<polygon class="st1" points="318.3,246.2 318.4,246.5 335,246.5 334.8,246.2 	"/>
	<polygon class="st1" points="335.2,244.5 335.4,244.7 351.3,244.7 351.1,244.5 	"/>
	<polygon class="st1" points="319.9,248.3 336.9,248.3 336.6,248 319.6,248 	"/>
	<polygon class="st1" points="298.7,244.5 298.8,244.7 315.2,244.7 315,244.5 	"/>
	<polygon class="st1" points="353.5,244.5 353.7,244.7 369.4,244.7 369.1,244.5 	"/>
	<polygon class="st1" points="336.9,246.2 337.2,246.5 353.5,246.5 353.2,246.2 	"/>
	<polygon class="st1" points="299.6,246.2 299.7,246.5 316.5,246.5 316.3,246.2 	"/>
	<polygon class="st1" points="300.7,248.3 318,248.3 317.7,248 300.6,248 	"/>
	<polygon class="st1" points="316.9,244.5 317.1,244.7 333.3,244.7 333.1,244.5 	"/>
	<polygon class="st1" points="409.4,319.6 375.5,319.6 379.6,324.9 414.8,324.9 	"/>
	<polygon class="st1" points="105.6,340.4 144.6,340.4 148.9,333.8 111.5,333.8 	"/>
	<polygon class="st1" points="149.9,332.3 153.7,326.4 118,326.4 112.8,332.3 	"/>
	<polygon class="st1" points="82.3,324.9 117.3,324.9 122,319.6 88.2,319.6 	"/>
	<polygon class="st1" points="89.8,318.1 123.3,318.1 127.4,313.3 95.1,313.3 	"/>
	<polygon class="st1" points="188.3,333.8 150.7,333.8 146.4,340.4 185.6,340.4 	"/>
	<polygon class="st1" points="267,333.8 229.2,333.8 228.1,340.4 267.4,340.4 	"/>
	<polygon class="st1" points="228.9,326.4 192.9,326.4 190.5,332.3 227.9,332.3 	"/>
	<polygon class="st1" points="191.3,326.4 155.5,326.4 151.7,332.3 188.9,332.3 	"/>
	<polygon class="st1" points="128.8,311.8 132.5,307.6 101.5,307.6 96.8,311.8 	"/>
	<polygon class="st1" points="68.2,287.1 93.7,287.1 97.1,284.6 72.1,284.6 	"/>
	<polygon class="st1" points="99.1,283.1 102.1,280.9 78,280.9 74.5,283.1 	"/>
	<polygon class="st1" points="70.6,306.1 100.9,306.1 105.2,302.3 75.7,302.3 	"/>
	<polygon class="st1" points="83.1,276 85.9,274.2 63.7,274.2 60.5,276 	"/>
	<polygon class="st1" points="54.1,279.4 77.6,279.4 80.7,277.5 57.7,277.5 	"/>
	<polygon class="st1" points="77.7,300.8 106.8,300.8 110.6,297.4 82.3,297.4 	"/>
	<polygon class="st1" points="61.4,291.4 88,291.4 91.7,288.6 65.8,288.6 	"/>
	<polygon class="st1" points="112.3,295.9 115.7,292.9 88.5,292.9 84.4,295.9 	"/>
	<polygon class="st1" points="423.6,302.3 394,302.3 397.9,306.1 428.4,306.1 	"/>
	<polygon class="st1" points="399.2,280.9 402,283.1 426.7,283.1 423.4,280.9 	"/>
	<polygon class="st1" points="384.4,292.9 387.5,295.9 415.6,295.9 411.7,292.9 	"/>
	<polygon class="st1" points="434.9,288.6 408.8,288.6 412.3,291.4 439,291.4 	"/>
	<polygon class="st1" points="444,277.5 420.9,277.5 423.9,279.4 447.5,279.4 	"/>
	<polygon class="st1" points="403.8,284.6 406.9,287.1 432.6,287.1 429,284.6 	"/>
	<polygon class="st1" points="416,274.2 418.7,276 441.4,276 438.4,274.2 	"/>
	<polygon class="st1" points="451.6,268.2 431,268.2 433.5,269.6 454.4,269.6 	"/>
	<polygon class="st1" points="411.4,271.1 413.8,272.7 435.8,272.7 433.1,271.1 	"/>
	<polygon class="st1" points="241.1,253.7 222.3,253.7 222.1,254.3 241,254.3 	"/>
	<polygon class="st1" points="377.7,324.9 373.6,319.6 339.5,319.6 342.4,324.9 	"/>
	<polygon class="st1" points="300,313.3 267.1,313.3 267.4,318.1 301.4,318.1 	"/>
	<polygon class="st1" points="340.6,324.9 337.8,319.6 303.5,319.6 305.1,324.9 	"/>
	<polygon class="st1" points="303.5,324.9 301.9,319.6 267.5,319.6 267.9,324.9 	"/>
	<polygon class="st1" points="426.3,265.5 428.4,266.7 448.7,266.7 446.2,265.5 	"/>
	<polygon class="st1" points="389,297.4 392.5,300.8 421.7,300.8 417.5,297.4 	"/>
	<polygon class="st1" points="366.2,307.6 369.5,311.8 401.6,311.8 397.3,307.6 	"/>
	<polygon class="st1" points="370.7,313.3 374.4,318.1 407.9,318.1 403.1,313.3 	"/>
	<polygon class="st1" points="58.6,262.9 39.7,262.9 37.2,264 56.3,264 	"/>
	<polygon class="st1" points="45.2,324.9 80,324.9 85.9,319.6 52.4,319.6 	"/>
	<polygon class="st1" points="110.8,332.3 116,326.4 80.6,326.4 74,332.3 	"/>
	<polygon class="st1" points="54.4,318.1 87.6,318.1 92.9,313.3 60.8,313.3 	"/>
	<polygon class="st1" points="185,341.9 145.5,341.9 140.6,349.4 182,349.4 	"/>
	<polygon class="st1" points="64.9,340.4 103.6,340.4 109.5,333.8 72.3,333.8 	"/>
	<polygon class="st1" points="143.7,341.9 104.3,341.9 97.7,349.4 138.9,349.4 	"/>
	<polygon class="st1" points="54.8,349.4 95.7,349.4 102.3,341.9 63.2,341.9 	"/>
	<polygon class="st1" points="38,306.1 68,306.1 73.2,302.3 44,302.3 	"/>
	<polygon class="st1" points="94.5,311.8 99.3,307.6 68.5,307.6 62.8,311.8 	"/>
	<polygon class="st1" points="57.3,276 60.6,274.2 38.7,274.2 35,276 	"/>
	<polygon class="st1" points="27.8,279.4 51,279.4 54.6,277.5 31.9,277.5 	"/>
	<polygon class="st1" points="71.7,283.1 75.2,280.9 51.4,280.9 47.3,283.1 	"/>
	<polygon class="st1" points="17.1,272.7 38.3,272.7 41.6,271.1 20.7,271.1 	"/>
	<polygon class="st1" points="46.4,300.8 75.2,300.8 79.8,297.4 51.8,297.4 	"/>
	<polygon class="st1" points="40.1,287.1 65.3,287.1 69.3,284.6 44.6,284.6 	"/>
	<polygon class="st1" points="81.8,295.9 86,292.9 59,292.9 54.2,295.9 	"/>
	<polygon class="st1" points="32.3,291.4 58.6,291.4 63,288.6 37.3,288.6 	"/>
	<polygon class="st1" points="241.4,251.7 223.1,251.7 222.9,252.2 241.3,252.2 	"/>
	<polygon class="st1" points="445.3,319.6 411.6,319.6 417,324.9 451.9,324.9 	"/>
	<polygon class="st1" points="399.4,307.6 403.7,311.8 435.6,311.8 430.3,307.6 	"/>
	<polygon class="st1" points="405.2,313.3 410.1,318.1 443.4,318.1 437.4,313.3 	"/>
	<polygon class="st1" points="386.6,333.8 391.8,340.4 430.7,340.4 423.9,333.8 	"/>
	<polygon class="st1" points="380.8,326.4 385.4,332.3 422.4,332.3 416.3,326.4 	"/>
	<polygon class="st1" points="226.3,341.9 186.6,341.9 183.6,349.4 225,349.4 	"/>
	<polygon class="st1" points="419.9,297.4 424.1,300.8 453.1,300.8 448,297.4 	"/>
	<polygon class="st1" points="455.3,302.3 426,302.3 430.8,306.1 461,306.1 	"/>
	<polygon class="st1" points="24.2,269.6 44.7,269.6 47.6,268.2 27.4,268.2 	"/>
	<polygon class="st1" points="267.5,341.9 227.8,341.9 226.6,349.4 268.1,349.4 	"/>
	<polygon class="st1" points="305.8,332.3 304,326.4 268,326.4 268.4,332.3 	"/>
	<polygon class="st1" points="344.7,332.3 341.5,326.4 305.6,326.4 307.4,332.3 	"/>
	<polygon class="st1" points="227.7,333.8 189.9,333.8 187.2,340.4 226.5,340.4 	"/>
	<polygon class="st1" points="439.8,349.4 432.2,341.9 393,341.9 398.8,349.4 	"/>
	<polygon class="st1" points="349.1,340.4 345.5,333.8 307.8,333.8 309.9,340.4 	"/>
	<polygon class="st1" points="396.9,349.4 391.1,341.9 351.6,341.9 355.7,349.4 	"/>
	<polygon class="st1" points="354,349.4 349.9,341.9 310.3,341.9 312.6,349.4 	"/>
	<polygon class="st1" points="52.1,255.8 35.2,255.8 33.4,256.6 50.4,256.6 	"/>
	<polygon class="st1" points="135.6,244.7 151.1,244.7 151.4,244.5 135.9,244.5 	"/>
	<polygon class="st1" points="132.8,246.5 148.7,246.5 149.1,246.2 133.2,246.2 	"/>
	<polygon class="st1" points="167.7,248.3 184.6,248.3 184.9,248 168.1,248 	"/>
	<polygon class="st1" points="153.6,244.7 169.4,244.7 169.6,244.5 153.9,244.5 	"/>
	<polygon class="st1" points="151.3,246.5 167.5,246.5 167.8,246.2 151.6,246.2 	"/>
	<polygon class="st1" points="99.5,244.7 114.4,244.7 114.7,244.5 99.9,244.5 	"/>
	<polygon class="st1" points="117.5,244.7 132.8,244.7 133.1,244.5 117.9,244.5 	"/>
	<polygon class="st1" points="30.9,266.7 50.7,266.7 53.2,265.5 33.7,265.5 	"/>
	<polygon class="st1" points="188.2,246.5 204.9,246.5 205.1,246.2 188.4,246.2 	"/>
	<polygon class="st1" points="205.6,248.3 222.9,248.3 223,248 205.8,248 	"/>
	<polygon class="st1" points="206.7,246.5 223.6,246.5 223.7,246.2 206.9,246.2 	"/>
	<polygon class="st1" points="207.9,244.7 224.3,244.7 224.4,244.5 208,244.5 	"/>
	<polygon class="st1" points="169.7,246.5 186.2,246.5 186.4,246.2 170,246.2 	"/>
	<polygon class="st1" points="189.8,244.7 206.1,244.7 206.2,244.5 189.9,244.5 	"/>
	<polygon class="st1" points="95.9,246.5 111.2,246.5 111.7,246.2 96.4,246.2 	"/>
	<polygon class="st1" points="171.7,244.7 187.8,244.7 187.9,244.5 171.9,244.5 	"/>
	<polygon class="st1" points="186.6,248.3 203.8,248.3 204,248 186.9,248 	"/>
	<polygon class="st1" points="114.3,246.5 130,246.5 130.4,246.2 114.8,246.2 	"/>
	<polygon class="st1" points="24.6,252.2 40.3,252.2 41.6,251.7 26,251.7 	"/>
	<polygon class="st1" points="414.1,292.9 418,295.9 445.8,295.9 441.2,292.9 	"/>
	<polygon class="st1" points="46.4,249.8 31.3,249.8 30.1,250.2 45.4,250.2 	"/>
	<polygon class="st1" points="16.6,248.3 31,248.3 32,248 17.6,248 	"/>
	<polygon class="st1" points="81.5,244.7 96.1,244.7 96.4,244.5 81.9,244.5 	"/>
	<polygon class="st1" points="463.3,288.6 437.6,288.6 441.7,291.4 468.1,291.4 	"/>
	<polygon class="st1" points="22.1,246.5 36.1,246.5 36.8,246.2 22.9,246.2 	"/>
	<polygon class="st1" points="27.4,258.9 45.1,258.9 47,258.1 29.6,258.1 	"/>
	<polygon class="st1" points="21.2,261.4 39.4,261.4 41.6,260.4 23.6,260.4 	"/>
	<polygon class="st1" points="59,246.5 73.7,246.5 74.3,246.2 59.6,246.2 	"/>
	<polygon class="st1" points="63.4,244.7 77.7,244.7 78.1,244.5 63.9,244.5 	"/>
	<polygon class="st1" points="27.4,244.7 41,244.7 41.5,244.5 27.9,244.5 	"/>
	<polygon class="st1" points="77.4,246.5 92.5,246.5 93,246.2 78,246.2 	"/>
	<polygon class="st1" points="40.6,246.5 54.9,246.5 55.5,246.2 41.3,246.2 	"/>
	<polygon class="st1" points="45.4,244.7 59.4,244.7 59.8,244.5 45.9,244.5 	"/>
	<linearGradient id="SVGID_2_" gradientUnits="userSpaceOnUse" x1="250" y1="360.9248" x2="250" y2="238.4062">
		<stop  offset="0" style="stop-color:#7F7DC1"/>
		<stop  offset="0.5604" style="stop-color:#7F7DC1;stop-opacity:0.5"/>
		<stop  offset="0.9408" style="stop-color:#7F7DC1;stop-opacity:6.735900e-02"/>
		<stop  offset="1" style="stop-color:#7F7DC1;stop-opacity:0"/>
	</linearGradient>
	<path class="st2" d="M497.7,238.4l-0.1,0H0v1.5v0v0.8v0.7v0v0.8v0.7h10.1L9.7,243H0v1.5h4.8l-0.6,0.2H0v1.3v0.2v0.3v1.1v0.4h12.8
		l-1,0.3H0v1.5h7.3L6,250.2H0v1.5h1.5L0,252.2v0v1.5v0.1l0.2-0.1H16l-1.7,0.6H0v1.5h10.1l-2,0.7H0v1.5h3.9l-2.3,0.8H0v0.6v0.9v0.7
		l1.9-0.7h17.7l-2.4,1H0v1.5h13.3l-2.8,1.1H0v1.5h6.7l-3.2,1.2H0v1.4v0.1v1.4v0.1v1.4h17l-3.6,1.6H0v1.5h9.9L5.8,276H0v1.5h2.4
		l-2.4,1v1v0.7v0.8h21.3l-4.6,2.2H0v1.5h13.6l-5.1,2.5H0v1.5h5.4L0,291.2v0.1v1.5v0.1l0.1-0.1h26.3l-5.6,3.1H0v1.5h18.1l-6.2,3.4H0
		v1.5h9.2l-6.9,3.8H0v1.2v0.3v1.4l2.6-1.4h30.1l-6.7,4.2H0v1.5h23.6l-7.5,4.7H0v1.5h13.7l-8.4,5.3H0v1.5h3l-3,1.9v1.8l5.8-3.6h34.9
		l-8,5.9H0v1.5h30.6l-9,6.7H0v1.5h19.6l-10.2,7.5H0v1.5h7.4L0,356.4v1.9l9.9-7.3h41l-9.5,8.5H0v1.5h500v-1.5h-2.3l-10.7-8.5h13v-1.5
		h-14.9l-9.4-7.5H500v-1.5h-26.2l-8.4-6.7H500v-1.5h-36.4l-7.4-5.9h35l8.8,5.9v-1.8l-6.1-4.1h6.1v-1.5h-8.4l-7.9-5.3H500v-1.5h-18.5
		l-7-4.7H500v-1.5h-27.8l-6.3-4.2h30.3l3.8,2.2v-1.7l-0.8-0.5h0.8v-1.5h-3.4l-6.6-3.8h10v-1.5h-12.6l-5.9-3.4H500v-1.5h-21.1
		l-5.3-3.1H500v-0.1v-1.4v-0.2l-4.9-2.5h4.9v-1.5h-7.9l-4.8-2.5H500v-1.5h-15.7l-4.3-2.2h20v-1.5v0v-1.6l-0.7-0.3h0.7V276h-4
		l-3.9-1.8h7.9v-1.5h-11.2l-3.5-1.6H500v-1.5h-18l-3.1-1.4h20l1.2,0.5v-0.5v-1.1v-0.4h-0.9l-3-1.2h3.9V264h-7.6l-2.7-1.1H500v-1.5
		h-13.9l-2.3-1H500v-0.6v-0.9v-0.7l-0.4-0.2h0.4v-1.5h-4.4l-1.9-0.7h6.4v-1.5h-10.4l-1.6-0.6h12v-1.3v-0.2v-0.5v-0.9v-0.6h-1.8
		l-1.2-0.4h3v-1.5h-7.4l-1-0.3h8.3v-1.5h-12.7l-0.7-0.3H500v-0.1v-1.4v-0.2v0V243h-4.7l-0.3-0.1h5.1v-1.5h-9.8l-0.1,0h9.9v-0.7v-0.8
		v-0.8L497.7,238.4z M485.1,241.4l0.1,0h-12.6l-0.1,0H485.1z M472.7,243h-13.3l-0.3-0.1h13.3L472.7,243z M242,248l-0.1,0.3h-17.5
		l0.1-0.3H242z M225.3,246.5l0.1-0.3h17l0,0.3H225.3z M241.7,249.8l-0.1,0.4h-17.9l0.2-0.4H241.7z M346.4,332.3l-3.2-5.9h35.7
		l4.6,5.9H346.4z M384.7,333.8l5.2,6.7h-39.1l-3.6-6.7H384.7z M50.5,249.8H66l-1,0.4H49.5L50.5,249.8z M35.5,248.3l0.9-0.3h14.7
		l-0.8,0.3H35.5z M221.5,251.7l-0.2,0.5H203l0.3-0.5H221.5z M204.3,250.2l0.3-0.4h17.7l-0.2,0.4H204.3z M220.7,253.7l-0.2,0.6h-18.8
		l0.4-0.6H220.7z M329.3,300.8l-1.9-3.4h28.9l2.7,3.4H329.3z M360.2,302.3l3,3.8h-30.9l-2.1-3.8H360.2z M129.1,262.9h20.1L148,264
		h-20.4L129.1,262.9z M109.1,261.4l1.5-1h19.2l-1.3,1H109.1z M194.4,262.9l-0.7,1.1h-20.9l1-1.1H194.4z M175.1,261.4l0.8-1h20
		l-0.6,1H175.1z M351.7,262.9l1.1,1.1h-20.7l-0.9-1.1H351.7z M351.4,260.4H371l1.2,1h-19.9L351.4,260.4z M293.5,287.1l-0.8-2.5h26
		l1.3,2.5H293.5z M320.9,288.6l1.5,2.7h-27.6l-0.8-2.7H320.9z M191,268.2l-0.9,1.4h-22.2l1.2-1.4H191z M170.4,266.7l1.1-1.2h21.2
		l-0.8,1.2H170.4z M289,277.5l0.6,2h-24.9l-0.1-2H289z M288.6,271.1h22.8l0.9,1.6h-23.2L288.6,271.1z M264.8,302.3l0.3,3.8h-31.2
		l0.6-3.8H264.8z M265,283.1l-0.2-2.2h25.2l0.7,2.2H265z M291.2,284.6l0.8,2.5h-26.7l-0.2-2.5H291.2z M291.2,279.4l-0.6-2h24.3
		l1.1,2H291.2z M290.1,276l-0.5-1.8h23.5l1,1.8H290.1z M312.3,269.6l-0.8-1.4h22l1.1,1.4H312.3z M310.7,266.7l-0.7-1.2h21.3l1,1.2
		H310.7z M310.6,269.6h-22.5l-0.4-1.4h22.1L310.6,269.6z M288,274.2l0.5,1.8h-24.1l-0.1-1.8H288z M264.7,300.8h-30l0.6-3.4h29.2
		L264.7,300.8z M207.1,291.4l1.1-2.7h27l-0.5,2.7H207.1z M208.8,287.1l1-2.5h26.1l-0.4,2.5H208.8z M185.6,279.4l1.3-2h24.3l-0.8,2
		H185.6z M210.4,283.1l0.9-2.2h25.2l-0.4,2.2H210.4z M187.8,276l1.1-1.8h23.5l-0.7,1.8H187.8z M188.1,272.7h-22.9l1.4-1.6h22.6
		L188.1,272.7z M168.4,266.7h-21.3l1.4-1.2h21L168.4,266.7z M167.1,268.2l-1.2,1.4h-22l1.6-1.4H167.1z M164.6,271.1l-1.4,1.6h-22.7
		l1.8-1.6H164.6z M163.9,274.2h23.3L186,276h-23.7L163.9,274.2z M185.1,277.5l-1.3,2h-24.5l1.7-2H185.1z M184.6,280.9h25.1l-0.9,2.2
		h-25.6L184.6,280.9z M208.2,284.6l-1,2.5h-26.5l1.6-2.5H208.2z M206.6,288.6l-1.1,2.7h-27.6l1.8-2.7H206.6z M206.5,292.9h28
		l-0.5,3.1h-28.8L206.5,292.9z M233.8,297.4l-0.6,3.4h-29.9l1.4-3.4H233.8z M232.9,302.3l-0.6,3.8h-31.2l1.5-3.8H232.9z
		 M233.6,307.6h31.6l0.3,4.2h-32.6L233.6,307.6z M265.3,288.6h27.1l0.8,2.7h-27.7L265.3,288.6z M292.3,283.1l-0.7-2.2h25.1l1.2,2.2
		H292.3z M317.7,279.4l-1.1-2h24.2l1.5,2H317.7z M315.8,276l-1-1.8h23.4l1.4,1.8H315.8z M314,272.7l-0.9-1.6h22.6l1.2,1.6H314z
		 M336.5,269.6l-1.1-1.4h21.7l1.4,1.4H336.5z M334.2,266.7l-1-1.2h21.1l1.3,1.2H334.2z M330.1,261.4l-0.8-1h19.9l1,1H330.1z
		 M329.3,262.9l0.9,1.1h-21l-0.6-1.1H329.3z M307.8,261.4l-0.5-1h20.1l0.8,1H307.8z M308.4,265.5l0.7,1.2h-21.8l-0.4-1.2H308.4z
		 M287,271.1l0.5,1.6h-23.3l-0.1-1.6H287z M264.1,292.9l0.2,3.1h-28.8l0.5-3.1H264.1z M236.3,291.4l0.5-2.7h27.1l0.2,2.7H236.3z
		 M211.9,279.4l0.8-2h24.4l-0.3,2H211.9z M189.9,272.7l1-1.6h22.8l-0.6,1.6H189.9z M191.9,269.6l0.9-1.4h22.1l-0.6,1.4H191.9z
		 M173.1,261.4h-20l1.1-1H174L173.1,261.4z M171.8,262.9l-1,1.1h-20.6l1.2-1.1H171.8z M150.9,261.4h-19.8l1.3-1h19.5L150.9,261.4z
		 M146.3,265.5l-1.4,1.2h-21l1.7-1.2H146.3z M143.2,268.2l-1.6,1.4H120l1.9-1.4H143.2z M140,271.1l-1.8,1.6h-22.4l2.1-1.6H140z
		 M138.8,274.2h23.1l-1.6,1.8h-23.5L138.8,274.2z M159,277.5l-1.7,2h-24.3l2.2-2H159z M157.9,280.9h24.9l-1.4,2.2H156L157.9,280.9z
		 M180.4,284.6l-1.6,2.5h-26.4l2.2-2.5H180.4z M177.9,288.6l-1.8,2.7h-27.4l2.4-2.7H177.9z M177,292.9h27.9l-1.2,3.1H175L177,292.9z
		 M203,297.4l-1.4,3.4h-29.8l2.2-3.4H203z M201,302.3l-1.5,3.8h-31.1l2.4-3.8H201z M200.5,307.6H232l-0.7,4.2h-32.5L200.5,307.6z
		 M232.6,313.3h33l0.3,4.7h-34.1L232.6,313.3z M265.9,295.9l-0.2-3.1h28.1l0.9,3.1H265.9z M295.1,297.4l1,3.4h-30l-0.2-3.4H295.1z
		 M295.3,292.9h28l1.7,3.1h-28.7L295.3,292.9z M324.1,291.4l-1.5-2.7h26.8l2.1,2.7H324.1z M321.8,287.1l-1.3-2.5h25.9l1.9,2.5H321.8
		z M319.7,283.1l-1.2-2.2h25l1.7,2.2H319.7z M344.2,279.4l-1.5-2h23.9l2,2H344.2z M341.5,276l-1.4-1.8h23.2l1.8,1.8H341.5z
		 M338.9,272.7l-1.2-1.6h22.4l1.6,1.6H338.9z M360.7,269.6l-1.4-1.4h21.5l1.8,1.4H360.7z M357.8,266.7l-1.3-1.2h20.8l1.6,1.2H357.8z
		 M355,264l-1.1-1.1h20.2l1.4,1.1H355z M374.6,261.4l-1.2-1h19.4l1.4,1H374.6z M371.5,258.9l-1-0.8h18.8l1.2,0.8H371.5z
		 M368.6,256.6l-0.9-0.7H386l1.1,0.7H368.6z M368.1,258.1l1,0.8h-19.3l-0.9-0.8H368.1z M347.5,256.6l-0.7-0.7h18.6l0.9,0.7H347.5z
		 M346.8,258.1l0.9,0.8h-19.5l-0.7-0.8H346.8z M326.3,256.6l-0.6-0.7h18.8l0.7,0.7H326.3z M326.3,258.9h-19.8l-0.5-0.8h19.6
		L326.3,258.9z M306.9,262.9l0.6,1.1h-21.1l-0.3-1.1H306.9z M286.2,268.2l0.4,1.4H264l-0.1-1.4H286.2z M263.8,266.7l-0.1-1.2h21.6
		l0.4,1.2H263.8z M263.6,264l-0.1-1.1h21l0.3,1.1H263.6z M263.6,284.6l0.2,2.5H237l0.4-2.5H263.6z M237.4,276h-24l0.7-1.8h23.6
		L237.4,276z M214.6,272.7l0.6-1.6h22.9l-0.3,1.6H214.6z M193.7,266.7l0.8-1.2H216l-0.5,1.2H193.7z M195.5,264l0.7-1.1H217l-0.4,1.1
		H195.5z M197.2,261.4l0.6-1H218l-0.4,1H197.2z M179.3,256.6l0.6-0.7h18.9l-0.5,0.7H179.3z M197.5,258.1l-0.5,0.8h-19.7l0.7-0.8
		H197.5z M177.4,256.6h-18.9l0.8-0.7H178L177.4,256.6z M176,258.1l-0.7,0.8h-19.4l0.9-0.8H176z M156.2,256.6h-18.6l1-0.7H157
		L156.2,256.6z M154.5,258.1l-0.9,0.8h-19.2l1.1-0.8H154.5z M135.1,256.6h-18.3l1.1-0.7h18.2L135.1,256.6z M133.1,258.1l-1.1,0.8
		H113l1.3-0.8H133.1z M113.9,256.6h-18l1.3-0.7h17.9L113.9,256.6z M111.5,258.1l-1.3,0.8H91.6l1.5-0.8H111.5z M107.8,260.4l-1.5,1
		H87.1l1.8-1H107.8z M106.7,262.9h19.8l-1.5,1.1H105L106.7,262.9z M123,265.5l-1.7,1.2h-20.7l2-1.2H123z M119.3,268.2l-1.9,1.4H96
		l2.2-1.4H119.3z M115.4,271.1l-2.1,1.6H91.1l2.5-1.6H115.4z M113.8,274.2h22.8l-2,1.8h-23.2L113.8,274.2z M132.9,277.5l-2.2,2h-24
		l2.7-2H132.9z M131.3,280.9h24.7l-1.9,2.2h-25.2L131.3,280.9z M152.7,284.6l-2.2,2.5h-26.1l2.8-2.5H152.7z M149.2,288.6l-2.4,2.7
		h-27.1l3.1-2.7H149.2z M147.4,292.9h27.7l-2,3.1h-28.4L147.4,292.9z M172.2,297.4l-2.2,3.4h-29.6l3-3.4H172.2z M169.1,302.3
		l-2.4,3.8h-30.9l3.3-3.8H169.1z M167.5,307.6h31.4l-1.7,4.2h-32.4L167.5,307.6z M196.6,313.3l-1.9,4.7h-33.9l3-4.7H196.6z
		 M198.2,313.3h32.9l-0.8,4.7h-34L198.2,313.3z M231.6,319.6H266l0.4,5.3h-35.7L231.6,319.6z M266.3,302.3h30.3l1.2,3.8h-31.2
		L266.3,302.3z M297.7,300.8l-1-3.4h29.1l1.9,3.4H297.7z M326.6,295.9l-1.7-3.1h27.8l2.4,3.1H326.6z M351.4,288.6h26.6l2.8,2.7
		h-27.2L351.4,288.6z M350.2,287.1l-1.9-2.5h25.6l2.5,2.5H350.2z M347.1,283.1l-1.7-2.2h24.8l2.2,2.2H347.1z M368.7,277.5h23.7
		l2.5,2h-24.2L368.7,277.5z M367.2,276l-1.8-1.8h22.9l2.2,1.8H367.2z M363.9,272.7l-1.6-1.6h22.2l2,1.6H363.9z M385,269.6l-1.8-1.4
		h21.2l2.1,1.4H385z M381.3,266.7l-1.6-1.2h20.6l1.9,1.2H381.3z M377.9,264l-1.4-1.1h19.9l1.6,1.1H377.9z M396.9,261.4l-1.4-1h19.1
		l1.7,1H396.9z M393.2,258.9l-1.2-0.8h18.5l1.4,0.8H393.2z M389.7,256.6l-1.1-0.7h18l1.2,0.7H389.7z M407.1,254.3l-1.1-0.6h17.2
		l1.2,0.6H407.1z M403.4,252.2l-0.9-0.5h16.7l1,0.5H403.4z M403,253.7l1.1,0.6h-17.6l-0.9-0.6H403z M383.3,252.2l-0.8-0.5h17
		l0.9,0.5H383.3z M382.8,253.7l0.9,0.6h-17.9l-0.8-0.6H382.8z M363.2,252.2l-0.6-0.5h17.3l0.8,0.5H363.2z M362.6,253.7l0.8,0.6
		h-18.2l-0.6-0.6H362.6z M343,252.2l-0.5-0.5h17.6l0.6,0.5H343z M343.1,254.3h-18.5l-0.5-0.6h18.3L343.1,254.3z M322.9,252.2
		l-0.4-0.5h17.8l0.5,0.5H322.9z M323.9,255.8l0.6,0.7h-19.2l-0.4-0.7H323.9z M305.6,260.4l0.5,1h-20.5l-0.3-1H305.6z M284.9,258.9
		l-0.3-0.8h19.7l0.5,0.8H284.9z M284.2,256.6l-0.2-0.7h19.2l0.4,0.7H284.2z M284.1,261.4h-20.6l-0.1-1h20.4L284.1,261.4z
		 M263.3,258.9l-0.1-0.8H283l0.3,0.8H263.3z M263.3,280.9l0.2,2.2h-25.8l0.4-2.2H263.3z M238.3,279.4l0.3-2h24.4l0.1,2H238.3z
		 M238.4,269.6h-22.5l0.6-1.4h22.2L238.4,269.6z M217.1,266.7l0.5-1.2h21.5l-0.2,1.2H217.1z M218.2,264l0.4-1.1h20.9l-0.2,1.1H218.2
		z M218.6,258.9h-19.9l0.5-0.8h19.7L218.6,258.9z M200.2,256.6l0.5-0.7h19.1l-0.3,0.7H200.2z M199.9,254.3h-18.6l0.5-0.6h18.4
		L199.9,254.3z M181.2,252.2h-17.9l0.6-0.5h17.7L181.2,252.2z M179.8,253.7l-0.5,0.6h-18.4l0.7-0.6H179.8z M161.1,252.2h-17.6
		l0.7-0.5h17.5L161.1,252.2z M159.4,253.7l-0.7,0.6h-18.1l0.8-0.6H159.4z M140.9,252.2h-17.3l0.8-0.5h17.2L140.9,252.2z
		 M138.9,253.7l-0.8,0.6h-17.8l1-0.6H138.9z M120.8,252.2h-17l0.9-0.5h16.9L120.8,252.2z M118.4,253.7l-1,0.6H100l1.1-0.6H118.4z
		 M100.7,252.2H84l1.1-0.5h16.6L100.7,252.2z M97.9,253.7l-1.1,0.6H79.6l1.3-0.6H97.9z M80.6,252.2H64.2l1.2-0.5h16.3L80.6,252.2z
		 M77.5,253.7l-1.3,0.6H59.3l1.4-0.6H77.5z M76.5,255.8h17.6l-1.3,0.7H75L76.5,255.8z M90,258.1l-1.5,0.8H70.2l1.7-0.8H90z
		 M85.8,260.4l-1.8,1H65.1l2-1H85.8z M84.4,262.9h19.5l-1.7,1.1H82.4L84.4,262.9z M99.8,265.5l-2,1.2H77.4l2.3-1.2H99.8z
		 M95.4,268.2l-2.2,1.4H72.1l2.6-1.4H95.4z M90.8,271.1l-2.5,1.6H66.4l2.9-1.6H90.8z M88.7,274.2h22.5l-2.4,1.8H85.9L88.7,274.2z
		 M106.8,277.5l-2.7,2H80.4l3.2-2H106.8z M104.6,280.9H129l-2.5,2.2h-24.9L104.6,280.9z M124.9,284.6l-2.8,2.5H96.3l3.3-2.5H124.9z
		 M120.5,288.6l-3.1,2.7H90.5l3.7-2.7H120.5z M118,292.9h27.5l-2.7,3.1h-28.2L118,292.9z M141.4,297.4l-3,3.4h-29.4l3.8-3.4H141.4z
		 M137.1,302.3l-3.3,3.8h-30.6l4.2-3.8H137.1z M134.5,307.6h31.2l-2.7,4.2h-32.2L134.5,307.6z M162,313.3l-3,4.7h-33.7l4.2-4.7H162z
		 M158,319.6l-3.4,5.3h-35.3l4.6-5.3H158z M159.8,319.6h34.2l-2.1,5.3h-35.5L159.8,319.6z M195.7,319.6H230l-0.9,5.3h-35.6
		L195.7,319.6z M230.4,326.4h36l0.4,5.9h-37.4L230.4,326.4z M266.7,307.6h31.6l1.3,4.2H267L266.7,307.6z M299.3,306.1l-1.2-3.8h30.2
		l2.1,3.8H299.3z M331.3,307.6l2.3,4.2h-32.5l-1.3-4.2H331.3z M334.4,313.3l2.6,4.7H303l-1.4-4.7H334.4z M336.1,313.3h32.7l3.7,4.7
		h-33.8L336.1,313.3z M335.3,311.8l-2.3-4.2h31.3l3.3,4.2H335.3z M362.1,302.3h29.8l3.9,3.8H365L362.1,302.3z M360.9,300.8l-2.7-3.4
		h28.7l3.5,3.4H360.9z M357.1,295.9l-2.4-3.1h27.6l3.1,3.1H357.1z M380.1,288.6h26.3l3.4,2.7h-27L380.1,288.6z M378.6,287.1
		l-2.5-2.5h25.4l3.1,2.5H378.6z M374.5,283.1l-2.2-2.2h24.5l2.8,2.2H374.5z M394.8,277.5h23.4l3,2h-23.9L394.8,277.5z M392.9,276
		l-2.2-1.8h22.6l2.6,1.8H392.9z M388.8,272.7l-2-1.6h21.9l2.4,1.6H388.8z M409.2,269.6l-2.1-1.4H428l2.4,1.4H409.2z M404.9,266.7
		l-1.9-1.2h20.3l2.2,1.2H404.9z M400.8,264l-1.6-1.1h19.7l1.9,1.1H400.8z M419.2,261.4l-1.7-1h18.8l1.9,1H419.2z M414.9,258.9
		l-1.4-0.8h18.2l1.6,0.8H414.9z M410.9,256.6l-1.2-0.7h17.7l1.4,0.7H410.9z M427.7,254.3l-1.2-0.6h16.9l1.4,0.6H427.7z M423.5,252.2
		l-1-0.5h16.4l1.1,0.5H423.5z M419.6,250.2l-0.8-0.4h15.9l0.9,0.4H419.6z M415.8,248.3l-0.7-0.3h15.5l0.7,0.3H415.8z M415.4,249.8
		l0.8,0.4h-16.3l-0.7-0.4H415.4z M396.6,248.3L396,248h15.8l0.7,0.3H396.6z M396.2,249.8l0.7,0.4h-16.7l-0.6-0.4H396.2z
		 M377.4,248.3l-0.5-0.3H393l0.6,0.3H377.4z M377,249.8l0.6,0.4h-16.9l-0.5-0.4H377z M358.2,248.3l-0.4-0.3h16.4l0.5,0.3H358.2z
		 M358.2,250.2H341l-0.4-0.4h17.1L358.2,250.2z M339,248.3l-0.3-0.3h16.7l0.4,0.3H339z M338.9,250.2h-17.5l-0.3-0.4h17.4
		L338.9,250.2z M322.2,253.7l0.5,0.6H304l-0.3-0.6H322.2z M302.9,252.2l-0.3-0.5h18.1l0.4,0.5H302.9z M301.8,250.2l-0.2-0.4h17.6
		l0.3,0.4H301.8z M302,253.7l0.3,0.6h-18.8l-0.2-0.6H302z M282.8,252.2l-0.2-0.5h18.2l0.3,0.5H282.8z M282.2,250.2l-0.1-0.4h17.8
		l0.2,0.4H282.2z M282.4,255.8l0.2,0.7h-19.5l-0.1-0.7H282.4z M263,254.3l0-0.6h18.8l0.2,0.6H263z M262.8,252.2l0-0.5h18.3l0.2,0.5
		H262.8z M262.8,274.2l0.1,1.8h-24.1l0.3-1.8H262.8z M239.4,272.7l0.3-1.6h22.9l0.1,1.6H239.4z M219.2,261.4l0.4-1H240l-0.2,1H219.2
		z M220.2,258.9l0.3-0.8h19.8l-0.1,0.8H220.2z M202.5,250.2h-17.6l0.4-0.4h17.5L202.5,250.2z M201.6,251.7l-0.3,0.5h-18.1l0.5-0.5
		H201.6z M182.9,250.2h-17.4l0.5-0.4h17.3L182.9,250.2z M165.4,248.3h-16.7l0.5-0.3h16.6L165.4,248.3z M163.8,249.8l-0.5,0.4h-17.1
		l0.6-0.4H163.8z M146.3,248.3h-16.4l0.5-0.3h16.3L146.3,248.3z M144.2,249.8l-0.6,0.4h-16.8l0.7-0.4H144.2z M127.1,248.3H111
		l0.6-0.3h16L127.1,248.3z M124.7,249.8l-0.7,0.4h-16.5l0.8-0.4H124.7z M107.9,248.3H92.1l0.7-0.3h15.7L107.9,248.3z M105.1,249.8
		l-0.8,0.4H88.1l0.9-0.4H105.1z M88.7,248.3H73.2L74,248h15.4L88.7,248.3z M85.6,249.8l-0.9,0.4H68.8l1-0.4H85.6z M69.5,248.3H54.3
		l0.8-0.3h15L69.5,248.3z M61.6,251.7l-1.2,0.5h-16l1.3-0.5H61.6z M57,253.7l-1.4,0.6H39l1.6-0.6H57z M55.9,255.8h17.2l-1.5,0.7
		H54.2L55.9,255.8z M68.5,258.1l-1.7,0.8h-18l1.9-0.8H68.5z M63.7,260.4l-2,1H43.2l2.2-1H63.7z M62,262.9h19.2l-2,1.1H59.8L62,262.9
		z M76.5,265.5l-2.3,1.2H54.1l2.6-1.2H76.5z M71.5,268.2l-2.6,1.4H48.1l2.9-1.4H71.5z M66.2,271.1l-2.9,1.6H41.8l3.3-1.6H66.2z
		 M63.7,274.2h22.2l-2.8,1.8H60.5L63.7,274.2z M80.7,277.5l-3.2,2H54.1l3.6-2H80.7z M78,280.9h24.1l-3,2.2H74.5L78,280.9z
		 M97.1,284.6l-3.3,2.5H68.2l3.9-2.5H97.1z M91.7,288.6l-3.7,2.7H61.4l4.4-2.7H91.7z M88.5,292.9h27.2l-3.4,3.1H84.4L88.5,292.9z
		 M110.6,297.4l-3.8,3.4H77.7l4.6-3.4H110.6z M105.2,302.3l-4.2,3.8H70.6l5.1-3.8H105.2z M101.5,307.6h31l-3.7,4.2h-32L101.5,307.6z
		 M127.4,313.3l-4.2,4.7H89.8l5.3-4.7H127.4z M122,319.6l-4.6,5.3H82.3l5.9-5.3H122z M118,326.4h35.7l-3.8,5.9h-37.1L118,326.4z
		 M148.9,333.8l-4.3,6.7h-39l5.8-6.7H148.9z M150.7,333.8h37.6l-2.7,6.7h-39.2L150.7,333.8z M151.7,332.3l3.8-5.9h35.8l-2.4,5.9
		H151.7z M192.9,326.4h36l-1,5.9h-37.4L192.9,326.4z M229.2,333.8H267l0.5,6.7h-39.4L229.2,333.8z M267.4,318.1l-0.3-4.7H300
		l1.4,4.7H267.4z M301.9,319.6l1.6,5.3h-35.7l-0.4-5.3H301.9z M303.5,319.6h34.3l2.9,5.3h-35.6L303.5,319.6z M339.5,319.6h34.1
		l4.1,5.3h-35.4L339.5,319.6z M375.5,319.6h33.9l5.4,5.3h-35.2L375.5,319.6z M374.4,318.1l-3.7-4.7h32.4l4.8,4.7H374.4z
		 M369.5,311.8l-3.3-4.2h31.1l4.3,4.2H369.5z M394,302.3h29.6l4.8,3.8h-30.5L394,302.3z M392.5,300.8l-3.5-3.4h28.4l4.3,3.4H392.5z
		 M387.5,295.9l-3.1-3.1h27.3l3.8,3.1H387.5z M408.8,288.6h26.1l4.1,2.7h-26.7L408.8,288.6z M406.9,287.1l-3.1-2.5H429l3.7,2.5
		H406.9z M402,283.1l-2.8-2.2h24.2l3.3,2.2H402z M420.9,277.5H444l3.4,2h-23.6L420.9,277.5z M418.7,276l-2.6-1.8h22.3l3.1,1.8H418.7
		z M413.8,272.7l-2.4-1.6h21.6l2.7,1.6H413.8z M433.5,269.6l-2.4-1.4h20.6l2.8,1.4H433.5z M428.4,266.7l-2.2-1.2h20l2.4,1.2H428.4z
		 M423.7,264l-1.9-1.1h19.3l2.2,1.1H423.7z M441.5,261.4l-1.9-1H458l2.1,1H441.5z M436.7,258.9l-1.6-0.8h17.9l1.8,0.8H436.7z
		 M432.1,256.6l-1.4-0.7H448l1.6,0.7H432.1z M448.3,254.3l-1.4-0.6h16.5l1.5,0.6H448.3z M443.7,252.2l-1.1-0.5h16.1l1.3,0.5H443.7z
		 M439.2,250.2l-0.9-0.4h15.6l1,0.4H439.2z M435,248.3l-0.7-0.3h15.2l0.8,0.3H435z M449.7,246.5l-0.6-0.3h14.4l0.7,0.3H449.7z
		 M445.5,244.7l-0.4-0.2h14l0.5,0.2H445.5z M445.2,246.2l0.6,0.3H431l-0.6-0.3H445.2z M427.1,244.7l-0.4-0.2h14.4l0.4,0.2H427.1z
		 M426.8,246.2l0.6,0.3h-15.1l-0.5-0.3H426.8z M408.8,244.7l-0.3-0.2h14.7l0.4,0.2H408.8z M408.9,246.5h-15.5l-0.4-0.3h15.4
		L408.9,246.5z M390.4,244.7l-0.3-0.2h15l0.3,0.2H390.4z M390.4,246.5h-15.8l-0.4-0.3H390L390.4,246.5z M372.1,244.7l-0.3-0.2h15.3
		l0.3,0.2H372.1z M372,246.5h-16.1l-0.3-0.3h16L372,246.5z M353.7,244.7l-0.2-0.2h15.6l0.3,0.2H353.7z M353.5,246.5h-16.3l-0.3-0.3
		h16.3L353.5,246.5z M335.4,244.7l-0.2-0.2h15.9l0.2,0.2H335.4z M336.6,248l0.3,0.3h-17l-0.3-0.3H336.6z M318.4,246.5l-0.2-0.3h16.5
		l0.3,0.3H318.4z M317.1,244.7l-0.1-0.2h16.1l0.2,0.2H317.1z M317.7,248l0.3,0.3h-17.2l-0.2-0.3H317.7z M299.7,246.5l-0.1-0.3h16.7
		l0.2,0.3H299.7z M298.8,244.7l-0.1-0.2H315l0.1,0.2H298.8z M298.8,248l0.2,0.3h-17.4l-0.1-0.3H298.8z M281.1,246.5l-0.1-0.3h16.9
		l0.1,0.3H281.1z M280.5,244.7l-0.1-0.2H297l0.1,0.2H280.5z M280.5,249.8l0.1,0.4h-18l0-0.4H280.5z M262.5,248.3l0-0.3H280l0.1,0.3
		H262.5z M262.5,269.6h-22.6l0.2-1.4h22.3L262.5,269.6z M240.4,266.7l0.2-1.2h21.6l0.1,1.2H240.4z M240.6,256.6h-19.4l0.3-0.7h19.3
		L240.6,256.6z M222.1,254.3l0.2-0.6h18.8l-0.1,0.6H222.1z M222.9,252.2l0.2-0.5h18.3l-0.1,0.5H222.9z M224.3,244.7h-16.5l0.1-0.2
		h16.5L224.3,244.7z M223.7,246.2l-0.1,0.3h-16.9l0.2-0.3H223.7z M223,248l-0.1,0.3h-17.3l0.2-0.3H223z M206.1,244.7h-16.3l0.2-0.2
		h16.3L206.1,244.7z M205.1,246.2l-0.2,0.3h-16.7l0.2-0.3H205.1z M204,248l-0.2,0.3h-17.2l0.3-0.3H204z M187.8,244.7h-16.1l0.2-0.2
		h16L187.8,244.7z M186.4,246.2l-0.2,0.3h-16.5l0.3-0.3H186.4z M184.9,248l-0.3,0.3h-16.9l0.4-0.3H184.9z M169.4,244.7h-15.8
		l0.2-0.2h15.8L169.4,244.7z M167.8,246.2l-0.3,0.3h-16.2l0.3-0.3H167.8z M151.1,244.7h-15.5l0.3-0.2h15.5L151.1,244.7z
		 M149.1,246.2l-0.3,0.3h-15.9l0.4-0.3H149.1z M132.8,244.7h-15.2l0.3-0.2h15.2L132.8,244.7z M130.4,246.2l-0.4,0.3h-15.6l0.5-0.3
		H130.4z M114.4,244.7H99.5l0.4-0.2h14.9L114.4,244.7z M111.7,246.2l-0.5,0.3H95.9l0.5-0.3H111.7z M96.1,244.7H81.5l0.4-0.2h14.6
		L96.1,244.7z M93,246.2l-0.5,0.3h-15l0.6-0.3H93z M77.7,244.7H63.4l0.4-0.2h14.2L77.7,244.7z M74.3,246.2l-0.6,0.3H59l0.6-0.3H74.3
		z M59.4,244.7H45.4l0.5-0.2h13.9L59.4,244.7z M55.5,246.2l-0.6,0.3H40.6l0.7-0.3H55.5z M41,244.7H27.4l0.5-0.2h13.6L41,244.7z
		 M36.8,246.2l-0.7,0.3h-14l0.8-0.3H36.8z M32,248l-0.9,0.3H16.6l1-0.3H32z M31.3,249.8h15.1l-1.1,0.4H30.1L31.3,249.8z M41.6,251.7
		l-1.3,0.5H24.6l1.4-0.5H41.6z M36.5,253.7l-1.6,0.6H18.7l1.7-0.6H36.5z M35.2,255.8h16.9l-1.7,0.7H33.4L35.2,255.8z M47,258.1
		l-1.9,0.8H27.4l2.1-0.8H47z M41.6,260.4l-2.2,1H21.2l2.4-1H41.6z M39.7,262.9h18.9l-2.3,1.1H37.2L39.7,262.9z M53.2,265.5l-2.6,1.2
		H30.9l2.9-1.2H53.2z M47.6,268.2l-2.9,1.4H24.2l3.2-1.4H47.6z M41.6,271.1l-3.3,1.6H17.1l3.6-1.6H41.6z M38.7,274.2h21.9l-3.2,1.8
		H35L38.7,274.2z M54.6,277.5l-3.6,2H27.8l4.1-2H54.6z M51.4,280.9h23.8l-3.5,2.2H47.3L51.4,280.9z M69.3,284.6l-3.9,2.5H40.1
		l4.5-2.5H69.3z M63,288.6l-4.4,2.7H32.3l5-2.7H63z M59,292.9H86l-4.1,3.1H54.2L59,292.9z M79.8,297.4l-4.6,3.4H46.4l5.4-3.4H79.8z
		 M73.2,302.3l-5.1,3.8H38l6-3.8H73.2z M68.5,307.6h30.7l-4.7,4.2H62.8L68.5,307.6z M92.9,313.3l-5.3,4.7H54.4l6.4-4.7H92.9z
		 M85.9,319.6l-5.9,5.3H45.2l7.1-5.3H85.9z M80.6,326.4H116l-5.2,5.9H74L80.6,326.4z M109.5,333.8l-5.8,6.7H64.9l7.4-6.7H109.5z
		 M102.3,341.9l-6.6,7.5H54.8l8.4-7.5H102.3z M104.3,341.9h39.4l-4.8,7.5H97.7L104.3,341.9z M145.5,341.9H185l-3,7.5h-41.3
		L145.5,341.9z M186.6,341.9h39.7l-1.3,7.5h-41.5L186.6,341.9z M187.2,340.4l2.7-6.7h37.7l-1.1,6.7H187.2z M227.8,341.9h39.7
		l0.5,7.5h-41.5L227.8,341.9z M268,326.4h36l1.8,5.9h-37.4L268,326.4z M305.6,326.4h35.9l3.2,5.9h-37.3L305.6,326.4z M345.5,333.8
		l3.6,6.7h-39.2l-2-6.7H345.5z M349.9,341.9l4.1,7.5h-41.4l-2.3-7.5H349.9z M351.6,341.9h39.4l5.9,7.5h-41.2L351.6,341.9z
		 M393,341.9h39.2l7.6,7.5h-41L393,341.9z M391.8,340.4l-5.2-6.7h37.3l6.8,6.7H391.8z M385.4,332.3l-4.6-5.9h35.5l6,5.9H385.4z
		 M411.6,319.6h33.7l6.6,5.3H417L411.6,319.6z M410.1,318.1l-4.8-4.7h32.2l5.9,4.7H410.1z M403.7,311.8l-4.3-4.2h30.8l5.3,4.2H403.7
		z M426,302.3h29.3l5.7,3.8h-30.2L426,302.3z M424.1,300.8l-4.3-3.4H448l5.1,3.4H424.1z M418,295.9l-3.8-3.1h27.1l4.6,3.1H418z
		 M437.6,288.6h25.8l4.7,2.7h-26.4L437.6,288.6z M435.3,287.1l-3.7-2.5h24.8l4.3,2.5H435.3z M429.4,283.1l-3.3-2.2h23.9l3.8,2.2
		H429.4z M447,277.5h22.8l3.9,2h-23.3L447,277.5z M444.4,276l-3.1-1.8h22l3.5,1.8H444.4z M438.8,272.7l-2.7-1.6h21.3l3.1,1.6H438.8z
		 M457.7,269.6l-2.8-1.4h20.3l3.1,1.4H457.7z M452,266.7l-2.4-1.2h19.6l2.7,1.2H452z M446.6,264l-2.2-1.1h19l2.4,1.1H446.6z
		 M463.8,261.4l-2.1-1h18.1l2.3,1H463.8z M458.4,258.9l-1.8-0.8h17.6l2,0.8H458.4z M453.2,256.6l-1.6-0.7h17l1.8,0.7H453.2z
		 M469,254.3l-1.5-0.6h16.2l1.6,0.6H469z M463.8,252.2l-1.3-0.5h15.7l1.4,0.5H463.8z M458.9,250.2l-1-0.4h15.3l1.1,0.4H458.9z
		 M454.2,248.3l-0.8-0.3h14.8l0.9,0.3H454.2z M468.5,246.5l-0.7-0.3h14.1l0.7,0.3H468.5z M463.8,244.7l-0.5-0.2h13.7l0.5,0.2H463.8z
		 M467.9,241.4l0.1,0h-13l-0.1,0H467.9z M455.1,243h-13.7l-0.3-0.1h13.7L455.1,243z M450.7,241.4l0.1,0h-13.3l-0.1,0H450.7z
		 M437.4,243h-14l-0.2-0.1h14L437.4,243z M433.4,241.4L433.4,241.4l-13.5,0l-0.1,0H433.4z M419.8,243h-14.3l-0.2-0.1h14.3L419.8,243
		z M416.2,241.4L416.2,241.4l-13.9,0l-0.1,0H416.2z M402.2,243h-14.6l-0.2-0.1H402L402.2,243z M398.9,241.4L398.9,241.4l-14.2,0
		l-0.1,0H398.9z M384.5,243h-15l-0.2-0.1h14.9L384.5,243z M381.7,241.4L381.7,241.4l-14.5,0l-0.1,0H381.7z M366.9,243h-15.2
		l-0.1-0.1h15.2L366.9,243z M364.4,241.4L364.4,241.4l-14.8,0l0,0H364.4z M349.2,243h-15.5l-0.1-0.1h15.5L349.2,243z M347.2,241.4
		L347.2,241.4l-15.1,0l0,0H347.2z M331.5,243h-15.8l-0.1-0.1h15.8L331.5,243z M329.9,241.4L329.9,241.4l-15.4,0l0,0H329.9z
		 M313.9,243h-16l-0.1-0.1h16L313.9,243z M312.6,241.4L312.6,241.4l-15.6,0l0,0H312.6z M296.2,243H280l0-0.1h16.1L296.2,243z
		 M295.3,241.4L295.3,241.4l-15.8,0l0,0H295.3z M279.5,246.5h-17.1l0-0.3h17L279.5,246.5z M279,244.7h-16.7l0-0.2h16.6L279,244.7z
		 M278.4,243h-16.3l0-0.1h16.2L278.4,243z M277.9,241.4L277.9,241.4l-15.9,0l0,0H277.9z M262.1,264h-21.2l0.2-1.1h21L262.1,264z
		 M261.9,261.4h-20.6l0.2-1h20.4L261.9,261.4z M261.8,258.9h-20l0.1-0.8h19.8L261.8,258.9z M261.6,256.6h-19.5l0.1-0.7h19.3
		L261.6,256.6z M261.5,254.3h-19l0.1-0.6h18.8L261.5,254.3z M261.3,252.2h-18.5l0.1-0.5h18.3L261.3,252.2z M244.7,241.4h15.9l0,0
		L244.7,241.4L244.7,241.4z M244.4,242.9h16.3l0,0.1h-16.3L244.4,242.9z M244.1,244.5h16.6l0,0.2h-16.7L244.1,244.5z M243.9,246.2
		h17l0,0.3h-17.1L243.9,246.2z M243.6,248H261l0,0.3h-17.5L243.6,248z M243.3,249.8h17.9l0,0.4h-18L243.3,249.8z M227.3,241.4h15.8
		l0,0L227.3,241.4L227.3,241.4z M226.7,242.9h16.2l0,0.1h-16.2L226.7,242.9z M226,244.5h16.6l0,0.2H226L226,244.5z M210,241.4h15.7
		l0,0L210,241.4L210,241.4z M209,242.9h16.1l0,0.1h-16.1L209,242.9z M192.7,241.4h15.5l0,0L192.7,241.4L192.7,241.4z M191.3,242.9
		h15.9l-0.1,0.1h-15.9L191.3,242.9z M175.4,241.4h15.3l0,0L175.4,241.4L175.4,241.4z M173.7,242.9h15.7l-0.1,0.1h-15.7L173.7,242.9z
		 M158.1,241.4h15l0,0L158.1,241.4L158.1,241.4z M156,242.9h15.4l-0.1,0.1h-15.4L156,242.9z M140.9,241.4h14.7l-0.1,0L140.9,241.4
		L140.9,241.4z M138.4,242.9h15.1l-0.1,0.1h-15.1L138.4,242.9z M123.6,241.4H138l-0.1,0L123.6,241.4L123.6,241.4z M120.8,242.9h14.8
		l-0.2,0.1h-14.8L120.8,242.9z M106.4,241.4h14.1l-0.1,0L106.4,241.4L106.4,241.4z M103.2,242.9h14.5l-0.2,0.1H103L103.2,242.9z
		 M89.1,241.4h13.8l-0.1,0L89.1,241.4L89.1,241.4z M99.7,242.9l-0.2,0.1H85.3l0.2-0.1H99.7z M71.9,241.4h13.5l-0.1,0L71.9,241.4
		L71.9,241.4z M81.8,242.9l-0.2,0.1H67.7l0.3-0.1H81.8z M54.6,241.4h13.2l-0.1,0H54.5L54.6,241.4z M63.9,242.9l-0.3,0.1H50.1
		l0.3-0.1H63.9z M37.4,241.4h12.8l-0.1,0H37.3L37.4,241.4z M45.9,242.9l-0.3,0.1H32.4l0.3-0.1H45.9z M20.1,241.4h12.5l-0.1,0H20
		L20.1,241.4z M28,242.9l-0.3,0.1H14.8l0.3-0.1H28z M2.8,241.4l0.1,0H15l-0.1,0H2.8z M9.9,244.5h13.2l-0.5,0.2H9.4L9.9,244.5z
		 M3.7,246.5l0.8-0.3h13.6l-0.8,0.3H3.7z M12.1,249.8h14.8l-1.2,0.4H10.8L12.1,249.8z M4.7,252.2l1.5-0.5h15.3l-1.4,0.5H4.7z
		 M14.5,255.8h16.6l-1.8,0.7H12.5L14.5,255.8z M6,258.9l2.3-0.8h17.1l-2.1,0.8H6z M17.4,262.9h18.6l-2.5,1.1H14.6L17.4,262.9z
		 M10.8,265.5H30l-2.9,1.2H7.6L10.8,265.5z M0.2,269.6l3.6-1.4h19.8l-3.2,1.4H0.2z M13.6,274.2h21.6l-3.7,1.8h-22L13.6,274.2z
		 M1.6,279.4l4.6-2h22.4l-4.1,2H1.6z M24.7,280.9h23.5l-4,2.2h-24L24.7,280.9z M17.1,284.6h24.4l-4.5,2.5H12L17.1,284.6z M3.2,291.4
		l5.7-2.7h25.3l-5,2.7H3.2z M29.6,292.9h26.6l-4.9,3.1H24L29.6,292.9z M21.2,297.4H49l-5.4,3.4H15L21.2,297.4z M5.4,306.1l6.9-3.8
		h28.9l-6,3.8H5.4z M35.6,307.6H66l-5.7,4.2H28.8L35.6,307.6z M26.5,313.3h31.8l-6.4,4.7H18.9L26.5,313.3z M8.2,324.9l8.4-5.3h33.3
		l-7.1,5.3H8.2z M43.2,326.4h35.2l-6.6,5.9H35.2L43.2,326.4z M33.1,333.8h36.9l-7.4,6.7H24.1L33.1,333.8z M12,349.4l10.2-7.5H61
		l-8.4,7.5H12z M43.7,359.4l9.5-8.5h41.3l-7.5,8.5H43.7z M89,359.4l7.5-8.5h41.5l-5.4,8.5H89z M134.2,359.4l5.4-8.5h41.7l-3.4,8.5
		H134.2z M223.4,359.4h-43.8l3.4-8.5h41.8L223.4,359.4z M224.9,359.4l1.4-8.5h41.9l0.6,8.5H224.9z M268.5,333.8h37.8l2,6.7h-39.4
		L268.5,333.8z M269.1,341.9h39.7l2.3,7.5h-41.5L269.1,341.9z M270.3,359.4l-0.6-8.5h41.8l2.6,8.5H270.3z M315.7,359.4l-2.6-8.5
		h41.7l4.6,8.5H315.7z M361.1,359.4l-4.6-8.5h41.6l6.6,8.5H361.1z M406.6,359.4l-6.6-8.5h41.4l8.6,8.5H406.6z M495.3,359.4h-43.1
		l-8.6-8.5h41.1L495.3,359.4z M482.7,349.4H442l-7.6-7.5h39L482.7,349.4z M471.4,340.4h-38.6l-6.8-6.7h37L471.4,340.4z M461.2,332.3
		h-36.7l-6-5.9h35.3L461.2,332.3z M488.9,324.9h-34.6l-6.6-5.3h33.4L488.9,324.9z M478.8,318.1h-33l-5.9-4.7h31.9L478.8,318.1z
		 M469.5,311.8H438l-5.3-4.2h30.6L469.5,311.8z M493.6,306.1h-29.9l-5.7-3.8h29L493.6,306.1z M484.4,300.8h-28.7l-5.1-3.4h27.8
		L484.4,300.8z M475.9,295.9h-27.5l-4.6-3.1h26.8L475.9,295.9z M497.2,291.4h-26.1l-4.7-2.7h25.5L497.2,291.4z M488.8,287.1h-25.1
		l-4.3-2.5H484L488.8,287.1z M481,283.1h-24.2l-3.8-2.2h23.6L481,283.1z M500,279.4h-23l-3.9-2h22.5L500,279.4z M488.4,274.2
		l3.9,1.8h-22.1l-3.5-1.8H488.4z M481.6,271.1l3.5,1.6h-21.4l-3.1-1.6H481.6z M492.1,265.5l3,1.2h-19.6l-2.7-1.2H492.1z
		 M485.8,262.9l2.7,1.1h-19l-2.4-1.1H485.8z M495.3,258.1l2.2,0.8h-17.4l-2-0.8H495.3z M489.3,255.8l1.9,0.7h-16.9l-1.8-0.7H489.3z
		 M498,251.7l1.5,0.5H484l-1.4-0.5H498z M492.4,249.8l1.2,0.4h-15l-1.1-0.4H492.4z M487.1,248l1,0.3h-14.6l-0.9-0.3H487.1z
		 M495,244.5l0.6,0.2h-13.4l-0.5-0.2H495z M490.3,243h-13l-0.3-0.1h13L490.3,243z"/>
</g>
</svg>
